<?xml version="1.0" standalone="no"?>
<!DOCTYPE svg PUBLIC "-//W3C//DTD SVG 20010904//EN"
 "http://www.w3.org/TR/2001/REC-SVG-20010904/DTD/svg10.dtd">
<svg version="1.0" xmlns="http://www.w3.org/2000/svg"
 width="1400.000000pt" height="350.000000pt" viewBox="0 0 1400.000000 350.000000"
 preserveAspectRatio="xMidYMid meet">

<g transform="translate(0.000000,350.000000) scale(0.100000,-0.100000)"
fill="#000000" stroke="none">
<path d="M8300 3410 c-6 -10 -13 -40 -17 -65 -4 -34 -9 -45 -20 -41 -8 4 -16
6 -18 6 -2 0 -1 8 2 18 12 48 -82 44 -108 -4 -21 -40 -49 -25 -49 27 0 26 -36
25 -43 -1 -8 -30 -27 -24 -33 10 -4 17 -12 30 -19 30 -22 0 -28 -55 -11 -89
15 -27 19 -29 43 -20 18 7 30 6 37 -1 5 -5 23 -10 38 -10 15 0 28 -5 28 -11 0
-7 11 -9 33 -4 75 15 120 17 143 4 18 -9 30 -10 49 -1 33 15 68 15 82 1 27
-27 83 28 83 80 0 18 -5 20 -32 15 -42 -8 -78 -30 -78 -48 0 -17 -51 -28 -67
-14 -7 6 -13 23 -13 39 0 26 4 29 33 30 32 0 81 16 62 20 -5 1 -28 2 -50 3
-33 1 -41 5 -43 24 -4 27 -18 28 -32 2z m-107 -121 c-16 -16 -32 -3 -26 22 5
19 7 19 21 5 12 -12 13 -19 5 -27z m282 21 c-3 -5 -11 -10 -16 -10 -6 0 -7 5
-4 10 3 6 11 10 16 10 6 0 7 -4 4 -10z"/>
<path d="M7550 3409 c0 -7 -14 -8 -40 -4 -43 7 -38 13 -55 -69 -3 -13 -12 -26
-20 -30 -12 -4 -15 3 -15 29 0 36 -7 41 -55 36 -25 -2 -75 -50 -75 -72 0 -27
26 -42 57 -33 32 8 75 14 117 14 16 0 37 5 48 11 15 8 24 7 37 -5 20 -19 44
-20 72 -5 13 7 24 7 32 1 8 -7 30 -7 65 0 61 12 72 33 12 25 -27 -3 -43 -1
-51 9 -9 11 -6 14 17 14 16 1 40 7 54 15 23 14 21 14 -32 8 -63 -6 -80 9 -32
28 37 13 27 19 -39 21 -32 1 -57 6 -57 10 0 4 -9 8 -20 8 -11 0 -20 -5 -20
-11z m68 -69 c-6 -22 -14 -40 -18 -40 -11 0 -20 26 -20 56 0 19 5 24 24 24 23
0 23 -2 14 -40z m-88 22 c0 -5 -7 -17 -15 -28 -14 -18 -14 -18 -15 9 0 17 5
27 15 27 8 0 15 -4 15 -8z m-160 -36 c0 -8 -6 -19 -14 -25 -18 -15 -27 6 -14
32 10 19 28 14 28 -7z"/>
<path d="M7808 3379 c-13 -7 -18 -23 -18 -59 0 -28 3 -50 8 -50 17 1 30 17 37
48 8 37 25 43 25 10 1 -38 25 -61 55 -54 23 6 25 9 13 23 -7 9 -18 32 -23 52
-9 32 -15 36 -45 38 -19 2 -43 -2 -52 -8z"/>
<path d="M8570 3371 c0 -10 -7 -22 -16 -25 -16 -6 -12 -40 7 -60 13 -14 39 13
39 41 0 25 4 28 63 38 60 10 43 25 -28 25 -57 0 -65 -2 -65 -19z"/>
<path d="M6820 3179 c-183 -8 -432 -43 -495 -69 -11 -4 -40 -13 -65 -20 -113
-30 -241 -75 -310 -107 -145 -67 -165 -77 -180 -88 -8 -7 -35 -23 -60 -36 -80
-43 -194 -131 -295 -229 l-61 -58 -104 -12 c-58 -6 -143 -18 -189 -26 -46 -8
-88 -14 -93 -14 -5 0 -36 -28 -69 -62 -64 -67 -124 -173 -158 -278 -12 -36
-25 -74 -30 -85 -19 -44 -31 -105 -41 -222 -13 -155 -13 -250 1 -330 10 -58
15 -67 68 -115 99 -91 239 -133 413 -123 54 3 80 0 85 -8 7 -10 23 -217 24
-300 0 -23 4 -27 30 -27 17 0 55 14 85 30 50 28 55 29 61 13 17 -46 195 -243
220 -243 6 0 16 -6 20 -13 4 -7 28 -29 53 -48 25 -18 47 -37 50 -40 9 -11 149
-100 203 -128 29 -15 61 -32 72 -38 11 -7 58 -26 105 -43 47 -17 108 -40 135
-51 158 -64 391 -121 545 -133 30 -2 78 -9 105 -15 28 -5 82 -13 120 -16 39
-4 103 -10 143 -13 61 -6 72 -5 73 8 1 8 2 60 3 115 l1 100 45 -2 c61 -3 338
43 425 71 38 13 90 29 115 36 25 8 50 17 55 20 6 4 42 20 80 36 64 26 113 54
187 105 15 11 32 19 38 19 5 0 10 4 10 9 0 5 10 13 22 17 12 3 28 13 36 20 8
8 30 27 50 41 104 77 263 230 306 293 50 74 116 179 116 185 0 3 11 22 23 43
19 29 43 86 52 122 1 3 4 12 7 20 3 8 12 36 18 63 11 41 16 47 39 47 244 3
443 22 497 47 37 18 84 81 84 112 0 11 4 31 10 45 6 17 6 46 -1 83 -22 129
-71 175 -204 193 -33 5 -80 12 -105 15 -25 3 -65 10 -90 15 -25 5 -90 9 -144
9 -55 0 -104 5 -109 10 -5 5 -13 40 -17 78 -10 88 -24 123 -49 123 -11 0 -23
-5 -27 -12 -5 -7 -11 -5 -21 8 -36 50 -116 138 -203 224 -94 94 -260 230 -280
230 -5 0 -10 4 -10 8 0 5 -12 15 -27 23 -16 8 -30 16 -33 19 -23 23 -298 160
-322 160 -10 0 -18 4 -18 8 0 6 -82 35 -140 49 -33 8 -159 24 -232 30 l-77 5
-22 -46 c-11 -25 -25 -46 -30 -46 -5 0 -9 37 -9 83 0 89 -8 111 -33 101 -16
-6 -66 -79 -81 -119 -7 -20 -8 -20 -22 -1 -8 11 -14 27 -14 36 0 28 -24 70
-40 70 -17 0 -90 -66 -90 -82 0 -5 -4 -7 -8 -4 -5 3 -9 24 -10 46 -1 23 -4 45
-7 50 -8 13 -62 15 -205 9z m315 -149 c11 -83 13 -89 35 -83 11 3 20 9 20 13
0 5 6 15 13 22 6 7 23 33 36 58 35 65 41 69 41 25 0 -75 12 -145 25 -145 14 0
87 76 105 109 11 21 17 22 68 17 77 -7 116 -15 187 -36 33 -10 94 -27 135 -39
41 -12 83 -26 92 -31 10 -6 23 -10 29 -10 7 0 33 -13 58 -29 26 -15 57 -32 70
-36 13 -4 42 -20 66 -36 24 -16 47 -29 53 -29 5 0 16 -7 23 -16 7 -9 36 -31
64 -48 28 -18 57 -39 65 -47 8 -8 31 -26 50 -39 19 -14 44 -34 56 -45 12 -11
48 -45 80 -76 137 -129 190 -218 159 -266 -15 -22 -14 -25 17 -51 18 -15 46
-39 62 -54 16 -16 34 -29 40 -29 11 -2 -12 -5 -179 -29 -251 -36 -237 -32
-287 -84 -53 -55 -98 -149 -98 -205 0 -96 64 -149 212 -175 42 -7 80 -16 86
-19 5 -4 65 -7 133 -7 153 -1 194 -7 178 -26 -6 -7 -8 -17 -6 -21 5 -8 -7 -59
-32 -141 -6 -19 -16 -41 -22 -49 -7 -8 -26 -41 -43 -73 -71 -135 -112 -187
-261 -331 -83 -80 -173 -158 -200 -174 -47 -26 -60 -35 -124 -78 -14 -9 -42
-24 -61 -33 -31 -14 -51 -23 -125 -55 -11 -4 -45 -16 -75 -25 -30 -8 -64 -20
-75 -24 -116 -50 -305 -77 -494 -71 l-24 1 5 108 5 107 -191 -2 c-584 -8 -658
-6 -752 16 -49 12 -111 26 -139 32 -56 12 -152 43 -205 66 -19 8 -44 18 -55
22 -34 13 -179 85 -191 96 -7 6 -46 35 -88 65 -41 30 -76 60 -76 67 0 10 59
37 130 58 32 10 50 24 50 40 0 21 -79 59 -150 73 -36 8 -69 18 -75 23 -5 5
-18 9 -29 9 -16 0 -18 2 -7 13 8 8 60 12 179 13 432 3 472 5 506 25 17 10 39
19 49 19 25 0 92 47 104 73 16 33 31 80 32 97 0 26 17 131 42 260 37 195 28
470 -19 568 -29 60 -28 59 -102 100 -65 35 -193 70 -330 88 -72 10 -156 25
-187 35 l-32 10 37 32 c20 18 42 37 47 43 33 37 212 134 325 177 223 85 368
109 645 106 l199 -2 28 33 c15 19 28 39 28 44 0 5 10 24 22 42 26 38 35 31 43
-36z m-1300 -500 c331 -30 487 -89 539 -203 21 -45 25 -73 30 -212 4 -100 2
-190 -5 -240 -6 -44 -12 -89 -14 -100 -1 -11 -5 -36 -9 -55 -3 -19 -8 -51 -11
-70 -12 -106 -49 -240 -65 -240 -5 0 -15 -6 -22 -13 -14 -13 -95 -36 -151 -43
-18 -2 -156 -6 -307 -9 -151 -3 -293 -7 -315 -10 -55 -6 -102 8 -161 50 -27
19 -56 35 -65 35 -25 0 -49 -33 -42 -58 5 -22 3 -22 -91 -22 -144 0 -243 26
-331 86 -88 60 -107 104 -110 241 -1 59 2 128 6 154 4 26 9 80 10 119 2 63 14
127 32 170 3 8 16 46 28 84 32 102 83 196 131 243 50 48 111 71 206 78 37 3
85 8 107 10 22 3 85 8 140 11 55 3 101 7 103 9 6 6 247 -4 367 -15z m3220
-451 c192 -19 259 -27 285 -34 35 -11 79 -53 97 -95 20 -45 22 -165 3 -210
-13 -34 -62 -90 -77 -90 -5 0 -35 -5 -68 -10 -65 -11 -495 -14 -635 -5 -87 6
-105 8 -201 24 -56 9 -148 51 -168 75 -22 26 -25 104 -6 153 49 132 180 191
439 199 77 2 142 6 145 9 3 3 21 3 41 0 19 -3 85 -10 145 -16z m-1801 -1446
c-10 -116 -12 -160 -13 -251 l-1 -92 -37 15 c-21 9 -39 20 -41 25 -2 6 -9 10
-16 10 -7 0 -21 9 -31 20 -10 11 -22 20 -26 20 -10 0 -128 80 -135 92 -3 4 8
16 25 26 17 9 31 20 31 25 0 4 5 7 10 7 6 0 33 17 60 38 85 64 167 121 177
122 2 0 0 -26 -3 -57z"/>
<path d="M5822 2120 c-19 -4 -37 -12 -42 -16 -4 -5 -5 -75 -2 -156 l5 -148 84
0 c63 0 84 3 81 13 -3 7 -27 13 -61 15 l-57 3 0 39 c0 37 2 40 29 40 29 0 57
21 44 33 -3 4 -21 7 -39 7 -38 0 -44 12 -44 85 0 46 3 55 21 60 13 4 25 2 29
-5 6 -9 12 -9 29 0 50 26 -5 48 -77 30z"/>
<path d="M5425 2108 c-10 -6 -30 -22 -43 -35 -21 -21 -23 -28 -15 -75 4 -29 4
-86 -1 -130 -5 -43 -6 -81 -2 -85 15 -15 41 15 44 51 4 47 17 46 42 -4 21 -41
91 -120 106 -120 5 0 16 5 24 10 13 9 12 13 -5 28 -32 27 -93 115 -100 144 -5
21 -3 27 14 33 33 10 81 72 81 105 0 40 -51 90 -93 90 -18 0 -41 -6 -52 -12z
m70 -39 c19 -17 35 -39 35 -50 0 -27 -58 -89 -85 -89 -20 0 -23 6 -28 72 -9
104 13 123 78 67z"/>
<path d="M6120 2110 c-19 -4 -55 -11 -80 -14 -25 -4 -52 -11 -60 -16 -13 -8
-12 -11 5 -24 17 -13 22 -13 36 0 32 29 42 17 35 -38 -16 -130 -18 -195 -7
-202 17 -11 54 4 43 17 -5 7 -4 62 1 128 l10 117 40 8 c22 5 42 15 45 22 4 13
-15 14 -68 2z"/>
<path d="M5654 2102 c-16 -10 -28 -288 -13 -298 28 -17 38 21 41 160 3 135 -1
156 -28 138z"/>
<path d="M5209 2087 c-9 -7 -18 -26 -21 -42 -3 -17 -19 -62 -36 -102 -37 -86
-51 -163 -31 -163 25 0 41 17 39 41 -4 45 -1 49 40 49 43 0 41 3 58 -85 6 -30
13 -40 27 -40 23 0 23 8 5 150 -14 113 -26 158 -48 184 -14 17 -20 18 -33 8z
m21 -91 c0 -13 3 -38 6 -55 6 -30 5 -31 -26 -31 -30 0 -32 2 -26 28 17 70 46
106 46 58z"/>
<path d="M6314 2083 c-11 -33 -35 -83 -40 -83 -2 0 -18 16 -35 35 -31 35 -53
44 -64 25 -6 -10 25 -59 61 -95 13 -13 14 -21 6 -38 -21 -45 -52 -126 -52
-136 0 -6 8 -11 18 -11 11 0 25 19 40 58 13 31 44 100 68 152 24 52 44 98 44
103 0 15 -41 6 -46 -10z"/>
<path d="M4901 2066 c-9 -11 -6 -25 16 -62 36 -62 46 -84 73 -162 19 -53 26
-63 44 -60 14 2 20 9 19 23 -3 26 43 199 63 237 9 16 13 32 10 35 -8 8 -36 -5
-40 -19 -17 -65 -52 -168 -57 -168 -3 0 -20 34 -38 75 -30 67 -60 115 -73 115
-3 0 -11 -6 -17 -14z"/>
<path d="M8834 1969 c-9 -15 12 -33 30 -26 9 4 16 13 16 22 0 17 -35 21 -46 4z"/>
<path d="M9092 1958 c-27 -34 -43 -160 -21 -173 16 -11 59 4 59 20 0 8 -4 15
-10 15 -15 0 -12 99 4 115 7 8 16 11 19 8 9 -8 57 6 57 17 0 15 -96 12 -108
-2z"/>
<path d="M8503 1933 c-7 -2 -13 -10 -13 -16 -1 -7 -14 -28 -31 -47 -24 -29
-32 -33 -47 -24 -9 6 -17 22 -17 34 -1 32 -19 36 -45 10 l-22 -22 35 -37 c19
-20 39 -45 45 -55 9 -19 11 -18 36 9 14 15 26 35 26 44 0 10 16 32 35 51 47
45 45 73 -2 53z"/>
<path d="M8937 1896 c-12 -13 -30 -35 -40 -50 -24 -34 -36 -33 -44 5 -6 30
-27 48 -40 35 -12 -11 -3 -80 12 -95 12 -12 20 -12 54 1 34 14 42 14 52 2 14
-18 68 -18 92 0 24 19 21 29 -7 22 -31 -8 -41 5 -14 18 12 6 23 17 26 24 3 10
-4 12 -32 7 -28 -6 -36 -4 -36 8 0 8 9 17 21 20 12 3 18 10 14 16 -10 18 -35
12 -58 -13z"/>
<path d="M8690 1891 c-11 -22 -13 -71 -4 -95 10 -26 44 -1 44 33 0 25 5 30 36
35 44 9 41 32 -4 28 -18 -2 -32 1 -32 7 0 18 -29 12 -40 -8z"/>
<path d="M8553 1884 c-35 -17 -46 -45 -33 -80 8 -20 16 -23 62 -22 67 0 88 6
88 23 0 8 -6 12 -14 9 -14 -5 -18 1 -30 59 -7 31 -26 34 -73 11z m27 -33 c0
-11 -4 -23 -10 -26 -6 -4 -10 5 -10 19 0 14 5 26 10 26 6 0 10 -9 10 -19z"/>
<path d="M9162 1878 c-31 -31 -2 -86 38 -73 20 6 21 4 14 -32 -9 -52 -10 -53
-44 -40 -23 9 -33 8 -42 -1 -17 -17 1 -32 48 -39 61 -8 80 15 86 105 5 65 3
72 -13 72 -10 0 -21 -9 -24 -21 -8 -24 -29 -20 -33 7 -6 28 -16 36 -30 22z"/>
<path d="M4131 2346 c-12 -14 -18 -117 -7 -134 6 -11 16 -10 54 5 18 7 70 14
112 14 14 1 30 5 36 10 7 6 18 2 29 -11 14 -16 26 -19 52 -14 21 4 33 2 33 -5
0 -14 37 -14 45 0 4 5 0 18 -8 27 -7 9 -17 25 -20 34 -5 15 -10 16 -32 6 -14
-6 -25 -16 -25 -22 -1 -6 -7 0 -14 14 -11 20 -22 25 -53 25 -32 0 -39 -4 -41
-22 -5 -32 -34 -29 -49 4 -10 21 -10 29 0 41 10 13 6 14 -36 8 -43 -7 -47 -6
-47 13 0 24 -12 27 -29 7z m62 -68 c6 -22 -7 -48 -24 -48 -5 0 -9 16 -9 35 0
40 24 49 33 13z"/>
<path d="M3785 2324 c-48 -25 -49 -36 -3 -77 43 -39 43 -39 13 -33 -16 3 -36
2 -44 -3 -12 -8 -11 -12 4 -27 17 -17 19 -17 63 7 25 13 47 29 49 34 2 6 -15
24 -37 40 -44 33 -50 45 -20 45 11 0 20 7 20 15 0 19 -8 19 -45 -1z"/>
<path d="M4032 2307 c-26 -28 -28 -50 -6 -68 14 -12 13 -14 -7 -21 -16 -6 -19
-12 -11 -20 8 -8 20 -7 44 2 52 21 56 29 26 55 -31 27 -34 35 -14 35 15 0 28
24 19 34 -12 12 -30 6 -51 -17z"/>
<path d="M3892 2248 c3 -38 6 -43 26 -40 17 3 22 -1 21 -20 0 -13 -3 -17 -6
-11 -3 9 -10 10 -24 3 -15 -9 -17 -15 -9 -30 14 -26 26 -25 55 5 21 20 25 34
25 80 0 43 -3 55 -15 55 -9 0 -20 -10 -25 -22 l-9 -23 0 23 c-1 15 -7 22 -22
22 -18 0 -20 -5 -17 -42z"/>
<path d="M4443 2088 c-24 -12 -38 -48 -18 -48 7 0 16 7 19 16 6 15 8 15 26 -1
26 -24 26 -61 0 -68 -10 -3 -27 -21 -37 -41 -21 -45 -49 -48 -55 -6 -3 18 1
35 11 45 14 13 13 15 -11 15 -15 0 -39 5 -53 12 -22 10 -27 9 -40 -8 -8 -10
-15 -29 -15 -41 0 -37 -11 -53 -36 -53 -20 0 -24 5 -24 30 0 20 -5 30 -15 30
-24 0 -72 -27 -78 -45 -4 -8 -11 -15 -18 -15 -8 0 -9 18 -4 60 5 39 3 60 -3
60 -17 0 -42 -30 -48 -58 -11 -45 -44 -73 -44 -37 0 25 -36 17 -50 -12 l-14
-28 -4 28 c-4 32 -17 35 -32 8 -14 -28 -13 -58 4 -64 16 -6 102 17 121 33 9 7
16 6 25 -5 7 -9 20 -15 29 -13 9 1 22 -1 28 -5 7 -5 46 -4 85 1 40 5 126 8
191 7 146 -2 152 1 152 83 -1 49 -5 66 -28 96 -30 39 -32 40 -64 24z m55 -145
c-2 -14 -8 -28 -14 -30 -17 -6 -26 27 -13 43 18 22 31 16 27 -13z m-161 -8 c8
-22 -6 -33 -17 -15 -13 20 -12 30 0 30 6 0 13 -7 17 -15z m-167 -15 c0 -11 -7
-20 -15 -20 -18 0 -19 12 -3 28 16 16 18 15 18 -8z"/>
<path d="M3572 1961 c-9 -5 -11 -22 -7 -56 6 -56 8 -60 31 -51 12 5 15 14 10
37 -4 21 -1 31 10 36 21 8 28 -2 16 -23 -14 -25 3 -54 31 -54 34 0 67 11 67
22 0 6 -6 8 -14 5 -8 -3 -22 0 -32 8 -17 12 -16 14 19 20 51 10 63 30 13 22
-34 -5 -38 -4 -33 13 4 17 0 20 -33 20 -21 0 -44 2 -52 5 -7 3 -19 1 -26 -4z"/>
<path d="M3790 1934 c-43 -37 -39 -78 8 -82 22 -2 32 -8 32 -20 0 -30 -14 -41
-49 -39 -42 2 -48 -12 -15 -37 25 -18 27 -18 52 1 38 28 52 60 52 124 0 82
-25 99 -80 53z m40 -22 c0 -26 -11 -34 -27 -21 -10 9 -10 15 -2 25 16 19 29
17 29 -4z"/>
<path d="M10351 1848 c-5 -13 -13 -41 -17 -63 -10 -45 -42 -61 -51 -26 -6 25
-20 27 -45 4 -17 -15 -18 -15 -18 1 0 31 -43 16 -47 -16 -2 -16 0 -28 4 -29
50 -4 103 -3 124 2 19 5 29 2 36 -11 8 -12 20 -15 42 -12 31 4 44 22 16 22
-12 0 -15 15 -15 75 0 75 -12 97 -29 53z"/>
<path d="M10605 1844 c-11 -15 -25 -43 -30 -63 -8 -26 -17 -37 -33 -39 -19 -3
-22 1 -22 28 0 27 -3 31 -22 28 -13 -2 -24 -9 -24 -15 -1 -7 -2 -20 -3 -28 0
-8 -6 -15 -12 -15 -6 0 -9 9 -6 20 6 25 -5 26 -27 1 -25 -28 -7 -61 29 -51 31
9 113 8 131 -1 16 -8 28 -7 50 5 27 14 28 15 6 16 -21 0 -23 4 -20 38 3 36 4
37 50 42 65 8 72 20 11 20 -46 0 -51 2 -46 20 7 28 -9 25 -32 -6z"/>
<path d="M10880 1821 c-19 -3 -44 -11 -54 -17 -19 -11 -19 -13 -2 -48 11 -23
24 -36 37 -36 25 0 35 25 19 45 -16 19 -10 26 30 34 17 3 31 11 31 16 0 12
-16 14 -61 6z"/>
<path d="M9978 1803 c7 -3 16 -2 19 1 4 3 -2 6 -13 5 -11 0 -14 -3 -6 -6z"/>
<path d="M9807 1750 c-26 -48 -20 -70 9 -32 11 14 13 15 14 2 0 -29 20 -39 52
-28 21 8 33 7 41 -1 14 -14 84 -15 92 -1 3 6 19 10 34 10 15 0 32 5 38 11 18
18 33 0 33 -40 0 -30 -5 -40 -25 -51 -22 -12 -27 -11 -45 5 -23 21 -47 8 -37
-19 11 -29 105 -9 137 29 14 17 7 102 -9 118 -5 5 -7 16 -4 23 4 10 -4 14 -27
14 -35 0 -90 -46 -90 -75 0 -12 -5 -15 -16 -11 -9 3 -27 9 -40 12 -13 3 -21
10 -18 16 3 5 12 7 19 4 7 -2 21 2 32 9 17 13 16 14 -9 15 -22 0 -28 5 -28 23
0 20 -5 17 -41 -20 -42 -45 -55 -53 -45 -28 8 21 -10 65 -27 65 -7 0 -25 -22
-40 -50z"/>
<path d="M10696 1768 c-22 -44 -20 -57 11 -64 45 -12 88 32 72 74 -14 36 -63
30 -83 -10z m49 -28 c0 -7 -6 -15 -12 -17 -8 -3 -13 4 -13 17 0 13 5 20 13 18
6 -3 12 -11 12 -18z"/>
<path d="M8234 312 c-25 -16 -34 -56 -34 -146 0 -79 -3 -96 -15 -96 -16 0 -21
-25 -6 -35 15 -9 59 16 64 36 3 10 3 37 0 59 -6 44 4 51 27 20 15 -21 54 -27
65 -11 3 5 -7 23 -22 40 -21 22 -32 28 -43 21 -34 -22 -43 -12 -36 37 3 26 11
52 16 57 20 20 8 34 -16 18z"/>
<path d="M8007 283 c-9 -8 -9 -116 -1 -137 7 -18 49 -22 60 -5 3 6 17 8 30 5
28 -7 74 2 74 15 0 5 -7 9 -15 9 -8 0 -19 9 -25 20 -6 11 -15 20 -21 20 -16 0
-39 -27 -39 -44 0 -9 -4 -16 -10 -16 -15 0 -27 61 -19 97 3 18 4 34 1 37 -7 8
-27 7 -35 -1z"/>
<path d="M8305 260 c-8 -13 15 -13 35 0 12 8 11 10 -7 10 -12 0 -25 -4 -28
-10z"/>
<path d="M8401 244 c-25 -20 -31 -34 -31 -63 0 -31 5 -40 25 -49 35 -16 67
-15 91 3 18 14 17 14 -14 15 -18 0 -40 7 -48 15 -13 13 -10 15 25 21 48 8 43
28 -5 22 -36 -4 -46 8 -16 19 32 12 44 25 30 34 -19 13 -24 11 -57 -17z"/>
<path d="M8540 244 c-13 -33 -13 -71 1 -95 15 -29 39 -6 39 37 0 35 0 35 69
60 21 7 11 11 -47 17 -50 6 -53 5 -62 -19z"/>
<path d="M8100 250 c0 -5 6 -10 14 -10 8 0 18 5 21 10 3 6 -3 10 -14 10 -12 0
-21 -4 -21 -10z"/>
<path d="M7554 240 c-39 -15 -89 -95 -78 -124 6 -17 135 -16 156 2 8 6 17 9
21 6 3 -3 14 -1 26 5 13 7 22 8 26 1 11 -18 34 -10 48 16 l14 27 7 -27 c5 -19
13 -26 31 -26 27 0 44 19 26 29 -7 4 -15 21 -20 37 -6 23 -13 28 -32 26 -13
-1 -27 -8 -31 -15 -6 -9 -10 -9 -20 1 -31 31 -84 3 -76 -40 4 -19 0 -23 -25
-25 l-30 -2 6 59 c7 65 1 71 -49 50z m21 -20 c3 -5 0 -19 -6 -32 -7 -13 -15
-30 -19 -38 -4 -8 -13 -15 -21 -15 -22 0 -22 39 1 68 23 28 35 33 45 17z"/>
<path d="M7910 220 c-8 -5 -26 -10 -39 -10 -23 0 -24 -1 -16 -72 3 -40 8 -75
11 -77 9 -9 34 24 34 45 0 18 5 24 23 24 36 0 60 32 52 69 -7 33 -34 41 -65
21z m30 -51 c0 -6 -4 -7 -10 -4 -5 3 -10 11 -10 16 0 6 5 7 10 4 6 -3 10 -11
10 -16z"/>
</g>
</svg>
