<?xml version="1.0" standalone="no"?>
<!DOCTYPE svg PUBLIC "-//W3C//DTD SVG 20010904//EN"
 "http://www.w3.org/TR/2001/REC-SVG-20010904/DTD/svg10.dtd">
<svg version="1.0" xmlns="http://www.w3.org/2000/svg"
 width="220.000000pt" height="145.000000pt" viewBox="0 0 220.000000 145.000000"
 preserveAspectRatio="xMidYMid meet">

<g transform="translate(0.000000,145.000000) scale(0.100000,-0.100000)"
fill="#000000" stroke="none">
<path d="M155 1401 c-140 -65 -167 -247 -52 -348 79 -69 182 -69 270 -1 21 16
41 28 45 26 4 -2 40 -23 80 -48 70 -43 73 -46 65 -75 -4 -16 -7 -58 -8 -92 0
-52 4 -68 30 -104 37 -52 82 -80 154 -94 l55 -11 24 -104 c18 -76 21 -105 13
-108 -34 -11 -99 -73 -118 -112 -85 -167 91 -357 265 -284 73 30 131 110 132
181 0 35 -9 32 130 53 94 14 95 14 115 -29 67 -150 270 -164 363 -25 32 46 34
53 30 121 -3 56 -9 79 -27 104 l-23 31 60 61 60 60 44 -22 c89 -42 190 -21
256 53 99 112 42 289 -105 332 -58 17 -96 13 -154 -17 -35 -17 -83 -65 -91
-90 -2 -7 -30 0 -81 21 l-77 33 0 57 c0 112 -77 199 -184 208 -121 10 -212
-63 -232 -187 -7 -45 4 -40 -141 -61 -39 -5 -76 -10 -80 -10 -5 0 -14 15 -21
33 -15 42 -67 96 -109 113 -42 18 -125 18 -166 0 -18 -7 -45 -25 -60 -40 l-28
-26 -80 51 c-68 44 -80 55 -75 73 4 12 9 42 12 67 21 155 -148 276 -291 210z
m130 -12 c87 -24 137 -91 137 -181 -1 -102 -79 -178 -182 -178 -123 0 -208
109 -179 226 15 58 71 117 125 132 52 13 53 13 99 1z m1167 -239 c105 -29 164
-149 123 -247 -33 -79 -97 -117 -186 -111 -184 13 -233 255 -70 340 58 31 77
33 133 18z m-616 -109 c94 -43 135 -166 86 -256 -5 -11 -23 -32 -39 -47 -75
-71 -190 -64 -260 15 -86 98 -54 239 67 291 47 20 97 19 146 -3z m1204 -111
c124 -63 135 -240 21 -316 -101 -66 -233 -23 -277 91 -58 153 109 300 256 225z
m-818 -60 c33 -59 94 -98 165 -107 l50 -5 23 -97 c12 -53 24 -100 27 -106 2
-5 -18 -21 -44 -35 -56 -30 -99 -92 -108 -159 l-6 -47 -97 -12 c-128 -16 -129
-16 -136 12 -15 62 -94 122 -176 133 l-53 8 -25 104 c-27 115 -29 106 37 143
43 23 81 86 88 145 l5 50 77 10 c144 19 142 19 173 -37z m491 -27 c37 -15 37
-16 37 -73 0 -41 7 -70 24 -101 l23 -45 -56 -63 -56 -63 -37 21 c-20 12 -58
24 -86 28 l-50 6 -22 91 c-12 50 -24 98 -26 107 -3 10 8 21 30 31 19 9 51 37
72 62 l37 45 36 -15 c20 -9 53 -22 74 -31z m-84 -343 c73 -37 109 -110 97
-195 -13 -80 -104 -155 -192 -155 -36 0 -118 49 -143 85 -48 71 -36 182 25
237 57 51 146 63 213 28z m-635 -104 c69 -41 104 -124 85 -202 -25 -96 -128
-158 -222 -133 -209 55 -173 359 42 359 39 0 66 -7 95 -24z"/>
<path d="M214 1305 c-23 -23 -26 -32 -21 -73 5 -49 25 -72 62 -72 27 0 55 29
55 57 0 41 -60 69 -88 41 -9 -9 -12 -9 -12 3 0 26 37 52 65 47 16 -4 24 -1 22
6 -8 23 -56 18 -83 -9z m70 -77 c8 -14 7 -21 -6 -34 -30 -30 -75 9 -48 42 16
18 39 15 54 -8z"/>
<path d="M1370 1047 c0 -41 1 -42 31 -42 39 0 59 -26 39 -50 -9 -11 -25 -15
-47 -13 -20 3 -32 0 -30 -6 6 -19 67 -19 88 0 37 33 12 94 -39 94 -15 0 -22 6
-22 20 0 16 7 20 35 20 19 0 35 5 35 10 0 6 -20 10 -45 10 l-45 0 0 -43z"/>
<path d="M735 938 c-45 -68 -45 -78 5 -78 33 0 40 -3 40 -20 0 -11 5 -20 10
-20 6 0 10 9 10 19 0 11 6 22 13 25 10 5 10 7 0 12 -8 3 -13 26 -13 60 0 71
-18 71 -65 2z m42 -55 c-3 -2 -17 -3 -31 -1 l-25 3 27 42 27 43 3 -41 c2 -23
1 -43 -1 -46z"/>
<path d="M1933 873 c-21 -8 -14 -25 7 -18 19 6 20 2 20 -59 0 -59 -2 -66 -20
-66 -11 0 -20 -4 -20 -10 0 -5 23 -10 50 -10 28 0 50 5 50 10 0 6 -9 10 -20
10 -18 0 -20 7 -20 75 0 78 -5 85 -47 68z"/>
<path d="M1513 443 c-22 -8 -14 -25 8 -18 31 10 69 -3 69 -23 0 -10 -20 -38
-45 -62 -25 -24 -45 -48 -45 -52 0 -4 25 -8 55 -8 30 0 55 5 55 10 0 6 -17 10
-38 10 l-39 0 39 40 c41 44 47 69 22 94 -15 15 -55 20 -81 9z"/>
<path d="M867 344 c-14 -14 -7 -19 26 -19 25 0 32 -4 32 -20 0 -13 -8 -21 -22
-23 -32 -5 -28 -18 7 -25 21 -5 30 -12 30 -27 0 -22 -36 -36 -71 -27 -13 3
-19 1 -16 -6 2 -7 18 -13 36 -15 55 -6 93 47 56 78 -11 9 -12 16 -2 31 9 14 9
24 1 37 -11 17 -64 29 -77 16z"/>
</g>
</svg>
