<?xml version="1.0" standalone="no"?>
<!DOCTYPE svg PUBLIC "-//W3C//DTD SVG 20010904//EN"
 "http://www.w3.org/TR/2001/REC-SVG-20010904/DTD/svg10.dtd">
<svg version="1.0" xmlns="http://www.w3.org/2000/svg"
 width="850.000000pt" height="350.000000pt" viewBox="0 0 850.000000 350.000000"
 preserveAspectRatio="xMidYMid meet">

<g transform="translate(0.000000,350.000000) scale(0.100000,-0.100000)"
fill="#000000" stroke="none">
<path d="M1035 3363 c-26 -6 -122 -100 -140 -137 -22 -42 -19 -134 5 -183 31
-65 131 -133 194 -133 15 0 17 -6 11 -42 -4 -24 -11 -47 -15 -53 -4 -5 -10
-28 -12 -50 -3 -37 -1 -40 25 -43 25 -3 27 -7 27 -47 0 -24 4 -46 9 -50 5 -3
13 -41 17 -85 3 -44 10 -83 14 -85 5 -3 11 -40 15 -83 4 -42 11 -81 15 -87 4
-5 10 -28 13 -50 4 -22 13 -79 22 -127 8 -49 22 -125 30 -170 8 -46 17 -97 21
-115 5 -25 1 -39 -19 -65 -49 -66 -50 -193 -1 -239 13 -12 24 -28 24 -35 0 -7
-21 -30 -47 -51 -61 -49 -113 -94 -189 -166 -33 -31 -65 -57 -71 -57 -5 0 -33
-24 -61 -52 -28 -29 -64 -63 -80 -75 l-29 -22 -21 22 c-21 21 -22 21 -37 2 -8
-11 -15 -27 -15 -35 0 -8 -7 -28 -15 -44 -8 -15 -15 -35 -15 -42 0 -18 -5 -18
-43 2 -18 9 -40 21 -49 25 -26 13 -108 11 -151 -5 -38 -13 -64 -36 -124 -113
-30 -37 -33 -47 -33 -111 0 -50 4 -73 15 -82 8 -7 15 -18 15 -24 0 -16 78 -88
114 -107 37 -18 140 -17 188 2 48 19 85 54 106 99 24 50 24 196 -1 230 -24 34
-21 50 7 50 14 0 28 4 31 10 3 5 17 10 31 10 13 0 33 5 44 12 19 12 19 13 -2
35 -21 22 -21 23 -3 43 10 11 22 20 27 20 5 0 63 48 128 108 189 170 297 264
315 274 11 7 24 5 40 -6 13 -9 45 -16 70 -16 67 0 81 -11 89 -70 7 -53 24
-100 36 -100 4 0 13 7 20 15 9 11 16 12 31 2 10 -6 19 -16 19 -21 0 -9 56 -76
148 -173 28 -31 52 -59 52 -62 0 -4 20 -27 45 -51 25 -24 45 -48 45 -53 0 -6
43 -56 95 -112 52 -57 95 -107 95 -112 0 -5 25 -33 55 -63 30 -30 55 -60 55
-66 0 -7 20 -29 45 -50 25 -20 45 -42 45 -49 0 -7 7 -18 15 -25 21 -17 19 -60
-4 -84 -11 -12 -22 -32 -25 -46 -3 -14 -9 -37 -12 -52 -3 -15 -3 -36 1 -45 5
-10 7 -24 6 -32 -1 -7 8 -24 20 -37 12 -13 27 -33 33 -46 6 -12 34 -33 61 -47
28 -13 58 -28 67 -32 23 -12 95 -11 102 0 3 5 21 12 39 15 43 8 114 80 123
124 4 18 11 35 15 38 12 7 12 91 0 98 -5 3 -12 21 -15 40 -4 19 -14 37 -22 40
-13 5 -15 16 -9 59 4 28 11 57 15 62 4 6 12 30 18 55 19 79 33 134 42 155 16
40 29 81 36 115 3 19 10 41 14 50 9 17 27 84 40 150 6 25 14 54 19 65 10 21
29 92 38 139 5 27 8 28 44 22 34 -5 39 -4 39 13 0 11 -4 23 -10 26 -5 3 -10
24 -10 45 0 21 -4 50 -9 63 -11 28 0 37 45 37 49 0 111 43 143 100 23 39 27
171 7 211 -9 17 -16 37 -16 44 0 14 -62 75 -76 75 -6 0 -26 7 -44 16 -41 21
-145 14 -184 -11 -27 -18 -27 -18 -59 14 -18 17 -37 31 -41 31 -4 0 -38 29
-75 66 -36 36 -102 98 -145 138 -43 40 -76 78 -73 83 7 11 267 143 282 143 5
0 121 56 257 125 212 106 249 122 254 107 19 -63 57 -119 89 -133 11 -5 27
-13 35 -17 47 -27 65 -32 114 -32 67 0 169 44 186 80 42 86 51 156 29 234 -15
53 -87 128 -138 144 -49 14 -137 16 -146 2 -3 -5 -14 -10 -23 -10 -10 0 -43
-26 -74 -57 -42 -42 -60 -69 -65 -97 l-9 -40 -254 -128 c-140 -70 -259 -128
-263 -128 -5 0 -76 -34 -159 -75 -83 -41 -158 -75 -168 -75 -10 0 -36 17 -59
38 -22 20 -82 73 -132 117 -50 44 -117 106 -149 138 -32 31 -62 57 -66 57 -4
0 -42 33 -84 73 -42 39 -110 101 -151 137 -41 36 -108 98 -150 138 -41 39 -80
72 -86 72 -5 0 -18 9 -28 20 -18 20 -18 21 3 43 29 31 28 34 -10 42 -18 3 -42
10 -53 15 -11 5 -37 11 -57 15 -32 5 -38 10 -38 31 0 13 -4 32 -9 42 -5 9 -14
31 -21 48 -6 17 -29 48 -51 69 -38 38 -40 39 -126 41 -49 2 -97 0 -108 -3z
m211 -64 c67 -65 93 -161 59 -225 -8 -16 -15 -37 -15 -46 0 -52 -169 -110
-228 -79 -9 5 -24 12 -32 16 -52 21 -100 67 -100 94 0 11 -4 23 -10 26 -5 3
-10 31 -10 60 0 53 2 56 61 119 33 36 70 67 82 70 12 2 53 3 90 2 62 -3 72 -7
103 -37z m134 -236 c0 -12 26 -70 36 -82 2 -3 14 5 27 17 l23 22 131 -125 c72
-69 134 -125 138 -125 4 0 92 -81 195 -180 103 -99 191 -180 195 -180 8 0 218
-199 223 -212 2 -4 -18 -17 -45 -29 -26 -12 -158 -76 -291 -142 l-244 -121
-18 24 c-20 27 -45 22 -60 -12 -5 -13 -22 -38 -38 -56 l-29 -33 -36 20 c-19
11 -52 23 -71 27 -33 6 -35 9 -30 33 4 14 13 40 21 57 20 45 22 90 3 85 -41
-10 -45 -6 -48 39 -2 24 -7 49 -12 55 -5 6 -12 45 -16 88 -4 43 -10 80 -15 82
-4 3 -11 41 -15 85 -3 44 -11 83 -15 86 -5 3 -9 25 -9 49 0 24 -4 46 -9 50 -5
3 -13 41 -17 85 -3 44 -10 83 -15 85 -4 3 -11 41 -15 85 -3 44 -11 83 -15 86
-12 7 -11 51 1 59 6 3 10 13 10 21 0 7 8 32 17 53 13 31 20 37 30 29 7 -6 13
-17 13 -25z m-110 -189 c0 -23 4 -45 9 -49 5 -3 13 -41 17 -85 3 -44 10 -83
14 -85 5 -3 11 -40 15 -83 4 -42 10 -81 14 -87 3 -5 12 -46 19 -90 7 -44 17
-100 22 -125 5 -25 16 -85 24 -135 14 -91 10 -115 -20 -115 -19 0 -17 -13 6
-43 11 -14 20 -30 20 -35 0 -5 7 -15 15 -22 25 -20 14 -41 -30 -57 -66 -24
-70 -23 -73 27 -2 24 -7 49 -11 55 -5 5 -12 45 -16 87 -4 43 -10 80 -15 83 -4
2 -11 41 -14 85 -4 44 -11 82 -15 85 -5 2 -12 43 -16 90 -4 47 -11 87 -16 91
-5 3 -9 22 -9 43 0 20 -4 41 -9 47 -5 5 -13 48 -17 97 l-7 87 32 11 31 11 -32
40 c-36 44 -66 89 -67 101 -1 4 7 7 18 7 10 0 34 6 52 14 44 19 59 6 59 -50z
m2275 -64 c3 -5 15 -10 26 -10 25 0 73 -49 100 -102 36 -70 11 -200 -47 -242
-55 -40 -141 -58 -182 -37 -9 5 -34 17 -55 27 -72 36 -90 64 -95 153 l-5 80
58 60 c32 34 66 61 76 61 10 0 21 5 24 10 3 6 26 10 50 10 24 0 47 -4 50 -10z
m-898 -883 l143 -131 -24 -26 c-14 -14 -28 -42 -31 -62 -4 -21 -12 -38 -19
-38 -6 0 -38 13 -70 30 -33 16 -63 27 -68 24 -4 -3 -8 -16 -8 -30 l0 -24 -435
0 c-406 0 -436 1 -441 18 -8 22 -24 63 -35 84 -5 10 -9 20 -9 23 0 3 36 5 81
5 61 0 80 3 76 13 -20 53 -30 45 226 170 133 66 269 132 302 147 l59 29 56
-50 c30 -27 119 -109 197 -182z m-1095 -99 c34 -19 88 -70 88 -83 0 -7 7 -27
16 -45 20 -39 14 -116 -13 -157 -23 -35 -50 -63 -62 -63 -5 0 -14 -7 -21 -15
-17 -21 -147 -20 -174 0 -11 8 -28 15 -38 15 -10 0 -21 8 -25 18 -3 9 -17 29
-31 44 -22 24 -25 36 -25 103 0 69 2 76 26 95 15 12 27 28 27 36 0 8 28 28 63
45 66 32 120 34 169 7z m1481 6 c18 -9 39 -20 47 -24 8 -4 28 -24 45 -44 28
-35 30 -43 30 -119 -1 -141 -56 -196 -197 -197 l-77 0 -62 59 -62 59 5 75 c3
41 11 83 19 95 22 31 110 101 133 105 47 9 90 6 119 -9z m-299 -251 c3 -25 13
-55 22 -65 14 -14 14 -19 3 -23 -8 -3 -230 -4 -494 -3 l-480 3 -3 33 c-2 17
-4 32 -6 32 -1 0 -21 -9 -44 -20 -68 -33 -74 -28 -42 38 l20 42 430 0 430 0 0
-30 c0 -16 3 -30 8 -29 4 0 36 15 72 34 36 18 68 34 71 34 4 1 9 -20 13 -46z
m-1031 -158 l72 -36 5 28 5 28 524 3 c454 2 527 0 547 -13 13 -8 38 -15 57
-15 19 0 37 -3 41 -7 3 -4 -21 -35 -56 -70 l-62 -62 32 -14 c18 -7 29 -17 25
-21 -5 -4 -13 -33 -20 -64 -14 -69 -32 -140 -43 -167 -10 -26 -30 -102 -37
-140 -3 -16 -9 -34 -13 -40 -5 -5 -11 -31 -15 -58 -4 -26 -11 -50 -15 -52 -5
-3 -12 -30 -15 -60 -4 -31 -11 -58 -16 -61 -5 -2 -11 -27 -15 -55 -4 -27 -11
-52 -15 -55 -5 -3 -9 -16 -9 -30 0 -30 -27 -43 -43 -20 -32 44 -172 42 -219
-2 l-28 -26 -54 60 c-30 32 -55 63 -56 67 0 5 -36 50 -80 100 -44 51 -99 116
-122 144 -24 29 -58 68 -75 86 -18 19 -33 38 -33 43 0 6 -18 28 -40 49 -22 21
-40 43 -40 48 0 5 -34 46 -75 92 -41 45 -75 86 -75 90 0 4 -20 30 -45 56 -48
52 -53 64 -30 73 29 11 14 32 -40 56 -60 26 -67 40 -33 64 30 21 29 21 111
-19z m-1091 -468 c48 -17 83 -50 110 -103 16 -34 20 -55 16 -110 -2 -40 -9
-69 -16 -72 -7 -2 -12 -9 -12 -16 0 -29 -58 -66 -143 -93 -10 -3 -42 2 -72 12
-44 13 -65 28 -105 73 -48 53 -50 59 -50 113 0 38 5 61 15 69 8 7 15 18 15 24
0 7 18 29 40 51 62 61 128 77 202 52z m2025 -556 c42 -34 73 -84 73 -114 0 -9
5 -19 10 -22 12 -8 13 -52 1 -59 -4 -3 -11 -20 -15 -38 -9 -43 -71 -106 -113
-114 -18 -3 -36 -10 -39 -15 -7 -11 -39 -12 -62 0 -9 4 -39 18 -65 30 -26 11
-50 29 -54 39 -3 9 -14 25 -25 35 -10 10 -18 27 -18 38 0 10 -6 28 -12 39 -10
15 -10 22 0 32 6 6 12 22 12 34 0 13 5 26 10 29 6 4 17 22 25 41 9 21 21 34
33 34 10 0 29 11 41 24 44 47 134 41 198 -13z"/>
<path d="M1040 3165 l0 -115 59 0 c44 0 65 5 85 21 29 23 35 69 11 89 -11 9
-13 23 -9 51 9 57 -5 69 -82 69 l-64 0 0 -115z m104 79 c21 -8 21 -40 0 -48
-9 -3 -29 -6 -45 -6 -26 0 -29 4 -29 30 0 26 3 30 29 30 16 0 36 -3 45 -6z
m21 -104 c17 -19 17 -21 0 -40 -12 -13 -31 -20 -57 -20 -38 0 -38 0 -38 40 0
40 0 40 38 40 26 0 45 -7 57 -20z"/>
<path d="M3412 2638 l3 -113 73 0 c86 0 97 18 15 25 l-58 5 -3 37 -3 37 61 3
c78 4 78 22 0 26 -59 3 -60 3 -60 32 0 29 1 29 62 32 38 2 63 8 66 16 3 9 -17
12 -77 12 l-82 0 3 -112z"/>
<path d="M1441 1768 c-4 -13 -23 -62 -41 -111 -18 -48 -30 -90 -27 -93 12 -12
37 5 37 25 0 23 19 31 72 31 35 0 41 -4 51 -30 7 -19 18 -30 30 -30 14 0 17 5
12 18 -4 9 -20 52 -36 95 -16 43 -34 87 -39 98 -15 26 -49 24 -59 -3z m43 -36
c2 -4 7 -24 11 -45 7 -36 7 -37 -24 -37 -34 0 -37 8 -19 57 12 32 22 41 32 25z"/>
<path d="M2887 1783 c-4 -3 -7 -55 -7 -115 l0 -108 55 0 c30 0 65 5 78 11 33
15 57 60 57 106 0 45 -20 77 -60 98 -29 15 -111 21 -123 8z m106 -34 c50 -23
62 -95 22 -135 -20 -20 -34 -25 -63 -22 l-37 3 -3 69 c-2 38 -1 75 2 83 6 16
46 17 79 2z"/>
<path d="M479 871 c-25 -25 -29 -37 -29 -84 0 -49 4 -59 31 -86 24 -24 39 -31
70 -31 48 0 79 15 79 36 0 11 -5 14 -17 9 -53 -20 -82 -18 -107 10 -35 37 -35
87 0 121 25 26 61 29 107 9 13 -5 17 -2 17 13 0 24 -18 32 -77 32 -36 0 -50
-6 -74 -29z"/>
<path d="M2450 255 c0 -94 3 -115 14 -115 11 0 16 15 18 53 l3 52 49 5 c69 7
72 28 4 32 -50 3 -53 5 -56 31 -3 27 -3 27 57 27 48 0 61 3 61 15 0 12 -15 15
-75 15 l-75 0 0 -115z"/>
<path d="M4900 3225 l0 -145 80 3 c90 5 112 17 131 74 9 28 8 44 -2 75 -20 62
-53 77 -111 53 -16 -6 -18 -1 -18 39 l0 46 -40 0 -40 0 0 -145z m135 -35 c0
-53 -1 -55 -27 -58 -27 -3 -28 -2 -28 51 0 60 5 69 35 65 17 -3 20 -10 20 -58z"/>
<path d="M5735 3363 c-25 -6 -122 -99 -141 -135 -21 -40 -18 -136 6 -185 24
-51 90 -105 150 -123 25 -7 49 -17 54 -21 9 -8 26 -96 47 -244 5 -38 14 -77
18 -86 5 -8 12 -47 16 -85 3 -38 10 -78 15 -89 5 -11 14 -54 20 -95 18 -123
22 -145 30 -155 5 -5 12 -44 15 -85 4 -41 11 -80 16 -86 4 -5 11 -46 15 -91 7
-79 6 -82 -24 -119 -58 -75 -58 -189 1 -252 35 -36 31 -56 -13 -79 -12 -6 -46
-34 -74 -62 -28 -28 -55 -51 -59 -51 -3 0 -31 -24 -61 -52 -29 -29 -89 -83
-132 -120 -44 -37 -114 -97 -157 -134 -67 -57 -81 -66 -95 -56 -10 7 -24 15
-32 18 -8 3 -23 10 -32 15 -25 13 -107 11 -150 -4 -46 -16 -127 -100 -135
-139 -3 -16 -10 -31 -14 -34 -13 -7 -11 -91 1 -99 6 -4 10 -12 9 -18 -7 -39
65 -120 128 -146 52 -20 149 -20 193 1 39 19 79 59 100 102 23 45 20 183 -5
229 l-20 37 80 75 c44 41 84 74 89 75 4 0 61 50 126 110 65 61 121 110 125
110 4 0 38 29 76 65 38 35 80 72 94 81 23 15 27 15 50 0 14 -9 45 -16 74 -16
39 0 56 -6 80 -26 17 -14 31 -31 31 -38 0 -6 20 -32 45 -56 25 -24 45 -48 45
-53 0 -4 21 -30 48 -57 26 -26 72 -78 102 -114 30 -37 97 -113 148 -170 50
-57 92 -107 92 -111 0 -4 45 -57 100 -119 54 -61 119 -133 142 -159 24 -26 52
-62 64 -80 23 -35 20 -48 -23 -97 -24 -28 -42 -133 -25 -144 6 -3 8 -14 5 -24
-6 -23 126 -152 155 -152 12 0 24 -4 27 -10 8 -12 79 -13 103 -2 9 5 38 19 64
31 50 25 98 83 98 118 0 12 5 25 10 28 6 3 10 26 10 50 0 24 -4 47 -10 50 -5
3 -10 17 -10 30 0 13 -10 33 -21 44 -18 16 -20 26 -14 58 4 21 10 43 15 48 4
6 10 30 14 55 4 24 11 49 15 55 5 5 11 29 15 53 3 24 10 51 15 60 12 23 41
121 41 138 0 8 4 22 9 32 10 19 27 82 41 152 6 25 14 54 19 65 9 20 23 71 43
155 5 25 14 49 19 55 5 5 9 21 9 35 0 14 4 30 9 36 5 5 11 20 13 34 2 21 10
26 43 31 107 16 156 76 163 201 3 57 0 84 -12 109 -9 17 -16 37 -16 44 0 14
-62 75 -76 75 -6 0 -26 7 -44 16 -40 20 -147 15 -181 -10 -33 -23 -50 -20 -79
14 -13 17 -28 30 -34 30 -5 0 -47 35 -92 78 -45 42 -112 105 -150 139 -38 34
-66 63 -64 65 15 11 557 278 565 278 5 0 62 27 127 60 104 53 119 58 124 43
19 -64 57 -120 89 -134 11 -5 27 -13 35 -17 47 -27 65 -32 115 -32 30 0 63 4
73 9 9 5 24 12 32 15 31 12 73 42 80 56 42 86 51 156 29 234 -15 53 -87 128
-138 144 -49 14 -137 16 -146 2 -3 -5 -14 -10 -23 -10 -10 0 -44 -26 -75 -58
-48 -49 -59 -67 -65 -104 l-7 -46 -129 -66 c-71 -36 -134 -66 -140 -66 -6 0
-123 -57 -261 -126 -137 -69 -268 -132 -290 -140 l-40 -13 -70 69 c-39 39 -75
70 -79 70 -5 0 -39 29 -75 65 -124 121 -227 215 -237 215 -6 0 -43 33 -83 73
-40 39 -111 107 -159 150 -48 43 -139 125 -202 183 -63 57 -120 104 -127 104
-7 0 -13 11 -13 25 0 14 -4 33 -9 43 -5 9 -14 31 -21 48 -6 17 -29 48 -51 69
-38 38 -40 39 -126 41 -49 2 -97 0 -108 -3z m206 -59 c71 -68 98 -165 64 -230
-8 -16 -15 -37 -15 -46 0 -52 -169 -110 -228 -79 -9 5 -24 12 -32 16 -52 21
-100 67 -100 94 0 11 -4 23 -10 26 -5 3 -10 31 -10 60 0 53 2 56 61 119 33 36
70 67 82 70 12 2 53 3 90 2 59 -3 72 -7 98 -32z m145 -225 c13 -12 32 -27 43
-33 11 -6 89 -75 173 -153 397 -370 466 -433 473 -433 12 0 285 -262 281 -269
-4 -7 -383 -196 -526 -264 -41 -19 -105 -49 -142 -66 l-66 -32 -38 22 c-68 38
-138 36 -235 -5 -14 -6 -18 2 -24 56 -4 35 -11 68 -15 73 -4 6 -11 45 -15 87
-4 43 -10 80 -15 83 -5 3 -11 40 -15 83 -4 42 -11 82 -15 87 -8 11 -19 67 -25
125 -1 19 -5 42 -8 50 -7 18 -15 62 -29 155 -5 39 -14 79 -18 90 -5 11 -11 43
-15 70 -3 28 -8 62 -11 78 -5 22 -2 27 14 27 47 0 162 68 162 96 0 16 33 94
39 94 3 0 15 -10 27 -21z m2159 -269 c3 -5 15 -10 26 -10 24 0 73 -50 101
-104 35 -68 9 -199 -48 -240 -55 -40 -141 -58 -182 -37 -9 5 -34 17 -55 27
-72 36 -90 64 -95 153 l-5 80 58 60 c32 34 66 61 76 61 10 0 21 5 24 10 3 6
26 10 50 10 24 0 47 -4 50 -10z m-980 -795 c84 -80 156 -145 161 -145 12 0 64
-52 64 -65 0 -6 -11 -22 -24 -34 -14 -13 -28 -40 -31 -62 l-7 -38 -511 -3
c-333 -2 -515 0 -519 7 -4 6 -8 21 -8 33 0 13 -10 38 -22 54 -20 29 -20 31 -3
42 48 29 240 126 250 126 5 0 111 52 235 114 124 63 233 115 244 115 11 1 81
-59 171 -144z m-1010 -189 c17 -8 48 -33 70 -56 l39 -40 0 -88 0 -87 -37 -38
c-21 -20 -41 -37 -46 -37 -5 0 -14 -7 -21 -15 -9 -11 -33 -15 -85 -15 -64 0
-77 3 -111 29 -21 16 -52 42 -68 59 -27 29 -29 38 -29 106 l0 73 49 48 c88 83
158 102 239 61z m1478 8 c18 -9 39 -20 47 -24 8 -4 28 -24 45 -44 28 -35 30
-43 30 -119 -1 -141 -56 -196 -197 -197 l-77 0 -60 58 -61 58 0 64 c0 44 6 76
18 97 20 37 106 110 136 116 47 9 90 6 119 -9z m-299 -252 c5 -39 14 -55 49
-88 57 -55 90 -74 128 -74 l32 0 -7 -62 c-4 -35 -11 -67 -16 -73 -4 -5 -12
-30 -18 -55 -21 -86 -34 -135 -43 -152 -5 -9 -12 -36 -15 -60 -4 -24 -10 -47
-14 -53 -4 -5 -12 -30 -18 -55 -6 -25 -16 -63 -22 -85 -6 -22 -17 -61 -23 -87
-7 -25 -15 -50 -19 -54 -4 -4 -11 -29 -14 -56 -4 -27 -10 -51 -15 -54 -5 -2
-11 -27 -15 -55 -4 -27 -11 -52 -15 -55 -5 -3 -9 -14 -9 -25 0 -25 -11 -24
-39 2 -49 46 -180 48 -222 3 l-23 -24 -28 27 c-15 15 -28 31 -28 36 0 6 -45
58 -100 117 -55 60 -100 111 -100 115 0 5 -50 63 -235 271 -25 28 -45 53 -45
57 0 7 -59 74 -142 163 -32 33 -58 64 -58 69 0 4 -25 35 -56 68 l-57 61 32 28
c17 15 38 28 46 28 8 0 15 6 15 13 0 8 11 24 25 37 14 13 25 34 25 46 0 13 4
34 10 48 l10 26 508 0 509 0 7 -48z m-2122 -625 c48 -17 83 -50 110 -103 16
-34 20 -55 16 -110 -2 -40 -9 -69 -16 -72 -7 -2 -12 -9 -12 -16 0 -20 -52 -62
-100 -79 -56 -21 -89 -21 -114 -2 -11 8 -27 15 -36 15 -21 0 -83 65 -104 109
-31 66 -10 144 59 211 57 56 126 72 197 47z m1964 -517 c11 0 46 -25 77 -55
43 -43 57 -63 57 -85 0 -16 5 -32 10 -35 6 -3 10 -17 10 -30 0 -13 -4 -27 -10
-30 -5 -3 -10 -18 -10 -34 0 -35 -73 -108 -118 -117 -18 -4 -35 -11 -38 -15
-7 -12 -51 -12 -58 0 -3 4 -19 11 -36 14 -35 8 -130 100 -130 128 0 11 -6 28
-12 39 -10 15 -10 22 0 32 6 6 12 22 12 34 0 13 5 26 11 29 5 4 14 18 19 30 5
13 22 32 37 41 15 10 37 25 48 35 22 19 59 29 90 23 11 -2 29 -4 41 -4z"/>
<path d="M5740 3165 l0 -115 59 0 c44 0 65 5 85 21 29 23 35 69 11 89 -11 9
-13 23 -9 51 9 57 -5 69 -82 69 l-64 0 0 -115z m104 79 c9 -3 16 -14 16 -24 0
-21 -19 -30 -61 -30 -26 0 -29 4 -29 30 0 26 3 30 29 30 16 0 36 -3 45 -6z
m21 -104 c17 -19 17 -21 0 -40 -12 -13 -31 -20 -57 -20 -38 0 -38 0 -38 40 0
40 0 40 38 40 26 0 45 -7 57 -20z"/>
<path d="M8112 2638 l3 -113 73 0 c86 0 97 18 15 25 l-58 5 -3 37 -3 37 61 3
c78 4 78 22 0 26 -59 3 -60 3 -60 32 0 29 1 29 62 32 38 2 63 8 66 16 3 9 -17
12 -77 12 l-82 0 3 -112z"/>
<path d="M6141 1768 c-4 -13 -23 -62 -41 -111 -18 -48 -30 -90 -27 -93 12 -12
37 5 37 25 0 23 19 31 72 31 35 0 41 -4 51 -30 7 -19 18 -30 30 -30 14 0 17 5
12 18 -4 9 -20 52 -36 95 -16 43 -34 87 -39 98 -15 26 -49 24 -59 -3z m43 -36
c2 -4 7 -24 11 -45 7 -36 7 -37 -24 -37 -34 0 -37 8 -19 57 12 32 22 41 32 25z"/>
<path d="M7587 1783 c-4 -3 -7 -55 -7 -115 l0 -108 55 0 c30 0 65 5 78 11 33
15 57 60 57 106 0 45 -20 77 -60 98 -29 15 -111 21 -123 8z m106 -34 c50 -23
62 -95 22 -135 -20 -20 -34 -25 -63 -22 l-37 3 -3 69 c-2 38 -1 75 2 83 6 16
46 17 79 2z"/>
<path d="M5179 871 c-25 -25 -29 -37 -29 -83 0 -56 16 -86 57 -107 27 -14 78
-14 104 -1 25 14 26 45 2 35 -51 -20 -81 -17 -107 8 -55 55 -15 155 57 145 18
-3 40 -8 50 -13 13 -5 17 -2 17 13 0 24 -18 32 -77 32 -36 0 -50 -6 -74 -29z"/>
<path d="M7150 255 c0 -94 3 -115 14 -115 11 0 16 15 18 53 l3 52 49 5 c69 7
72 28 4 32 -50 3 -53 5 -56 31 -3 27 -3 27 57 27 48 0 61 3 61 15 0 12 -15 15
-75 15 l-75 0 0 -115z"/>
<path d="M185 3293 c-11 -3 -23 -10 -27 -16 -13 -21 3 -32 43 -29 45 5 74 -12
49 -28 -8 -5 -27 -10 -42 -10 -54 0 -85 -65 -49 -104 18 -20 32 -23 101 -23
l80 -1 0 73 c0 41 -5 86 -12 99 -16 36 -82 54 -143 39z m75 -133 c0 -23 -4
-30 -20 -30 -14 0 -20 7 -20 23 0 27 7 37 27 37 8 0 13 -12 13 -30z"/>
</g>
</svg>
