<?xml version="1.0" standalone="no"?>
<!DOCTYPE svg PUBLIC "-//W3C//DTD SVG 20010904//EN"
 "http://www.w3.org/TR/2001/REC-SVG-20010904/DTD/svg10.dtd">
<svg version="1.0" xmlns="http://www.w3.org/2000/svg"
 width="600.000000pt" height="400.000000pt" viewBox="0 0 600.000000 400.000000"
 preserveAspectRatio="xMidYMid meet">

<g transform="translate(0.000000,400.000000) scale(0.100000,-0.100000)"
fill="#000000" stroke="none">
<path d="M532 3958 c-30 -30 1 -94 33 -68 25 20 13 80 -15 80 -3 0 -11 -5 -18
-12z m35 -52 c-4 -9 -11 -16 -16 -16 -17 0 -23 40 -10 57 12 13 14 13 22 -5 5
-12 7 -28 4 -36z"/>
<path d="M610 3949 c-9 -16 -9 -28 -1 -45 14 -32 39 -30 47 3 12 47 -26 81
-46 42z m38 -30 c-1 -12 -8 -24 -15 -26 -17 -6 -27 35 -12 53 16 19 32 4 27
-27z"/>
<path d="M694 3959 c-5 -8 -2 -10 8 -6 21 8 30 -3 17 -20 -9 -9 -8 -13 0 -13
21 0 11 -29 -11 -33 -20 -5 -20 -5 2 -4 22 2 25 6 25 42 0 29 -4 41 -17 43 -9
2 -20 -2 -24 -9z"/>
<path d="M856 3958 c-3 -7 -4 -26 -3 -43 2 -23 7 -30 22 -30 17 0 20 7 20 40
0 30 -4 41 -18 43 -9 2 -19 -2 -21 -10z m34 -19 c0 -5 -7 -9 -15 -9 -15 0 -20
12 -9 23 8 8 24 -1 24 -14z m0 -34 c0 -8 -7 -15 -15 -15 -8 0 -15 7 -15 15 0
8 7 15 15 15 8 0 15 -7 15 -15z"/>
<path d="M947 3952 c-10 -10 -17 -26 -17 -34 0 -21 26 -42 45 -34 22 8 18 37
-5 43 -25 7 -25 12 -2 29 9 7 12 14 6 14 -6 0 -18 -8 -27 -18z m25 -47 c0 -5
-5 -11 -11 -13 -6 -2 -11 4 -11 13 0 9 5 15 11 13 6 -2 11 -8 11 -13z"/>
<path d="M1184 3958 c-4 -7 -3 -8 4 -4 22 13 37 -6 17 -21 -18 -12 -18 -13 -1
-13 10 0 16 -6 13 -12 -2 -7 -14 -13 -26 -12 -13 0 -18 -3 -12 -9 20 -20 46
-3 48 33 2 42 -25 67 -43 38z"/>
<path d="M2889 3958 c0 -7 -2 -22 -3 -34 -1 -11 1 -29 5 -40 7 -17 8 -17 8 -1
1 19 21 24 21 5 0 -10 2 -10 9 0 4 8 7 28 5 44 -4 35 -14 51 -14 24 0 -9 -5
-14 -10 -11 -6 4 -8 11 -5 16 4 5 1 9 -4 9 -6 0 -11 -6 -12 -12z"/>
<path d="M444 3946 c-16 -41 20 -86 47 -59 6 6 1 9 -13 9 -17 -1 -24 5 -26 22
-4 26 25 42 39 21 7 -11 9 -11 9 4 0 21 -48 24 -56 3z"/>
<path d="M1103 3953 c10 -3 17 -14 17 -28 0 -13 -8 -29 -17 -34 -15 -8 -11
-10 17 -10 19 0 29 3 23 6 -7 2 -13 20 -13 39 0 29 -3 34 -22 33 -17 -1 -19
-2 -5 -6z"/>
<path d="M1668 3953 c6 -2 12 -17 12 -33 0 -16 -6 -31 -12 -33 -7 -3 3 -5 22
-5 19 0 29 2 23 5 -7 2 -13 17 -13 33 0 16 6 31 13 33 6 3 -4 5 -23 5 -19 0
-29 -2 -22 -5z"/>
<path d="M1738 3920 c3 -28 9 -40 20 -40 12 0 13 3 4 12 -7 7 -12 18 -12 26 0
12 3 12 15 2 18 -15 19 -1 1 23 -22 28 -32 20 -28 -23z"/>
<path d="M1785 3926 c0 -50 12 -54 17 -7 2 24 -1 41 -7 41 -5 0 -10 -15 -10
-34z"/>
<path d="M1838 3953 c15 -6 16 -45 0 -61 -9 -9 -5 -12 18 -11 16 0 23 3 17 6
-7 2 -13 17 -13 33 0 16 6 31 13 33 6 3 -1 5 -18 5 -16 0 -24 -2 -17 -5z"/>
<path d="M1901 3943 c0 -11 3 -13 6 -5 2 6 9 12 14 12 14 0 11 -58 -3 -63 -7
-3 1 -5 17 -5 17 0 24 2 18 5 -15 5 -18 63 -4 63 5 0 12 -6 14 -12 3 -8 6 -6
6 5 1 13 -7 17 -34 17 -27 0 -35 -4 -34 -17z"/>
<path d="M1994 3943 c0 -10 -4 -28 -8 -40 -5 -14 -3 -23 3 -23 6 0 11 6 11 13
0 8 7 14 15 14 8 0 15 -6 15 -14 0 -7 6 -13 14 -13 11 0 10 8 -5 40 -20 41
-44 53 -45 23z m31 -12 c3 -5 1 -12 -5 -16 -5 -3 -10 1 -10 9 0 18 6 21 15 7z"/>
<path d="M2315 3920 c0 -38 1 -40 33 -40 23 0 32 5 32 16 0 13 -3 14 -15 4
-26 -22 -42 14 -21 48 5 8 1 12 -11 12 -14 0 -18 -8 -18 -40z"/>
<path d="M2390 3920 c0 -36 3 -40 25 -40 31 0 50 32 35 60 -6 12 -21 20 -35
20 -22 0 -25 -4 -25 -40z m45 0 c0 -27 -22 -39 -31 -16 -8 22 3 49 19 43 6 -2
12 -14 12 -27z"/>
<path d="M2485 3950 c4 -6 0 -24 -9 -40 -12 -26 -12 -30 0 -30 8 0 14 6 14 13
0 8 7 14 15 14 8 0 15 -6 15 -14 0 -7 5 -13 10 -13 13 0 13 4 -4 45 -9 20 -22
35 -31 35 -9 0 -13 -5 -10 -10z m25 -26 c0 -8 -5 -12 -10 -9 -6 4 -8 11 -5 16
9 14 15 11 15 -7z"/>
<path d="M2644 3938 c0 -13 -4 -31 -8 -40 -6 -13 -4 -18 7 -18 8 0 15 6 14 13
-1 33 4 48 14 41 7 -4 7 -10 1 -16 -7 -7 -6 -15 3 -24 27 -28 35 -14 15 26
-22 44 -45 52 -46 18z"/>
<path d="M2965 3920 c-1 -26 3 -40 12 -40 7 0 10 7 7 15 -8 20 10 19 26 0 16
-19 91 -17 98 3 3 11 1 11 -16 1 -24 -15 -44 -3 -22 12 11 8 12 12 3 16 -21 8
-15 26 7 20 11 -3 20 -1 20 4 0 5 -13 9 -28 9 -26 0 -28 -2 -24 -35 2 -20 0
-35 -6 -35 -14 0 -26 20 -27 45 0 14 -8 21 -25 23 -23 3 -25 -1 -25 -38z m43
18 c-6 -18 -28 -21 -28 -4 0 9 7 16 16 16 9 0 14 -5 12 -12z"/>
<path d="M3134 3948 c-4 -7 2 -18 14 -26 28 -18 29 -36 2 -29 -11 3 -20 1 -20
-4 0 -15 36 -10 50 6 10 12 7 17 -14 26 -31 14 -35 34 -6 26 11 -3 20 -1 20 4
0 13 -38 11 -46 -3z"/>
<path d="M3205 3920 c0 -38 1 -40 33 -40 23 0 32 4 32 17 0 13 -3 14 -12 5
-15 -15 -38 -16 -38 -2 0 6 7 10 15 10 8 0 15 5 15 10 0 6 -7 10 -15 10 -8 0
-15 5 -15 11 0 7 10 9 25 5 14 -4 25 -2 25 4 0 5 -15 10 -32 10 -32 0 -33 -2
-33 -40z"/>
<path d="M3280 3945 c0 -18 16 -20 24 -2 3 6 5 -5 3 -25 -3 -32 0 -38 17 -38
16 0 17 3 8 12 -14 14 -16 58 -3 58 5 0 12 -6 14 -12 3 -8 6 -6 6 5 1 13 -7
17 -34 17 -24 0 -35 -5 -35 -15z"/>
<path d="M3374 3938 c0 -13 -4 -31 -8 -40 -6 -13 -4 -18 9 -18 9 0 13 5 10 10
-3 6 3 10 15 10 12 0 18 -4 15 -10 -3 -5 1 -10 10 -10 9 0 15 3 13 8 -3 4 -10
22 -17 40 -15 37 -46 44 -47 10z m31 -8 c3 -5 1 -10 -4 -10 -6 0 -11 5 -11 10
0 6 2 10 4 10 3 0 8 -4 11 -10z"/>
<path d="M3695 3920 c0 -25 5 -40 12 -40 7 0 10 7 7 15 -4 9 0 15 9 15 8 0 17
-7 21 -15 4 -10 20 -15 51 -15 36 0 45 3 45 18 0 14 -2 14 -9 3 -6 -9 -15 -11
-27 -6 -18 8 -18 8 -1 12 21 5 23 23 2 23 -8 0 -15 5 -15 11 0 7 10 9 26 5 17
-5 23 -3 19 4 -3 5 -19 10 -34 10 -25 0 -27 -3 -23 -35 2 -20 0 -35 -6 -35
-14 0 -26 20 -27 45 0 14 -8 21 -25 23 -23 3 -25 0 -25 -38z m43 19 c-2 -6 -8
-10 -13 -10 -5 0 -11 4 -13 10 -2 6 4 11 13 11 9 0 15 -5 13 -11z"/>
<path d="M3867 3953 c-13 -12 -7 -22 19 -36 18 -9 23 -16 15 -21 -7 -4 -18 -2
-26 4 -12 10 -15 9 -15 -4 0 -13 7 -17 27 -14 37 4 43 35 9 44 -14 3 -23 10
-20 15 3 6 15 7 26 3 14 -4 18 -2 14 5 -8 12 -39 15 -49 4z"/>
<path d="M3935 3920 c0 -38 1 -40 33 -40 24 0 32 4 32 18 0 14 -2 14 -9 3 -6
-9 -15 -11 -27 -6 -18 8 -18 8 -1 12 9 3 17 8 17 13 0 5 -8 10 -17 13 -17 4
-17 4 1 12 12 5 21 3 27 -6 7 -11 9 -11 9 4 0 13 -8 17 -32 17 -32 0 -33 -2
-33 -40z"/>
<path d="M4020 3943 c0 -15 2 -16 10 -3 7 12 10 12 16 -4 4 -10 2 -27 -5 -37
-9 -16 -8 -19 7 -19 15 0 17 7 14 38 -2 28 -1 33 7 22 9 -13 11 -13 11 3 0 12
-8 17 -30 17 -22 0 -30 -5 -30 -17z"/>
<path d="M4189 3951 c11 -7 11 -14 -2 -40 -13 -26 -13 -31 -1 -31 8 0 14 6 14
13 0 8 7 14 15 14 8 0 15 -6 15 -14 0 -7 5 -13 10 -13 13 0 13 1 -5 44 -11 26
-21 36 -38 36 -16 0 -18 -3 -8 -9z m31 -27 c0 -8 -5 -12 -10 -9 -6 4 -8 11 -5
16 9 14 15 11 15 -7z"/>
<path d="M4272 3948 c-25 -25 -6 -68 29 -68 10 0 21 5 25 11 4 7 0 9 -12 5
-26 -8 -47 7 -42 30 3 14 11 18 31 17 15 -1 27 2 27 8 0 13 -44 11 -58 -3z"/>
<path d="M4358 3953 c6 -2 12 -17 12 -33 0 -16 -6 -31 -12 -33 -7 -3 1 -5 17
-5 17 0 24 2 18 5 -7 2 -13 17 -13 33 0 16 6 31 13 33 6 3 -1 5 -18 5 -16 0
-24 -2 -17 -5z"/>
<path d="M4434 3938 c0 -13 -4 -31 -8 -40 -6 -13 -4 -18 9 -18 9 0 13 5 10 10
-3 6 3 10 15 10 12 0 18 -4 15 -10 -3 -5 0 -10 9 -10 12 0 12 5 -1 40 -18 44
-47 55 -49 18z m31 -8 c3 -5 1 -10 -4 -10 -6 0 -11 5 -11 10 0 6 2 10 4 10 3
0 8 -4 11 -10z"/>
<path d="M452 3801 c-8 -5 -12 -21 -10 -37 2 -23 9 -30 31 -32 15 -2 27 1 27
6 0 5 -11 7 -25 4 -21 -4 -25 -1 -25 21 0 31 16 43 35 27 9 -7 15 -8 15 -2 0
5 -7 13 -16 16 -19 7 -16 7 -32 -3z"/>
<path d="M525 3790 c-9 -29 4 -60 25 -60 21 0 36 39 26 65 -8 22 -44 18 -51
-5z m40 -20 c0 -13 -6 -25 -12 -27 -16 -6 -27 21 -19 43 9 23 31 11 31 -16z"/>
<path d="M605 3791 c-10 -34 4 -63 28 -59 18 2 22 10 22 38 0 28 -4 36 -22 38
-14 2 -23 -3 -28 -17z m40 -21 c0 -27 -20 -38 -28 -15 -8 20 3 47 17 42 6 -2
11 -14 11 -27z"/>
<path d="M690 3790 c0 -13 7 -20 20 -20 30 0 24 -28 -7 -33 -26 -4 -26 -4 5
-6 28 -1 32 2 32 24 0 18 -5 25 -20 25 -27 0 -25 18 3 23 19 4 18 4 -5 6 -22
1 -28 -4 -28 -19z"/>
<path d="M845 3770 c0 -38 1 -40 32 -40 30 0 33 2 30 28 -4 39 -15 52 -41 52
-19 0 -22 -5 -21 -40z m45 9 c0 -5 -7 -9 -15 -9 -15 0 -20 12 -9 23 8 8 24 -1
24 -14z m10 -29 c0 -5 -9 -10 -20 -10 -11 0 -20 5 -20 10 0 6 9 10 20 10 11 0
20 -4 20 -10z"/>
<path d="M930 3801 c0 -5 9 -7 20 -4 23 6 23 8 10 -36 -6 -22 -6 -31 0 -25 5
5 13 24 16 42 6 30 4 32 -20 32 -14 0 -26 -4 -26 -9z"/>
<path d="M1098 3803 c-3 -4 -4 -21 -4 -38 1 -25 5 -30 26 -30 22 0 25 4 25 35
0 28 -4 36 -22 38 -11 2 -23 0 -25 -5z m32 -13 c0 -5 -4 -10 -10 -10 -5 0 -10
5 -10 10 0 6 5 10 10 10 6 0 10 -4 10 -10z m10 -40 c0 -5 -9 -10 -20 -10 -11
0 -20 5 -20 10 0 6 9 10 20 10 11 0 20 -4 20 -10z"/>
<path d="M1175 3791 c-10 -34 4 -63 28 -59 18 2 22 10 22 38 0 28 -4 36 -22
38 -14 2 -23 -3 -28 -17z m40 -21 c0 -27 -22 -39 -31 -16 -8 22 3 49 19 43 6
-2 12 -14 12 -27z"/>
<path d="M1344 3796 c-11 -28 0 -61 21 -61 16 0 20 7 20 35 0 25 -5 36 -18 38
-9 2 -20 -3 -23 -12z m36 -26 c0 -20 -5 -30 -15 -30 -10 0 -15 10 -15 30 0 20
5 30 15 30 10 0 15 -10 15 -30z"/>
<path d="M1436 3788 c-20 -28 -20 -38 0 -38 8 0 12 -4 9 -10 -3 -5 1 -10 10
-10 12 0 15 9 13 40 -2 45 -10 50 -32 18z"/>
<path d="M2324 3796 c-7 -19 3 -36 22 -36 8 0 14 -5 14 -11 0 -7 -10 -9 -25
-5 -14 4 -25 2 -25 -4 0 -5 14 -10 30 -10 36 0 40 21 8 43 -13 8 -20 18 -16
22 4 4 15 2 24 -6 15 -12 17 -12 12 1 -7 21 -37 25 -44 6z"/>
<path d="M2391 3788 c0 -13 3 -17 6 -10 8 21 23 13 23 -12 0 -13 -6 -27 -12
-29 -7 -3 -4 -6 7 -6 18 -1 20 4 17 36 -4 35 -4 37 13 23 16 -13 18 -13 13 0
-2 8 -19 16 -36 18 -28 3 -32 0 -31 -20z"/>
<path d="M2483 3796 c3 -7 -1 -25 -8 -40 -12 -22 -12 -26 1 -26 8 0 14 5 14
10 0 6 7 10 15 10 8 0 15 -4 15 -10 0 -5 6 -10 14 -10 11 0 9 9 -7 40 -20 36
-56 58 -44 26z"/>
<path d="M2646 3797 c3 -8 0 -26 -5 -40 -9 -22 -8 -27 5 -27 8 0 12 5 9 10 -3
6 3 10 15 10 12 0 18 -4 15 -10 -3 -5 0 -10 9 -10 12 0 11 7 -5 40 -11 22 -26
40 -34 40 -8 0 -12 -6 -9 -13z m34 -27 c0 -5 -4 -10 -10 -10 -5 0 -10 5 -10
10 0 6 5 10 10 10 6 0 10 -4 10 -10z"/>
<path d="M2887 3799 c9 -9 8 -19 -3 -40 -13 -26 -13 -29 1 -29 9 0 13 5 10 10
-3 6 3 10 15 10 12 0 18 -4 15 -10 -3 -5 1 -10 10 -10 14 0 14 4 0 36 -8 20
-15 38 -15 40 0 2 -10 4 -22 4 -17 0 -19 -3 -11 -11z m33 -29 c0 -5 -4 -10
-10 -10 -5 0 -10 5 -10 10 0 6 5 10 10 10 6 0 10 -4 10 -10z"/>
<path d="M2970 3796 c-19 -24 -8 -61 19 -64 13 -2 27 0 32 5 5 5 -3 9 -18 8
-19 0 -29 6 -31 19 -5 23 18 39 35 24 8 -6 17 -8 20 -4 8 8 -15 26 -33 26 -6
0 -17 -7 -24 -14z"/>
<path d="M3058 3798 c16 -16 15 -55 0 -61 -7 -3 1 -5 17 -5 17 0 24 2 18 5 -7
2 -13 17 -13 33 0 16 6 31 13 33 6 3 -1 6 -17 6 -23 1 -27 -2 -18 -11z"/>
<path d="M3136 3795 c4 -8 -1 -26 -10 -40 -14 -22 -15 -25 -1 -25 8 0 15 5 15
10 0 6 7 10 15 10 8 0 15 -4 15 -10 0 -5 6 -10 14 -10 10 0 9 9 -6 40 -19 37
-55 59 -42 25z"/>
<path d="M2921 3658 c-1 -20 -21 -25 -21 -6 0 20 -9 3 -14 -27 -3 -17 -1 -37
4 -45 6 -10 10 -11 10 -2 0 6 5 12 11 12 5 0 7 -4 4 -10 -3 -5 -1 -10 4 -10 6
0 11 6 12 13 0 6 2 20 4 31 2 10 0 28 -5 40 -7 17 -9 17 -9 4z"/>
<path d="M532 3648 c-30 -30 1 -94 33 -68 16 13 19 38 9 64 -7 19 -25 21 -42
4z m33 -28 c0 -13 -6 -25 -12 -27 -16 -6 -27 21 -19 43 9 23 31 11 31 -16z"/>
<path d="M609 3639 c-8 -16 -8 -28 0 -46 19 -42 59 -8 47 40 -8 32 -31 35 -47
6z m39 -13 c2 -9 1 -24 -3 -33 -10 -27 -39 8 -30 36 8 25 28 23 33 -3z"/>
<path d="M696 3648 c-17 -56 -6 -85 27 -72 23 8 18 78 -6 82 -9 2 -19 -2 -21
-10z m25 -11 c-1 -12 -15 -9 -19 4 -3 6 1 10 8 8 6 -3 11 -8 11 -12z m7 -38
c-2 -6 -8 -10 -13 -10 -5 0 -11 4 -13 10 -2 6 4 11 13 11 9 0 15 -5 13 -11z"/>
<path d="M857 3654 c-14 -15 -7 -72 10 -78 24 -9 35 7 31 45 -3 32 -24 49 -41
33z m31 -15 c-2 -6 -8 -10 -13 -10 -5 0 -11 4 -13 10 -2 6 4 11 13 11 9 0 15
-5 13 -11z m0 -40 c-2 -6 -8 -10 -13 -10 -5 0 -11 4 -13 10 -2 6 4 11 13 11 9
0 15 -5 13 -11z"/>
<path d="M940 3641 c-14 -27 -13 -46 6 -61 12 -11 18 -10 31 3 13 13 14 19 4
31 -8 9 -17 13 -22 10 -5 -3 -9 0 -9 6 0 6 10 15 23 20 l22 9 -22 0 c-12 1
-27 -8 -33 -18z m35 -51 c-5 -8 -11 -8 -17 -2 -6 6 -7 16 -3 22 5 8 11 8 17 2
6 -6 7 -16 3 -22z"/>
<path d="M1100 3650 c-13 -8 -12 -10 3 -10 20 0 24 -45 5 -53 -7 -3 1 -5 17
-5 17 0 24 2 18 5 -7 2 -13 20 -13 39 0 36 -5 40 -30 24z"/>
<path d="M1185 3650 c-3 -5 -1 -10 4 -10 6 0 11 -11 11 -25 0 -14 -4 -25 -10
-25 -5 0 -10 -4 -10 -9 0 -4 12 -6 28 -3 15 3 21 7 15 9 -7 3 -13 20 -13 39 0
33 -12 45 -25 24z"/>
<path d="M3713 3653 c-22 -8 -14 -33 14 -44 21 -8 24 -12 13 -19 -9 -5 -19 -5
-27 2 -9 7 -13 7 -13 0 0 -16 31 -23 46 -11 16 13 1 39 -22 39 -8 0 -14 5 -14
11 0 6 9 9 20 6 11 -3 20 -2 20 3 0 11 -22 18 -37 13z"/>
<path d="M4029 3653 c0 -4 -2 -20 -4 -35 -4 -30 15 -51 38 -42 11 4 15 17 13
42 -1 30 -6 38 -24 40 -12 2 -22 0 -23 -5z m33 -18 c0 -5 -5 -11 -11 -13 -6
-2 -11 4 -11 13 0 9 5 15 11 13 6 -2 11 -8 11 -13z m1 -31 c11 -11 -3 -24 -18
-18 -8 4 -12 10 -9 15 6 11 18 12 27 3z"/>
<path d="M4925 3649 c-4 -6 -4 -13 -1 -16 3 -4 6 -1 6 5 0 7 7 12 15 12 22 0
18 -28 -5 -42 -27 -17 -25 -25 5 -30 14 -3 25 -1 25 3 0 5 -7 9 -17 9 -15 0
-14 2 2 20 9 10 15 26 12 35 -7 17 -33 20 -42 4z"/>
<path d="M447 3643 c-4 -3 -7 -19 -7 -34 0 -31 34 -50 54 -29 8 9 7 11 -4 10
-32 -5 -40 1 -40 26 0 23 3 26 25 22 14 -3 25 -1 25 3 0 10 -44 12 -53 2z"/>
<path d="M2315 3615 c0 -33 2 -35 33 -35 24 0 32 4 31 18 0 10 -3 12 -6 5 -2
-7 -11 -13 -18 -13 -17 0 -26 35 -12 49 8 8 6 11 -8 11 -16 0 -20 -7 -20 -35z"/>
<path d="M2390 3615 c0 -32 2 -35 29 -35 21 0 32 6 36 20 9 27 -11 50 -41 50
-21 0 -24 -5 -24 -35z m50 0 c0 -18 -5 -25 -20 -25 -15 0 -20 7 -20 25 0 18 5
25 20 25 15 0 20 -7 20 -25z"/>
<path d="M2484 3633 c-1 -10 -4 -26 -9 -35 -4 -11 -3 -18 4 -18 6 0 11 5 11
10 0 14 28 12 33 -2 2 -7 7 -11 10 -8 3 3 -1 20 -8 38 -15 34 -40 43 -41 15z
m26 -13 c0 -5 -5 -10 -11 -10 -5 0 -7 5 -4 10 3 6 8 10 11 10 2 0 4 -4 4 -10z"/>
<path d="M2646 3636 c3 -8 1 -24 -6 -35 -7 -14 -7 -21 0 -21 5 0 10 5 10 10 0
6 7 10 15 10 8 0 15 -4 15 -10 0 -5 6 -10 14 -10 11 0 11 6 -2 35 -10 21 -23
35 -34 35 -11 0 -15 -5 -12 -14z m29 -16 c3 -5 1 -10 -4 -10 -6 0 -11 5 -11
10 0 6 2 10 4 10 3 0 8 -4 11 -10z"/>
<path d="M2967 3643 c-4 -3 -7 -17 -7 -29 0 -30 33 -49 58 -34 15 10 15 10 -3
6 -27 -7 -48 7 -43 30 2 12 12 19 26 18 12 0 22 3 22 8 0 10 -44 11 -53 1z"/>
<path d="M3041 3633 c0 -11 3 -13 6 -5 8 21 23 13 23 -12 0 -13 -6 -27 -12
-29 -7 -3 -4 -6 8 -6 17 -1 20 4 16 29 -4 29 11 42 21 18 3 -8 6 -6 6 5 1 13
-7 17 -34 17 -27 0 -35 -4 -34 -17z"/>
<path d="M3128 3643 c6 -2 12 -15 12 -28 0 -13 -6 -26 -12 -28 -7 -3 4 -6 25
-6 29 -1 37 3 36 17 0 10 -3 12 -6 5 -2 -7 -12 -13 -20 -13 -11 0 -14 8 -11
30 4 25 1 30 -16 29 -12 0 -15 -3 -8 -6z"/>
<path d="M3205 3615 c0 -21 5 -35 12 -35 7 0 10 7 7 15 -4 8 -2 15 4 15 5 0
15 -7 22 -15 13 -16 100 -22 100 -6 0 4 -11 6 -25 3 -16 -3 -25 0 -25 8 0 7 7
10 15 6 9 -3 15 0 15 9 0 9 -6 12 -15 9 -8 -4 -15 -1 -15 6 0 8 9 11 25 8 14
-3 25 -1 25 3 0 5 -15 9 -33 9 -32 0 -33 -2 -29 -30 3 -23 0 -30 -12 -30 -12
0 -16 7 -14 28 3 24 -1 27 -27 30 -28 3 -30 1 -30 -33z m45 15 c0 -5 -7 -10
-15 -10 -8 0 -15 5 -15 10 0 6 7 10 15 10 8 0 15 -4 15 -10z"/>
<path d="M3377 3643 c-13 -13 -7 -61 9 -67 25 -10 33 -7 44 14 9 17 8 20 -12
20 -17 0 -19 -3 -9 -9 9 -6 10 -11 2 -15 -17 -11 -31 3 -31 31 0 22 4 25 25
21 14 -3 25 -1 25 3 0 10 -44 12 -53 2z"/>
<path d="M3775 3615 c0 -33 2 -35 33 -35 17 0 32 4 32 9 0 4 -11 6 -25 3 -16
-3 -25 0 -25 8 0 7 7 10 15 6 8 -3 15 -1 15 4 0 6 -7 10 -15 10 -8 0 -15 5
-15 11 0 7 10 9 25 5 14 -4 25 -2 25 4 0 5 -15 10 -32 10 -31 0 -33 -2 -33
-35z"/>
<path d="M3851 3633 c0 -11 3 -13 6 -5 11 27 25 11 20 -22 -5 -31 -3 -33 16
-28 12 3 16 7 9 10 -6 2 -12 15 -12 28 0 25 15 33 23 12 3 -8 6 -6 6 5 1 13
-7 17 -34 17 -27 0 -35 -4 -34 -17z"/>
<path d="M4185 3615 c0 -33 2 -35 34 -35 30 0 33 2 27 23 -3 12 -6 28 -6 35 0
6 -12 12 -27 12 -25 0 -28 -3 -28 -35z m45 15 c0 -5 -7 -10 -15 -10 -8 0 -15
5 -15 10 0 6 7 10 15 10 8 0 15 -4 15 -10z m5 -30 c3 -5 -3 -10 -14 -10 -12 0
-21 5 -21 10 0 6 6 10 14 10 8 0 18 -4 21 -10z"/>
<path d="M4278 3643 c6 -2 12 -15 12 -28 0 -13 -6 -26 -12 -28 -7 -3 1 -5 17
-5 17 0 24 2 18 5 -7 2 -13 15 -13 28 0 13 6 26 13 28 6 3 -1 5 -18 5 -16 0
-24 -2 -17 -5z"/>
<path d="M4341 3633 c0 -11 3 -13 6 -5 10 24 25 11 21 -18 -4 -25 -1 -30 16
-29 12 0 15 3 9 6 -7 2 -13 16 -13 29 0 25 15 33 23 12 3 -8 6 -6 6 5 1 13 -7
17 -34 17 -27 0 -35 -4 -34 -17z"/>
<path d="M4437 3643 c-13 -13 -7 -24 20 -34 19 -7 23 -13 15 -21 -8 -8 -15 -8
-27 2 -8 7 -15 8 -15 2 0 -13 26 -23 45 -16 23 9 18 33 -10 44 -14 5 -25 12
-25 16 0 3 11 3 25 0 14 -4 25 -2 25 4 0 11 -43 14 -53 3z"/>
<path d="M4597 3642 c10 -6 9 -14 -2 -35 -12 -24 -12 -27 1 -27 8 0 12 5 9 10
-3 6 3 10 15 10 12 0 18 -4 15 -10 -4 -6 6 -10 23 -10 25 0 29 3 25 20 -7 26
4 25 28 -2 l18 -23 1 33 c0 17 5 32 10 32 6 0 10 -13 10 -30 0 -27 3 -30 29
-30 21 0 32 6 36 20 10 32 -12 50 -60 50 -39 0 -43 -2 -39 -22 l5 -23 -17 23
c-24 32 -41 28 -36 -8 2 -16 0 -30 -6 -30 -5 0 -15 14 -22 30 -8 20 -19 30
-34 30 -14 0 -17 -3 -9 -8z m207 -18 c8 -20 -1 -34 -20 -34 -8 0 -14 10 -14
25 0 28 24 34 34 9z m-174 -4 c0 -5 -4 -10 -10 -10 -5 0 -10 5 -10 10 0 6 5
10 10 10 6 0 10 -4 10 -10z"/>
<path d="M5086 3642 c-7 -11 6 -27 27 -35 10 -4 15 -11 12 -17 -4 -7 -13 -7
-26 0 -11 6 -19 7 -19 1 0 -13 27 -22 45 -15 22 9 18 35 -5 41 -11 3 -20 10
-20 15 0 6 9 8 20 5 11 -3 20 -1 20 4 0 11 -47 12 -54 1z"/>
<path d="M5161 3633 c0 -11 3 -13 6 -5 8 21 23 13 23 -12 0 -13 -6 -26 -12
-28 -7 -3 -3 -7 9 -10 20 -5 21 -3 16 31 -3 24 -2 32 5 23 7 -11 10 -11 15 2
5 13 -1 16 -28 16 -27 0 -35 -4 -34 -17z"/>
<path d="M5247 3643 c-12 -11 -7 -50 7 -62 11 -9 20 -10 35 -1 22 11 26 26 15
54 -6 16 -45 22 -57 9z m49 -18 c8 -20 -13 -45 -32 -38 -14 5 -19 34 -7 46 11
12 33 7 39 -8z"/>
<path d="M5328 3616 c2 -19 11 -37 19 -40 10 -4 13 -2 10 8 -4 9 2 17 14 21
31 10 19 39 -17 43 -29 3 -30 2 -26 -32z m50 12 c-6 -18 -28 -21 -28 -4 0 9 7
16 16 16 9 0 14 -5 12 -12z"/>
<path d="M532 3498 c-30 -30 1 -94 33 -68 25 20 13 80 -15 80 -3 0 -11 -5 -18
-12z m33 -38 c0 -13 -5 -25 -12 -27 -13 -5 -27 32 -18 47 11 18 30 5 30 -20z"/>
<path d="M610 3489 c-9 -16 -9 -28 -1 -45 14 -32 39 -30 47 3 12 47 -26 81
-46 42z m38 -30 c-1 -12 -8 -24 -15 -26 -17 -6 -27 35 -12 53 16 19 32 4 27
-27z"/>
<path d="M935 3500 c-3 -5 3 -10 15 -10 22 0 22 -2 2 -60 -4 -11 -2 -12 7 -4
6 6 14 27 18 47 5 33 3 37 -15 37 -11 0 -24 -4 -27 -10z"/>
<path d="M1103 3498 c-6 -7 -9 -26 -9 -43 1 -25 5 -30 26 -30 21 0 25 5 25 30
0 30 -11 55 -25 55 -4 0 -12 -6 -17 -12z m27 -18 c0 -5 -4 -10 -9 -10 -6 0
-13 5 -16 10 -3 6 1 10 9 10 9 0 16 -4 16 -10z m5 -29 c7 -12 -12 -24 -25 -16
-11 7 -4 25 10 25 5 0 11 -4 15 -9z"/>
<path d="M1178 3485 c-13 -30 -2 -58 25 -63 20 -4 34 44 20 66 -16 26 -32 25
-45 -3z m40 -22 c-4 -33 -24 -41 -33 -14 -8 25 1 41 21 41 11 0 14 -8 12 -27z"/>
<path d="M1351 3501 c-7 -5 -11 -22 -9 -42 2 -26 8 -34 23 -34 15 0 21 8 23
31 3 34 -16 58 -37 45z m27 -42 c-5 -35 -28 -36 -28 -1 0 16 3 32 7 36 11 11
25 -10 21 -35z"/>
<path d="M1435 3481 c-19 -37 -19 -41 1 -41 8 0 12 -4 9 -10 -3 -5 1 -10 10
-10 12 0 15 9 13 41 -3 51 -13 58 -33 20z m12 -23 c-3 -8 -6 -5 -6 6 -1 11 2
17 5 13 3 -3 4 -12 1 -19z"/>
<path d="M444 3486 c-16 -41 20 -86 47 -59 6 6 1 9 -13 9 -17 -1 -24 5 -26 22
-4 26 25 42 39 21 7 -11 9 -11 9 4 0 21 -48 24 -56 3z"/>
<path d="M689 3491 c11 -7 11 -14 -2 -40 -13 -26 -13 -31 -1 -31 8 0 14 5 14
10 0 6 7 10 16 10 8 0 12 -4 9 -10 -3 -5 1 -10 9 -10 19 0 19 -1 1 44 -11 26
-21 36 -38 36 -16 0 -18 -3 -8 -9z m31 -27 c0 -8 -5 -12 -10 -9 -6 4 -8 11 -5
16 9 14 15 11 15 -7z"/>
<path d="M845 3460 c0 -37 2 -40 28 -40 33 0 42 17 28 53 -7 18 -18 27 -33 27
-20 0 -23 -5 -23 -40z m45 20 c0 -5 -7 -10 -15 -10 -8 0 -15 5 -15 10 0 6 7
10 15 10 8 0 15 -4 15 -10z m10 -40 c0 -5 -9 -10 -20 -10 -11 0 -20 5 -20 10
0 6 9 10 20 10 11 0 20 -4 20 -10z"/>
<path d="M2327 3493 c-13 -13 -7 -32 13 -38 29 -9 25 -28 -5 -21 -15 4 -25 2
-25 -4 0 -6 12 -10 27 -8 34 4 43 33 14 43 -12 3 -21 11 -21 16 0 6 9 7 20 4
11 -4 20 -2 20 4 0 12 -33 15 -43 4z"/>
<path d="M2391 3483 c0 -11 3 -13 6 -5 2 6 9 12 14 12 13 0 11 -44 -3 -58 -9
-9 -8 -12 8 -12 17 0 19 5 16 37 -4 34 -3 36 12 24 14 -11 16 -11 16 3 0 12
-9 16 -35 16 -27 0 -35 -4 -34 -17z"/>
<path d="M2485 3490 c4 -6 0 -24 -9 -40 -12 -26 -12 -30 0 -30 8 0 14 5 14 10
0 6 7 10 15 10 8 0 15 -4 15 -10 0 -5 6 -10 14 -10 11 0 10 8 -5 40 -11 22
-26 40 -35 40 -8 0 -12 -5 -9 -10z m22 -32 c-3 -8 -6 -5 -6 6 -1 11 2 17 5 13
3 -3 4 -12 1 -19z"/>
<path d="M2644 3478 c0 -13 -4 -31 -8 -40 -6 -13 -4 -18 9 -18 9 0 13 5 10 10
-3 6 1 10 9 10 9 0 16 -4 16 -10 0 -5 7 -10 15 -10 13 0 12 6 -5 40 -22 44
-45 52 -46 18z m31 -7 c3 -5 1 -12 -5 -16 -5 -3 -10 1 -10 9 0 18 6 21 15 7z"/>
<path d="M2888 3491 c12 -7 11 -14 -2 -40 -15 -28 -15 -31 -1 -31 9 0 13 5 10
10 -3 6 3 10 15 10 12 0 18 -4 15 -10 -3 -5 1 -10 9 -10 20 0 20 1 -1 45 -11
23 -23 35 -37 35 -16 0 -17 -3 -8 -9z m28 -38 c-10 -10 -19 5 -10 18 6 11 8
11 12 0 2 -7 1 -15 -2 -18z"/>
<path d="M2972 3488 c-25 -25 -6 -68 29 -68 10 0 20 4 24 9 3 6 -7 9 -22 8
-24 -2 -28 2 -28 23 0 21 4 25 28 23 15 -1 25 2 22 8 -9 13 -39 11 -53 -3z"/>
<path d="M3058 3493 c6 -2 12 -17 12 -33 0 -16 -6 -31 -12 -33 -7 -3 1 -5 17
-5 17 0 24 2 18 5 -7 2 -13 17 -13 33 0 16 6 31 13 33 6 3 -1 5 -18 5 -16 0
-24 -2 -17 -5z"/>
<path d="M3134 3483 c0 -10 -4 -28 -8 -40 -5 -14 -3 -23 3 -23 6 0 11 5 11 10
0 6 7 10 15 10 8 0 15 -4 15 -10 0 -5 6 -10 14 -10 11 0 10 8 -5 40 -20 41
-44 53 -45 23z m23 -25 c-3 -8 -6 -5 -6 6 -1 11 2 17 5 13 3 -3 4 -12 1 -19z"/>
<path d="M532 3188 c-30 -30 1 -94 33 -68 25 20 13 80 -15 80 -3 0 -11 -5 -18
-12z m33 -33 c0 -32 -19 -45 -29 -19 -9 22 3 56 17 51 7 -2 12 -16 12 -32z"/>
<path d="M610 3181 c-13 -26 -13 -33 4 -56 12 -16 16 -17 30 -6 19 16 21 52 4
69 -17 17 -26 15 -38 -7z m38 -15 c2 -9 1 -24 -3 -33 -10 -27 -39 8 -30 36 8
25 28 23 33 -3z"/>
<path d="M850 3191 c0 -5 9 -7 20 -4 23 6 23 8 10 -36 -6 -22 -6 -31 0 -25 5
5 13 24 16 42 6 30 4 32 -20 32 -14 0 -26 -4 -26 -9z"/>
<path d="M1182 3188 c-16 -16 -15 -40 2 -63 12 -16 16 -17 30 -6 25 21 15 81
-14 81 -3 0 -11 -5 -18 -12z m33 -33 c0 -32 -19 -45 -29 -19 -9 22 3 56 17 51
7 -2 12 -16 12 -32z"/>
<path d="M1430 3190 c-10 -6 -11 -10 -2 -10 15 0 16 -42 0 -58 -9 -9 -6 -12
16 -12 22 0 26 3 18 13 -6 6 -12 27 -14 44 -2 26 -6 31 -18 23z"/>
<path d="M447 3183 c-4 -3 -7 -19 -7 -34 0 -29 33 -50 51 -32 6 6 1 9 -13 9
-18 -1 -24 5 -26 28 -3 26 -1 28 22 24 14 -3 26 -1 26 3 0 10 -44 12 -53 2z"/>
<path d="M680 3150 c0 -33 3 -40 19 -40 22 0 51 25 51 44 0 19 -22 36 -47 36
-20 0 -23 -5 -23 -40z m54 14 c6 -17 -9 -44 -25 -44 -5 0 -9 14 -9 30 0 33 23
42 34 14z"/>
<path d="M925 3150 c0 -38 1 -40 33 -40 23 0 32 5 32 16 0 13 -3 14 -15 4 -14
-12 -35 -6 -35 10 0 5 7 7 15 4 8 -4 15 -1 15 5 0 6 -7 11 -15 11 -8 0 -15 5
-15 11 0 7 10 9 25 5 14 -4 25 -2 25 4 0 5 -15 10 -32 10 -32 0 -33 -2 -33
-40z"/>
<path d="M1097 3183 c-4 -3 -7 -19 -7 -34 0 -29 33 -50 51 -32 6 6 1 9 -13 9
-18 -1 -24 5 -26 28 -3 26 -1 28 22 24 14 -3 26 -1 26 3 0 10 -44 12 -53 2z"/>
<path d="M1338 3150 c3 -27 9 -40 19 -40 13 0 13 3 3 15 -11 14 -7 19 13 16 4
0 7 4 7 9 0 6 -7 10 -15 10 -8 0 -15 5 -15 11 0 7 10 9 25 7 14 -3 25 -1 25 3
0 5 -15 9 -33 9 -32 0 -32 -1 -29 -40z"/>
<path d="M2338 3183 c14 -5 17 -63 2 -63 -5 0 -14 8 -19 18 -10 16 -10 16 -11
-1 0 -10 7 -20 15 -23 21 -9 45 14 45 42 0 13 5 24 10 24 6 0 10 -16 10 -35 0
-19 5 -35 10 -35 6 0 8 12 5 28 -5 23 -5 24 5 9 11 -18 12 -18 27 0 13 17 14
16 8 -9 -3 -16 -1 -28 5 -28 5 0 10 16 10 35 0 19 5 35 10 35 10 0 14 -19 11
-52 -2 -13 5 -18 21 -17 13 0 17 3 11 6 -19 7 -15 20 8 26 13 4 20 12 17 24
-5 26 -85 31 -103 6 -13 -17 -14 -17 -20 0 -5 12 -18 17 -49 16 -22 0 -35 -3
-28 -6z m190 -15 c-6 -18 -28 -21 -28 -4 0 9 7 16 16 16 9 0 14 -5 12 -12z"/>
<path d="M2890 3171 c0 -11 9 -21 22 -25 18 -4 20 -8 11 -17 -9 -9 -16 -9 -28
1 -9 7 -15 8 -15 2 0 -13 36 -26 50 -17 17 11 11 37 -10 42 -11 3 -20 10 -20
15 0 6 9 8 20 5 11 -3 20 -1 20 4 0 5 -11 9 -25 9 -18 0 -25 -5 -25 -19z"/>
<path d="M2978 3183 c15 -6 16 -45 0 -61 -9 -9 -6 -12 17 -12 23 0 26 3 17 12
-16 16 -15 55 1 61 6 3 -1 5 -18 5 -16 0 -24 -2 -17 -5z"/>
<path d="M3047 3183 c-12 -12 -7 -50 8 -63 19 -16 49 -9 53 13 3 12 -3 17 -20
17 -18 0 -20 -2 -8 -10 18 -11 6 -25 -15 -16 -10 3 -15 15 -13 28 2 18 9 23
31 21 15 -1 27 2 27 8 0 10 -53 13 -63 2z"/>
<path d="M3125 3150 c-1 -22 4 -40 10 -40 13 0 13 72 0 77 -6 1 -10 -15 -10
-37z"/>
<path d="M3168 3168 c3 -14 2 -19 -6 -14 -16 10 -14 -5 3 -28 14 -19 15 -19
15 6 0 15 3 33 6 42 4 10 1 16 -9 16 -11 0 -13 -6 -9 -22z"/>
<path d="M3212 3178 c-29 -29 3 -82 36 -61 25 15 22 67 -3 71 -11 1 -26 -3
-33 -10z m46 -22 c2 -10 -1 -23 -7 -29 -15 -15 -46 16 -37 38 8 21 40 15 44
-9z"/>
<path d="M3285 3150 c-1 -27 3 -40 12 -40 9 0 12 8 7 28 l-6 27 25 -30 24 -29
5 42 c3 37 1 42 -17 41 -11 0 -14 -3 -7 -6 13 -5 17 -33 4 -33 -4 0 -13 9 -20
20 -19 30 -27 24 -27 -20z"/>
<path d="M3694 3165 c-4 -15 -1 -32 6 -40 16 -20 49 -19 57 0 5 14 8 14 25 -2
26 -23 53 -6 53 33 0 37 -37 46 -57 15 -7 -12 -22 -21 -33 -21 -15 0 -17 -2
-6 -9 17 -11 -2 -23 -24 -15 -9 4 -15 15 -13 28 2 16 10 21 31 21 15 -1 27 3
27 7 0 4 -13 8 -30 8 -23 0 -31 -5 -36 -25z m134 -9 c2 -10 -1 -23 -7 -29 -15
-15 -46 16 -37 38 8 21 40 15 44 -9z"/>
<path d="M3940 3173 c0 -16 2 -16 11 -3 8 11 9 6 7 -22 -3 -32 -1 -38 15 -38
14 0 17 4 11 13 -8 11 -9 20 -5 52 1 6 6 3 11 -5 8 -13 10 -12 10 3 0 12 -8
17 -30 17 -22 0 -30 -5 -30 -17z"/>
<path d="M4020 3171 c-12 -23 -5 -47 16 -55 21 -8 42 3 49 25 14 42 -44 68
-65 30z m54 -8 c4 -9 0 -23 -9 -32 -15 -15 -18 -14 -30 3 -11 14 -12 23 -4 33
16 18 36 16 43 -4z"/>
<path d="M4190 3175 c0 -8 9 -19 20 -25 29 -16 24 -31 -7 -25 -27 5 -27 5 -6
-6 29 -15 60 5 42 27 -6 8 -18 14 -25 14 -8 0 -14 5 -14 11 0 6 9 9 20 6 11
-3 20 -1 20 4 0 5 -11 9 -25 9 -15 0 -25 -6 -25 -15z"/>
<path d="M4261 3173 c0 -11 3 -13 6 -5 11 27 25 11 20 -23 -4 -26 -2 -35 8
-35 10 0 12 9 8 35 -5 34 9 50 20 23 3 -8 6 -6 6 5 1 13 -7 17 -34 17 -27 0
-35 -4 -34 -17z"/>
<path d="M4354 3168 c0 -13 -4 -31 -8 -40 -5 -11 -4 -18 3 -18 6 0 11 7 11 15
0 8 7 15 15 15 8 0 15 -7 15 -15 0 -10 10 -15 31 -15 23 0 30 4 26 14 -10 25
6 27 32 4 14 -13 20 -16 13 -7 -7 9 -11 27 -10 40 3 20 -2 24 -28 27 -29 3
-30 2 -26 -33 5 -45 -13 -46 -29 0 -15 39 -44 48 -45 13z m121 2 c3 -5 -3 -10
-14 -10 -12 0 -21 5 -21 10 0 6 6 10 14 10 8 0 18 -4 21 -10z m-90 -10 c3 -5
1 -10 -4 -10 -6 0 -11 5 -11 10 0 6 2 10 4 10 3 0 8 -4 11 -10z"/>
<path d="M4510 3173 c0 -16 2 -16 11 -3 8 11 9 6 7 -22 -3 -31 -1 -38 13 -38
15 0 16 5 9 30 -8 29 3 53 13 28 3 -8 6 -6 6 5 1 12 -7 17 -29 17 -22 0 -30
-5 -30 -17z"/>
<path d="M4677 3183 c-13 -12 -7 -50 9 -64 31 -26 70 25 44 56 -13 16 -42 20
-53 8z m50 -19 c7 -19 -20 -49 -36 -40 -12 8 -15 39 -4 49 12 12 33 7 40 -9z"/>
<path d="M4758 3150 c3 -27 9 -40 19 -40 13 0 13 3 3 15 -11 14 -7 19 13 16 4
0 7 4 7 9 0 6 -7 10 -15 10 -8 0 -15 5 -15 11 0 7 10 9 25 7 14 -3 25 -1 25 3
0 5 -15 9 -33 9 -32 0 -32 -1 -29 -40z"/>
<path d="M4910 3150 c0 -22 5 -40 11 -40 6 0 8 9 4 20 -4 11 -2 20 4 20 6 0
11 -5 11 -12 0 -9 3 -9 11 -1 8 8 6 17 -7 32 -26 30 -34 26 -34 -19z"/>
<path d="M4964 3150 c0 -22 5 -40 11 -40 6 0 11 18 10 40 0 23 -5 40 -11 40
-7 0 -11 -16 -10 -40z"/>
<path d="M5000 3175 c-6 -8 -9 -23 -5 -34 11 -36 58 -37 68 -2 11 42 -36 69
-63 36z m48 -19 c2 -10 -1 -23 -7 -29 -16 -16 -44 14 -35 37 8 22 38 17 42 -8z"/>
<path d="M5078 3150 c2 -22 8 -40 13 -40 5 0 7 12 3 28 l-6 27 25 -30 24 -29
5 42 c2 28 0 42 -8 42 -7 0 -10 -8 -7 -20 3 -11 1 -20 -5 -20 -6 0 -14 9 -17
20 -12 37 -31 23 -27 -20z"/>
<path d="M5173 3183 c20 -5 23 -43 5 -61 -9 -9 -5 -12 18 -11 16 0 23 3 17 6
-7 2 -13 17 -13 33 0 16 6 31 13 33 6 3 -4 5 -23 5 -19 0 -27 -2 -17 -5z"/>
<path d="M5241 3173 c0 -11 3 -13 6 -5 2 6 9 12 14 12 13 0 11 -44 -3 -58 -9
-9 -7 -12 9 -12 19 0 21 4 16 35 -5 34 9 50 20 23 3 -8 6 -6 6 5 1 13 -7 17
-34 17 -27 0 -35 -4 -34 -17z"/>
<path d="M5324 3176 c-16 -42 24 -83 52 -54 25 25 11 68 -22 68 -13 0 -27 -6
-30 -14z m52 -11 c8 -20 -13 -45 -32 -38 -14 5 -19 34 -7 46 11 12 33 7 39 -8z"/>
<path d="M5405 3150 c-1 -28 3 -40 13 -40 8 0 12 6 8 15 -8 21 14 19 30 -2 7
-10 14 -13 14 -6 0 6 -4 14 -9 17 -4 3 -6 17 -3 31 4 22 1 25 -24 25 -27 0
-29 -3 -29 -40z m45 20 c0 -5 -7 -10 -15 -10 -8 0 -15 5 -15 10 0 6 7 10 15
10 8 0 15 -4 15 -10z"/>
<path d="M1675 2874 c-11 -8 -13 -14 -6 -14 7 0 10 -4 7 -8 -2 -4 4 -8 14 -8
10 0 17 3 14 7 -2 4 0 9 5 11 5 1 4 8 -3 14 -9 9 -17 8 -31 -2z"/>
<path d="M1765 2876 c-17 -20 -15 -35 5 -33 10 1 17 4 14 8 -2 4 0 9 5 11 5 1
4 8 -3 14 -8 8 -14 8 -21 0z"/>
<path d="M1843 2875 c-12 -13 -5 -29 14 -32 16 -3 23 20 9 33 -9 8 -15 7 -23
-1z"/>
<path d="M1923 2875 c-12 -13 -5 -29 14 -32 16 -3 23 20 9 33 -9 8 -15 7 -23
-1z"/>
<path d="M2003 2875 c-12 -13 -5 -29 14 -32 16 -3 23 20 9 33 -9 8 -15 7 -23
-1z"/>
<path d="M2082 2873 c-8 -8 -9 -13 -2 -13 6 0 9 -4 6 -8 -2 -4 3 -8 13 -9 20
-2 24 17 6 33 -7 8 -14 7 -23 -3z"/>
<path d="M2162 2874 c-8 -9 -9 -14 -2 -14 6 0 9 -4 6 -8 -2 -4 4 -8 14 -8 18
0 21 19 4 35 -5 6 -14 4 -22 -5z"/>
<path d="M2253 2877 c-13 -22 -11 -33 7 -33 10 0 17 3 14 7 -2 4 0 9 5 11 5 1
3 9 -4 15 -11 10 -16 10 -22 0z"/>
<path d="M2335 2876 c-17 -20 -15 -35 5 -33 10 1 17 4 14 8 -2 4 0 9 5 11 5 1
4 8 -3 14 -8 8 -14 8 -21 0z"/>
<path d="M2413 2875 c-12 -13 -5 -29 14 -32 16 -3 23 20 9 33 -9 8 -15 7 -23
-1z"/>
<path d="M2493 2875 c-12 -13 -5 -29 14 -32 16 -3 23 20 9 33 -9 8 -15 7 -23
-1z"/>
<path d="M2573 2875 c-12 -13 -5 -29 14 -32 16 -3 23 20 9 33 -9 8 -15 7 -23
-1z"/>
<path d="M2652 2873 c-8 -8 -9 -13 -2 -13 6 0 9 -4 6 -8 -2 -4 3 -8 13 -9 20
-2 24 17 6 33 -7 8 -14 7 -23 -3z"/>
<path d="M2732 2874 c-8 -9 -9 -14 -2 -14 6 0 9 -4 6 -8 -2 -4 4 -8 14 -8 18
0 21 19 4 35 -5 6 -14 4 -22 -5z"/>
<path d="M2823 2877 c-13 -22 -11 -33 7 -33 10 0 17 3 14 7 -2 4 0 9 5 11 5 1
3 9 -4 15 -11 10 -16 10 -22 0z"/>
<path d="M2905 2876 c-17 -20 -15 -35 5 -33 10 1 17 4 14 8 -2 4 0 9 5 11 5 1
4 8 -3 14 -8 8 -14 8 -21 0z"/>
<path d="M2983 2875 c-12 -13 -5 -29 14 -32 16 -3 23 20 9 33 -9 8 -15 7 -23
-1z"/>
<path d="M3063 2875 c-12 -13 -5 -29 14 -32 16 -3 23 20 9 33 -9 8 -15 7 -23
-1z"/>
<path d="M3143 2875 c-12 -13 -5 -29 14 -32 16 -3 23 20 9 33 -9 8 -15 7 -23
-1z"/>
<path d="M3223 2875 c-13 -14 -5 -29 18 -33 18 -2 21 19 4 34 -7 8 -14 7 -22
-1z"/>
<path d="M3302 2874 c-8 -9 -9 -14 -2 -14 6 0 9 -4 6 -8 -2 -4 4 -8 14 -9 10
-1 17 4 16 13 -4 24 -20 33 -34 18z"/>
<path d="M3385 2874 c-11 -8 -13 -14 -6 -14 7 0 10 -4 7 -8 -2 -4 4 -8 14 -8
10 0 17 3 14 7 -2 4 0 9 5 11 5 1 4 8 -3 14 -9 9 -17 8 -31 -2z"/>
<path d="M3473 2877 c-14 -22 -11 -36 7 -34 10 1 17 4 14 8 -2 4 0 9 5 11 5 1
3 9 -4 15 -11 10 -16 10 -22 0z"/>
<path d="M3555 2876 c-17 -20 -15 -35 5 -33 24 2 32 18 16 33 -8 8 -14 8 -21
0z"/>
<path d="M3633 2875 c-12 -13 -5 -29 14 -32 16 -3 23 20 9 33 -9 8 -15 7 -23
-1z"/>
<path d="M3713 2875 c-12 -13 -5 -29 14 -32 16 -3 23 20 9 33 -9 8 -15 7 -23
-1z"/>
<path d="M3793 2875 c-13 -14 -5 -29 18 -33 18 -2 21 19 4 34 -7 8 -14 7 -22
-1z"/>
<path d="M3872 2874 c-8 -9 -9 -14 -2 -14 6 0 9 -4 6 -8 -2 -4 4 -8 14 -9 10
-1 17 4 16 13 -4 24 -20 33 -34 18z"/>
<path d="M3955 2874 c-11 -8 -13 -14 -6 -14 7 0 10 -4 7 -8 -2 -4 4 -8 14 -8
10 0 17 3 14 7 -2 4 0 9 5 11 5 1 4 8 -3 14 -9 9 -17 8 -31 -2z"/>
<path d="M4045 2876 c-17 -20 -15 -35 5 -33 10 1 17 4 14 8 -2 4 0 9 5 11 5 1
4 8 -3 14 -8 8 -14 8 -21 0z"/>
<path d="M4125 2876 c-17 -20 -15 -35 5 -33 24 2 32 18 16 33 -8 8 -14 8 -21
0z"/>
<path d="M4203 2875 c-12 -13 -5 -29 14 -32 16 -3 23 20 9 33 -9 8 -15 7 -23
-1z"/>
<path d="M4283 2875 c-12 -13 -5 -29 14 -32 16 -3 23 20 9 33 -9 8 -15 7 -23
-1z"/>
<path d="M4362 2873 c-8 -8 -9 -13 -2 -13 6 0 9 -4 6 -8 -2 -4 3 -8 13 -9 20
-2 24 17 6 33 -7 8 -14 7 -23 -3z"/>
<path d="M4442 2873 c-8 -8 -9 -13 -2 -13 6 0 9 -4 6 -8 -2 -4 3 -8 13 -9 20
-2 24 17 6 33 -7 8 -14 7 -23 -3z"/>
<path d="M4525 2874 c-11 -8 -13 -14 -6 -14 7 0 10 -4 7 -8 -2 -4 4 -8 14 -8
10 0 17 3 14 7 -2 4 0 9 5 11 5 1 4 8 -3 14 -9 9 -17 8 -31 -2z"/>
<path d="M4615 2876 c-17 -20 -15 -35 5 -33 10 1 17 4 14 8 -2 4 0 9 5 11 5 1
4 8 -3 14 -8 8 -14 8 -21 0z"/>
<path d="M4693 2875 c-12 -13 -5 -29 14 -32 16 -3 23 20 9 33 -9 8 -15 7 -23
-1z"/>
<path d="M4773 2875 c-12 -13 -5 -29 14 -32 16 -3 23 20 9 33 -9 8 -15 7 -23
-1z"/>
<path d="M3775 2695 c0 -29 4 -45 12 -45 7 0 12 10 10 21 -1 12 4 24 11 26 7
3 12 -5 12 -21 0 -14 5 -26 11 -26 6 0 8 7 5 16 -3 9 -6 22 -6 30 0 8 -9 14
-20 14 -11 0 -20 7 -20 15 0 8 -3 15 -7 15 -5 0 -8 -20 -8 -45z"/>
<path d="M1670 2720 c-12 -7 -12 -10 -1 -10 7 0 11 -6 8 -13 -3 -8 3 -13 14
-13 12 0 18 5 15 13 -3 7 0 13 7 13 8 0 6 4 -3 10 -8 5 -17 10 -20 10 -3 0
-12 -5 -20 -10z"/>
<path d="M1825 2690 c0 -32 4 -40 19 -40 15 0 16 3 6 15 -11 14 -7 19 13 16 4
0 7 4 7 9 0 6 -7 10 -15 10 -8 0 -15 5 -15 10 0 14 37 12 43 -2 4 -10 6 -10 6
0 1 6 6 12 12 12 6 0 8 -8 5 -18 -4 -10 0 -26 8 -37 19 -27 46 -13 46 25 0 21
5 30 16 30 13 0 15 -7 11 -35 -4 -24 -2 -35 6 -35 7 0 12 15 12 38 0 34 -3 37
-30 40 -28 3 -30 0 -30 -27 0 -17 -4 -30 -10 -30 -5 0 -10 13 -10 29 0 29 -1
30 -50 30 l-50 0 0 -40z"/>
<path d="M2031 2708 c10 -18 9 -20 -5 -15 -19 8 -20 -2 -2 -25 17 -23 26 -13
26 29 0 23 -5 33 -15 33 -13 0 -14 -4 -4 -22z"/>
<path d="M2072 2718 c-25 -25 -6 -68 29 -68 10 0 21 5 25 11 4 7 0 9 -13 5
-25 -8 -46 15 -37 39 5 11 14 15 30 12 13 -2 24 0 24 4 0 13 -44 11 -58 -3z"/>
<path d="M2146 2715 c-7 -18 10 -20 18 -2 3 6 5 -5 3 -25 -3 -32 0 -38 17 -38
16 0 17 3 8 12 -14 14 -16 58 -3 58 5 0 12 -6 14 -12 3 -8 6 -6 6 5 1 22 -54
24 -63 2z"/>
<path d="M2238 2723 c6 -2 12 -17 12 -33 0 -16 -6 -31 -12 -33 -7 -3 3 -5 22
-5 19 0 29 2 23 5 -7 2 -13 17 -13 33 0 16 6 31 13 33 6 3 -4 5 -23 5 -19 0
-29 -2 -22 -5z"/>
<path d="M2317 2723 c-4 -3 -7 -19 -7 -34 0 -19 6 -30 20 -34 39 -12 66 35 38
63 -13 13 -41 16 -51 5z m47 -20 c8 -19 -17 -48 -33 -39 -12 8 -15 39 -4 49
12 12 31 7 37 -10z"/>
<path d="M2387 2718 c4 -7 6 -25 4 -40 -2 -20 2 -28 13 -28 14 0 14 3 4 20 -7
10 -8 23 -4 27 5 4 11 3 13 -3 2 -6 10 -19 17 -29 12 -17 14 -15 18 23 2 28 0
42 -8 42 -7 0 -10 -9 -7 -22 l5 -23 -20 23 c-21 23 -49 31 -35 10z"/>
<path d="M2648 2723 c6 -2 12 -17 12 -33 0 -16 -6 -31 -12 -33 -7 -3 0 -6 17
-6 22 -1 26 2 17 11 -16 16 -15 55 1 61 6 3 -1 5 -18 5 -16 0 -24 -2 -17 -5z"/>
<path d="M2715 2690 c0 -26 5 -40 13 -40 8 0 10 9 6 28 l-6 27 25 -30 24 -29
5 42 c3 37 1 42 -17 41 -11 0 -14 -3 -7 -6 6 -2 12 -14 12 -26 -1 -21 -2 -20
-21 6 -28 37 -34 34 -34 -13z"/>
<path d="M2807 2723 c-4 -3 -7 -19 -7 -34 0 -29 33 -50 51 -32 6 6 1 9 -13 9
-18 -1 -23 4 -23 24 0 19 5 25 23 24 12 0 22 3 22 8 0 10 -44 11 -53 1z"/>
<path d="M2885 2690 c-1 -22 3 -40 7 -40 4 0 8 9 8 21 0 12 5 19 13 16 6 -2
11 -11 9 -21 -2 -9 1 -16 7 -16 5 0 11 18 13 40 2 27 0 40 -9 40 -7 0 -10 -7
-7 -15 4 -10 0 -15 -11 -15 -11 0 -15 5 -11 15 3 8 0 15 -7 15 -7 0 -12 -16
-12 -40z"/>
<path d="M3218 2723 c6 -2 12 -17 12 -33 0 -16 -6 -31 -12 -33 -7 -3 0 -6 17
-6 22 -1 26 2 17 11 -16 16 -15 55 1 61 6 3 -1 5 -18 5 -16 0 -24 -2 -17 -5z"/>
<path d="M3542 2714 c-7 -8 -8 -14 -2 -14 5 0 10 -9 10 -20 0 -25 27 -37 43
-20 9 10 7 11 -10 5 -19 -5 -23 -2 -23 14 0 13 7 21 18 22 13 0 14 2 2 6 -8 3
-17 9 -20 13 -3 4 -11 2 -18 -6z"/>
<path d="M4198 2719 c-13 -39 20 -85 44 -61 8 8 5 9 -11 5 -16 -4 -21 -1 -21
16 0 13 7 21 18 22 13 0 14 2 2 6 -8 3 -18 10 -21 16 -4 5 -8 4 -11 -4z"/>
<path d="M3288 2680 c5 -34 23 -42 19 -9 -1 12 4 24 11 26 7 3 12 -5 12 -21 0
-14 5 -26 11 -26 6 0 8 7 5 16 -3 9 -6 22 -6 30 0 9 -11 14 -28 14 -26 0 -28
-3 -24 -30z"/>
<path d="M3365 2667 c0 -29 4 -44 12 -44 9 0 11 7 7 19 -4 13 -1 19 8 17 30
-4 39 2 36 24 -2 16 -11 23 -33 25 -29 3 -30 2 -30 -41z m55 18 c0 -8 -9 -15
-20 -15 -20 0 -26 11 -13 23 12 13 33 7 33 -8z"/>
<path d="M3448 2698 c7 -7 12 -20 12 -30 0 -13 7 -17 25 -16 20 2 25 8 25 30
0 20 -5 28 -17 28 -15 0 -15 -2 -4 -9 8 -5 11 -16 8 -25 -10 -25 -27 -19 -27
9 0 17 -6 25 -17 25 -13 0 -14 -3 -5 -12z"/>
<path d="M3700 2695 c-10 -12 -10 -18 0 -30 14 -17 46 -20 55 -5 3 6 -1 7 -10
4 -18 -7 -47 14 -39 28 3 5 17 7 30 4 14 -4 24 -2 24 4 0 16 -46 12 -60 -5z"/>
<path d="M3880 2701 c25 -7 25 -7 3 -13 -36 -9 -29 -38 8 -38 24 0 30 3 25 16
-3 9 -6 22 -6 30 0 9 -10 14 -27 13 l-28 -1 25 -7z m15 -31 c-3 -5 -10 -10
-16 -10 -5 0 -9 5 -9 10 0 6 7 10 16 10 8 0 12 -4 9 -10z"/>
<path d="M3945 2680 c0 -25 4 -30 24 -30 23 0 24 1 6 13 -17 13 -17 15 6 30
l23 17 -29 0 c-27 0 -30 -3 -30 -30z"/>
<path d="M4044 2702 c19 -8 19 -9 -3 -15 -31 -8 -22 -31 13 -35 25 -3 27 -1
24 25 -2 22 -9 29 -28 30 -21 2 -22 1 -6 -5z m16 -32 c0 -5 -7 -10 -15 -10 -8
0 -15 5 -15 10 0 6 7 10 15 10 8 0 15 -4 15 -10z"/>
<path d="M4104 2695 c-12 -30 44 -63 61 -36 3 6 -7 9 -22 8 -19 -1 -28 3 -28
13 0 10 9 14 28 13 15 -1 25 2 22 8 -10 15 -55 10 -61 -6z"/>
<path d="M4264 2696 c-8 -22 14 -46 40 -45 20 2 20 2 -1 6 -31 6 -29 23 3 23
34 0 26 24 -9 28 -18 2 -29 -2 -33 -12z m43 -2 c-3 -3 -12 -4 -19 -1 -8 3 -5
6 6 6 11 1 17 -2 13 -5z"/>
<path d="M4354 2680 c-1 -26 2 -30 25 -30 22 1 24 2 9 11 -24 14 -22 28 5 39
20 8 20 9 -8 9 -27 1 -30 -2 -31 -29z"/>
<path d="M3050 2693 c0 -5 11 -8 25 -8 14 0 25 3 25 8 0 4 -11 7 -25 7 -14 0
-25 -3 -25 -7z"/>
<path d="M1685 2570 c-15 -25 -14 -36 6 -36 10 0 16 2 14 5 -3 2 1 11 8 19 8
11 8 14 0 9 -6 -4 -13 -2 -15 5 -3 9 -7 8 -13 -2z"/>
<path d="M1838 2568 c16 -16 15 -55 0 -61 -7 -3 1 -5 17 -5 17 0 24 2 18 5 -7
2 -13 17 -13 33 0 16 6 31 13 33 6 3 -1 6 -17 6 -23 1 -27 -2 -18 -11z"/>
<path d="M1902 2540 c-1 -28 2 -40 12 -40 10 0 12 7 8 22 -3 14 -2 19 6 14 16
-10 15 5 -2 27 -19 25 -23 22 -24 -23z"/>
<path d="M1945 2546 c0 -19 4 -38 8 -42 4 -4 7 4 7 19 0 14 3 32 6 41 4 10 1
16 -7 16 -9 0 -14 -12 -14 -34z"/>
<path d="M1994 2541 c1 -34 4 -41 21 -40 11 0 14 3 8 6 -19 7 -15 20 8 26 29
8 21 41 -12 45 -23 3 -25 0 -25 -37z m44 11 c2 -7 -3 -12 -12 -12 -9 0 -16 7
-16 16 0 17 22 14 28 -4z"/>
<path d="M2069 2543 c7 -40 36 -57 52 -31 11 17 11 68 0 68 -5 0 -8 -14 -7
-32 1 -24 -4 -33 -18 -36 -16 -3 -18 1 -14 32 2 23 0 36 -7 36 -8 0 -10 -12
-6 -37z"/>
<path d="M2146 2565 c-7 -18 10 -20 18 -2 3 6 5 -5 3 -25 -3 -33 0 -38 18 -37
11 0 14 3 8 6 -15 5 -17 49 -4 57 5 4 12 0 14 -6 3 -8 6 -6 6 5 1 22 -54 24
-63 2z"/>
<path d="M2394 2531 c1 -36 13 -41 18 -8 3 25 23 21 22 -5 0 -10 5 -18 12 -18
9 0 10 8 5 28 -5 19 -15 28 -33 30 -22 3 -25 0 -24 -27z"/>
<path d="M2480 2545 c-7 -8 -10 -22 -6 -30 7 -20 55 -20 62 0 7 17 -12 45 -31
45 -7 0 -18 -7 -25 -15z m50 -16 c0 -16 -31 -22 -43 -10 -9 9 -9 14 2 20 16
10 41 4 41 -10z"/>
<path d="M2555 2529 c0 -16 5 -29 11 -29 6 0 10 10 10 21 -1 12 5 24 13 27 10
3 13 -2 9 -22 -4 -17 -1 -26 8 -26 9 0 10 8 5 27 -5 20 -14 28 -32 30 -20 1
-24 -3 -24 -28z"/>
<path d="M2641 2546 c-19 -23 -2 -46 33 -45 l31 1 -30 8 -30 8 28 1 c29 1 34
10 15 29 -16 16 -33 15 -47 -2z m39 -6 c0 -5 -7 -10 -15 -10 -8 0 -15 5 -15
10 0 6 7 10 15 10 8 0 15 -4 15 -10z"/>
<path d="M1675 2414 c-11 -8 -13 -14 -6 -14 7 0 9 -4 6 -10 -3 -5 3 -10 15
-10 12 0 19 4 16 9 -4 5 -2 11 3 13 5 1 4 8 -3 14 -9 9 -17 8 -31 -2z"/>
<path d="M2555 2390 c0 -24 5 -40 12 -40 6 0 9 9 6 20 -4 14 0 20 11 20 9 0
16 -8 16 -20 0 -11 4 -20 9 -20 4 0 6 11 3 25 -3 16 -11 25 -23 25 -11 0 -19
7 -19 15 0 8 -3 15 -7 15 -5 0 -8 -18 -8 -40z"/>
<path d="M1827 2413 c-12 -11 -7 -50 7 -62 11 -9 20 -10 35 -1 22 11 26 26 15
54 -6 16 -45 22 -57 9z m49 -18 c8 -20 -13 -45 -32 -38 -14 5 -19 34 -7 46 11
12 33 7 39 -8z"/>
<path d="M1907 2388 c7 -36 19 -49 39 -41 15 6 24 73 9 73 -5 0 -10 -12 -10
-27 0 -16 -4 -28 -10 -28 -5 0 -10 12 -10 28 0 15 -5 27 -12 27 -9 0 -11 -10
-6 -32z"/>
<path d="M1981 2403 c0 -11 3 -13 6 -5 10 24 25 11 21 -18 -4 -25 -1 -30 16
-29 12 0 15 3 9 6 -7 2 -13 16 -13 29 0 25 15 33 23 12 3 -8 6 -6 6 5 1 13 -7
17 -34 17 -27 0 -35 -4 -34 -17z"/>
<path d="M2075 2385 c0 -28 4 -35 20 -35 15 0 17 2 6 9 -11 7 -9 10 8 16 32
10 28 45 -6 45 -25 0 -28 -3 -28 -35z m43 13 c-6 -18 -28 -21 -28 -4 0 9 7 16
16 16 9 0 14 -5 12 -12z"/>
<path d="M2148 2390 c5 -38 27 -57 46 -41 18 15 27 71 11 71 -7 0 -10 -11 -7
-30 4 -26 1 -30 -18 -30 -19 0 -22 4 -18 30 3 19 0 30 -7 30 -7 0 -10 -11 -7
-30z"/>
<path d="M2230 2403 c0 -16 2 -16 11 -3 8 12 9 7 6 -17 -3 -26 0 -33 13 -33
13 0 16 7 13 33 -3 24 -2 29 6 17 9 -13 11 -13 11 3 0 12 -8 17 -30 17 -22 0
-30 -5 -30 -17z"/>
<path d="M3457 2412 c10 -6 9 -14 -2 -35 -12 -24 -12 -27 1 -27 8 0 12 5 9 10
-3 6 3 10 15 10 12 0 18 -4 15 -10 -3 -5 1 -10 9 -10 14 0 14 4 -1 35 -11 23
-24 35 -37 35 -14 0 -17 -3 -9 -8z m33 -22 c0 -5 -4 -10 -10 -10 -5 0 -10 5
-10 10 0 6 5 10 10 10 6 0 10 -4 10 -10z"/>
<path d="M2649 2399 c-10 -6 -8 -9 11 -10 23 -1 21 -2 -19 -15 -24 -8 10 -34
35 -28 16 4 20 11 16 29 -5 27 -23 37 -43 24z m26 -39 c-3 -5 -10 -10 -16 -10
-5 0 -9 5 -9 10 0 6 7 10 16 10 8 0 12 -4 9 -10z"/>
<path d="M3139 2399 c-10 -6 -8 -9 11 -10 21 -1 22 -2 5 -6 -49 -12 -40 -45 9
-36 18 4 22 10 18 28 -5 27 -23 37 -43 24z m31 -33 c0 -2 -7 -6 -15 -10 -8 -3
-15 -1 -15 4 0 6 7 10 15 10 8 0 15 -2 15 -4z"/>
<path d="M2476 2384 c-8 -22 -8 -22 14 -34 15 -8 25 -8 38 0 15 10 14 10 -4 5
-27 -7 -55 21 -30 31 9 3 23 4 31 0 8 -3 15 -1 15 4 0 17 -57 11 -64 -6z"/>
<path d="M2725 2375 c0 -20 5 -25 25 -24 19 0 21 2 8 7 -19 8 -12 25 12 35 8
3 2 6 -15 6 -26 1 -30 -3 -30 -24z"/>
<path d="M2898 2393 c18 -7 15 -31 -5 -36 -10 -3 -2 -5 17 -5 19 0 29 2 23 5
-7 2 -13 13 -13 24 0 12 -7 19 -17 18 -11 0 -13 -3 -5 -6z"/>
<path d="M2965 2375 c0 -14 3 -25 8 -25 4 0 7 9 7 20 0 12 7 20 16 20 11 0 15
-6 11 -20 -3 -12 0 -20 8 -20 8 0 11 9 7 25 -3 19 -11 25 -31 25 -21 0 -26 -5
-26 -25z"/>
<path d="M3210 2376 c0 -27 24 -41 48 -26 14 8 13 9 -8 7 -17 -1 -25 4 -28 17
-3 15 1 18 22 14 14 -3 26 -1 26 3 0 5 -13 9 -30 9 -25 0 -30 -4 -30 -24z"/>
<path d="M3297 2393 c-4 -3 -7 -14 -7 -24 0 -22 38 -35 54 -19 8 9 7 11 -4 10
-29 -4 -40 0 -40 16 0 12 7 15 25 12 14 -3 25 -1 25 3 0 10 -44 12 -53 2z"/>
<path d="M2335 2350 c3 -5 8 -10 11 -10 2 0 4 5 4 10 0 6 -5 10 -11 10 -5 0
-7 -4 -4 -10z"/>
<path d="M1671 2261 c-9 -6 -10 -11 -2 -15 6 -4 9 -11 7 -15 -3 -3 4 -7 14 -7
10 0 17 4 14 7 -2 4 1 11 7 15 8 4 7 9 -2 15 -8 5 -16 9 -19 9 -3 0 -11 -4
-19 -9z"/>
<path d="M1820 2230 c0 -36 3 -40 25 -40 31 0 50 32 35 60 -6 12 -21 20 -35
20 -22 0 -25 -4 -25 -40z m49 11 c8 -14 7 -22 -4 -31 -17 -14 -35 -5 -35 19 0
34 24 42 39 12z"/>
<path d="M1905 2230 c0 -38 1 -40 33 -40 22 0 32 5 32 15 0 13 -3 13 -20 3
-22 -14 -41 -2 -20 13 11 8 12 12 3 16 -7 2 -13 9 -13 14 0 14 28 11 33 -3 3
-8 6 -6 6 5 1 12 -7 17 -26 17 -26 0 -28 -3 -28 -40z"/>
<path d="M1994 2258 c-4 -7 2 -18 14 -26 28 -18 29 -36 2 -29 -11 3 -20 1 -20
-5 0 -14 53 -5 58 9 2 7 -8 18 -22 24 -31 14 -35 34 -6 26 11 -3 20 -1 20 4 0
13 -38 11 -46 -3z"/>
<path d="M2060 2254 c0 -14 2 -14 16 -3 15 12 16 10 12 -24 -3 -32 -1 -37 16
-37 16 0 17 3 8 12 -14 14 -16 58 -3 58 5 0 12 -6 14 -12 3 -8 6 -6 6 5 1 13
-7 17 -34 17 -26 0 -35 -4 -35 -16z"/>
<path d="M2145 2230 c0 -32 4 -40 19 -40 15 0 16 3 6 15 -10 12 -9 15 4 15 9
0 19 -7 22 -15 4 -8 11 -15 16 -15 7 0 6 5 -1 14 -6 7 -10 24 -9 37 3 20 -2
24 -27 27 -29 3 -30 1 -30 -38z m50 21 c7 -12 -12 -24 -25 -16 -11 7 -4 25 10
25 5 0 11 -4 15 -9z"/>
<path d="M2230 2250 c-14 -26 3 -60 30 -60 27 0 44 34 30 60 -6 11 -19 20 -30
20 -11 0 -24 -9 -30 -20z m50 -6 c11 -12 10 -18 -3 -32 -16 -15 -18 -15 -34 0
-13 14 -14 20 -3 32 7 9 16 16 20 16 4 0 13 -7 20 -16z"/>
<path d="M2325 2244 c13 -20 14 -28 4 -40 -9 -11 -8 -14 9 -14 15 0 19 5 15
20 -3 12 2 29 12 40 16 18 17 20 2 20 -10 0 -17 -7 -17 -15 0 -8 -4 -15 -10
-15 -5 0 -10 7 -10 15 0 8 -5 15 -11 15 -7 0 -5 -10 6 -26z"/>
<path d="M2407 2263 c-13 -13 -7 -32 13 -38 31 -10 24 -28 -7 -20 -21 5 -25 4
-17 -5 7 -7 20 -10 30 -8 27 5 30 35 5 43 -27 8 -27 29 -1 22 11 -3 20 -1 20
4 0 10 -33 12 -43 2z"/>
<path d="M2968 2261 c12 -7 11 -14 -2 -40 -15 -27 -15 -31 -1 -31 8 0 15 5 15
10 0 6 7 10 16 10 8 0 12 -4 9 -10 -3 -5 1 -10 9 -10 20 0 20 1 -1 45 -11 23
-23 35 -37 35 -16 0 -17 -3 -8 -9z m32 -27 c0 -8 -5 -12 -10 -9 -6 4 -8 11 -5
16 9 14 15 11 15 -7z"/>
<path d="M2659 2243 l24 -5 -23 -11 c-33 -17 -30 -32 8 -35 36 -4 36 -3 22 32
-7 18 -16 26 -32 25 -23 -2 -23 -2 1 -6z m21 -33 c0 -5 -7 -10 -15 -10 -8 0
-15 5 -15 10 0 6 7 10 15 10 8 0 15 -4 15 -10z"/>
<path d="M2724 2235 c-10 -25 4 -45 31 -45 14 0 25 4 25 8 0 5 -10 8 -22 8
-14 -1 -23 5 -23 14 0 9 9 15 23 14 12 0 22 3 22 8 0 14 -50 8 -56 -7z"/>
<path d="M2804 2235 c-10 -25 4 -45 31 -45 14 0 25 4 25 8 0 5 -10 8 -22 8
-14 -1 -23 5 -23 14 0 9 9 15 23 14 12 0 22 3 22 8 0 14 -50 8 -56 -7z"/>
<path d="M1684 2108 c-14 -23 -12 -34 6 -34 12 0 17 6 14 19 -5 27 -10 31 -20
15z"/>
<path d="M1830 2106 c-6 -8 -10 -25 -8 -38 3 -20 9 -23 51 -25 26 -1 47 3 47
8 0 5 7 9 15 9 8 0 15 -4 15 -10 0 -5 23 -10 50 -10 41 0 50 3 49 18 0 10 -3
12 -6 5 -2 -7 -12 -13 -20 -13 -12 0 -14 8 -10 35 5 31 3 35 -16 35 -16 0 -18
-3 -9 -12 7 -7 12 -22 12 -35 0 -36 -29 -28 -46 12 -14 34 -53 53 -40 19 11
-28 -10 -51 -46 -50 -24 1 -34 6 -36 20 -5 23 18 39 35 24 8 -6 17 -8 20 -4 8
8 -15 26 -33 26 -6 0 -17 -7 -24 -14z"/>
<path d="M2077 2089 c4 -21 1 -34 -8 -40 -10 -6 -2 -9 24 -9 29 0 37 4 36 18
0 10 -3 12 -6 5 -2 -7 -12 -13 -20 -13 -12 0 -14 8 -10 35 4 26 2 35 -8 35
-11 0 -13 -8 -8 -31z"/>
<path d="M2162 2108 c-14 -14 2 -38 24 -38 8 0 14 -5 14 -11 0 -7 -10 -9 -25
-7 -14 3 -25 1 -25 -4 0 -14 53 -5 58 9 2 7 -9 18 -24 23 -20 8 -24 14 -16 22
8 8 15 8 27 -2 8 -7 15 -8 15 -2 0 5 -7 13 -16 16 -20 8 -18 8 -32 -6z"/>
<path d="M2394 2068 c1 -33 13 -37 18 -5 3 25 23 21 22 -5 0 -10 5 -18 12 -18
9 0 10 8 5 28 -6 20 -14 27 -33 27 -21 1 -25 -3 -24 -27z"/>
<path d="M2480 2085 c-7 -8 -10 -22 -6 -30 7 -20 55 -20 62 0 7 17 -12 45 -31
45 -7 0 -18 -7 -25 -15z m44 -26 c-7 -13 -31 -11 -40 2 -9 16 18 30 33 17 7
-6 10 -14 7 -19z"/>
<path d="M2559 2096 c-7 -10 -2 -56 6 -56 7 0 11 9 11 20 -1 10 4 18 9 17 6
-1 10 -10 9 -19 0 -10 5 -18 12 -18 23 0 0 55 -24 56 -12 1 -22 1 -23 0z"/>
<path d="M2641 2086 c-19 -23 -2 -46 33 -45 l31 1 -30 8 -30 8 28 1 c29 1 34
10 15 29 -16 16 -33 15 -47 -2z m39 -6 c0 -5 -7 -10 -15 -10 -8 0 -15 5 -15
10 0 6 7 10 15 10 8 0 15 -4 15 -10z"/>
<path d="M3300 1960 c-10 -6 -11 -10 -2 -10 6 0 12 -11 12 -25 0 -14 -5 -25
-12 -25 -6 0 -8 -3 -4 -7 10 -10 46 -11 46 -1 0 4 -4 8 -9 8 -6 0 -11 16 -13
35 -2 28 -6 33 -18 25z"/>
<path d="M3535 1925 c0 -25 3 -45 8 -45 4 0 7 11 7 25 0 16 6 25 16 25 12 0
15 -6 10 -25 -4 -14 -2 -25 4 -25 5 0 10 12 10 26 0 17 -6 28 -20 31 -11 3
-20 12 -20 19 0 8 -3 14 -7 14 -5 0 -8 -20 -8 -45z"/>
<path d="M4285 1953 c-4 -10 -9 -29 -10 -43 -2 -21 2 -26 21 -28 13 -1 24 3
24 8 0 6 -7 10 -15 10 -21 0 -19 30 3 31 10 0 12 3 5 6 -18 7 -16 21 5 26 13
4 12 5 -4 6 -12 0 -25 -7 -29 -16z"/>
<path d="M5258 1958 c15 -15 16 -58 2 -58 -5 0 -10 -4 -10 -9 0 -5 11 -8 25
-8 14 0 25 3 25 8 0 5 -4 9 -10 9 -5 0 -10 16 -10 35 0 26 -4 35 -17 35 -13 0
-14 -3 -5 -12z"/>
<path d="M1670 1950 c-11 -7 -11 -10 -2 -10 7 0 11 -4 8 -9 -3 -5 4 -11 15
-14 15 -4 19 -2 15 9 -3 8 0 14 7 14 8 0 6 4 -3 10 -8 5 -17 10 -20 10 -3 0
-12 -5 -20 -10z"/>
<path d="M1820 1921 c0 -39 4 -41 52 -32 4 0 10 10 13 21 9 27 -11 50 -41 50
-21 0 -24 -5 -24 -39z m53 17 c7 -21 -4 -38 -24 -38 -14 0 -19 7 -19 25 0 18
5 25 19 25 11 0 21 -6 24 -12z"/>
<path d="M1905 1921 c-1 -36 1 -38 29 -37 16 1 31 6 33 12 2 7 -6 10 -22 7
-15 -3 -25 -1 -25 6 0 7 5 9 10 6 6 -3 10 -1 10 4 0 6 -4 11 -10 11 -5 0 -10
5 -10 11 0 6 9 9 20 6 11 -3 20 -1 20 4 0 5 -12 9 -27 9 -26 0 -28 -3 -28 -39z"/>
<path d="M1997 1953 c-13 -13 -7 -24 20 -34 19 -7 23 -13 15 -21 -8 -8 -15 -8
-27 2 -8 7 -15 8 -15 2 0 -16 31 -23 46 -11 16 13 1 39 -22 39 -8 0 -14 5 -14
11 0 6 9 9 20 6 11 -3 20 -1 20 4 0 10 -33 12 -43 2z"/>
<path d="M2070 1945 c-26 -31 25 -85 54 -55 8 9 6 11 -10 6 -26 -8 -47 14 -38
39 5 11 14 15 30 12 13 -2 24 0 24 4 0 15 -47 10 -60 -6z"/>
<path d="M2148 1920 c2 -22 9 -40 14 -40 6 0 8 6 5 14 -10 25 6 27 30 4 13
-12 23 -16 23 -10 0 7 -5 12 -10 12 -6 0 -9 12 -8 28 3 24 -1 27 -27 30 -30 3
-31 2 -27 -38z m47 20 c3 -5 -3 -10 -14 -10 -12 0 -21 5 -21 10 0 6 6 10 14
10 8 0 18 -4 21 -10z"/>
<path d="M2239 1951 c9 -6 12 -19 8 -38 -5 -23 -2 -29 13 -29 15 0 18 6 13 29
-4 19 -1 32 8 38 10 6 3 9 -21 9 -24 0 -31 -3 -21 -9z"/>
<path d="M2318 1920 c3 -26 9 -40 18 -40 8 0 14 5 14 10 0 6 -6 10 -12 10 -7
0 -2 6 12 13 35 18 32 41 -5 45 -30 3 -31 2 -27 -38z m43 15 c-1 -15 -24 -12
-29 3 -3 9 2 13 12 10 10 -1 17 -7 17 -13z"/>
<path d="M2391 1943 c0 -11 3 -13 6 -5 8 21 23 13 23 -13 0 -14 -4 -25 -10
-25 -5 0 -10 -4 -10 -9 0 -6 9 -9 19 -8 16 1 18 7 14 34 -5 32 10 47 20 21 3
-8 6 -6 6 5 1 13 -7 17 -34 17 -27 0 -35 -4 -34 -17z"/>
<path d="M2488 1953 c14 -6 17 -53 2 -53 -5 0 -10 -4 -10 -9 0 -5 11 -8 25 -8
14 0 25 3 25 8 0 5 -4 9 -10 9 -15 0 -12 47 3 53 6 3 -1 5 -18 5 -16 0 -24 -2
-17 -5z"/>
<path d="M2556 1945 c-11 -29 -7 -44 15 -55 27 -15 51 5 47 39 -2 20 -9 27
-29 29 -17 2 -29 -3 -33 -13z m52 -21 c2 -12 -4 -24 -12 -27 -19 -7 -40 18
-32 39 8 22 40 13 44 -12z"/>
<path d="M2635 1922 c-1 -25 4 -39 12 -39 8 0 11 9 7 26 l-5 26 17 -22 c23
-32 34 -28 34 12 0 27 -4 35 -17 34 -11 0 -13 -3 -5 -6 13 -5 17 -33 4 -33 -4
0 -13 9 -20 20 -18 30 -27 24 -27 -18z"/>
<path d="M2884 1946 c-9 -23 -1 -48 19 -60 14 -9 21 -7 32 8 13 17 15 17 30 2
18 -18 41 -21 49 -7 4 5 -2 7 -13 4 -10 -3 -22 0 -25 6 -5 7 4 11 23 11 23 0
29 4 25 15 -7 17 -49 20 -59 5 -3 -5 -18 -10 -33 -10 -21 0 -23 -3 -12 -10 19
-12 8 -22 -14 -14 -10 4 -16 15 -14 28 2 16 9 21 31 19 15 -1 25 2 22 8 -9 14
-55 11 -61 -5z m123 -22 c-3 -3 -12 -4 -19 -1 -8 3 -5 6 6 6 11 1 17 -2 13 -5z"/>
<path d="M3058 1949 c-14 -41 20 -85 45 -59 9 9 8 11 -8 8 -12 -2 -21 3 -23
15 -2 11 3 17 15 18 14 0 15 2 3 6 -8 3 -18 10 -21 16 -4 5 -8 4 -11 -4z"/>
<path d="M3949 1948 c-5 -46 20 -76 47 -59 17 11 17 11 -3 6 -18 -5 -23 -2
-23 14 0 11 8 22 18 24 16 4 16 5 0 6 -10 0 -18 6 -18 11 0 15 -20 12 -21 -2z"/>
<path d="M4682 1944 c-7 -8 -8 -14 -2 -14 5 0 10 -9 10 -20 0 -25 27 -37 43
-20 9 10 7 11 -10 5 -19 -5 -23 -2 -23 14 0 13 7 21 18 22 13 0 14 2 2 6 -8 3
-17 9 -20 13 -3 4 -11 2 -18 -6z"/>
<path d="M3130 1929 c0 -6 9 -13 20 -16 11 -3 20 -10 20 -15 0 -5 -10 -6 -22
-3 -18 6 -20 5 -11 -5 13 -14 43 -7 43 11 0 6 -10 14 -22 17 -23 6 -23 6 2 13
l25 7 -27 1 c-16 1 -28 -4 -28 -10z"/>
<path d="M3457 1933 c-4 -3 -7 -14 -7 -24 0 -22 38 -35 54 -19 8 8 7 10 -4 6
-20 -8 -44 9 -35 24 4 6 16 10 26 7 11 -3 19 -1 19 4 0 10 -43 12 -53 2z"/>
<path d="M3640 1931 l25 -8 -25 -4 c-35 -6 -33 -34 3 -35 33 -1 37 4 26 34 -5
14 -16 22 -31 21 -22 -1 -22 -1 2 -8z m20 -25 c0 -9 -30 -14 -35 -6 -4 6 3 10
14 10 12 0 21 -2 21 -4z"/>
<path d="M3704 1912 c-1 -20 4 -28 18 -29 10 -1 18 2 18 8 0 5 -4 9 -10 9 -19
0 -10 21 13 30 20 8 20 9 -8 9 -26 1 -30 -3 -31 -27z"/>
<path d="M3800 1930 c23 -7 23 -8 3 -9 -22 -1 -40 -18 -29 -28 3 -4 20 -7 36
-8 23 -1 30 2 25 12 -3 8 -5 21 -5 29 0 9 -10 14 -27 13 l-28 -1 25 -8z m15
-30 c-3 -5 -10 -10 -16 -10 -5 0 -9 5 -9 10 0 6 7 10 16 10 8 0 12 -4 9 -10z"/>
<path d="M3867 1933 c-4 -3 -7 -14 -7 -24 0 -21 38 -35 53 -20 9 9 5 11 -13 9
-17 -2 -25 3 -28 16 -3 15 1 18 22 14 14 -3 26 -1 26 3 0 10 -44 12 -53 2z"/>
<path d="M4027 1934 c-4 -4 -7 -15 -7 -25 0 -21 37 -36 52 -21 8 8 5 9 -9 6
-12 -3 -24 -1 -27 5 -5 7 3 11 19 11 17 0 25 5 23 13 -5 14 -40 21 -51 11z
m36 -11 c-7 -2 -19 -2 -25 0 -7 3 -2 5 12 5 14 0 19 -2 13 -5z"/>
<path d="M4108 1933 c14 -6 16 -33 2 -33 -5 0 -10 -4 -10 -9 0 -5 11 -8 25 -8
14 0 25 3 25 8 0 5 -4 9 -10 9 -19 0 -10 21 13 30 18 7 16 9 -18 9 -22 -1 -34
-3 -27 -6z"/>
<path d="M4354 1912 c-1 -22 4 -28 23 -30 12 -1 23 3 23 8 0 6 -7 10 -15 10
-23 0 -18 19 8 30 20 8 20 9 -8 9 -26 1 -30 -3 -31 -27z"/>
<path d="M4437 1933 c-13 -12 -7 -41 10 -47 21 -8 48 17 40 38 -6 16 -38 22
-50 9z m41 -20 c-2 -10 -10 -18 -18 -18 -8 0 -16 8 -18 18 -2 12 3 17 18 17
15 0 20 -5 18 -17z"/>
<path d="M4504 1910 c-1 -17 3 -30 7 -30 5 0 10 12 10 28 1 20 2 22 6 7 9 -35
23 -41 24 -9 1 20 3 23 6 9 3 -11 10 -24 15 -30 8 -7 9 -4 4 8 -3 10 -6 25 -6
33 0 9 -11 14 -32 14 -30 0 -33 -3 -34 -30z"/>
<path d="M4754 1925 c-12 -31 44 -63 61 -35 4 7 -2 9 -19 4 -16 -4 -26 -2 -26
5 0 6 11 11 25 11 18 0 23 4 19 15 -8 20 -53 19 -60 0z m43 -1 c-3 -3 -12 -4
-19 -1 -8 3 -5 6 6 6 11 1 17 -2 13 -5z"/>
<path d="M4844 1912 c-1 -20 4 -28 17 -29 10 -1 21 2 24 8 4 5 -1 9 -10 9 -24
0 -12 24 13 28 18 3 22 -2 22 -22 0 -14 5 -26 11 -26 6 0 8 8 4 19 -3 11 -1
22 5 26 5 3 10 -3 10 -14 0 -11 5 -23 10 -26 7 -4 9 2 4 19 -4 16 -2 26 5 26
6 0 11 -9 11 -20 0 -11 4 -20 9 -20 4 0 6 11 3 25 -4 24 -8 25 -71 25 -65 0
-66 0 -67 -28z"/>
<path d="M5008 1933 c14 -6 16 -33 2 -33 -5 0 -10 -4 -10 -9 0 -5 11 -8 25 -8
14 0 25 3 25 8 0 5 -4 9 -10 9 -5 0 -10 9 -10 20 0 13 -6 20 -17 19 -11 0 -13
-3 -5 -6z"/>
<path d="M5080 1911 c0 -17 4 -31 10 -31 5 0 9 10 7 23 -1 14 3 22 13 22 10 0
14 -8 13 -22 -2 -13 2 -23 8 -23 6 0 9 12 7 28 -2 21 -9 28 -30 30 -25 3 -28
0 -28 -27z"/>
<path d="M5184 1932 c19 -8 19 -9 -3 -15 -31 -8 -22 -32 13 -33 23 -1 27 2 24
25 -2 19 -9 27 -28 28 -21 2 -22 1 -6 -5z m11 -32 c-3 -5 -10 -10 -16 -10 -5
0 -9 5 -9 10 0 6 7 10 16 10 8 0 12 -4 9 -10z"/>
<path d="M450 1646 c-6 -8 -10 -25 -8 -38 2 -17 10 -23 31 -24 25 -1 25 -1 2
3 -19 3 -25 10 -25 30 0 22 4 25 25 21 28 -6 34 6 9 16 -21 8 -20 8 -34 -8z"/>
<path d="M525 1640 c-9 -30 4 -60 26 -60 24 0 33 21 25 55 -8 31 -42 34 -51 5z
m40 -20 c0 -27 -22 -39 -31 -16 -8 22 3 49 19 43 6 -2 12 -14 12 -27z"/>
<path d="M610 1650 c0 -5 5 -10 10 -10 15 0 12 -47 -2 -53 -7 -3 1 -5 17 -5
17 0 24 2 18 5 -7 2 -13 20 -13 39 0 24 -5 34 -15 34 -8 0 -15 -4 -15 -10z"/>
<path d="M691 1642 c-15 -29 -3 -64 23 -60 17 2 21 10 21 38 0 40 -27 54 -44
22z m37 -25 c2 -19 -1 -27 -12 -27 -11 0 -16 10 -16 31 0 38 24 35 28 -4z"/>
<path d="M938 1636 c-14 -31 -4 -56 21 -56 31 0 37 21 12 42 l-23 18 23 9 24
10 -23 0 c-14 1 -26 -8 -34 -23z m42 -37 c0 -5 -7 -9 -15 -9 -15 0 -20 12 -9
23 8 8 24 -1 24 -14z"/>
<path d="M1098 1653 c-3 -4 -4 -21 -4 -38 1 -25 5 -30 26 -30 22 0 25 4 25 35
0 28 -4 36 -22 38 -11 2 -23 0 -25 -5z m32 -18 c0 -8 -4 -15 -9 -15 -13 0 -22
16 -14 24 11 11 23 6 23 -9z m5 -35 c3 -5 -3 -10 -14 -10 -12 0 -21 5 -21 10
0 6 6 10 14 10 8 0 18 -4 21 -10z"/>
<path d="M1175 1640 c-9 -30 4 -60 26 -60 24 0 33 21 25 55 -8 31 -42 34 -51
5z m43 -14 c2 -10 -1 -23 -7 -29 -16 -16 -34 6 -26 33 8 24 28 22 33 -4z"/>
<path d="M1347 1654 c-4 -4 -7 -23 -7 -41 0 -30 3 -34 23 -31 18 2 22 9 22 38
0 33 -20 51 -38 34z m31 -37 c2 -19 -1 -27 -12 -27 -11 0 -16 10 -16 31 0 38
24 35 28 -4z"/>
<path d="M1437 1639 c-21 -29 -21 -39 -1 -39 8 0 12 -4 9 -10 -3 -5 1 -10 9
-10 17 0 20 31 7 64 -7 18 -8 18 -24 -5z"/>
<path d="M1835 1646 c-10 -7 -15 -22 -13 -37 2 -19 9 -24 33 -26 21 -1 23 0 7
4 -29 6 -38 28 -22 49 9 10 16 12 24 4 12 -12 26 -13 26 -1 0 15 -38 20 -55 7z"/>
<path d="M2975 1646 c-10 -7 -15 -22 -13 -37 2 -19 9 -24 33 -26 21 -1 23 0 7
4 -29 6 -38 28 -22 49 9 10 16 12 24 4 12 -12 26 -13 26 -1 0 15 -38 20 -55 7z"/>
<path d="M3706 1647 c-11 -8 -17 -23 -14 -38 2 -19 10 -25 36 -27 24 -2 32 1
32 12 0 9 -8 16 -17 16 -15 0 -16 -2 -3 -10 12 -8 11 -10 -8 -10 -27 0 -39 24
-22 45 9 11 17 12 31 4 11 -5 19 -6 19 0 0 5 -7 12 -16 15 -20 8 -17 8 -38 -7z"/>
<path d="M4032 1648 c-14 -14 2 -38 24 -38 8 0 14 -5 14 -11 0 -7 -10 -9 -25
-7 -14 3 -25 1 -25 -3 0 -5 14 -9 30 -9 35 0 43 29 10 37 -11 3 -20 10 -20 15
0 6 9 8 20 5 24 -6 27 8 4 17 -20 8 -18 8 -32 -6z"/>
<path d="M4440 1644 c-14 -15 -5 -34 15 -34 8 0 17 -5 21 -11 5 -8 -1 -10 -20
-7 -14 3 -26 1 -26 -4 0 -14 53 -5 58 9 2 7 -8 17 -22 23 -33 12 -34 24 -1 18
29 -6 34 7 5 15 -10 3 -24 -1 -30 -9z"/>
<path d="M845 1615 c0 -33 2 -35 32 -35 31 0 33 2 29 33 -3 27 -8 32 -32 35
-27 3 -29 1 -29 -33z m45 15 c0 -5 -7 -10 -15 -10 -8 0 -15 5 -15 10 0 6 7 10
15 10 8 0 15 -4 15 -10z m10 -30 c0 -5 -9 -10 -20 -10 -11 0 -20 5 -20 10 0 6
9 10 20 10 11 0 20 -4 20 -10z"/>
<path d="M1668 1643 c6 -2 12 -15 12 -28 0 -13 -6 -26 -12 -28 -7 -3 3 -6 22
-6 24 0 31 2 21 8 -8 5 -12 19 -9 35 5 23 2 26 -21 25 -14 0 -20 -3 -13 -6z"/>
<path d="M1738 1615 c3 -25 9 -35 21 -34 10 0 11 2 4 6 -15 5 -18 33 -4 33 5
0 13 -9 16 -20 10 -31 22 -24 27 15 3 23 0 35 -8 35 -7 0 -10 -9 -8 -22 l5
-23 -17 23 c-25 33 -41 28 -36 -13z"/>
<path d="M1905 1615 c0 -21 5 -35 12 -35 7 0 10 7 7 15 -4 10 0 15 11 15 11 0
15 -5 11 -15 -3 -8 0 -15 7 -15 7 0 12 14 12 35 0 21 -5 35 -12 35 -7 0 -10
-7 -7 -15 4 -10 0 -15 -11 -15 -11 0 -15 5 -11 15 3 8 0 15 -7 15 -7 0 -12
-14 -12 -35z"/>
<path d="M2315 1615 c0 -33 2 -35 33 -35 24 0 32 4 32 18 0 14 -2 14 -9 3 -5
-8 -16 -11 -24 -8 -16 6 -17 23 -4 45 6 8 2 12 -10 12 -14 0 -18 -8 -18 -35z"/>
<path d="M2390 1614 c0 -32 2 -35 26 -32 56 6 53 68 -2 68 -21 0 -24 -5 -24
-36z m50 1 c0 -18 -5 -25 -20 -25 -15 0 -20 7 -20 25 0 18 5 25 20 25 15 0 20
-7 20 -25z"/>
<path d="M2485 1640 c4 -6 -1 -22 -9 -35 -15 -22 -15 -25 -1 -25 8 0 15 5 15
10 0 6 7 10 15 10 8 0 15 -4 15 -10 0 -5 7 -10 15 -10 11 0 10 7 -6 35 -12 19
-28 35 -36 35 -8 0 -11 -5 -8 -10z"/>
<path d="M2644 1641 c4 -5 2 -21 -4 -35 -8 -21 -7 -26 6 -26 8 0 12 5 9 10 -3
6 3 10 15 10 12 0 18 -4 15 -10 -3 -5 0 -10 8 -10 12 0 12 5 -1 35 -10 22 -23
35 -35 35 -10 0 -16 -4 -13 -9z m36 -21 c0 -5 -4 -10 -10 -10 -5 0 -10 5 -10
10 0 6 5 10 10 10 6 0 10 -4 10 -10z"/>
<path d="M2887 1643 c10 -7 9 -15 -2 -36 -12 -24 -12 -27 1 -27 8 0 12 5 9 10
-3 6 3 10 15 10 12 0 18 -4 15 -10 -3 -5 1 -10 9 -10 26 0 -7 64 -36 68 -14 2
-19 0 -11 -5z m33 -23 c0 -5 -4 -10 -10 -10 -5 0 -10 5 -10 10 0 6 5 10 10 10
6 0 10 -4 10 -10z"/>
<path d="M3058 1643 c6 -2 12 -15 12 -28 0 -13 -6 -26 -12 -28 -7 -3 1 -5 17
-5 17 0 24 2 18 5 -7 2 -13 15 -13 28 0 13 6 26 13 28 6 3 -1 5 -18 5 -16 0
-24 -2 -17 -5z"/>
<path d="M3134 1633 c-1 -10 -4 -26 -9 -35 -4 -11 -3 -18 4 -18 6 0 11 5 11
10 0 6 7 10 15 10 8 0 15 -4 15 -10 0 -5 6 -10 14 -10 11 0 10 6 -3 35 -17 36
-46 47 -47 18z m31 -13 c3 -5 1 -10 -4 -10 -6 0 -11 5 -11 10 0 6 2 10 4 10 3
0 8 -4 11 -10z"/>
<path d="M3775 1615 c0 -33 2 -35 33 -35 17 0 32 4 32 9 0 4 -11 6 -25 3 -15
-2 -25 0 -25 7 0 6 7 11 15 11 8 0 15 4 15 10 0 5 -7 7 -15 4 -8 -4 -15 -1
-15 6 0 8 9 10 25 6 14 -4 25 -2 25 4 0 5 -15 10 -32 10 -31 0 -33 -2 -33 -35z"/>
<path d="M3850 1640 c0 -5 7 -7 16 -3 14 5 16 1 12 -25 -4 -27 -1 -32 16 -31
12 0 15 3 9 6 -7 2 -13 16 -13 29 0 25 15 33 23 12 3 -8 6 -6 6 5 1 13 -7 17
-34 17 -19 0 -35 -4 -35 -10z"/>
<path d="M4101 1633 c0 -11 3 -13 6 -5 8 21 23 13 23 -12 0 -13 -6 -27 -12
-29 -7 -3 -4 -6 8 -6 17 -1 20 4 16 29 -4 29 11 42 21 18 3 -8 6 -6 6 5 1 13
-7 17 -34 17 -27 0 -35 -4 -34 -17z"/>
<path d="M4195 1640 c4 -6 -1 -22 -9 -35 -15 -22 -15 -25 -1 -25 8 0 15 5 15
10 0 14 28 12 33 -2 2 -7 7 -11 10 -8 10 10 -22 70 -38 70 -9 0 -13 -5 -10
-10z m25 -20 c0 -5 -5 -10 -11 -10 -5 0 -7 5 -4 10 3 6 8 10 11 10 2 0 4 -4 4
-10z"/>
<path d="M4261 1633 c0 -11 3 -13 6 -5 8 21 23 13 23 -12 0 -13 -6 -27 -12
-29 -7 -3 1 -5 17 -5 17 0 24 2 18 5 -7 2 -13 16 -13 29 0 25 15 33 23 12 3
-8 6 -6 6 5 1 13 -7 17 -34 17 -27 0 -35 -4 -34 -17z"/>
<path d="M4349 1618 c6 -27 12 -33 31 -33 21 0 26 5 28 33 2 17 -1 32 -5 32
-5 0 -9 -12 -8 -27 0 -19 -6 -29 -19 -31 -16 -3 -18 1 -14 27 3 20 0 31 -7 31
-9 0 -10 -10 -6 -32z"/>
<path d="M532 1498 c-30 -30 1 -94 33 -68 25 20 13 80 -15 80 -3 0 -11 -5 -18
-12z m33 -33 c0 -32 -19 -45 -29 -19 -9 22 3 56 17 51 7 -2 12 -16 12 -32z"/>
<path d="M620 1500 c-10 -6 -11 -10 -2 -10 15 0 16 -42 0 -58 -9 -9 -5 -12 18
-12 16 0 24 4 17 8 -6 4 -13 24 -15 44 -2 31 -6 36 -18 28z"/>
<path d="M694 1499 c-4 -8 -3 -9 4 -5 19 12 35 -3 21 -20 -8 -10 -8 -14 0 -14
6 0 11 -7 11 -16 0 -11 -6 -15 -20 -11 -11 3 -20 1 -20 -5 0 -5 10 -8 23 -6
19 3 22 9 22 43 0 29 -4 41 -17 43 -9 2 -20 -2 -24 -9z"/>
<path d="M877 1504 c-4 -4 -5 -16 -3 -28 2 -12 1 -15 -1 -8 -6 16 -23 6 -23
-14 0 -8 7 -14 16 -14 8 0 12 -4 9 -10 -3 -5 1 -10 10 -10 14 0 16 7 11 42 -6
45 -9 51 -19 42z"/>
<path d="M930 1500 c0 -6 8 -10 18 -8 18 3 20 -10 7 -52 -5 -19 -4 -22 4 -14
7 6 14 27 18 47 5 35 4 37 -21 37 -14 0 -26 -5 -26 -10z"/>
<path d="M447 1493 c-4 -3 -7 -19 -7 -34 0 -29 33 -50 51 -32 6 6 1 9 -13 9
-18 -1 -23 4 -23 24 0 19 5 25 23 24 12 0 22 3 22 8 0 10 -44 11 -53 1z"/>
<path d="M2319 1491 c12 -8 12 -13 -2 -35 -21 -31 -21 -36 -2 -36 8 0 15 7 15
15 0 8 7 15 16 15 10 0 14 -6 10 -15 -3 -9 0 -15 9 -15 19 0 19 2 -2 45 -11
23 -23 35 -37 35 -16 0 -18 -2 -7 -9z m31 -21 c0 -5 -5 -10 -11 -10 -5 0 -7 5
-4 10 3 6 8 10 11 10 2 0 4 -4 4 -10z"/>
<path d="M2400 1481 c0 -10 9 -21 20 -24 11 -3 20 -11 20 -17 0 -8 -9 -10 -26
-6 -17 5 -23 3 -19 -4 9 -15 41 -12 55 5 10 12 7 17 -14 26 -31 14 -35 34 -6
26 11 -3 20 -1 20 4 0 5 -11 9 -25 9 -18 0 -25 -5 -25 -19z"/>
<path d="M2475 1460 c-1 -28 3 -40 13 -40 8 0 12 6 8 15 -3 9 0 15 8 15 8 0
17 -7 20 -16 4 -9 9 -14 12 -11 3 3 2 12 -2 19 -5 7 -8 22 -9 33 0 14 -8 21
-25 23 -23 3 -25 -1 -25 -38z m43 19 c-2 -6 -8 -10 -13 -10 -5 0 -11 4 -13 10
-2 6 4 11 13 11 9 0 15 -5 13 -11z"/>
<path d="M2644 1478 c0 -13 -4 -31 -8 -40 -6 -13 -4 -18 8 -18 10 0 13 6 10
15 -4 9 0 15 10 15 9 0 16 -7 16 -15 0 -8 6 -15 14 -15 12 0 12 7 -2 40 -19
43 -46 54 -48 18z m31 -8 c3 -5 1 -10 -4 -10 -6 0 -11 5 -11 10 0 6 2 10 4 10
3 0 8 -4 11 -10z"/>
<path d="M3707 1493 c-13 -12 -7 -23 18 -35 28 -13 23 -32 -6 -23 -11 4 -19 2
-19 -4 0 -15 35 -14 49 2 12 15 -3 37 -26 37 -7 0 -13 5 -13 11 0 6 9 9 20 6
11 -3 20 -1 20 4 0 10 -33 12 -43 2z"/>
<path d="M3775 1460 c0 -26 5 -40 13 -40 7 0 12 7 10 16 -2 10 3 19 11 22 10
3 12 -1 8 -17 -3 -13 0 -21 7 -21 7 0 12 15 11 40 0 24 -5 40 -12 40 -7 0 -10
-7 -7 -15 4 -10 0 -15 -11 -15 -11 0 -15 5 -11 15 3 8 0 15 -7 15 -7 0 -12
-15 -12 -40z"/>
<path d="M3868 1493 c6 -2 12 -17 12 -33 0 -16 -6 -31 -12 -33 -7 -3 0 -6 17
-6 22 -1 26 2 17 11 -18 18 -15 56 6 61 9 3 1 5 -18 5 -19 0 -29 -2 -22 -5z"/>
<path d="M3945 1460 c-1 -34 2 -40 20 -39 11 0 14 3 8 6 -7 2 -13 11 -13 19 0
8 6 11 15 8 8 -4 15 -1 15 5 0 6 -7 11 -15 11 -8 0 -15 5 -15 11 0 7 10 9 25
7 14 -3 25 -1 25 3 0 5 -15 9 -32 9 -32 0 -33 -2 -33 -40z"/>
<path d="M4020 1483 c0 -15 2 -16 10 -3 7 12 10 12 16 -4 4 -10 2 -27 -5 -37
-9 -16 -8 -19 7 -19 15 0 17 7 14 38 -2 28 -1 33 7 22 9 -13 11 -13 11 3 0 12
-8 17 -30 17 -22 0 -30 -5 -30 -17z"/>
<path d="M4185 1460 c-1 -26 3 -40 12 -40 7 0 10 7 7 15 -8 20 10 19 26 -1 17
-20 79 -15 94 9 15 23 -3 51 -37 55 -21 3 -25 0 -20 -17 3 -12 2 -28 -1 -38
-9 -22 -30 -1 -31 30 0 16 -7 23 -25 25 -23 3 -25 -1 -25 -38z m43 18 c-6 -18
-28 -21 -28 -4 0 9 7 16 16 16 9 0 14 -5 12 -12z m86 -4 c6 -17 -9 -44 -25
-44 -5 0 -9 14 -9 30 0 33 23 42 34 14z"/>
<path d="M4345 1460 c0 -27 4 -40 14 -40 8 0 11 6 7 15 -8 21 21 19 33 -2 6
-10 11 -13 11 -6 0 6 -5 15 -10 18 -8 5 -7 11 0 20 16 20 4 35 -28 35 -25 0
-27 -3 -27 -40z m43 19 c-2 -6 -8 -10 -13 -10 -5 0 -11 4 -13 10 -2 6 4 11 13
11 9 0 15 -5 13 -11z"/>
<path d="M4435 1460 c-1 -34 2 -40 20 -39 11 0 14 3 8 6 -7 2 -13 11 -13 19 0
9 5 12 10 9 6 -3 10 -1 10 4 0 6 -4 11 -10 11 -5 0 -10 5 -10 11 0 7 10 9 25
5 14 -4 25 -2 25 4 0 5 -15 10 -32 10 -32 0 -33 -2 -33 -40z"/>
<path d="M4595 1460 c0 -33 3 -40 20 -40 15 0 16 3 7 12 -17 17 -15 29 3 22 8
-4 15 -1 15 5 0 6 -7 11 -15 11 -8 0 -15 5 -15 10 0 14 37 12 43 -2 3 -8 6 -6
6 5 1 13 -7 17 -31 17 -32 0 -33 -2 -33 -40z"/>
<path d="M4675 1460 l0 -40 48 0 c35 0 47 4 47 15 0 8 7 15 15 15 8 0 15 -7
15 -15 0 -8 5 -15 10 -15 13 0 13 4 -4 45 -11 26 -21 35 -38 35 -16 0 -19 -3
-10 -8 10 -7 10 -15 2 -37 -8 -21 -13 -26 -19 -16 -6 9 -11 10 -15 2 -15 -23
-28 -10 -24 24 3 27 0 35 -12 35 -11 0 -15 -11 -15 -40z m115 10 c0 -5 -5 -10
-11 -10 -5 0 -7 5 -4 10 3 6 8 10 11 10 2 0 4 -4 4 -10z"/>
<path d="M4842 1488 c-27 -27 -2 -73 35 -66 24 5 30 38 6 38 -15 0 -16 -2 -3
-10 12 -8 12 -10 -3 -16 -23 -8 -40 8 -35 32 2 13 12 19 31 19 15 -1 27 3 27
7 0 12 -45 9 -58 -4z"/>
<path d="M5008 1493 c6 -2 12 -17 12 -33 0 -16 -6 -31 -12 -33 -7 -3 0 -6 17
-6 22 -1 26 2 17 11 -16 16 -15 55 1 61 6 3 -1 5 -18 5 -16 0 -24 -2 -17 -5z"/>
<path d="M5075 1460 c0 -26 5 -40 13 -40 8 0 10 9 6 28 l-6 27 25 -30 24 -29
5 42 c2 28 0 42 -8 42 -7 0 -10 -8 -7 -20 3 -11 1 -20 -5 -20 -6 0 -14 9 -17
20 -11 35 -30 23 -30 -20z"/>
<path d="M5160 1483 c0 -15 2 -16 10 -3 7 12 10 12 16 -4 4 -10 2 -27 -5 -37
-9 -16 -8 -19 7 -19 15 0 17 7 14 38 -2 25 0 33 6 24 7 -11 10 -11 15 2 5 13
-1 16 -28 16 -27 0 -35 -4 -35 -17z"/>
<path d="M5247 1493 c-13 -12 -7 -50 9 -64 31 -26 70 25 44 56 -13 16 -42 20
-53 8z m50 -19 c7 -19 -20 -49 -36 -40 -12 8 -15 39 -4 49 12 12 33 7 40 -9z"/>
<path d="M5404 1475 c-4 -15 -1 -32 6 -40 15 -18 46 -20 56 -4 4 7 0 9 -12 5
-26 -8 -47 7 -42 30 3 14 11 18 31 17 15 -1 27 2 27 8 0 5 -13 9 -30 9 -23 0
-31 -5 -36 -25z"/>
<path d="M5494 1483 c0 -10 -4 -28 -8 -40 -5 -14 -3 -23 3 -23 6 0 11 7 11 15
0 8 7 15 15 15 8 0 15 -7 15 -15 0 -10 10 -15 31 -15 24 0 30 4 25 15 -3 9 0
15 10 15 8 0 17 -7 20 -15 4 -9 19 -15 36 -15 26 0 29 2 18 15 -18 22 7 20 34
-2 16 -14 18 -15 8 -2 -7 9 -11 27 -10 40 3 20 -2 24 -28 27 -29 3 -30 2 -26
-34 3 -28 1 -35 -9 -32 -8 3 -14 18 -14 34 0 25 -4 29 -31 32 -29 3 -30 2 -26
-33 5 -45 -10 -45 -31 0 -18 37 -42 47 -43 18z m120 -2 c3 -5 0 -11 -8 -14
-15 -6 -26 1 -26 15 0 11 27 10 34 -1z m80 0 c3 -5 -1 -11 -9 -15 -15 -6 -29
7 -18 18 9 9 21 8 27 -3z m-169 -11 c3 -5 1 -10 -4 -10 -6 0 -11 5 -11 10 0 6
2 10 4 10 3 0 8 -4 11 -10z"/>
<path d="M5744 1471 c11 -21 12 -31 3 -40 -8 -8 -6 -11 10 -11 16 0 20 5 16
20 -3 12 2 29 12 40 16 18 17 20 2 20 -10 0 -17 -7 -17 -15 0 -8 -4 -15 -10
-15 -5 0 -10 7 -10 15 0 8 -5 15 -10 15 -6 0 -4 -12 4 -29z"/>
<path d="M863 1353 c-21 -8 -15 -22 7 -16 27 7 25 -6 -7 -39 l-27 -28 35 1
c25 0 29 2 16 8 -17 6 -17 8 -3 20 30 25 14 66 -21 54z"/>
<path d="M444 1336 c-12 -32 0 -61 29 -64 15 -2 27 1 27 6 0 5 -10 8 -22 8
-14 -1 -24 6 -26 18 -6 27 13 42 33 26 12 -10 15 -10 15 4 0 20 -48 22 -56 2z"/>
<path d="M525 1330 c-9 -29 4 -60 25 -60 21 0 36 39 26 65 -8 22 -44 18 -51
-5z m40 -20 c0 -13 -6 -25 -12 -27 -16 -6 -27 21 -19 43 9 23 31 11 31 -16z"/>
<path d="M618 1343 c6 -2 12 -17 12 -33 0 -16 -6 -31 -12 -33 -7 -3 1 -5 17
-5 17 0 24 2 18 5 -7 2 -13 20 -13 39 0 26 -4 34 -17 33 -11 0 -13 -3 -5 -6z"/>
<path d="M716 1325 c4 -15 2 -25 -5 -25 -6 0 -8 8 -5 18 5 14 3 14 -11 -3 -15
-19 -15 -20 5 -23 11 -2 18 -8 15 -13 -4 -5 1 -9 11 -9 12 0 15 6 10 23 -3 12
-6 30 -6 40 0 9 -5 17 -10 17 -6 0 -8 -11 -4 -25z"/>
<path d="M946 1328 c-20 -28 -20 -38 0 -38 8 0 12 -4 9 -10 -3 -5 1 -10 9 -10
12 0 16 10 16 40 0 45 -11 51 -34 18z m24 -12 c0 -3 -4 -8 -10 -11 -5 -3 -10
-1 -10 4 0 6 5 11 10 11 6 0 10 -2 10 -4z"/>
<path d="M1095 1310 c0 -34 3 -40 20 -39 11 0 14 3 8 6 -18 7 -16 23 2 23 8 0
15 5 15 11 0 6 -7 9 -15 5 -9 -3 -15 0 -15 9 0 18 21 20 38 3 9 -9 12 -8 12 5
0 13 -9 17 -32 17 -32 0 -33 -2 -33 -40z"/>
<path d="M1177 1339 c9 -9 8 -19 -3 -40 -13 -26 -13 -29 1 -29 9 0 13 5 10 10
-3 6 3 10 15 10 12 0 18 -4 15 -10 -3 -5 1 -10 10 -10 14 0 14 4 0 36 -8 20
-15 38 -15 40 0 2 -10 4 -22 4 -17 0 -19 -3 -11 -11z m33 -29 c0 -5 -4 -10
-10 -10 -5 0 -10 5 -10 10 0 6 5 10 10 10 6 0 10 -4 10 -10z"/>
<path d="M2315 1310 c0 -37 2 -40 27 -40 33 0 39 9 29 46 -5 21 -14 30 -32 32
-22 3 -24 0 -24 -38z m37 15 c0 -5 -5 -11 -11 -13 -6 -2 -11 4 -11 13 0 9 5
15 11 13 6 -2 11 -8 11 -13z m8 -35 c0 -5 -7 -10 -15 -10 -8 0 -15 5 -15 10 0
6 7 10 15 10 8 0 15 -4 15 -10z"/>
<path d="M2400 1336 c-19 -24 -8 -61 19 -64 13 -2 27 0 32 5 5 5 -3 9 -19 8
-22 0 -27 4 -27 25 0 21 4 25 28 23 15 -1 25 2 22 8 -9 14 -41 11 -55 -5z"/>
<path d="M2482 1338 c-15 -15 -15 -41 0 -56 14 -14 44 -16 52 -4 2 4 -8 8 -22
7 -21 0 -28 5 -30 23 -4 27 22 40 45 21 14 -12 16 -12 11 1 -6 19 -40 24 -56
8z"/>
<path d="M2898 1338 c17 -17 15 -45 -5 -57 -15 -8 -11 -10 17 -10 19 0 29 3
23 6 -7 2 -13 17 -13 33 0 16 6 31 13 33 6 3 -1 6 -17 6 -23 1 -27 -2 -18 -11z"/>
<path d="M2960 1310 c0 -31 4 -40 17 -40 13 0 14 3 5 12 -17 17 -15 31 3 24
18 -7 19 3 1 27 -20 26 -26 21 -26 -23z"/>
<path d="M3005 1316 c0 -19 4 -38 8 -42 4 -4 7 4 7 19 0 14 3 32 6 41 4 10 1
16 -7 16 -9 0 -14 -12 -14 -34z"/>
<path d="M3051 1336 c-20 -24 -10 -60 18 -64 13 -2 27 0 32 5 5 5 -3 9 -19 8
-21 0 -28 5 -30 23 -4 27 22 40 45 21 14 -12 16 -12 11 1 -6 21 -42 24 -57 6z"/>
<path d="M3125 1310 c0 -25 5 -40 12 -40 7 0 10 7 7 15 -4 10 0 15 11 15 11 0
15 -5 11 -15 -3 -8 0 -15 7 -15 7 0 12 16 12 40 1 25 -4 40 -11 40 -7 0 -10
-8 -7 -21 4 -16 2 -20 -8 -17 -8 3 -13 13 -13 22 1 9 -3 16 -10 16 -6 0 -11
-17 -11 -40z"/>
<path d="M3695 1310 c0 -25 5 -40 12 -40 7 0 10 7 7 15 -4 8 -2 15 4 15 5 0
15 -7 22 -15 8 -9 30 -15 56 -15 36 0 44 3 43 18 0 10 -3 12 -6 5 -6 -15 -43
-17 -43 -3 0 6 7 10 15 10 8 0 15 5 15 10 0 6 -7 10 -16 10 -8 0 -12 5 -9 10
4 6 16 8 27 4 14 -4 18 -2 14 5 -4 6 -20 11 -35 11 -25 0 -27 -3 -23 -35 4
-36 -7 -45 -27 -21 -9 10 -9 16 -1 21 16 10 -8 35 -34 35 -18 0 -21 -6 -21
-40z m43 12 c2 -7 -3 -12 -12 -12 -9 0 -16 7 -16 16 0 17 22 14 28 -4z"/>
<path d="M3860 1330 c-15 -28 4 -60 35 -60 14 0 25 4 25 9 0 4 -11 6 -24 4
-29 -6 -44 24 -22 45 12 13 18 13 30 2 13 -10 16 -10 16 4 0 24 -47 21 -60 -4z"/>
<path d="M3948 1343 c6 -2 12 -17 12 -33 0 -16 -6 -31 -12 -33 -7 -3 3 -6 22
-6 26 -1 31 2 20 9 -17 10 -20 39 -6 58 6 9 1 12 -20 11 -16 0 -23 -3 -16 -6z"/>
<path d="M4026 1325 c4 -15 1 -32 -6 -40 -11 -13 -7 -15 24 -15 20 0 36 4 36
9 0 5 -9 7 -20 4 -22 -6 -28 12 -7 21 10 5 10 7 0 12 -7 3 -13 10 -13 15 0 14
28 11 33 -3 3 -8 6 -6 6 5 1 12 -7 17 -29 17 -27 0 -30 -2 -24 -25z"/>
<path d="M4111 1308 l21 -42 20 37 c21 42 42 40 36 -4 -4 -27 -2 -29 29 -29
18 0 33 5 33 10 0 6 -11 8 -25 4 -15 -4 -25 -2 -25 5 0 6 5 11 10 11 6 0 10 5
10 11 0 5 -4 7 -10 4 -5 -3 -10 1 -10 9 0 19 26 21 33 4 3 -8 6 -6 6 5 1 14
-8 17 -50 17 -31 0 -48 -4 -44 -10 9 -14 -4 -52 -16 -45 -5 4 -9 17 -9 31 0
15 -6 24 -15 24 -13 0 -12 -7 6 -42z"/>
<path d="M4345 1310 c0 -22 5 -40 10 -40 13 0 13 72 -1 77 -6 2 -10 -13 -9
-37z"/>
<path d="M4388 1338 c7 -7 12 -18 12 -26 0 -12 -3 -12 -15 -2 -18 15 -19 1 -1
-22 20 -27 26 -22 26 22 0 31 -4 40 -17 40 -13 0 -14 -3 -5 -12z"/>
<path d="M4430 1335 c-24 -29 8 -75 44 -62 21 8 22 63 0 71 -23 9 -30 8 -44
-9z m45 -26 c0 -28 -29 -38 -39 -13 -7 19 11 47 28 41 6 -2 11 -14 11 -28z"/>
<path d="M4510 1333 c0 -16 2 -16 11 -3 8 11 9 6 7 -22 -3 -31 -1 -38 13 -38
15 0 16 5 9 30 -8 29 3 53 13 28 3 -8 6 -6 6 5 1 12 -7 17 -29 17 -22 0 -30
-5 -30 -17z"/>
<path d="M4674 1311 c1 -25 6 -41 13 -41 7 0 10 7 7 15 -4 8 -2 15 4 15 5 0
15 -7 22 -15 14 -17 146 -22 135 -5 -3 6 1 10 9 10 9 0 16 -5 16 -11 0 -17 82
-6 94 14 15 23 -3 51 -37 55 -25 3 -26 1 -20 -32 7 -47 -12 -48 -31 -1 -14 33
-52 53 -40 21 9 -24 -12 -49 -45 -52 -17 -2 -31 1 -31 6 0 6 5 10 10 10 6 0
10 5 10 11 0 5 -4 7 -10 4 -5 -3 -10 1 -10 9 0 19 26 21 33 4 3 -8 6 -6 6 5 1
12 -7 17 -28 17 -29 0 -29 -2 -24 -36 5 -32 4 -36 -13 -32 -14 2 -19 12 -19
33 0 25 -5 31 -26 33 -23 3 -25 0 -25 -37z m38 14 c0 -5 -5 -11 -11 -13 -6 -2
-11 4 -11 13 0 9 5 15 11 13 6 -2 11 -8 11 -13z m248 0 c15 -18 6 -45 -15 -45
-10 0 -15 10 -15 30 0 33 11 38 30 15z m-93 -17 c-3 -8 -6 -5 -6 6 -1 11 2 17
5 13 3 -3 4 -12 1 -19z"/>
<path d="M5005 1330 c10 -11 15 -28 12 -40 -4 -15 0 -20 15 -20 16 0 18 3 9
13 -8 10 -7 19 4 33 17 23 19 34 5 34 -5 0 -10 -7 -10 -15 0 -8 -4 -15 -10
-15 -5 0 -10 7 -10 15 0 8 -7 15 -17 15 -15 0 -14 -2 2 -20z"/>
<path d="M452 1188 c-31 -31 -1 -90 35 -69 16 9 15 10 -9 11 -23 0 -28 4 -28
26 0 23 3 26 25 22 28 -6 34 6 9 16 -20 8 -18 8 -32 -6z"/>
<path d="M524 1176 c-7 -28 12 -69 28 -64 36 12 34 88 -2 88 -12 0 -22 -9 -26
-24z m41 -16 c0 -13 -6 -25 -12 -27 -16 -6 -27 21 -19 43 9 23 31 11 31 -16z"/>
<path d="M615 1190 c-3 -5 -1 -10 4 -10 15 0 14 -47 -1 -53 -7 -3 1 -5 17 -5
17 0 24 2 18 5 -7 2 -13 20 -13 39 0 33 -12 45 -25 24z"/>
<path d="M702 1188 c-17 -17 -15 -53 3 -68 11 -9 19 -10 26 -3 16 16 6 48 -14
47 -24 -2 -21 11 6 24 14 7 17 11 7 11 -9 1 -21 -4 -28 -11z m28 -49 c0 -5 -7
-9 -15 -9 -15 0 -20 12 -9 23 8 8 24 -1 24 -14z"/>
<path d="M940 1181 c-15 -29 -12 -49 9 -60 14 -8 22 -7 32 5 11 14 10 19 -10
35 l-23 19 23 9 c24 10 24 10 2 10 -12 1 -27 -8 -33 -18z m40 -42 c0 -5 -7 -9
-15 -9 -15 0 -20 12 -9 23 8 8 24 -1 24 -14z"/>
<path d="M1099 1198 c-8 -19 -3 -70 7 -79 21 -17 43 6 39 39 -2 15 -4 30 -4
35 -1 6 -39 11 -42 5z m31 -23 c0 -8 -4 -15 -9 -15 -13 0 -22 16 -14 24 11 11
23 6 23 -9z m5 -35 c3 -5 -3 -10 -15 -10 -12 0 -18 5 -15 10 3 6 10 10 15 10
5 0 12 -4 15 -10z"/>
<path d="M1182 1188 c-17 -17 -15 -44 4 -63 29 -28 56 13 38 59 -7 19 -25 21
-42 4z m36 -22 c2 -10 -1 -23 -7 -29 -16 -16 -34 6 -26 33 8 24 28 22 33 -4z"/>
<path d="M1347 1194 c-13 -13 -7 -72 7 -77 21 -8 38 17 34 50 -3 27 -26 42
-41 27z m31 -37 c2 -19 -1 -27 -12 -27 -11 0 -16 10 -16 31 0 38 24 35 28 -4z"/>
<path d="M1420 1180 c0 -13 7 -20 20 -20 11 0 20 -7 20 -15 0 -8 -9 -15 -21
-15 -11 0 -17 -4 -14 -10 9 -14 21 -12 39 5 19 19 10 45 -15 45 -27 0 -24 18
4 23 19 4 18 4 -5 6 -22 1 -28 -4 -28 -19z"/>
<path d="M2976 1188 c-40 -22 -3 -88 41 -71 15 6 12 8 -12 13 -21 4 -30 11
-30 25 0 16 6 20 28 18 15 -1 27 2 27 6 0 13 -36 19 -54 9z"/>
<path d="M3295 1190 c-3 -5 -1 -10 4 -10 15 0 14 -47 -1 -53 -7 -3 1 -5 17 -5
17 0 24 2 18 5 -7 2 -13 20 -13 39 0 33 -12 45 -25 24z"/>
<path d="M3705 1183 c-32 -31 -2 -83 39 -67 22 8 20 34 -1 34 -16 0 -16 -2 -3
-11 12 -8 10 -9 -10 -7 -37 4 -35 43 3 43 32 -1 36 10 7 18 -11 3 -27 -1 -35
-10z"/>
<path d="M4037 1188 c-9 -5 -17 -20 -17 -33 0 -28 29 -48 51 -34 10 6 7 9 -13
9 -23 0 -28 4 -28 26 0 23 3 26 25 22 14 -3 25 -2 25 2 0 13 -26 18 -43 8z"/>
<path d="M845 1155 c0 -33 2 -35 34 -35 30 0 33 2 27 23 -3 12 -6 28 -6 35 0
6 -12 12 -27 12 -25 0 -28 -3 -28 -35z m45 15 c0 -5 -7 -10 -15 -10 -8 0 -15
5 -15 10 0 6 7 10 15 10 8 0 15 -4 15 -10z m10 -30 c0 -5 -9 -10 -20 -10 -11
0 -20 5 -20 10 0 6 9 10 20 10 11 0 20 -4 20 -10z"/>
<path d="M2315 1155 c0 -33 2 -35 33 -35 24 0 32 4 31 18 0 10 -3 12 -6 5 -2
-7 -11 -13 -18 -13 -17 0 -26 35 -12 49 8 8 6 11 -8 11 -16 0 -20 -7 -20 -35z"/>
<path d="M2390 1155 c0 -32 2 -35 29 -35 21 0 32 6 36 20 9 27 -11 50 -41 50
-21 0 -24 -5 -24 -35z m50 0 c0 -18 -5 -25 -20 -25 -15 0 -20 7 -20 25 0 18 5
25 20 25 15 0 20 -7 20 -25z"/>
<path d="M2485 1180 c4 -6 -1 -22 -9 -35 -15 -22 -15 -25 -1 -25 8 0 15 5 15
10 0 14 28 12 33 -2 2 -7 7 -10 11 -6 11 10 -23 68 -40 68 -8 0 -12 -5 -9 -10z
m25 -20 c0 -5 -5 -10 -11 -10 -5 0 -7 5 -4 10 3 6 8 10 11 10 2 0 4 -4 4 -10z"/>
<path d="M2646 1176 c3 -8 1 -24 -6 -35 -9 -17 -8 -21 5 -21 9 0 13 5 10 10
-3 6 3 10 15 10 12 0 18 -4 15 -10 -3 -5 0 -10 8 -10 12 0 12 5 -1 35 -10 21
-23 35 -34 35 -11 0 -15 -5 -12 -14z m34 -16 c0 -5 -4 -10 -10 -10 -5 0 -10 5
-10 10 0 6 5 10 10 10 6 0 10 -4 10 -10z"/>
<path d="M2887 1183 c10 -7 9 -15 -2 -36 -12 -24 -12 -27 1 -27 8 0 12 5 9 10
-3 6 3 10 15 10 12 0 18 -4 15 -10 -3 -5 1 -10 9 -10 26 0 -7 64 -36 68 -14 2
-19 0 -11 -5z m33 -23 c0 -5 -4 -10 -10 -10 -5 0 -10 5 -10 10 0 6 5 10 10 10
6 0 10 -4 10 -10z"/>
<path d="M3058 1183 c6 -2 12 -15 12 -28 0 -13 -6 -26 -12 -28 -7 -3 1 -5 17
-5 17 0 24 2 18 5 -7 2 -13 15 -13 28 0 13 6 26 13 28 6 3 -1 5 -18 5 -16 0
-24 -2 -17 -5z"/>
<path d="M3134 1173 c-1 -10 -4 -26 -9 -35 -4 -11 -3 -18 4 -18 6 0 11 5 11
10 0 6 7 10 15 10 8 0 15 -4 15 -10 0 -5 7 -10 15 -10 11 0 10 7 -6 35 -22 38
-44 46 -45 18z m31 -13 c3 -5 1 -10 -4 -10 -6 0 -11 5 -11 10 0 6 2 10 4 10 3
0 8 -4 11 -10z"/>
<path d="M3231 1178 c0 -9 -9 -19 -18 -21 -16 -4 -16 -5 -1 -6 9 0 19 -9 21
-18 4 -16 5 -16 6 -1 0 9 9 19 19 21 15 4 15 5 0 6 -9 0 -19 9 -21 19 -4 15
-5 15 -6 0z"/>
<path d="M3775 1155 c0 -33 2 -35 33 -35 17 0 32 4 32 9 0 4 -11 6 -25 3 -16
-3 -25 0 -25 8 0 7 7 10 15 6 9 -3 15 0 15 9 0 9 -6 12 -15 9 -8 -4 -15 -1
-15 6 0 8 9 10 25 6 14 -4 25 -2 25 4 0 5 -15 10 -32 10 -31 0 -33 -2 -33 -35z"/>
<path d="M3851 1173 c0 -11 3 -13 6 -5 10 24 25 11 21 -18 -4 -25 -1 -30 16
-29 12 0 15 3 9 6 -7 2 -13 16 -13 29 0 25 15 33 23 12 3 -8 6 -6 6 5 1 13 -7
17 -34 17 -27 0 -35 -4 -34 -17z"/>
<path d="M4105 1155 c0 -21 5 -35 12 -35 7 0 10 7 7 15 -4 10 0 15 11 15 11 0
15 -5 11 -15 -4 -11 2 -15 24 -15 17 0 30 5 30 10 0 6 7 10 15 10 8 0 15 -4
15 -10 0 -5 13 -10 30 -10 22 0 28 4 24 15 -8 20 5 19 29 -2 15 -13 18 -14 12
-3 -5 8 -8 25 -6 38 2 18 -2 22 -27 22 -26 0 -28 -3 -24 -30 3 -21 0 -30 -10
-30 -7 0 -19 14 -25 30 -6 17 -19 30 -28 30 -9 0 -13 -4 -10 -10 8 -12 -12
-50 -26 -50 -7 0 -9 12 -7 30 3 20 0 30 -8 30 -8 0 -11 -6 -8 -15 4 -10 0 -15
-11 -15 -11 0 -15 5 -11 15 3 8 0 15 -7 15 -7 0 -12 -14 -12 -35z m205 15 c0
-5 -7 -10 -15 -10 -8 0 -15 5 -15 10 0 6 7 10 15 10 8 0 15 -4 15 -10z m-90
-10 c0 -5 -5 -10 -11 -10 -5 0 -7 5 -4 10 3 6 8 10 11 10 2 0 4 -4 4 -10z"/>
<path d="M532 1038 c-30 -30 1 -94 33 -68 25 20 13 80 -15 80 -3 0 -11 -5 -18
-12z m35 -52 c-4 -9 -11 -16 -16 -16 -17 0 -23 40 -10 57 12 13 14 13 22 -5 5
-12 7 -28 4 -36z"/>
<path d="M697 1043 c-15 -14 -6 -44 16 -52 l22 -9 -25 -10 c-14 -6 -18 -11 -9
-11 8 -1 20 4 27 11 17 17 15 65 -4 72 -19 7 -19 7 -27 -1z m28 -33 c-5 -8
-11 -8 -17 -2 -6 6 -7 16 -3 22 5 8 11 8 17 2 6 -6 7 -16 3 -22z"/>
<path d="M856 1038 c-3 -7 -4 -26 -3 -43 2 -23 7 -30 22 -30 17 0 20 7 20 40
0 30 -4 41 -18 43 -9 2 -19 -2 -21 -10z m34 -19 c0 -5 -7 -9 -15 -9 -15 0 -20
12 -9 23 8 8 24 -1 24 -14z m0 -34 c0 -8 -7 -15 -15 -15 -8 0 -15 7 -15 15 0
8 7 15 15 15 8 0 15 -7 15 -15z"/>
<path d="M945 1021 c-19 -37 -19 -41 1 -41 8 0 12 -4 9 -10 -3 -5 1 -10 9 -10
12 0 16 10 16 39 0 51 -15 60 -35 22z m25 -10 c0 -6 -4 -13 -10 -16 -5 -3 -10
1 -10 9 0 9 5 16 10 16 6 0 10 -4 10 -9z"/>
<path d="M1095 1040 c-3 -5 3 -10 15 -10 18 0 20 -4 16 -37 l-5 -38 13 40 c7
22 11 43 9 48 -6 10 -41 9 -48 -3z"/>
<path d="M2889 1038 c0 -7 -2 -22 -3 -34 -1 -11 1 -29 5 -40 7 -17 8 -17 8 -1
1 19 21 24 21 5 0 -10 2 -10 9 0 4 8 7 28 5 44 -4 35 -14 51 -14 24 0 -9 -5
-14 -10 -11 -6 4 -8 11 -5 16 4 5 1 9 -4 9 -6 0 -11 -6 -12 -12z m31 -32 c0
-3 -4 -8 -10 -11 -5 -3 -10 -1 -10 4 0 6 5 11 10 11 6 0 10 -2 10 -4z"/>
<path d="M2983 1043 c-20 -7 -15 -29 10 -47 21 -15 21 -16 2 -15 -35 2 -39 -1
-20 -15 17 -12 21 -12 33 5 15 21 8 39 -14 39 -8 0 -14 5 -14 11 0 6 9 8 22 3
20 -6 21 -5 9 10 -7 9 -14 16 -15 15 0 0 -7 -3 -13 -6z"/>
<path d="M3050 1040 c0 -5 9 -10 20 -10 17 0 18 -3 10 -26 -15 -38 -10 -53 5
-19 22 47 19 65 -10 65 -14 0 -25 -4 -25 -10z"/>
<path d="M444 1026 c-16 -41 20 -86 47 -59 6 6 1 9 -13 9 -17 -1 -24 5 -26 22
-4 26 25 42 39 21 7 -11 9 -11 9 4 0 21 -48 24 -56 3z"/>
<path d="M618 1033 c15 -6 16 -45 0 -61 -9 -9 -5 -12 18 -11 16 0 23 3 17 6
-7 2 -13 20 -13 39 0 26 -4 34 -17 33 -11 0 -13 -3 -5 -6z"/>
<path d="M1175 1000 c0 -34 3 -40 20 -39 11 0 14 3 8 6 -18 7 -16 23 2 23 8 0
15 5 15 10 0 6 -7 10 -15 10 -8 0 -15 5 -15 10 0 14 37 12 43 -2 3 -8 6 -6 6
5 1 13 -7 17 -31 17 -32 0 -33 -2 -33 -40z"/>
<path d="M2318 1031 c12 -7 11 -14 -2 -40 -15 -27 -15 -31 -1 -31 8 0 15 6 15
13 0 8 7 14 15 14 9 0 14 -6 11 -14 -4 -9 5 -13 31 -13 29 0 34 3 25 12 -7 7
-12 18 -12 26 0 12 3 12 15 2 8 -7 15 -9 15 -4 -1 15 -27 44 -40 44 -8 0 -9
-4 -3 -12 5 -7 7 -24 3 -38 -7 -25 -7 -24 -25 13 -13 25 -25 37 -39 37 -16 0
-17 -3 -8 -9z m32 -21 c0 -5 -5 -10 -11 -10 -5 0 -7 5 -4 10 3 6 8 10 11 10 2
0 4 -4 4 -10z"/>
<path d="M2435 1006 c0 -19 4 -38 8 -42 4 -4 7 10 7 30 0 26 4 36 13 33 7 -2
11 -18 10 -36 -2 -29 1 -32 24 -29 34 4 52 32 37 56 -7 11 -26 18 -55 20 l-44
3 0 -35z m89 8 c6 -17 -9 -44 -25 -44 -5 0 -9 14 -9 30 0 33 23 42 34 14z"/>
<path d="M2644 1018 c0 -13 -4 -31 -8 -40 -6 -13 -4 -18 8 -18 9 0 13 6 10 13
-3 8 2 14 11 14 8 0 15 -6 15 -14 0 -7 6 -13 14 -13 12 0 12 7 -2 40 -19 43
-46 54 -48 18z m31 -8 c3 -5 1 -10 -4 -10 -6 0 -11 5 -11 10 0 6 2 10 4 10 3
0 8 -4 11 -10z"/>
<path d="M3125 1000 c0 -36 2 -40 25 -40 22 1 23 2 7 11 -9 6 -15 15 -12 20 4
5 11 7 16 4 5 -4 9 -1 9 4 0 6 -7 11 -16 11 -8 0 -12 5 -8 11 3 6 15 9 25 6
11 -3 19 -1 19 4 0 5 -15 9 -32 9 -32 0 -33 -2 -33 -40z"/>
<path d="M3685 1000 c0 -32 4 -40 19 -40 15 0 16 3 6 15 -7 9 -9 19 -5 23 4 4
10 1 12 -6 4 -10 8 -10 21 0 13 11 15 10 10 -9 -5 -20 -2 -23 23 -23 19 0 27
4 23 13 -3 8 2 14 11 14 8 0 15 -6 15 -14 0 -7 7 -13 15 -13 13 0 12 6 -5 40
-20 40 -52 56 -44 23 3 -10 -2 -27 -11 -38 -15 -19 -16 -18 -13 18 4 39 -14
52 -27 20 -6 -17 -7 -17 -19 0 -21 27 -31 20 -31 -23z m130 10 c3 -5 1 -10 -4
-10 -6 0 -11 5 -11 10 0 6 2 10 4 10 3 0 8 -4 11 -10z"/>
<path d="M3867 1033 c-13 -12 -7 -22 19 -36 18 -9 23 -16 15 -21 -7 -4 -18 -2
-26 4 -12 10 -15 9 -15 -4 0 -13 7 -17 28 -14 33 4 36 28 4 44 -26 13 -14 28
14 17 12 -4 15 -3 10 5 -8 13 -39 16 -49 5z"/>
<path d="M3935 1000 c0 -32 4 -40 19 -40 15 0 16 3 7 14 -8 9 -9 16 -2 20 6 4
16 -2 23 -14 7 -11 16 -20 21 -20 4 0 0 11 -9 25 -16 24 -16 27 2 40 16 12 17
14 3 15 -9 0 -19 -7 -23 -15 -3 -8 -11 -15 -17 -15 -8 0 -8 4 1 15 10 12 9 15
-6 15 -15 0 -19 -8 -19 -40z"/>
<path d="M4105 1000 c0 -36 2 -40 25 -40 24 1 24 1 5 12 -19 12 -19 12 5 18
38 9 34 44 -5 48 -29 3 -30 1 -30 -38z m50 21 c7 -12 -12 -24 -25 -16 -11 7
-4 25 10 25 5 0 11 -4 15 -9z"/>
<path d="M4189 1031 c11 -7 11 -14 -2 -40 -13 -26 -13 -31 -1 -31 8 0 14 6 14
13 0 8 7 14 15 14 9 0 14 -6 11 -14 -4 -9 4 -13 29 -13 26 0 33 3 29 15 -4 9
0 15 9 15 8 0 18 -7 21 -16 4 -9 9 -14 13 -11 3 4 0 13 -6 21 -9 10 -9 16 -1
21 16 10 -8 35 -34 35 -19 0 -21 -4 -18 -35 3 -22 0 -35 -7 -35 -7 0 -19 16
-27 35 -10 25 -20 35 -37 35 -16 0 -18 -3 -8 -9z m119 -13 c-6 -18 -28 -21
-28 -4 0 9 7 16 16 16 9 0 14 -5 12 -12z m-88 -14 c0 -8 -5 -12 -10 -9 -6 4
-8 11 -5 16 9 14 15 11 15 -7z"/>
<path d="M4358 1033 c6 -2 12 -17 12 -33 0 -16 -6 -31 -12 -33 -7 -3 1 -5 17
-5 17 0 24 2 18 5 -7 2 -13 17 -13 33 0 16 6 31 13 33 6 3 -1 5 -18 5 -16 0
-24 -2 -17 -5z"/>
<path d="M4420 1024 c0 -14 2 -14 16 -3 15 12 16 10 12 -24 -3 -32 -1 -37 16
-37 16 0 17 3 8 12 -14 14 -16 58 -3 58 5 0 12 -6 14 -12 3 -8 6 -6 6 5 1 13
-7 17 -34 17 -26 0 -35 -4 -35 -16z"/>
<path d="M4510 1031 c0 -6 5 -13 11 -17 6 -3 9 -17 6 -30 -3 -18 0 -24 13 -24
13 0 17 6 13 20 -3 12 2 29 12 40 16 18 17 20 2 20 -10 0 -17 -7 -17 -15 0 -8
-4 -15 -10 -15 -5 0 -10 7 -10 15 0 8 -4 15 -10 15 -5 0 -10 -4 -10 -9z"/>
<path d="M452 881 c-8 -5 -12 -21 -10 -37 2 -23 9 -30 31 -32 15 -2 27 1 27 6
0 5 -11 7 -25 4 -21 -4 -25 -1 -25 21 0 31 16 43 35 27 9 -7 15 -8 15 -2 0 5
-7 13 -16 16 -19 7 -16 7 -32 -3z"/>
<path d="M525 871 c-10 -34 4 -63 28 -59 18 2 22 10 22 38 0 28 -4 36 -22 38
-14 2 -23 -3 -28 -17z m40 -21 c0 -13 -6 -25 -12 -27 -16 -6 -27 21 -19 43 9
23 31 11 31 -16z"/>
<path d="M618 883 c6 -2 12 -17 12 -33 0 -16 -6 -31 -12 -33 -7 -3 1 -5 17 -5
17 0 24 2 18 5 -7 2 -13 20 -13 39 0 26 -4 34 -17 33 -11 0 -13 -3 -5 -6z"/>
<path d="M684 851 c1 -38 3 -41 28 -41 33 0 39 9 29 46 -5 21 -14 30 -32 32
-23 3 -25 0 -25 -37z m46 8 c0 -5 -7 -9 -15 -9 -15 0 -20 12 -9 23 8 8 24 -1
24 -14z m10 -29 c0 -5 -9 -10 -20 -10 -11 0 -20 5 -20 10 0 6 9 10 20 10 11 0
20 -4 20 -10z"/>
<path d="M850 881 c0 -5 10 -7 21 -4 22 6 22 5 1 -57 -3 -11 -2 -12 6 -5 7 6
15 25 18 43 6 30 4 32 -20 32 -14 0 -26 -4 -26 -9z"/>
<path d="M924 851 c1 -39 2 -41 34 -41 17 0 32 4 32 9 0 4 -11 6 -25 3 -15 -2
-25 0 -25 7 0 6 7 11 15 11 8 0 15 5 15 11 0 6 -7 9 -15 5 -17 -6 -21 9 -5 19
6 4 18 1 27 -7 14 -11 16 -11 11 2 -2 8 -18 16 -34 18 -29 3 -30 1 -30 -37z"/>
<path d="M1102 881 c-8 -5 -12 -21 -10 -37 2 -23 9 -30 31 -32 15 -2 27 1 27
6 0 5 -11 7 -25 4 -21 -4 -25 -1 -25 21 0 31 16 43 35 27 9 -7 15 -8 15 -2 0
5 -7 13 -16 16 -19 7 -16 7 -32 -3z"/>
<path d="M1175 871 c-10 -34 4 -63 28 -59 18 2 22 10 22 38 0 28 -4 36 -22 38
-14 2 -23 -3 -28 -17z m40 -21 c0 -13 -6 -25 -12 -27 -16 -6 -27 21 -19 43 9
23 31 11 31 -16z"/>
<path d="M1340 881 c0 -5 10 -7 21 -4 19 5 20 3 14 -18 -15 -47 -15 -54 -1
-24 21 43 19 55 -9 55 -14 0 -25 -4 -25 -9z"/>
<path d="M1424 875 c-7 -18 3 -35 22 -35 23 0 16 -18 -8 -23 -22 -4 -22 -4 -2
-6 29 -1 48 23 40 54 -7 28 -43 35 -52 10z m36 -10 c0 -8 -7 -15 -15 -15 -8 0
-15 7 -15 15 0 8 7 15 15 15 8 0 15 -7 15 -15z"/>
<path d="M2338 878 c17 -17 15 -58 -2 -58 -8 0 -17 6 -19 13 -3 7 -6 5 -6 -5
-1 -13 7 -18 23 -18 24 0 36 16 36 51 0 12 4 17 11 13 6 -3 9 -19 7 -35 -3
-19 0 -29 8 -29 8 0 10 8 6 23 -5 19 -3 20 10 10 11 -10 17 -10 26 -1 9 9 12
8 12 -4 0 -9 -6 -19 -12 -21 -7 -3 10 -5 37 -5 28 0 44 2 38 5 -18 7 -16 23 2
23 9 0 18 7 22 16 7 18 -12 34 -40 34 -15 0 -18 -7 -15 -32 2 -18 -2 -33 -9
-35 -9 -3 -13 7 -13 34 l-1 38 -19 -23 c-19 -23 -19 -23 -30 -2 -8 14 -21 20
-47 20 -29 0 -34 -3 -25 -12z m192 -18 c0 -5 -7 -10 -15 -10 -8 0 -15 5 -15
10 0 6 7 10 15 10 8 0 15 -4 15 -10z"/>
<path d="M2892 878 c-32 -32 0 -84 37 -61 22 14 25 38 6 57 -20 19 -27 20 -43
4z m38 -13 c15 -18 6 -45 -15 -45 -18 0 -30 24 -21 45 7 19 20 19 36 0z"/>
<path d="M2960 866 c0 -38 10 -56 31 -56 20 0 23 4 33 53 5 20 2 27 -8 27 -11
0 -13 -8 -9 -35 4 -28 2 -35 -11 -35 -12 0 -16 9 -16 35 0 19 -4 35 -10 35 -5
0 -10 -11 -10 -24z"/>
<path d="M3041 868 c0 -13 3 -17 6 -10 8 21 23 13 23 -12 0 -13 -6 -27 -12
-29 -7 -3 1 -5 17 -5 17 0 24 2 18 5 -7 2 -13 16 -13 30 0 19 4 24 16 19 10
-4 14 -1 12 6 -3 7 -19 14 -36 16 -28 3 -32 0 -31 -20z"/>
<path d="M3130 875 c-20 -24 -4 -65 25 -65 13 0 26 4 29 9 3 4 -6 6 -19 3 -31
-6 -45 23 -22 45 13 13 19 14 31 3 9 -7 16 -8 16 -2 0 9 -22 22 -40 22 -4 0
-13 -7 -20 -15z"/>
<path d="M3208 850 c-2 -27 0 -40 9 -40 7 0 10 7 7 15 -4 10 0 15 11 15 11 0
15 -5 11 -15 -3 -8 0 -15 7 -15 7 0 12 16 12 40 1 22 -3 40 -7 40 -4 0 -8 -9
-8 -20 0 -11 -7 -20 -16 -20 -11 0 -14 6 -9 20 3 11 2 20 -3 20 -6 0 -12 -18
-14 -40z"/>
<path d="M3695 850 c0 -38 1 -40 33 -40 17 0 32 4 32 9 0 4 -11 6 -25 3 -15
-2 -25 0 -25 7 0 6 7 11 16 11 8 0 12 5 9 10 -4 6 -11 8 -16 5 -5 -4 -9 -2 -9
4 0 17 22 24 31 10 7 -11 9 -10 9 4 0 12 -8 17 -28 17 -26 0 -28 -3 -27 -40z"/>
<path d="M3786 874 c-19 -19 -20 -36 -4 -52 14 -14 58 -16 58 -3 0 4 -11 6
-25 3 -31 -6 -45 22 -22 45 13 13 19 14 31 3 9 -7 16 -8 16 -2 0 5 -7 13 -16
16 -21 8 -20 8 -38 -10z"/>
<path d="M3858 850 c-2 -27 0 -40 9 -40 7 0 10 7 7 15 -4 10 0 15 11 15 11 0
15 -5 11 -15 -3 -8 0 -15 7 -15 7 0 12 16 12 40 1 22 -3 40 -7 40 -4 0 -8 -9
-8 -21 0 -12 -5 -19 -12 -16 -7 2 -12 11 -10 21 2 9 -1 16 -7 16 -5 0 -11 -18
-13 -40z"/>
<path d="M3945 874 c-19 -20 -16 -43 8 -58 20 -13 50 2 55 26 3 16 -23 48 -38
48 -5 0 -16 -7 -25 -16z m44 -8 c15 -18 3 -46 -19 -46 -10 0 -21 7 -24 16 -6
16 9 44 24 44 4 0 13 -6 19 -14z"/>
<path d="M4265 850 c0 -24 5 -40 12 -40 7 0 10 7 7 15 -4 8 -2 15 4 15 5 0 15
-7 22 -15 7 -8 17 -15 22 -15 5 0 2 7 -7 16 -11 11 -13 20 -6 28 14 16 -6 36
-34 36 -18 0 -21 -6 -20 -40z m45 9 c0 -5 -7 -9 -15 -9 -15 0 -20 12 -9 23 8
8 24 -1 24 -14z"/>
<path d="M4347 883 c-12 -12 -7 -22 8 -17 11 5 15 -1 15 -19 0 -14 -6 -28 -12
-30 -7 -3 1 -5 17 -5 17 0 24 2 18 5 -7 2 -13 16 -13 29 0 25 15 33 23 12 3
-7 6 -3 6 10 1 18 -4 22 -27 22 -16 0 -32 -3 -35 -7z"/>
<path d="M4442 878 c-14 -14 2 -38 24 -38 8 0 14 -5 14 -11 0 -7 -10 -9 -25
-7 -14 3 -25 1 -25 -4 0 -14 53 -5 58 9 2 7 -9 18 -24 23 -20 8 -24 14 -16 22
8 8 15 8 27 -2 8 -7 15 -8 15 -2 0 5 -7 13 -16 16 -20 8 -18 8 -32 -6z"/>
<path d="M4120 868 c0 -7 -3 -23 -6 -35 -5 -20 -2 -23 20 -23 30 0 34 17 9 36
-16 12 -16 15 -3 24 13 8 13 10 -2 10 -10 0 -18 -6 -18 -12z m15 -38 c3 -5 1
-10 -4 -10 -6 0 -11 5 -11 10 0 6 2 10 4 10 3 0 8 -4 11 -10z"/>
<path d="M1675 569 c-11 -4 -14 -8 -6 -8 7 -1 11 -7 8 -14 -3 -7 3 -13 14 -13
20 0 33 32 15 39 -6 2 -20 1 -31 -4z"/>
<path d="M1755 569 c-11 -4 -14 -8 -6 -8 7 -1 11 -7 8 -14 -3 -7 3 -13 14 -13
20 0 33 32 15 39 -6 2 -20 1 -31 -4z"/>
<path d="M1841 571 c-10 -6 -9 -12 4 -25 21 -20 22 -20 28 3 5 22 -13 34 -32
22z"/>
<path d="M1923 572 c-12 -8 -3 -36 13 -39 16 -3 25 35 9 40 -6 3 -16 2 -22 -1z"/>
<path d="M2004 573 c-7 -2 -10 -12 -7 -23 5 -20 28 -17 37 5 5 14 -12 25 -30
18z"/>
<path d="M2083 572 c-14 -9 -1 -37 17 -38 9 -1 16 7 16 17 0 20 -17 31 -33 21z"/>
<path d="M2162 571 c-14 -9 0 -36 21 -37 10 -1 16 1 13 4 -3 3 -1 11 4 17 8 9
5 14 -9 18 -10 2 -23 2 -29 -2z"/>
<path d="M2241 571 c-9 -6 -10 -11 -2 -15 6 -4 9 -11 7 -15 -3 -3 4 -7 14 -7
10 0 17 4 14 7 -2 4 1 11 7 15 8 4 7 9 -2 15 -8 5 -16 9 -19 9 -3 0 -11 -4
-19 -9z"/>
<path d="M2325 569 c-11 -4 -14 -8 -6 -8 7 -1 11 -7 8 -14 -3 -7 3 -13 14 -13
20 0 33 32 15 39 -6 2 -20 1 -31 -4z"/>
<path d="M2411 571 c-10 -6 -9 -12 4 -25 21 -20 22 -20 28 3 5 22 -13 34 -32
22z"/>
<path d="M2493 572 c-12 -8 -3 -36 13 -39 16 -3 25 35 9 40 -6 3 -16 2 -22 -1z"/>
<path d="M2574 573 c-7 -2 -10 -12 -7 -23 5 -20 28 -17 37 5 5 14 -12 25 -30
18z"/>
<path d="M2652 571 c-14 -9 0 -36 20 -37 10 -1 15 3 12 8 -4 6 -1 14 6 18 8 5
6 9 -8 12 -11 3 -24 3 -30 -1z"/>
<path d="M2731 571 c-9 -6 -10 -11 -2 -15 6 -4 9 -11 7 -15 -3 -3 4 -7 14 -7
10 0 17 4 14 7 -2 4 1 11 7 15 8 4 7 9 -2 15 -8 5 -16 9 -19 9 -3 0 -11 -4
-19 -9z"/>
<path d="M2816 570 c-14 -4 -16 -9 -8 -14 7 -4 10 -11 8 -15 -3 -3 4 -7 14 -7
21 0 34 32 16 39 -6 2 -20 1 -30 -3z"/>
<path d="M2904 572 c-5 -4 -9 -14 -10 -22 -1 -21 34 -20 39 1 5 19 -14 32 -29
21z"/>
<path d="M2981 571 c-10 -6 -9 -12 4 -25 21 -20 22 -20 28 3 5 22 -13 34 -32
22z"/>
<path d="M3061 571 c-10 -6 -9 -12 4 -25 21 -20 22 -20 28 3 5 22 -13 34 -32
22z"/>
<path d="M3144 573 c-7 -2 -10 -12 -7 -23 5 -20 28 -17 37 5 5 14 -12 25 -30
18z"/>
<path d="M3223 572 c-14 -9 -1 -37 17 -38 9 -1 16 7 16 17 0 20 -17 31 -33 21z"/>
<path d="M3302 571 c-14 -9 0 -36 20 -37 10 -1 15 3 12 8 -4 6 -1 14 6 18 8 5
6 9 -8 12 -11 3 -24 3 -30 -1z"/>
<path d="M3381 571 c-9 -6 -10 -11 -2 -15 6 -4 9 -11 7 -15 -3 -3 4 -7 14 -7
10 0 17 4 14 7 -2 4 1 11 7 15 8 4 7 9 -2 15 -8 5 -16 9 -19 9 -3 0 -11 -4
-19 -9z"/>
<path d="M3465 569 c-11 -4 -14 -8 -6 -8 7 -1 11 -7 8 -14 -3 -7 3 -13 14 -13
20 0 33 32 15 39 -6 2 -20 1 -31 -4z"/>
<path d="M3551 571 c-10 -6 -9 -12 4 -25 21 -20 22 -20 28 3 5 22 -13 34 -32
22z"/>
<path d="M3633 572 c-12 -8 -3 -36 13 -39 16 -3 25 35 9 40 -6 3 -16 2 -22 -1z"/>
<path d="M3714 573 c-7 -2 -10 -12 -7 -23 5 -20 28 -17 37 5 5 14 -12 25 -30
18z"/>
<path d="M3793 572 c-14 -9 -1 -37 17 -38 9 -1 16 7 16 17 0 20 -17 31 -33 21z"/>
<path d="M3872 571 c-14 -9 0 -36 20 -37 10 -1 15 3 12 8 -4 6 -1 14 6 18 8 5
6 9 -8 12 -11 3 -24 3 -30 -1z"/>
<path d="M3951 571 c-9 -6 -10 -11 -2 -15 6 -4 9 -11 7 -15 -3 -3 4 -7 14 -7
10 0 17 4 14 7 -2 4 1 11 7 15 8 4 7 9 -2 15 -8 5 -16 9 -19 9 -3 0 -11 -4
-19 -9z"/>
<path d="M4035 569 c-11 -4 -14 -8 -6 -8 7 -1 11 -7 8 -14 -3 -7 3 -13 14 -13
20 0 33 32 15 39 -6 2 -20 1 -31 -4z"/>
<path d="M4124 572 c-5 -4 -9 -14 -10 -22 -1 -21 34 -20 39 1 5 19 -14 32 -29
21z"/>
<path d="M4203 572 c-12 -8 -3 -36 13 -39 16 -3 25 35 9 40 -6 3 -16 2 -22 -1z"/>
<path d="M4284 573 c-7 -2 -10 -12 -7 -23 5 -20 28 -17 37 5 5 14 -12 25 -30
18z"/>
<path d="M4363 572 c-14 -9 -1 -37 17 -38 9 -1 16 7 16 17 0 20 -17 31 -33 21z"/>
<path d="M4442 571 c-14 -9 0 -36 20 -37 10 -1 15 3 12 8 -4 6 -1 14 6 18 8 5
6 9 -8 12 -11 3 -24 3 -30 -1z"/>
<path d="M4521 571 c-9 -6 -10 -11 -2 -15 6 -4 9 -11 7 -15 -3 -3 4 -7 14 -7
10 0 17 4 14 7 -2 4 1 11 7 15 8 4 7 9 -2 15 -8 5 -16 9 -19 9 -3 0 -11 -4
-19 -9z"/>
<path d="M4605 569 c-11 -4 -14 -8 -6 -8 7 -1 11 -7 8 -14 -3 -7 3 -13 14 -13
20 0 33 32 15 39 -6 2 -20 1 -31 -4z"/>
<path d="M4694 572 c-5 -4 -9 -14 -10 -22 -1 -21 34 -20 39 1 5 19 -14 32 -29
21z"/>
<path d="M4773 572 c-12 -8 -3 -36 13 -39 16 -3 25 35 9 40 -6 3 -16 2 -22 -1z"/>
<path d="M1683 417 c-13 -22 -11 -33 7 -33 10 0 17 3 14 7 -2 4 0 9 5 11 5 1
3 9 -4 15 -11 10 -16 10 -22 0z"/>
<path d="M1840 422 c-9 -4 -15 -20 -15 -39 0 -27 4 -33 20 -32 11 0 14 3 8 6
-7 2 -13 9 -13 15 0 6 7 8 15 4 9 -3 15 0 15 9 0 9 -6 12 -15 9 -8 -4 -15 -2
-15 4 0 14 28 23 35 12 3 -5 13 -6 22 -3 12 5 15 2 10 -10 -10 -26 3 -47 28
-47 19 0 24 6 27 35 2 22 0 35 -7 35 -7 0 -10 -12 -7 -30 3 -23 0 -30 -12 -30
-11 0 -16 9 -16 30 0 17 -5 30 -12 30 -7 0 -22 2 -33 5 -11 2 -27 1 -35 -3z"/>
<path d="M2076 414 c-18 -17 -19 -24 -10 -48 6 -17 64 -23 64 -7 0 4 -11 6
-24 4 -29 -6 -44 24 -22 45 12 13 18 13 30 2 9 -7 16 -8 16 -2 0 5 -7 13 -16
16 -21 8 -20 8 -38 -10z"/>
<path d="M2145 411 c-4 -9 0 -11 11 -7 13 5 16 1 12 -24 -4 -25 -1 -30 16 -29
12 0 15 3 9 6 -7 2 -13 16 -13 29 0 25 15 33 23 12 3 -7 6 -4 6 7 1 16 -5 20
-29 20 -16 0 -32 -6 -35 -14z"/>
<path d="M2247 397 c4 -19 1 -32 -8 -38 -10 -6 -3 -9 21 -9 24 0 31 3 21 9 -9
6 -12 19 -8 38 5 23 2 29 -13 29 -15 0 -18 -6 -13 -29z"/>
<path d="M2322 418 c-32 -32 0 -84 37 -61 22 14 25 38 6 57 -20 19 -27 20 -43
4z m45 -42 c-4 -9 -16 -16 -27 -16 -15 0 -20 7 -20 24 0 13 6 26 13 29 18 7
41 -19 34 -37z"/>
<path d="M2393 391 c-2 -31 2 -41 14 -41 13 0 13 3 3 15 -7 9 -10 18 -7 22 4
3 15 -5 25 -18 l19 -23 5 37 c2 24 -1 38 -9 41 -10 4 -12 -2 -7 -22 l6 -27
-24 28 -24 29 -1 -41z"/>
<path d="M2640 419 c0 -5 5 -9 10 -9 15 0 12 -47 -2 -53 -7 -3 1 -5 17 -5 17
0 24 2 18 5 -15 6 -18 53 -3 53 22 0 8 15 -15 16 -14 1 -25 -2 -25 -7z"/>
<path d="M2765 403 l6 -28 -19 23 c-28 31 -37 28 -37 -13 0 -20 5 -35 12 -35
6 0 9 9 6 23 l-5 22 20 -22 c11 -13 23 -23 26 -23 10 0 6 69 -4 75 -7 4 -9 -3
-5 -22z"/>
<path d="M2885 389 c0 -36 2 -39 28 -39 15 0 27 4 27 9 0 5 -9 7 -20 4 -12 -3
-20 0 -20 6 0 7 5 9 10 6 6 -3 10 1 10 10 0 9 -4 13 -10 10 -5 -3 -10 -2 -10
3 0 16 13 22 27 11 9 -9 13 -8 13 0 0 11 -1 12 -35 16 -18 2 -21 -3 -20 -36z"/>
<path d="M2960 422 c0 -4 6 -14 12 -20 10 -10 10 -17 0 -32 -10 -17 -10 -20 4
-20 8 0 12 5 9 10 -3 6 1 10 10 10 9 0 13 -4 10 -10 -3 -5 2 -10 12 -10 16 0
16 1 0 17 -15 16 -15 18 0 35 15 17 15 18 0 18 -10 0 -17 -5 -17 -11 0 -6 -7
-3 -16 5 -17 18 -24 20 -24 8z"/>
<path d="M3294 418 c-3 -4 0 -8 5 -8 15 0 14 -47 -1 -53 -7 -3 1 -5 17 -5 17
0 24 2 18 5 -15 6 -18 53 -3 53 6 0 10 4 10 8 0 4 -9 8 -21 8 -11 0 -23 -4
-25 -8z"/>
<path d="M3369 430 c-6 -38 -2 -80 8 -80 6 0 9 9 6 23 l-5 22 20 -22 c11 -13
23 -23 26 -23 10 0 6 69 -4 75 -7 4 -9 -3 -5 -22 l6 -28 -25 30 c-14 17 -26
28 -27 25z"/>
<path d="M3470 421 c-9 -3 -15 -19 -15 -38 0 -26 4 -33 20 -33 16 0 17 2 5 10
-11 7 -9 11 13 19 15 6 27 15 27 20 0 15 -33 29 -50 22z m30 -21 c0 -5 -7 -10
-15 -10 -8 0 -15 5 -15 10 0 6 7 10 15 10 8 0 15 -4 15 -10z"/>
<path d="M3577 393 c5 -31 4 -35 -13 -31 -13 2 -19 12 -19 31 1 15 -3 27 -8
27 -4 0 -7 -15 -5 -32 2 -28 7 -33 28 -33 19 0 25 6 31 32 4 22 2 33 -7 37 -9
4 -11 -4 -7 -31z"/>
<path d="M3638 422 c-19 -2 -28 -9 -27 -20 0 -11 3 -12 6 -4 8 21 23 13 23
-12 0 -13 -6 -27 -12 -29 -7 -3 1 -5 17 -5 17 0 24 2 18 5 -7 2 -13 16 -13 29
0 25 15 33 23 12 3 -8 6 -7 6 4 1 21 -7 25 -41 20z"/>
<path d="M3874 422 c-6 -4 -13 -22 -16 -39 -4 -32 -3 -33 29 -33 18 0 33 4 33
9 0 4 -11 6 -25 3 -15 -2 -25 0 -25 7 0 6 7 11 15 11 8 0 15 4 15 10 0 5 -7 7
-15 4 -8 -4 -15 -2 -15 4 0 15 26 22 39 9 8 -8 11 -8 11 0 0 6 -7 14 -16 17
-19 7 -16 7 -30 -2z"/>
<path d="M4100 389 c0 -38 2 -40 26 -37 36 4 54 32 33 53 -8 8 -25 17 -37 20
-20 3 -22 0 -22 -36z m53 9 c7 -21 -4 -38 -24 -38 -14 0 -19 7 -19 25 0 18 5
25 19 25 11 0 21 -6 24 -12z"/>
<path d="M4190 418 c0 -5 5 -8 10 -8 15 0 12 -47 -2 -53 -7 -3 1 -5 17 -5 17
0 24 2 18 5 -15 6 -18 53 -3 53 6 0 10 3 10 8 0 4 -11 7 -25 7 -14 0 -25 -3
-25 -7z"/>
<path d="M4276 417 c-11 -8 -17 -23 -14 -38 2 -19 10 -25 36 -27 24 -2 32 1
32 12 0 9 -8 16 -17 16 -15 0 -16 -2 -3 -10 12 -8 11 -10 -8 -10 -29 0 -40 27
-19 47 13 13 19 14 31 3 9 -7 16 -8 16 -2 0 5 -7 13 -16 16 -20 8 -17 8 -38
-7z"/>
<path d="M4350 418 c0 -5 5 -8 10 -8 15 0 12 -47 -2 -53 -7 -3 1 -5 17 -5 17
0 24 2 18 5 -15 6 -18 53 -3 53 6 0 10 3 10 8 0 4 -11 7 -25 7 -14 0 -25 -3
-25 -7z"/>
<path d="M1985 385 c0 -20 5 -35 12 -35 6 0 9 10 7 23 l-5 22 17 -22 c23 -32
34 -28 34 12 0 19 -5 35 -11 35 -6 0 -8 -9 -4 -20 3 -11 3 -20 -2 -20 -4 0
-14 9 -21 20 -18 29 -27 24 -27 -15z"/>
<path d="M2800 385 c0 -19 5 -35 10 -35 6 0 10 7 10 15 0 8 7 15 16 15 10 0
14 -6 10 -15 -3 -8 -1 -15 4 -15 6 0 10 16 10 35 0 19 -4 35 -10 35 -5 0 -9
-5 -7 -11 1 -6 -4 -14 -10 -16 -7 -3 -13 2 -13 11 0 9 -4 16 -10 16 -5 0 -10
-16 -10 -35z"/>
<path d="M3778 385 c-3 -24 0 -35 9 -35 7 0 10 7 7 15 -4 10 0 15 11 15 11 0
15 -5 11 -15 -3 -8 0 -15 7 -15 7 0 12 14 12 35 0 19 -3 35 -7 35 -5 0 -8 -7
-8 -15 0 -8 -7 -15 -16 -15 -10 0 -14 6 -10 15 3 8 2 15 -3 15 -5 0 -11 -16
-13 -35z"/>
<path d="M3950 405 c10 -13 10 -19 -5 -35 -16 -17 -16 -20 -2 -20 8 0 18 6 21
13 5 10 7 10 12 0 3 -7 13 -13 21 -13 14 0 14 3 -2 20 -15 16 -15 22 -5 35 7
9 8 15 2 15 -6 0 -13 -6 -16 -12 -5 -10 -7 -10 -12 0 -3 6 -10 12 -16 12 -6 0
-5 -6 2 -15z"/>
<path d="M4420 410 c0 -5 7 -7 16 -3 14 5 16 1 12 -25 -4 -27 -1 -32 16 -31
12 0 15 3 9 6 -7 2 -13 16 -13 29 0 25 15 33 23 12 3 -8 6 -6 6 5 1 13 -7 17
-34 17 -19 0 -35 -4 -35 -10z"/>
<path d="M3143 383 c9 -2 23 -2 30 0 6 3 -1 5 -18 5 -16 0 -22 -2 -12 -5z"/>
<path d="M1670 260 c-9 -6 -11 -10 -3 -10 7 0 10 -6 7 -13 -3 -8 3 -13 16 -13
13 0 19 5 16 13 -3 7 0 13 7 13 8 0 6 4 -3 10 -8 5 -17 10 -20 10 -3 0 -12 -5
-20 -10z"/>
<path d="M1838 263 c15 -6 16 -45 0 -61 -9 -9 -5 -12 18 -11 16 0 23 3 17 6
-7 2 -13 17 -13 33 0 16 6 31 13 33 6 3 -1 5 -18 5 -16 0 -24 -2 -17 -5z"/>
<path d="M1903 230 c0 -22 5 -40 11 -40 14 0 14 72 0 77 -7 2 -11 -12 -11 -37z"/>
<path d="M1948 248 c3 -14 2 -19 -6 -14 -16 10 -15 -5 2 -27 12 -16 14 -14 18
23 2 26 -1 40 -8 40 -7 0 -10 -8 -6 -22z"/>
<path d="M1995 230 c-1 -34 2 -40 20 -39 11 0 14 3 8 6 -19 7 -15 20 8 26 29
8 21 41 -11 45 -23 3 -25 -1 -25 -38z m43 18 c-6 -18 -28 -21 -28 -4 0 9 7 16
16 16 9 0 14 -5 12 -12z"/>
<path d="M2068 236 c7 -60 55 -56 64 4 4 25 1 30 -16 30 -16 0 -18 -2 -7 -9 9
-6 11 -18 7 -36 -9 -35 -31 -26 -31 13 0 18 -5 32 -10 32 -7 0 -9 -14 -7 -34z"/>
<path d="M2146 255 c-7 -18 10 -20 18 -2 3 6 5 -5 3 -25 -3 -32 0 -38 17 -38
16 0 17 3 8 12 -14 14 -16 58 -3 58 5 0 12 -6 14 -12 3 -8 6 -6 6 5 1 22 -54
24 -63 2z"/>
<path d="M2394 220 c-1 -16 3 -30 7 -30 5 0 9 11 9 25 0 16 6 25 16 25 12 0
15 -6 10 -25 -4 -15 -2 -25 4 -25 6 0 10 12 8 28 -2 20 -9 28 -28 30 -22 2
-25 -1 -26 -28z"/>
<path d="M2474 235 c-7 -17 12 -45 31 -45 19 0 36 25 29 44 -8 20 -53 21 -60
1z m53 -11 c5 -15 -28 -27 -40 -15 -5 5 -6 14 -2 21 8 13 37 9 42 -6z"/>
<path d="M2555 220 c0 -18 5 -30 13 -30 8 0 10 8 6 25 -5 19 -2 25 10 25 10 0
16 -9 16 -25 0 -14 5 -25 11 -25 6 0 8 7 5 16 -3 9 -6 22 -6 30 0 9 -10 14
-27 14 -24 0 -28 -4 -28 -30z"/>
<path d="M2636 234 c-12 -30 41 -63 58 -35 3 4 -6 6 -19 3 -15 -2 -25 0 -25 7
0 6 12 11 26 11 33 0 27 24 -8 28 -17 2 -28 -3 -32 -14z m41 0 c-3 -3 -12 -4
-19 -1 -8 3 -5 6 6 6 11 1 17 -2 13 -5z"/>
<path d="M1686 112 c-4 -7 -13 -9 -19 -5 -8 5 -8 2 0 -9 7 -8 11 -17 8 -19 -2
-3 5 -5 15 -5 10 0 17 2 15 5 -3 2 1 11 8 19 8 11 8 14 0 9 -6 -4 -13 -2 -15
5 -3 9 -6 9 -12 0z"/>
<path d="M1831 106 c-21 -25 -10 -61 18 -61 31 0 50 28 35 53 -15 23 -38 26
-53 8z m39 -11 c15 -18 6 -45 -15 -45 -18 0 -30 24 -21 45 7 19 20 19 36 0z"/>
<path d="M1905 88 c3 -35 28 -60 43 -43 16 18 23 75 9 75 -9 0 -12 -11 -9 -35
3 -28 1 -35 -13 -35 -14 0 -16 7 -13 35 3 23 0 35 -8 35 -7 0 -11 -13 -9 -32z"/>
<path d="M1980 104 c0 -14 3 -14 15 -4 13 11 15 8 15 -18 0 -17 -6 -33 -12
-35 -7 -3 1 -5 17 -5 17 0 24 2 18 5 -15 5 -18 63 -4 63 5 0 12 -6 14 -12 3
-8 6 -6 6 5 1 13 -7 17 -34 17 -26 0 -35 -4 -35 -16z"/>
<path d="M2074 81 c1 -34 4 -41 21 -40 11 0 14 3 8 6 -19 7 -15 20 8 26 29 8
21 41 -12 45 -23 3 -25 0 -25 -37z m44 11 c2 -7 -3 -12 -12 -12 -9 0 -16 7
-16 16 0 17 22 14 28 -4z"/>
<path d="M2149 83 c5 -32 10 -38 31 -38 22 0 25 5 28 38 2 20 -1 37 -6 37 -6
0 -9 -15 -8 -32 1 -23 -3 -33 -14 -33 -10 0 -15 10 -15 33 0 17 -5 32 -11 32
-7 0 -9 -13 -5 -37z"/>
<path d="M2230 103 c0 -16 2 -16 11 -3 8 11 9 6 7 -22 -3 -30 0 -38 12 -38 12
0 15 8 12 38 -2 28 -1 33 7 22 9 -13 11 -13 11 3 0 12 -8 17 -30 17 -22 0 -30
-5 -30 -17z"/>
<path d="M2475 80 c0 -34 3 -40 21 -40 12 0 27 7 34 15 19 23 -2 65 -33 65
-20 0 -22 -5 -22 -40z m45 15 c15 -18 6 -45 -15 -45 -10 0 -15 10 -15 30 0 33
11 38 30 15z"/>
<path d="M3538 111 c12 -7 11 -14 -2 -40 -15 -28 -15 -31 -1 -31 9 0 13 5 10
10 -3 6 3 10 15 10 12 0 18 -4 15 -10 -3 -5 1 -10 9 -10 20 0 20 1 -1 45 -11
23 -23 35 -37 35 -16 0 -17 -3 -8 -9z m28 -38 c-10 -10 -19 5 -10 18 6 11 8
11 12 0 2 -7 1 -15 -2 -18z"/>
<path d="M2805 101 c-3 -5 -1 -12 5 -16 5 -3 10 -15 10 -26 0 -13 6 -19 23
-18 16 1 18 2 5 6 -10 2 -18 13 -18 24 0 11 7 19 18 20 14 0 14 2 -3 9 -27 12
-33 12 -40 1z"/>
<path d="M2572 80 c11 -17 10 -22 -2 -30 -11 -7 -6 -9 20 -9 19 1 27 3 18 6
-11 3 -18 14 -18 29 0 15 -6 24 -15 24 -13 0 -13 -3 -3 -20z"/>
<path d="M2641 86 c-15 -18 -3 -46 20 -46 24 0 25 -17 2 -23 -17 -4 -17 -5 0
-6 19 -1 22 5 31 57 5 29 3 32 -18 32 -13 0 -29 -6 -35 -14z m37 -19 c2 -10
-3 -17 -12 -17 -18 0 -29 16 -21 31 9 14 29 6 33 -14z"/>
<path d="M2737 80 c4 -13 0 -26 -8 -31 -10 -6 -3 -9 21 -9 19 0 30 4 24 8 -7
4 -13 16 -15 26 -2 11 -9 21 -16 23 -7 3 -9 -3 -6 -17z"/>
<path d="M2978 88 c17 -17 15 -36 -5 -41 -10 -3 -2 -5 17 -5 19 0 29 2 23 5
-7 2 -13 16 -13 29 0 16 -6 24 -17 24 -13 0 -14 -3 -5 -12z"/>
<path d="M3044 71 c1 -17 6 -31 12 -31 6 0 10 9 10 20 -1 10 4 18 9 17 6 -1
10 -10 9 -19 0 -10 5 -18 12 -18 9 0 10 8 5 28 -5 19 -15 28 -33 30 -22 3 -25
0 -24 -27z"/>
<path d="M3229 93 l24 -5 -23 -11 c-33 -17 -30 -32 7 -35 30 -3 31 -2 24 25
-5 20 -14 28 -32 30 l-24 1 24 -5z m21 -33 c0 -5 -7 -10 -16 -10 -8 0 -12 5
-9 10 3 6 10 10 16 10 5 0 9 -4 9 -10z"/>
<path d="M3294 85 c-11 -26 4 -45 33 -44 l28 2 -27 4 c-16 2 -28 11 -28 18 0
21 19 28 35 15 12 -10 15 -9 15 4 0 21 -48 22 -56 1z"/>
<path d="M3382 91 c-23 -14 -10 -46 18 -47 22 -1 22 0 3 3 -13 2 -23 11 -23
19 0 20 30 30 41 13 7 -11 9 -11 9 4 0 18 -26 23 -48 8z"/>
</g>
</svg>
