<?xml version="1.0" standalone="no"?>
<!DOCTYPE svg PUBLIC "-//W3C//DTD SVG 20010904//EN"
 "http://www.w3.org/TR/2001/REC-SVG-20010904/DTD/svg10.dtd">
<svg version="1.0" xmlns="http://www.w3.org/2000/svg"
 width="1792.000000pt" height="1370.000000pt" viewBox="0 0 1792.000000 1370.000000"
 preserveAspectRatio="xMidYMid meet">

<g transform="translate(0.000000,1370.000000) scale(0.100000,-0.100000)"
fill="#000000" stroke="none">
<path d="M5767 13662 c-23 -23 -30 -25 -46 -15 -16 10 -22 9 -34 -10 -8 -13
-17 -32 -19 -42 -2 -11 -10 -19 -17 -17 -8 2 -22 -5 -33 -15 -15 -14 -18 -25
-13 -53 10 -51 23 -70 42 -63 14 6 15 1 9 -33 -5 -21 -10 -85 -12 -141 l-4
-102 -46 -43 c-102 -94 -112 -139 -117 -510 -3 -228 2 -247 44 -160 22 45 23
59 26 285 2 252 12 325 52 361 26 24 33 7 22 -51 -27 -133 -43 -483 -32 -683
2 -36 -4 -126 -13 -200 -8 -74 -19 -161 -22 -192 -11 -93 -53 -120 -123 -77
l-33 20 -24 -22 c-32 -30 -30 -46 9 -69 36 -22 87 -26 120 -9 28 15 89 68 101
86 4 8 10 61 12 116 7 211 16 256 47 257 19 0 27 -65 28 -219 0 -225 5 -235
107 -251 36 -5 45 -3 65 18 l22 24 -24 19 c-13 10 -36 19 -51 19 -49 0 -56 26
-64 235 -2 61 -7 122 -11 138 -6 21 -1 37 19 67 36 55 44 102 50 299 3 100 10
179 16 185 13 13 13 103 0 111 -13 8 -13 122 0 130 13 8 36 -41 45 -93 4 -24
7 -154 7 -288 0 -160 4 -246 11 -251 6 -3 19 4 29 17 16 20 18 44 18 249 0
124 -5 256 -10 293 -10 68 -54 168 -74 168 -6 0 -24 10 -39 23 -28 22 -28 24
-14 52 29 58 36 81 41 147 5 54 13 77 41 120 40 60 41 66 19 83 -11 7 -17 28
-18 57 -1 55 -7 64 -34 47 -16 -10 -24 -10 -34 -1 -11 9 -20 6 -41 -16z m4
-185 c8 -49 -9 -238 -23 -254 -6 -7 -19 -13 -29 -13 -17 0 -19 8 -19 84 0 109
26 228 49 224 10 -2 18 -18 22 -41z m-37 -349 c8 -13 17 -48 20 -78 9 -71 10
-335 2 -348 -3 -5 -8 -79 -12 -163 -3 -85 -11 -165 -18 -179 -16 -35 -51 -38
-72 -5 -16 24 -17 51 -11 298 6 240 25 459 42 488 11 16 34 10 49 -13z"/>
<path d="M1559 13288 c-28 -29 -69 -105 -69 -127 0 -5 -5 -33 -11 -61 -8 -39
-15 -50 -30 -50 -12 0 -19 7 -19 18 0 10 -12 25 -26 32 -24 13 -27 12 -45 -10
-10 -14 -19 -33 -19 -42 0 -21 32 -52 71 -69 25 -10 32 -9 49 6 24 21 40 12
40 -24 0 -15 6 -33 12 -39 9 -9 10 -15 2 -20 -37 -25 -94 -118 -118 -196 -30
-92 -31 -124 -3 -137 9 -5 25 -13 35 -18 13 -6 18 -23 20 -70 3 -61 2 -65 -64
-173 -45 -75 -68 -124 -71 -153 l-5 -41 62 -27 c50 -22 61 -31 55 -45 -4 -9
-12 -39 -17 -67 -5 -27 -15 -53 -21 -57 -7 -4 -33 -8 -58 -8 -52 0 -72 -16
-67 -52 3 -21 7 -23 53 -20 54 4 109 31 126 64 6 12 13 46 16 77 6 80 7 81 58
81 l45 0 -7 -89 c-6 -97 0 -132 19 -113 17 17 48 15 70 -5 27 -25 53 -6 53 38
0 33 -1 34 -45 39 -45 5 -45 5 -48 47 -2 22 1 56 5 73 8 29 15 35 69 51 85 26
97 50 61 127 -23 51 -38 90 -82 211 -20 54 -2 97 66 162 54 51 59 59 59 98 0
23 -9 59 -19 80 -23 45 -81 98 -116 107 -14 3 -25 11 -25 18 0 9 38 73 57 95
1 2 14 -2 28 -9 21 -11 28 -10 50 4 38 25 67 76 53 93 -9 11 -15 10 -35 -9
-17 -16 -26 -19 -34 -11 -17 17 -58 123 -65 168 -7 45 -38 85 -67 85 -10 0
-32 -14 -48 -32z m63 -104 c9 -27 17 -81 17 -121 1 -63 -2 -75 -24 -100 -25
-28 -25 -28 -41 -8 -13 17 -15 38 -10 130 7 124 13 157 30 152 6 -2 19 -26 28
-53z m-32 -361 c24 -36 25 -41 22 -182 -3 -148 -11 -185 -45 -205 -39 -24 -64
59 -30 97 17 18 17 20 -10 42 -28 25 -35 49 -17 60 6 3 10 23 10 44 0 33 15
134 26 169 6 20 18 14 44 -25z m-110 -68 c-11 -44 -20 -90 -20 -102 0 -28 -14
-37 -29 -19 -16 19 4 108 36 164 14 24 26 42 29 40 2 -2 -6 -40 -16 -83z m232
-16 c27 -51 23 -93 -8 -114 -14 -9 -27 -15 -29 -13 -3 3 -9 135 -6 156 2 23
25 8 43 -29z m-94 -361 c13 -28 50 -130 65 -180 8 -26 8 -41 1 -48 -15 -15
-201 -31 -233 -19 -63 23 -91 44 -91 67 0 13 23 60 52 104 51 78 52 79 87 74
21 -3 48 0 66 8 40 19 40 19 53 -6z"/>
<path d="M4563 13296 c-23 -8 -63 -31 -90 -52 -47 -38 -133 -123 -133 -132 0
-3 -6 -13 -14 -21 -8 -9 -23 -47 -34 -85 -18 -58 -19 -77 -11 -124 10 -53 9
-57 -26 -125 -31 -58 -36 -78 -32 -111 7 -48 28 -66 79 -66 49 0 106 31 139
75 26 34 27 35 33 13 3 -13 9 -52 12 -88 6 -60 4 -68 -22 -105 -24 -34 -28
-50 -29 -106 0 -56 4 -70 28 -102 15 -19 27 -43 27 -51 0 -21 -29 -83 -62
-133 -16 -23 -28 -48 -28 -57 0 -8 -6 -21 -14 -28 -7 -8 -17 -25 -21 -38 -4
-14 -17 -36 -30 -50 -31 -36 -68 -100 -57 -100 5 0 22 10 37 22 22 17 31 19
46 10 11 -7 44 -14 74 -17 30 -2 72 -13 93 -24 47 -24 139 -26 165 -3 26 23
21 47 -19 82 l-37 32 6 123 c5 108 9 129 33 176 68 132 67 127 61 192 -3 34
-11 87 -17 117 -6 30 -11 86 -11 123 1 68 1 69 51 124 27 30 50 58 50 63 0 10
-68 70 -79 70 -4 0 -15 -8 -25 -19 -18 -19 -12 -51 9 -51 7 0 19 -7 26 -16 11
-14 7 -22 -35 -58 -43 -37 -50 -49 -61 -102 -13 -66 -5 -152 19 -208 31 -69
29 -141 -2 -150 -10 -3 -48 -2 -87 2 l-69 7 -14 45 c-16 57 -10 91 29 145 37
52 40 84 15 218 -13 69 -15 108 -9 135 l9 37 67 1 c65 1 70 3 107 39 27 27 40
48 40 66 0 15 5 31 11 35 20 12 4 93 -25 123 -17 17 -26 38 -25 52 5 58 0 70
-43 89 -50 23 -50 23 -105 6z m68 -53 c46 -27 39 -56 -23 -91 -116 -65 -256
-233 -226 -269 8 -10 8 -17 0 -25 -15 -15 -16 -110 -2 -124 6 -6 11 -28 13
-50 l2 -39 -49 -3 c-32 -2 -52 1 -57 10 -17 25 -9 72 19 112 25 37 27 46 28
150 1 141 12 171 95 257 87 91 137 109 200 72z m38 -129 c37 -31 38 -40 10
-70 -21 -23 -21 -24 -4 -60 17 -36 17 -38 -1 -51 -10 -7 -26 -13 -35 -13 -21
0 -49 26 -49 46 0 25 -15 15 -63 -40 -44 -52 -61 -93 -70 -171 l-3 -30 -11 26
c-7 16 -9 57 -6 108 5 65 11 89 29 114 13 18 28 41 33 52 11 26 110 115 127
115 7 0 26 -12 43 -26z m-34 -875 c4 -5 -2 -32 -14 -58 -27 -65 -49 -236 -33
-262 12 -19 17 -69 7 -69 -3 0 -14 5 -24 12 -16 10 -18 20 -14 63 4 38 1 59
-11 77 -14 22 -15 29 0 84 9 36 13 77 10 105 -4 25 -3 48 1 52 10 11 71 8 78
-4z m-144 -160 c-6 -18 -11 -42 -11 -54 0 -24 -54 -105 -70 -105 -5 0 -3 15 4
33 8 17 17 48 21 67 8 34 53 105 63 96 2 -3 -1 -19 -7 -37z m9 -160 c0 -32
-14 -38 -29 -12 -6 11 -6 24 0 36 14 24 29 12 29 -24z"/>
<path d="M3024 13228 c-40 -30 -87 -85 -108 -126 -14 -26 -15 -40 -6 -72 6
-21 15 -42 20 -45 6 -3 10 -14 10 -24 0 -20 -97 -71 -136 -71 -30 0 -113 -80
-168 -163 -45 -67 -68 -169 -60 -264 6 -72 21 -100 57 -105 16 -2 32 -23 57
-72 19 -38 60 -95 90 -126 51 -53 55 -60 53 -101 -2 -53 -20 -170 -27 -177 -3
-3 -17 -5 -31 -6 -35 -1 -65 -47 -46 -70 18 -22 74 -30 102 -16 24 13 66 59
86 94 7 12 13 46 13 76 1 89 6 100 50 100 21 0 52 -3 69 -6 30 -6 31 -8 31
-60 0 -30 5 -85 12 -123 14 -82 29 -93 110 -84 67 7 105 28 87 49 -6 8 -22 14
-34 14 -39 0 -50 26 -60 145 l-6 70 105 104 c62 61 113 121 125 147 12 24 35
56 52 71 84 75 101 242 38 369 -41 83 -130 144 -266 185 -44 13 -48 25 -21 51
42 41 61 80 60 123 -4 95 -40 127 -152 133 -67 3 -78 1 -106 -20z m130 -42
c57 -24 89 -132 48 -169 -30 -27 -93 -50 -105 -38 -6 6 -27 11 -47 11 -48 0
-72 27 -77 87 -5 56 22 109 59 116 47 9 90 7 122 -7z m-34 -280 c19 -7 35 -17
35 -22 0 -14 -79 -154 -87 -154 -4 0 -11 12 -14 28 -4 15 -20 51 -37 80 -16
29 -26 59 -23 67 7 19 76 19 126 1z m-170 -91 c57 -94 70 -136 70 -223 -1
-101 -32 -267 -57 -300 -30 -40 -113 -88 -137 -79 -22 9 -85 106 -97 152 -45
163 -13 372 69 458 72 75 102 73 152 -8z m350 19 c110 -103 140 -313 74 -517
-16 -48 -73 -117 -98 -117 -7 0 -31 16 -53 35 -52 45 -106 173 -141 334 l-15
74 46 91 c26 51 47 96 47 101 0 19 35 45 62 45 20 0 43 -13 78 -46z m-565 -41
c-19 -25 -42 -68 -50 -95 -7 -26 -21 -58 -29 -70 -9 -12 -17 -38 -17 -58 -1
-19 -3 -27 -6 -17 -3 10 1 49 7 87 9 52 19 77 44 107 17 21 40 50 49 66 10 15
22 27 28 27 5 0 -6 -21 -26 -47z m351 -435 c24 -75 58 -139 88 -167 59 -55 17
-87 -99 -77 -42 4 -86 11 -98 17 -52 24 -89 46 -88 53 0 4 18 21 40 37 51 36
98 100 111 151 6 21 15 38 20 38 4 0 16 -24 26 -52z m-196 -293 c0 -8 -4 -15
-10 -15 -5 0 -10 7 -10 15 0 8 5 15 10 15 6 0 10 -7 10 -15z m252 -50 c5 -43
-8 -47 -14 -5 -4 26 -1 40 8 40 1 0 4 -16 6 -35z m-265 -27 c-3 -8 -6 -5 -6 6
-1 11 2 17 5 13 3 -3 4 -12 1 -19z"/>
<path d="M3042 13128 c-16 -16 -15 -45 2 -51 18 -7 39 17 34 39 -4 22 -20 28
-36 12z"/>
<path d="M3120 13115 c-15 -18 -6 -45 13 -45 20 0 40 27 33 45 -7 19 -30 19
-46 0z"/>
<path d="M11400 12761 c0 -5 9 -11 20 -14 18 -5 20 -14 20 -110 0 -114 -4
-137 -26 -137 -8 0 -14 -4 -14 -10 0 -6 39 -10 98 -10 113 0 153 15 190 70 19
28 23 44 19 83 -9 101 -65 137 -209 137 -54 0 -98 -4 -98 -9z m222 -50 c23
-26 28 -40 28 -85 0 -38 -6 -60 -20 -79 -24 -30 -81 -51 -116 -43 -24 6 -24 8
-24 120 0 62 3 116 8 120 4 4 27 6 52 3 33 -4 51 -13 72 -36z"/>
<path d="M11740 12760 c0 -5 6 -10 14 -10 21 0 26 -23 26 -131 0 -88 -2 -100
-20 -111 -33 -21 -23 -28 40 -28 33 0 60 2 60 5 0 3 -9 14 -20 25 -17 17 -20
33 -20 114 0 103 5 126 26 126 8 0 14 5 14 10 0 6 -27 10 -60 10 -33 0 -60 -4
-60 -10z"/>
<path d="M11880 12761 c0 -5 9 -11 20 -14 18 -5 20 -14 20 -110 0 -114 -4
-137 -26 -137 -8 0 -14 -4 -14 -10 0 -6 28 -10 65 -10 63 0 86 12 45 23 -17 4
-20 14 -20 62 0 56 0 56 28 53 16 -2 31 -12 37 -25 17 -39 25 -25 25 42 0 67
-8 81 -25 43 -6 -15 -21 -24 -38 -26 -28 -3 -28 -3 -25 45 l3 48 47 -1 c38 0
54 -6 76 -27 15 -15 33 -27 40 -27 15 0 15 0 -3 44 l-15 36 -120 0 c-66 0
-120 -4 -120 -9z"/>
<path d="M12150 12761 c0 -5 9 -11 20 -14 18 -5 20 -14 20 -110 0 -114 -4
-137 -26 -137 -8 0 -14 -4 -14 -10 0 -6 28 -10 65 -10 63 0 86 12 45 23 -17 4
-20 14 -20 62 0 56 0 56 28 53 16 -2 31 -12 37 -25 17 -39 25 -25 25 42 0 67
-8 81 -25 43 -6 -15 -21 -24 -38 -26 -28 -3 -28 -3 -25 45 l3 48 47 -1 c38 0
54 -6 76 -27 15 -15 33 -27 40 -27 15 0 15 0 -3 44 l-15 36 -120 0 c-66 0
-120 -4 -120 -9z"/>
<path d="M12420 12761 c0 -5 9 -11 20 -14 18 -5 20 -14 20 -110 0 -114 -4
-137 -26 -137 -8 0 -14 -4 -14 -10 0 -6 49 -10 126 -10 l125 0 20 46 c12 25
18 48 15 51 -3 3 -21 -8 -40 -25 -39 -34 -98 -54 -133 -46 -21 6 -23 12 -23
61 0 53 0 54 28 51 16 -2 31 -12 37 -25 17 -39 25 -25 25 42 0 67 -8 81 -25
43 -6 -15 -21 -24 -38 -26 -28 -3 -28 -3 -25 45 2 37 7 49 21 51 35 7 86 -9
117 -34 40 -34 51 -27 33 19 l-15 37 -124 0 c-68 0 -124 -4 -124 -9z"/>
<path d="M12720 12761 c0 -5 9 -11 20 -14 18 -5 20 -14 20 -110 0 -114 -4
-137 -26 -137 -8 0 -14 -4 -14 -10 0 -6 28 -10 65 -10 63 0 86 12 45 23 -17 4
-20 14 -20 61 0 53 1 56 24 56 19 0 36 -16 73 -70 l48 -69 163 -1 163 0 20 46
c12 25 18 48 15 51 -3 3 -21 -8 -40 -25 -39 -34 -98 -54 -133 -46 -21 6 -23
12 -23 61 0 53 0 54 28 51 16 -2 31 -12 37 -25 17 -39 25 -25 25 42 0 67 -8
81 -25 43 -6 -15 -21 -24 -38 -26 -28 -3 -28 -3 -25 45 2 37 7 49 21 51 35 7
86 -9 117 -34 40 -34 51 -27 33 19 l-15 37 -124 0 c-113 0 -156 -9 -104 -23
18 -5 20 -13 20 -114 0 -59 -4 -114 -9 -121 -16 -27 -54 -8 -97 48 l-42 55 30
17 c52 32 56 101 7 125 -28 15 -239 18 -239 4z m198 -27 c12 -8 22 -26 22 -39
0 -38 -26 -55 -81 -55 l-49 0 0 48 c0 27 3 52 7 55 12 13 79 7 101 -9z"/>
<path d="M13330 12760 c0 -5 6 -10 14 -10 21 0 26 -23 26 -131 0 -88 -2 -100
-20 -111 -33 -21 -23 -28 35 -28 54 0 74 13 35 23 -18 5 -20 14 -20 106 0 56
2 101 4 101 2 0 34 -52 72 -115 55 -91 74 -114 92 -115 22 0 22 2 22 130 0
121 1 130 21 141 19 10 20 9 14 -13 -4 -12 -10 -29 -12 -35 -9 -23 15 -14 46
18 20 20 39 29 53 27 22 -3 23 -8 26 -103 3 -120 -1 -145 -28 -145 -11 0 -20
-4 -20 -10 0 -6 30 -10 70 -10 40 0 70 4 70 10 0 6 -7 10 -15 10 -25 0 -36 48
-33 149 3 90 4 96 25 99 13 2 35 -9 57 -29 20 -17 39 -30 41 -27 2 2 -1 21 -7
41 l-11 37 -184 0 c-164 0 -220 -8 -163 -23 18 -5 20 -14 20 -99 l0 -93 -66
108 -66 107 -49 0 c-27 0 -49 -4 -49 -10z"/>
<path d="M14767 12763 c-2 -5 -7 -20 -11 -35 -3 -15 -15 -30 -26 -33 -23 -7
-27 -25 -5 -25 12 0 15 -15 15 -79 0 -59 4 -84 16 -95 18 -19 75 -21 92 -4 19
19 14 30 -9 18 -40 -22 -49 -7 -49 80 l0 80 30 0 c17 0 30 5 30 10 0 6 -13 10
-30 10 -28 0 -30 3 -30 34 0 33 -14 55 -23 39z"/>
<path d="M14080 12670 c-41 -41 -17 -80 62 -100 60 -15 80 -36 53 -56 -32 -23
-71 -17 -98 16 -26 30 -50 40 -43 18 3 -7 7 -24 10 -38 5 -24 10 -26 71 -28
58 -2 68 0 90 22 46 46 26 85 -55 106 -58 15 -74 28 -59 46 18 22 58 16 85
-13 28 -31 38 -26 30 14 -6 27 -10 29 -66 31 -48 2 -63 -1 -80 -18z"/>
<path d="M14250 12684 c0 -4 6 -12 14 -18 16 -13 86 -172 86 -196 0 -27 -31
-63 -43 -51 -14 14 -44 14 -52 1 -10 -17 15 -40 42 -40 37 0 64 37 117 163 26
64 54 118 62 121 30 11 12 26 -31 26 -25 0 -45 -4 -45 -10 0 -5 5 -10 10 -10
6 0 10 -8 10 -17 0 -22 -32 -113 -40 -113 -3 0 -16 28 -29 62 -17 43 -21 63
-13 66 29 9 7 22 -38 22 -27 0 -50 -3 -50 -6z"/>
<path d="M14520 12670 c-41 -41 -17 -80 62 -100 60 -15 80 -36 53 -56 -32 -23
-71 -17 -98 16 -26 30 -50 40 -43 18 3 -7 7 -24 10 -38 5 -24 10 -26 71 -28
58 -2 68 0 90 22 46 46 26 85 -55 106 -58 15 -74 28 -59 46 18 22 58 16 85
-13 28 -31 38 -26 30 14 -6 27 -10 29 -66 31 -48 2 -63 -1 -80 -18z"/>
<path d="M14918 12665 c-34 -33 -42 -77 -23 -122 20 -48 42 -62 92 -63 30 0
50 7 70 24 36 32 24 44 -15 16 -41 -31 -78 -21 -98 25 -8 19 -14 39 -14 45 0
6 30 10 75 10 67 0 75 2 75 19 0 10 -12 30 -26 45 -37 36 -101 37 -136 1z
m102 -14 c15 -30 14 -31 -35 -31 -30 0 -45 4 -45 13 0 37 62 51 80 18z"/>
<path d="M15110 12681 l-25 -7 23 -12 c19 -11 22 -20 22 -81 0 -60 -3 -71 -22
-84 -22 -15 -20 -16 40 -16 58 -1 80 10 47 23 -19 7 -21 129 -2 143 48 37 77
14 77 -62 0 -63 -7 -85 -26 -85 -8 0 -14 -4 -14 -10 0 -6 27 -10 60 -10 33 0
60 4 60 10 0 6 -6 10 -14 10 -19 0 -26 22 -26 86 0 50 2 55 31 69 46 24 59 8
59 -77 0 -52 -4 -70 -15 -74 -32 -13 -13 -24 40 -24 53 0 72 11 40 24 -11 4
-15 23 -15 80 0 54 -4 79 -16 90 -18 19 -63 21 -99 4 -19 -9 -28 -9 -37 0 -15
15 -73 16 -99 2 -13 -7 -19 -7 -19 0 0 11 -32 12 -70 1z"/>
<path d="M15520 12670 c-41 -41 -17 -80 62 -100 60 -15 80 -36 53 -56 -32 -23
-71 -17 -98 16 -26 30 -50 40 -43 18 3 -7 7 -24 10 -38 5 -24 10 -26 71 -28
58 -2 68 0 90 22 46 46 26 85 -55 106 -58 15 -74 28 -59 46 18 22 58 16 85
-13 28 -31 38 -26 30 14 -6 27 -10 29 -66 31 -48 2 -63 -1 -80 -18z"/>
<path d="M13007 11573 c-2 -5 -7 -20 -11 -35 -3 -15 -15 -30 -26 -33 -23 -7
-27 -25 -5 -25 12 0 15 -15 15 -79 0 -59 4 -84 16 -95 18 -19 75 -21 92 -4 19
19 14 30 -9 18 -40 -22 -49 -7 -49 80 l0 80 30 0 c17 0 30 5 30 10 0 6 -13 10
-30 10 -28 0 -30 3 -30 34 0 33 -14 55 -23 39z"/>
<path d="M11410 11491 l-25 -7 23 -12 c19 -11 22 -20 22 -81 0 -60 -3 -71 -22
-84 -22 -15 -20 -16 40 -16 58 -1 80 10 47 23 -19 7 -21 129 -2 143 48 37 77
14 77 -62 0 -63 -7 -85 -26 -85 -8 0 -14 -4 -14 -10 0 -6 27 -10 60 -10 33 0
60 4 60 10 0 6 -6 10 -14 10 -19 0 -26 22 -26 86 0 50 2 55 31 69 46 24 59 8
59 -77 0 -52 -4 -70 -15 -74 -32 -13 -13 -24 40 -24 53 0 72 11 40 24 -11 4
-15 23 -15 80 0 54 -4 79 -16 90 -18 19 -63 21 -99 4 -19 -9 -28 -9 -37 0 -15
15 -73 16 -99 2 -13 -7 -19 -7 -19 0 0 11 -32 12 -70 1z"/>
<path d="M11843 11488 c-36 -17 -41 -58 -7 -58 8 0 19 11 24 25 16 42 80 31
80 -15 0 -24 -4 -28 -40 -33 -44 -6 -88 -30 -97 -53 -3 -8 2 -25 11 -39 18
-27 70 -34 107 -14 15 7 24 7 34 -1 16 -14 82 -9 75 5 -3 5 -12 10 -20 10 -12
0 -16 16 -18 75 -2 62 -6 78 -23 93 -24 19 -91 22 -126 5z m97 -127 c0 -22 -6
-31 -31 -41 -26 -11 -33 -11 -46 3 -19 19 -11 45 19 57 43 17 58 12 58 -19z"/>
<path d="M12058 11493 c-22 -6 -23 -19 -3 -27 12 -4 15 -28 15 -126 0 -98 -3
-122 -15 -126 -32 -13 -13 -24 40 -24 53 0 72 11 40 24 -10 3 -15 19 -15 44
l0 40 45 -6 c57 -6 90 15 106 67 14 47 -1 103 -34 126 -26 18 -88 20 -105 3
-9 -9 -12 -9 -12 0 0 12 -28 14 -62 5z m151 -39 c28 -36 27 -86 -3 -121 -21
-24 -27 -26 -52 -18 -27 10 -29 15 -32 69 -2 44 1 63 14 77 24 26 49 24 73 -7z"/>
<path d="M12483 11482 c-34 -26 -46 -72 -33 -121 13 -51 42 -71 101 -71 66 0
99 34 99 102 0 41 -5 54 -29 79 -24 23 -38 29 -73 29 -25 0 -52 -8 -65 -18z
m102 -22 c26 -29 25 -105 -2 -132 -60 -60 -127 56 -72 126 25 31 49 33 74 6z"/>
<path d="M12688 11493 c-22 -5 -24 -23 -3 -23 12 0 15 -15 15 -75 0 -58 -4
-77 -15 -81 -33 -13 -11 -24 48 -23 59 0 61 1 40 16 -20 13 -23 24 -23 79 0
61 1 64 30 79 17 9 40 13 50 10 18 -6 20 -16 20 -81 0 -57 -4 -76 -15 -80 -33
-13 -12 -24 45 -24 58 0 80 12 40 23 -18 5 -20 14 -20 80 0 55 -4 80 -16 91
-20 20 -83 21 -112 0 -20 -14 -22 -14 -22 0 0 16 -24 19 -62 9z"/>
<path d="M13163 11482 c-34 -26 -46 -72 -33 -121 13 -51 42 -71 101 -71 66 0
99 34 99 102 0 41 -5 54 -29 79 -24 23 -38 29 -73 29 -25 0 -52 -8 -65 -18z
m102 -22 c26 -29 25 -105 -2 -132 -60 -60 -127 56 -72 126 25 31 49 33 74 6z"/>
<path d="M3152 11388 c-18 -18 -14 -88 8 -159 11 -35 25 -109 30 -164 15 -143
31 -258 40 -270 4 -5 10 -37 14 -70 3 -33 10 -94 15 -135 6 -41 10 -103 11
-138 0 -51 -3 -64 -17 -68 -54 -16 -68 -51 -36 -87 28 -32 69 -96 89 -139 18
-40 43 -51 45 -20 1 37 10 110 19 161 6 30 10 70 10 89 0 32 -1 33 -30 27 -37
-8 -34 -20 -60 255 -12 118 -25 231 -31 250 -5 19 -11 78 -15 130 -3 52 -9
104 -14 115 -5 11 -21 68 -37 128 -23 83 -32 104 -41 95z"/>
<path d="M4421 11290 c-22 -45 -49 -93 -59 -108 -11 -15 -34 -54 -52 -87 -18
-33 -44 -75 -58 -93 -13 -17 -37 -58 -53 -90 -16 -31 -46 -87 -66 -124 -21
-37 -58 -102 -82 -145 -72 -128 -161 -270 -176 -283 -12 -10 -19 -10 -34 4
-17 15 -19 15 -35 -3 -9 -10 -26 -61 -37 -112 -11 -52 -23 -104 -26 -116 -4
-18 -1 -23 15 -23 11 0 25 7 32 15 15 18 98 75 109 75 13 0 51 46 51 62 0 8
-9 26 -20 40 -25 32 -19 52 43 146 27 40 64 103 83 140 19 37 58 103 86 147
48 76 66 107 146 255 19 36 56 99 82 140 55 89 120 211 120 228 0 7 -6 12 -14
12 -8 0 -33 -36 -55 -80z"/>
<path d="M1810 11325 c0 -32 49 -115 99 -170 15 -16 38 -46 51 -65 13 -19 38
-51 56 -70 18 -19 72 -93 120 -165 48 -71 102 -150 121 -174 18 -24 33 -49 33
-55 0 -6 16 -29 35 -51 19 -22 40 -47 47 -55 31 -36 74 -98 92 -130 11 -19 41
-58 68 -87 54 -58 59 -79 23 -93 -25 -10 -31 -25 -17 -46 4 -6 36 -26 72 -44
36 -18 88 -48 116 -66 28 -19 56 -34 61 -34 18 0 -10 91 -55 180 -56 110 -64
118 -97 100 -22 -12 -27 -11 -45 5 -11 10 -20 23 -20 28 0 6 -21 33 -47 61
-27 29 -73 87 -103 130 -30 43 -72 101 -93 129 -20 29 -80 117 -133 196 -53
79 -126 180 -162 226 -37 45 -89 112 -117 149 -27 37 -62 81 -77 99 l-27 32
-1 -30z"/>
<path d="M5377 11225 c-59 -62 -132 -133 -162 -156 -30 -24 -57 -51 -60 -61
-6 -17 -189 -200 -206 -206 -13 -5 -123 -121 -129 -137 -7 -17 -156 -175 -167
-176 -8 0 -106 -111 -123 -138 -6 -10 -24 -14 -59 -12 l-50 2 -10 -38 c-6 -21
-11 -45 -11 -53 0 -8 -8 -31 -19 -50 -25 -47 -35 -96 -21 -105 6 -4 35 15 64
42 30 26 83 69 120 96 73 52 83 74 35 79 l-30 3 23 31 c45 61 218 241 569 592
196 197 360 367 364 380 13 44 -21 20 -128 -93z"/>
<path d="M3327 9896 c-51 -19 -123 -81 -165 -142 -31 -44 -34 -54 -30 -104 2
-30 12 -72 22 -92 15 -32 16 -42 6 -75 -7 -21 -22 -51 -33 -67 l-21 -30 40
-75 c35 -65 48 -80 90 -103 62 -34 90 -34 148 -3 26 14 51 25 57 25 23 0 87
53 107 89 12 21 28 44 36 50 27 23 29 69 5 128 -18 44 -20 59 -11 72 52 71 53
74 47 139 -8 89 -40 152 -90 176 -51 25 -157 31 -208 12z m165 -63 c36 -24 75
-94 63 -114 -4 -5 -23 -9 -43 -9 -38 0 -67 -14 -114 -58 l-26 -24 -16 31 c-9
17 -25 35 -35 40 -20 11 -63 2 -99 -20 -29 -18 -35 -8 -27 40 5 28 21 56 51
90 40 45 50 50 92 53 72 5 114 -3 154 -29z m27 -194 c42 -39 16 -86 -39 -74
-39 9 -58 44 -42 79 12 28 48 26 81 -5z m-228 0 c13 -13 19 -30 17 -47 -2 -22
-9 -28 -34 -30 -57 -6 -86 51 -42 82 29 21 34 20 59 -5z m86 -82 c17 -30 61
-48 95 -42 41 8 56 -6 60 -56 3 -34 3 -34 -34 -31 -28 3 -40 -1 -50 -17 -9
-14 -16 -17 -24 -10 -14 12 -54 -5 -54 -21 0 -6 -4 -10 -10 -10 -5 0 -10 9
-10 20 0 26 -22 35 -48 21 -15 -8 -23 -7 -32 4 -16 20 -26 19 -49 -4 -19 -19
-19 -19 -25 5 -7 28 11 73 34 85 8 4 27 10 42 13 15 4 40 17 55 31 32 28 39
30 50 12z m79 -247 c18 0 18 -15 -2 -34 -24 -25 -30 -19 -25 22 2 20 6 31 8
25 3 -7 11 -13 19 -13z m-166 -4 c0 -24 18 -28 50 -11 29 15 30 15 30 -9 0
-14 5 -28 12 -32 27 -17 -33 -23 -77 -7 -50 17 -64 35 -45 58 16 19 30 19 30
1z"/>
<path d="M11591 9731 c-28 -8 -41 -31 -17 -31 23 0 24 -238 1 -246 -32 -13
-13 -24 40 -24 53 0 72 11 40 24 -11 4 -15 22 -15 71 0 65 0 65 35 82 51 24
65 8 65 -79 0 -52 -4 -70 -15 -74 -32 -13 -13 -24 40 -24 53 0 72 11 40 24
-11 4 -15 23 -15 79 0 59 -4 77 -18 90 -20 19 -97 23 -107 7 -15 -25 -25 -5
-25 50 0 63 -2 65 -49 51z"/>
<path d="M14381 9731 c-27 -7 -41 -31 -18 -31 16 0 27 -20 27 -50 0 -16 -6
-18 -52 -13 -48 5 -56 3 -79 -21 -15 -14 -29 -39 -32 -55 -8 -40 10 -97 36
-116 25 -17 79 -20 108 -5 13 7 19 7 19 0 0 -5 16 -10 35 -10 36 0 47 13 20
24 -12 4 -15 30 -15 146 0 148 1 145 -49 131z m-13 -127 c18 -12 22 -25 22
-69 0 -44 -4 -57 -22 -69 -49 -35 -93 -2 -93 69 0 71 44 104 93 69z"/>
<path d="M14731 9731 c-28 -8 -41 -31 -17 -31 23 0 24 -238 1 -246 -32 -13
-13 -24 40 -24 53 0 72 11 40 24 -12 4 -15 30 -15 146 0 148 1 145 -49 131z"/>
<path d="M12253 9716 c-38 -18 -56 -47 -47 -81 8 -34 37 -52 115 -73 71 -20
89 -38 71 -76 -24 -53 -96 -46 -154 15 -42 44 -52 40 -37 -17 12 -44 29 -66
36 -47 4 10 10 10 25 2 12 -6 43 -11 69 -11 80 0 131 52 115 117 -7 29 -46 51
-116 66 -48 10 -80 30 -80 49 0 20 34 40 66 40 26 0 44 -8 66 -30 32 -33 54
-39 44 -14 -3 9 -9 27 -12 40 -4 16 -13 23 -28 23 -11 -1 -39 1 -61 5 -26 4
-51 1 -72 -8z"/>
<path d="M11457 9713 c-2 -5 -7 -20 -11 -35 -3 -15 -15 -30 -26 -33 -23 -7
-27 -25 -5 -25 12 0 15 -15 15 -79 0 -59 4 -84 16 -95 18 -19 75 -21 92 -4 19
19 14 30 -9 18 -40 -22 -49 -7 -49 80 l0 80 30 0 c17 0 30 5 30 10 0 6 -13 10
-30 10 -28 0 -30 3 -30 34 0 33 -14 55 -23 39z"/>
<path d="M12535 9600 c-45 -114 -65 -150 -86 -150 -5 0 -9 -4 -9 -10 0 -6 27
-10 60 -10 33 0 60 4 60 10 0 6 -6 10 -14 10 -21 0 -25 23 -10 58 12 30 16 32
63 32 48 0 50 -1 62 -37 10 -31 9 -38 -5 -48 -9 -7 -16 -15 -16 -19 0 -3 52
-6 115 -6 105 0 145 10 95 23 -18 5 -20 13 -19 109 0 56 3 99 5 93 2 -5 22
-57 43 -115 21 -58 45 -106 52 -108 9 -1 29 36 59 109 24 61 48 113 53 116 6
3 8 -34 5 -92 -3 -77 -8 -100 -21 -110 -28 -20 -20 -25 43 -25 33 0 60 4 60
10 0 6 -6 10 -14 10 -21 0 -26 23 -26 125 0 102 5 125 26 125 8 0 14 5 14 11
0 6 -20 9 -52 7 l-52 -3 -39 -98 c-22 -54 -43 -95 -47 -90 -4 4 -22 50 -41
101 l-33 92 -53 0 c-53 0 -71 -13 -33 -23 18 -5 20 -13 20 -114 0 -59 -4 -114
-9 -121 -4 -8 -19 -12 -32 -10 -21 3 -32 22 -78 136 -47 115 -56 132 -76 132
-20 0 -29 -15 -70 -120z m84 13 l21 -53 -44 0 -44 0 21 55 c11 31 21 54 23 53
1 -2 12 -27 23 -55z"/>
<path d="M13150 9711 c0 -5 9 -11 20 -14 18 -5 20 -14 20 -110 0 -114 -4 -137
-26 -137 -8 0 -14 -4 -14 -10 0 -6 49 -10 126 -10 l125 0 20 46 c12 25 18 48
15 51 -3 3 -21 -8 -40 -25 -39 -34 -98 -54 -133 -46 -21 6 -23 12 -23 61 0 53
0 54 28 51 16 -2 31 -12 37 -25 17 -39 25 -25 25 42 0 67 -8 81 -25 43 -6 -15
-21 -24 -38 -26 -28 -3 -28 -3 -25 45 2 37 7 49 21 51 35 7 86 -9 117 -34 40
-34 51 -27 33 19 l-15 37 -124 0 c-68 0 -124 -4 -124 -9z"/>
<path d="M11878 9615 c-34 -33 -42 -77 -23 -122 20 -48 42 -62 92 -63 30 0 50
7 70 24 36 32 24 44 -15 16 -41 -31 -78 -21 -98 25 -8 19 -14 39 -14 45 0 6
30 10 75 10 67 0 75 2 75 19 0 10 -12 30 -26 45 -37 36 -101 37 -136 1z m102
-14 c15 -30 14 -31 -35 -31 -30 0 -45 4 -45 13 0 37 62 51 80 18z"/>
<path d="M13600 9631 l-25 -7 23 -12 c19 -11 22 -20 22 -81 0 -60 -3 -71 -22
-84 -22 -15 -20 -16 40 -16 58 -1 80 10 47 23 -19 7 -21 129 -2 143 48 37 77
14 77 -62 0 -63 -7 -85 -26 -85 -8 0 -14 -4 -14 -10 0 -6 27 -10 60 -10 33 0
60 4 60 10 0 6 -6 10 -14 10 -19 0 -26 22 -26 86 0 50 2 55 31 69 46 24 59 8
59 -77 0 -52 -4 -70 -15 -74 -32 -13 -13 -24 40 -24 53 0 72 11 40 24 -11 4
-15 23 -15 80 0 54 -4 79 -16 90 -18 19 -63 21 -99 4 -19 -9 -28 -9 -37 0 -15
15 -73 16 -99 2 -13 -7 -19 -7 -19 0 0 11 -32 12 -70 1z"/>
<path d="M14033 9622 c-34 -26 -46 -72 -33 -121 13 -51 42 -71 101 -71 66 0
99 34 99 102 0 41 -5 54 -29 79 -24 23 -38 29 -73 29 -25 0 -52 -8 -65 -18z
m102 -22 c26 -29 25 -105 -2 -132 -60 -60 -127 56 -72 126 25 31 49 33 74 6z"/>
<path d="M14518 9615 c-34 -33 -42 -77 -23 -122 20 -48 42 -62 92 -63 30 0 50
7 70 24 36 32 24 44 -15 16 -41 -31 -78 -21 -98 25 -8 19 -14 39 -14 45 0 6
30 10 75 10 67 0 75 2 75 19 0 10 -12 30 -26 45 -37 36 -101 37 -136 1z m102
-14 c15 -30 14 -31 -35 -31 -30 0 -45 4 -45 13 0 37 62 51 80 18z"/>
<path d="M3295 9153 c-48 -12 -66 -59 -20 -51 30 6 44 -8 16 -17 -10 -3 -27
-15 -37 -27 -18 -20 -18 -21 -1 -15 10 4 42 14 72 22 53 16 54 16 51 53 -2 33
-5 37 -31 39 -17 0 -39 -1 -50 -4z"/>
<path d="M3311 9029 c-33 -7 -70 -34 -60 -44 7 -6 97 24 104 35 9 14 -8 17
-44 9z"/>
<path d="M3553 8968 c-34 -16 -28 -25 22 -32 25 -4 45 -11 45 -17 0 -10 -5
-10 -120 -13 -73 -2 -143 -22 -137 -40 1 -4 65 -9 141 -11 75 -1 142 -7 148
-13 16 -16 -18 -69 -57 -87 -19 -9 -39 -23 -46 -31 -12 -15 -90 -18 -124 -5
-13 5 -31 3 -49 -6 -26 -14 -27 -16 -13 -31 10 -9 40 -17 76 -20 52 -4 69 0
128 28 97 47 129 73 148 124 17 44 19 45 69 51 65 7 242 -1 281 -13 33 -10 64
-2 83 21 11 12 10 17 0 24 -7 4 -105 9 -217 10 l-205 3 -30 29 c-35 33 -106
47 -143 29z"/>
<path d="M3052 8941 c-29 -17 -61 -40 -71 -53 -18 -22 -25 -23 -237 -28 -148
-4 -226 -10 -242 -18 -32 -18 -19 -31 25 -26 21 3 124 7 229 9 l191 5 -5 -45
c-4 -40 -1 -47 33 -83 54 -58 108 -63 203 -19 33 16 27 26 -12 20 -84 -13
-131 16 -138 87 l-3 35 101 0 c75 0 106 4 119 15 17 14 15 16 -31 22 -27 3
-75 7 -106 7 -40 1 -58 5 -58 14 0 24 30 55 60 62 37 8 49 25 18 25 -13 0 -47
-13 -76 -29z"/>
<path d="M4089 8823 c-15 -2 -37 -15 -49 -28 -31 -33 -37 -111 -35 -480 2
-294 9 -359 41 -372 8 -3 14 -14 14 -24 0 -24 21 -24 50 -1 21 17 21 20 10
127 -7 61 -16 118 -21 127 -12 24 -11 55 1 63 8 5 8 11 0 20 -14 16 -11 144 4
163 7 10 6 16 -4 22 -11 7 -12 14 -3 32 6 13 14 80 17 150 3 70 11 139 16 154
11 28 7 55 -7 53 -4 -1 -20 -4 -34 -6z"/>
<path d="M2487 8758 c-13 -10 -20 -35 -27 -98 -10 -98 -29 -220 -35 -231 -3
-4 -7 -24 -10 -45 -2 -22 -9 -68 -14 -104 -6 -36 -12 -126 -16 -202 -3 -75 -8
-150 -11 -167 -5 -24 -3 -31 9 -31 8 0 20 7 27 15 7 8 18 15 24 15 28 0 56 46
56 92 0 25 5 69 10 98 6 29 14 130 20 224 5 94 17 209 26 256 26 137 29 180
13 180 -8 0 -23 3 -34 6 -11 3 -28 -1 -38 -8z"/>
<path d="M2892 8667 c-50 -23 -32 -109 30 -147 40 -24 98 -25 188 -4 66 15
130 54 130 79 0 28 -23 26 -55 -5 -27 -26 -43 -33 -93 -37 -33 -3 -71 -3 -84
0 -40 10 -78 52 -78 86 0 36 -8 42 -38 28z"/>
<path d="M3605 8648 c-11 -6 -23 -17 -28 -24 -24 -40 -145 -59 -191 -29 -21
14 -25 14 -47 -4 -20 -16 -22 -23 -13 -38 10 -15 24 -18 97 -16 70 2 95 7 136
28 53 26 91 69 75 85 -5 5 -17 4 -29 -2z"/>
<path d="M11421 8551 c-28 -8 -41 -31 -17 -31 14 0 16 -19 16 -135 0 -111 3
-135 14 -135 8 0 18 5 21 10 4 7 12 7 25 0 10 -5 36 -10 58 -10 96 0 137 140
58 195 -24 17 -79 20 -107 5 -18 -10 -19 -7 -19 50 0 63 -2 65 -49 51z m144
-136 c17 -16 25 -35 25 -60 0 -25 -8 -44 -25 -60 -27 -28 -33 -29 -69 -15 -24
9 -26 14 -26 69 0 51 3 62 22 75 31 22 45 20 73 -9z"/>
<path d="M13083 8545 c-12 -9 -25 -31 -29 -50 -3 -20 -12 -35 -20 -35 -8 0
-14 -4 -14 -10 0 -5 7 -10 15 -10 13 0 15 -14 13 -82 l-3 -83 -30 0 -30 0 -3
94 -3 93 -36 -5 c-44 -8 -53 -16 -30 -28 23 -14 25 -146 2 -155 -40 -16 -5
-24 100 -24 105 0 140 8 100 24 -12 4 -15 24 -15 86 l0 80 33 0 c46 0 57 -15
57 -81 0 -66 -7 -89 -26 -89 -8 0 -14 -4 -14 -10 0 -6 27 -10 60 -10 33 0 60
4 60 10 0 6 -6 10 -14 10 -21 0 -26 23 -26 111 l0 79 -65 0 -65 0 0 29 c0 56
71 77 84 25 8 -29 46 -34 46 -6 0 47 -98 71 -147 37z"/>
<path d="M14641 8551 c-28 -8 -41 -31 -17 -31 23 0 24 -238 1 -246 -32 -13
-13 -24 40 -24 53 0 72 11 40 24 -11 4 -15 22 -15 71 0 65 0 65 35 82 51 24
65 8 65 -79 0 -52 -4 -70 -15 -74 -32 -13 -13 -24 40 -24 53 0 72 11 40 24
-11 4 -15 23 -15 79 0 59 -4 77 -18 90 -20 19 -97 23 -107 7 -15 -25 -25 -5
-25 50 0 63 -2 65 -49 51z"/>
<path d="M15187 8533 c-2 -5 -7 -20 -11 -35 -3 -15 -15 -30 -26 -33 -23 -7
-27 -25 -5 -25 12 0 15 -15 15 -79 0 -59 4 -84 16 -95 18 -19 75 -21 92 -4 19
19 14 30 -9 18 -40 -22 -49 -7 -49 80 l0 80 30 0 c17 0 30 5 30 10 0 6 -13 10
-30 10 -28 0 -30 3 -30 34 0 33 -14 55 -23 39z"/>
<path d="M17317 8533 c-2 -5 -7 -20 -11 -35 -3 -15 -15 -30 -26 -33 -23 -7
-27 -25 -5 -25 12 0 15 -15 15 -79 0 -59 4 -84 16 -95 18 -19 75 -21 92 -4 19
19 14 30 -9 18 -40 -22 -49 -7 -49 80 l0 80 30 0 c17 0 30 5 30 10 0 6 -13 10
-30 10 -28 0 -30 3 -30 34 0 33 -14 55 -23 39z"/>
<path d="M12937 8524 c-4 -4 -7 -16 -7 -26 0 -13 7 -18 26 -18 21 0 25 4 22
22 -3 23 -27 35 -41 22z"/>
<path d="M13537 8524 c-4 -4 -7 -16 -7 -26 0 -13 7 -18 26 -18 21 0 25 4 22
22 -3 23 -27 35 -41 22z"/>
<path d="M16957 8524 c-4 -4 -7 -16 -7 -26 0 -13 7 -18 26 -18 21 0 25 4 22
22 -3 23 -27 35 -41 22z"/>
<path d="M3668 8506 c-10 -7 -18 -19 -18 -27 0 -8 -16 -26 -34 -41 -48 -39
-111 -38 -205 2 -60 26 -74 28 -91 18 -28 -18 -26 -24 21 -54 49 -31 118 -53
151 -48 89 13 101 17 157 64 59 49 86 100 52 100 -9 0 -24 -7 -33 -14z"/>
<path d="M2817 8472 c-10 -10 -17 -27 -17 -37 0 -31 46 -80 87 -94 34 -11 45
-10 100 9 113 39 241 120 201 128 -9 2 -40 -12 -70 -32 -29 -19 -76 -42 -103
-52 -48 -16 -52 -16 -89 1 -28 13 -44 30 -55 57 -18 42 -30 47 -54 20z"/>
<path d="M14070 8475 c-7 -9 -29 -15 -54 -15 -31 0 -48 -6 -64 -23 -24 -26
-29 -76 -9 -96 10 -10 9 -14 -5 -22 -20 -11 -24 -54 -7 -64 6 -5 4 -11 -6 -19
-24 -17 -15 -58 15 -73 55 -28 168 -8 184 32 18 47 -5 71 -76 80 -29 3 -61 9
-71 12 -33 9 -11 26 36 28 74 4 109 47 81 101 -19 37 -18 46 8 42 15 -2 24 3
26 15 4 22 -40 24 -58 2z m-20 -56 c23 -43 -15 -106 -51 -84 -19 12 -29 54
-19 80 12 32 54 34 70 4z m33 -196 c14 -8 7 -32 -12 -43 -11 -5 -36 -10 -56
-10 -20 0 -45 5 -56 10 -21 12 -26 45 -6 54 13 6 117 -3 130 -11z"/>
<path d="M11640 8454 c0 -4 6 -12 14 -18 16 -13 86 -172 86 -196 0 -27 -31
-63 -43 -51 -14 14 -44 14 -52 1 -10 -17 15 -40 42 -40 37 0 64 37 117 163 26
64 54 118 62 121 30 11 12 26 -31 26 -25 0 -45 -4 -45 -10 0 -5 5 -10 10 -10
6 0 10 -8 10 -17 0 -22 -32 -113 -40 -113 -3 0 -16 28 -29 62 -17 43 -21 63
-13 66 29 9 7 22 -38 22 -27 0 -50 -3 -50 -6z"/>
<path d="M12060 8440 c-41 -41 -17 -80 62 -100 60 -15 80 -36 53 -56 -32 -23
-71 -17 -98 16 -26 30 -50 40 -43 18 3 -7 7 -24 10 -38 5 -24 10 -26 71 -28
58 -2 68 0 90 22 46 46 26 85 -55 106 -58 15 -74 28 -59 46 18 22 58 16 85
-13 28 -31 38 -26 30 14 -6 27 -10 29 -66 31 -48 2 -63 -1 -80 -18z"/>
<path d="M12283 8448 c-36 -17 -41 -58 -7 -58 8 0 19 11 24 25 16 42 80 31 80
-15 0 -24 -4 -28 -40 -33 -44 -6 -88 -30 -97 -53 -3 -8 2 -25 11 -39 18 -27
70 -34 107 -14 15 7 24 7 34 -1 16 -14 82 -9 75 5 -3 5 -12 10 -20 10 -12 0
-16 16 -18 75 -2 62 -6 78 -23 93 -24 19 -91 22 -126 5z m97 -127 c0 -22 -6
-31 -31 -41 -26 -11 -33 -11 -46 3 -19 19 -11 45 19 57 43 17 58 12 58 -19z"/>
<path d="M12527 8435 c-32 -33 -40 -66 -27 -114 13 -48 46 -71 103 -71 42 0
87 26 87 50 0 16 -16 11 -35 -10 -23 -25 -67 -26 -89 -1 -10 11 -20 37 -23 58
-4 32 0 45 19 68 20 22 30 27 51 21 16 -4 27 -14 29 -28 4 -28 36 -36 45 -12
4 12 -2 25 -21 41 -39 33 -104 32 -139 -2z"/>
<path d="M12728 8453 c-22 -5 -24 -23 -3 -23 12 0 15 -15 15 -75 0 -58 -4 -77
-15 -81 -33 -13 -11 -24 48 -24 61 0 62 1 39 18 -21 16 -23 25 -20 82 l3 65
45 0 c38 0 45 3 45 20 0 25 -48 33 -72 13 -13 -10 -17 -10 -20 0 -5 12 -31 14
-65 5z"/>
<path d="M13317 8435 c-32 -33 -40 -66 -27 -114 13 -48 46 -71 103 -71 42 0
87 26 87 50 0 16 -16 11 -35 -10 -23 -25 -67 -26 -89 -1 -10 11 -20 37 -23 58
-4 32 0 45 19 68 20 22 30 27 51 21 16 -4 27 -14 29 -28 4 -28 36 -36 45 -12
4 12 -2 25 -21 41 -39 33 -104 32 -139 -2z"/>
<path d="M13518 8453 c-22 -6 -23 -19 -3 -27 11 -4 15 -22 15 -76 0 -54 -4
-72 -15 -76 -32 -13 -13 -24 40 -24 53 0 72 11 40 24 -12 4 -15 25 -15 96 0
97 -1 99 -62 83z"/>
<path d="M13648 8453 c-22 -5 -24 -23 -3 -23 12 0 15 -15 15 -75 0 -58 -4 -77
-15 -81 -33 -13 -11 -24 48 -23 59 0 61 1 40 16 -20 13 -23 24 -23 79 0 61 1
64 30 79 17 9 40 13 50 10 18 -6 20 -16 20 -81 0 -57 -4 -76 -15 -80 -33 -13
-12 -24 45 -24 58 0 80 12 40 23 -18 5 -20 14 -20 80 0 55 -4 80 -16 91 -20
20 -83 21 -112 0 -20 -14 -22 -14 -22 0 0 16 -24 19 -62 9z"/>
<path d="M14260 8451 c0 -5 6 -11 14 -14 7 -3 28 -46 47 -96 41 -110 55 -116
91 -33 l25 57 18 -58 c27 -84 47 -76 91 33 19 47 41 90 49 96 8 6 15 14 15 18
0 10 -88 7 -95 -4 -3 -5 1 -10 9 -10 19 0 21 -33 5 -81 -19 -55 -26 -54 -47
11 -18 52 -19 62 -7 67 32 12 12 23 -40 23 -58 0 -68 -7 -35 -28 24 -15 25
-35 2 -87 l-18 -39 -24 64 c-17 45 -20 65 -12 68 29 9 8 22 -38 22 -27 0 -50
-4 -50 -9z"/>
<path d="M14933 8448 c-36 -17 -41 -58 -7 -58 8 0 19 11 24 25 16 42 80 31 80
-15 0 -24 -4 -28 -40 -33 -44 -6 -88 -30 -97 -53 -3 -8 2 -25 11 -39 18 -27
70 -34 107 -14 15 7 24 7 34 -1 16 -14 82 -9 75 5 -3 5 -12 10 -20 10 -12 0
-16 16 -18 75 -2 62 -6 78 -23 93 -24 19 -91 22 -126 5z m97 -127 c0 -22 -6
-31 -31 -41 -26 -11 -33 -11 -46 3 -19 19 -11 45 19 57 43 17 58 12 58 -19z"/>
<path d="M15328 8435 c-34 -33 -42 -77 -23 -122 20 -48 42 -62 92 -63 30 0 50
7 70 24 36 32 24 44 -15 16 -41 -31 -78 -21 -98 25 -8 19 -14 39 -14 45 0 6
30 10 75 10 67 0 75 2 75 19 0 10 -12 30 -26 45 -37 36 -101 37 -136 1z m102
-14 c15 -30 14 -31 -35 -31 -30 0 -45 4 -45 13 0 37 62 51 80 18z"/>
<path d="M15490 8454 c0 -4 6 -12 14 -18 8 -6 30 -49 49 -96 45 -110 57 -110
103 -5 19 44 43 86 54 94 31 21 24 31 -25 31 -42 0 -61 -13 -33 -22 10 -4 9
-18 -5 -61 -10 -31 -22 -59 -26 -62 -5 -2 -19 22 -31 56 -22 58 -22 60 -4 74
17 13 14 14 -38 15 -32 0 -58 -3 -58 -6z"/>
<path d="M15768 8435 c-34 -33 -42 -77 -23 -122 20 -48 42 -62 92 -63 30 0 50
7 70 24 36 32 24 44 -15 16 -41 -31 -78 -21 -98 25 -8 19 -14 39 -14 45 0 6
30 10 75 10 67 0 75 2 75 19 0 10 -12 30 -26 45 -37 36 -101 37 -136 1z m102
-14 c15 -30 14 -31 -35 -31 -30 0 -45 4 -45 13 0 37 62 51 80 18z"/>
<path d="M15968 8453 c-22 -5 -24 -23 -3 -23 12 0 15 -15 15 -75 0 -58 -4 -77
-15 -81 -33 -13 -11 -24 48 -24 61 0 62 1 39 18 -21 16 -23 25 -20 82 l3 65
45 0 c38 0 45 3 45 20 0 25 -48 33 -72 13 -13 -10 -17 -10 -20 0 -5 12 -31 14
-65 5z"/>
<path d="M16250 8454 c0 -4 6 -12 14 -18 8 -6 30 -49 49 -96 45 -110 57 -110
103 -5 19 44 43 86 54 94 31 21 24 31 -25 31 -42 0 -61 -13 -33 -22 10 -4 9
-18 -5 -61 -10 -31 -22 -59 -26 -62 -5 -2 -19 22 -31 56 -22 58 -22 60 -4 74
17 13 14 14 -38 15 -32 0 -58 -3 -58 -6z"/>
<path d="M16533 8448 c-36 -17 -41 -58 -7 -58 8 0 19 11 24 25 16 42 80 31 80
-15 0 -24 -4 -28 -40 -33 -44 -6 -88 -30 -97 -53 -3 -8 2 -25 11 -39 18 -27
70 -34 107 -14 13 7 24 7 32 1 7 -6 57 -11 112 -11 98 0 99 0 77 17 -21 16
-23 25 -20 82 l3 65 45 0 c38 0 45 3 45 20 0 24 -48 33 -71 14 -13 -10 -17
-10 -24 0 -5 10 -19 12 -44 7 -35 -7 -51 -26 -21 -26 13 0 15 -13 13 -77 l-3
-78 -35 0 -35 0 -3 75 c-2 62 -6 78 -23 93 -24 19 -91 22 -126 5z m97 -127 c0
-22 -6 -31 -31 -41 -26 -11 -33 -11 -46 3 -19 19 -11 45 19 57 43 17 58 12 58
-19z"/>
<path d="M16938 8453 c-22 -6 -23 -19 -3 -27 11 -4 15 -22 15 -76 0 -54 -4
-72 -15 -76 -32 -13 -13 -24 40 -24 53 0 72 11 40 24 -12 4 -15 25 -15 96 0
97 -1 99 -62 83z"/>
<path d="M17088 8435 c-34 -33 -42 -77 -23 -122 20 -48 42 -62 92 -63 30 0 50
7 70 24 36 32 24 44 -15 16 -41 -31 -78 -21 -98 25 -8 19 -14 39 -14 45 0 6
30 10 75 10 67 0 75 2 75 19 0 10 -12 30 -26 45 -37 36 -101 37 -136 1z m102
-14 c15 -30 14 -31 -35 -31 -30 0 -45 4 -45 13 0 37 62 51 80 18z"/>
<path d="M17410 8454 c0 -4 6 -12 14 -18 16 -13 86 -172 86 -196 0 -27 -31
-63 -43 -51 -14 14 -44 14 -52 1 -10 -17 15 -40 42 -40 37 0 64 37 117 163 26
64 54 118 62 121 30 11 12 26 -31 26 -25 0 -45 -4 -45 -10 0 -5 5 -10 10 -10
6 0 10 -8 10 -17 0 -22 -32 -113 -40 -113 -3 0 -16 28 -29 62 -17 43 -21 63
-13 66 29 9 7 22 -38 22 -27 0 -50 -3 -50 -6z"/>
<path d="M3717 8382 c-14 -15 -15 -24 -5 -48 9 -25 7 -38 -16 -86 -30 -62 -35
-66 -116 -75 -75 -7 -141 15 -200 67 -48 44 -83 49 -88 14 -7 -46 86 -116 170
-129 59 -9 175 11 225 39 66 37 113 160 83 217 -13 24 -32 24 -53 1z"/>
<path d="M3139 8277 c-97 -87 -130 -107 -176 -107 -50 0 -114 28 -158 71 -22
20 -37 27 -53 23 -49 -13 -11 -79 71 -120 91 -46 188 -22 307 78 35 29 60 58
60 69 0 26 -9 24 -51 -14z"/>
<path d="M3182 8154 c-31 -21 -19 -34 32 -34 42 0 66 13 66 37 0 19 -70 17
-98 -3z"/>
<path d="M3168 8069 c-24 -14 -23 -36 3 -44 41 -13 160 19 139 38 -12 10 -126
15 -142 6z"/>
<path d="M12941 8041 c-27 -7 -41 -31 -18 -31 16 0 27 -20 27 -50 0 -16 -6
-18 -52 -13 -48 5 -56 3 -79 -21 -15 -14 -29 -39 -32 -55 -8 -40 10 -97 36
-116 25 -17 79 -20 108 -5 13 7 19 7 19 0 0 -5 16 -10 35 -10 36 0 47 13 20
24 -12 4 -15 30 -15 146 0 148 1 145 -49 131z m-13 -127 c18 -12 22 -25 22
-69 0 -44 -4 -57 -22 -69 -49 -35 -93 -2 -93 69 0 71 44 104 93 69z"/>
<path d="M13421 8041 c-27 -7 -41 -31 -18 -31 16 0 27 -20 27 -50 0 -16 -6
-18 -52 -13 -48 5 -56 3 -79 -21 -15 -14 -29 -39 -32 -55 -8 -40 10 -97 36
-116 25 -17 79 -20 108 -5 13 7 19 7 19 0 0 -5 16 -10 35 -10 36 0 47 13 20
24 -12 4 -15 30 -15 146 0 148 1 145 -49 131z m-13 -127 c18 -12 22 -25 22
-69 0 -44 -4 -57 -22 -69 -49 -35 -93 -2 -93 69 0 71 44 104 93 69z"/>
<path d="M11817 8023 c-2 -5 -7 -20 -11 -35 -3 -15 -15 -30 -26 -33 -23 -7
-27 -25 -5 -25 12 0 15 -15 15 -79 0 -59 4 -84 16 -95 18 -19 75 -21 92 -4 19
19 14 30 -9 18 -40 -22 -49 -7 -49 80 l0 80 30 0 c17 0 30 5 30 10 0 6 -13 10
-30 10 -28 0 -30 3 -30 34 0 33 -14 55 -23 39z"/>
<path d="M10807 8014 c-4 -4 -7 -16 -7 -26 0 -13 7 -18 26 -18 21 0 25 4 22
22 -3 23 -27 35 -41 22z"/>
<path d="M3171 7967 c-14 -6 -26 -18 -29 -24 -6 -21 118 -17 147 4 23 16 23
17 5 24 -30 12 -97 10 -123 -4z"/>
<path d="M10788 7943 c-22 -6 -23 -19 -3 -27 11 -4 15 -22 15 -76 0 -54 -4
-72 -15 -76 -32 -13 -13 -24 40 -24 53 0 72 11 40 24 -12 4 -15 25 -15 96 0
97 -1 99 -62 83z"/>
<path d="M10930 7930 c-41 -41 -17 -80 62 -100 60 -15 80 -36 53 -56 -32 -23
-71 -17 -98 16 -26 30 -50 40 -43 18 3 -7 7 -24 10 -38 5 -24 10 -26 71 -28
58 -2 68 0 90 22 46 46 26 85 -55 106 -58 15 -74 28 -59 46 18 22 58 16 85
-13 28 -31 38 -26 30 14 -6 27 -10 29 -66 31 -48 2 -63 -1 -80 -18z"/>
<path d="M11268 7943 c-22 -5 -24 -23 -3 -23 12 0 15 -15 15 -75 0 -58 -4 -77
-15 -81 -33 -13 -11 -24 48 -23 59 0 61 1 40 16 -20 13 -23 24 -23 79 0 61 1
64 30 79 17 9 40 13 50 10 18 -6 20 -16 20 -81 0 -57 -4 -76 -15 -80 -33 -13
-12 -24 45 -24 58 0 80 12 40 23 -18 5 -20 14 -20 80 0 55 -4 80 -16 91 -20
20 -83 21 -112 0 -20 -14 -22 -14 -22 0 0 16 -24 19 -62 9z"/>
<path d="M11573 7932 c-34 -26 -46 -72 -33 -121 13 -51 42 -71 101 -71 66 0
99 34 99 102 0 41 -5 54 -29 79 -24 23 -38 29 -73 29 -25 0 -52 -8 -65 -18z
m102 -22 c26 -29 25 -105 -2 -132 -60 -60 -127 56 -72 126 25 31 49 33 74 6z"/>
<path d="M12078 7943 c-22 -5 -24 -23 -3 -23 12 0 15 -15 15 -75 0 -58 -4 -77
-15 -81 -33 -13 -11 -24 48 -23 59 0 61 1 40 16 -20 13 -23 24 -23 79 0 61 1
64 30 79 17 9 40 13 50 10 18 -6 20 -16 20 -81 0 -57 -4 -76 -15 -80 -33 -13
-12 -24 45 -24 58 0 80 12 40 23 -18 5 -20 14 -20 80 0 55 -4 80 -16 91 -20
20 -83 21 -112 0 -20 -14 -22 -14 -22 0 0 16 -24 19 -62 9z"/>
<path d="M12378 7925 c-34 -33 -42 -77 -23 -122 20 -48 42 -62 92 -63 30 0 50
7 70 24 36 32 24 44 -15 16 -41 -31 -78 -21 -98 25 -8 19 -14 39 -14 45 0 6
30 10 75 10 67 0 75 2 75 19 0 10 -12 30 -26 45 -37 36 -101 37 -136 1z m102
-14 c15 -30 14 -31 -35 -31 -30 0 -45 4 -45 13 0 37 62 51 80 18z"/>
<path d="M12598 7925 c-34 -33 -42 -77 -23 -122 20 -48 42 -62 92 -63 30 0 50
7 70 24 36 32 24 44 -15 16 -41 -31 -78 -21 -98 25 -8 19 -14 39 -14 45 0 6
30 10 75 10 67 0 75 2 75 19 0 10 -12 30 -26 45 -37 36 -101 37 -136 1z m102
-14 c15 -30 14 -31 -35 -31 -30 0 -45 4 -45 13 0 37 62 51 80 18z"/>
<path d="M13078 7925 c-34 -33 -42 -77 -23 -122 20 -48 42 -62 92 -63 30 0 50
7 70 24 36 32 24 44 -15 16 -41 -31 -78 -21 -98 25 -8 19 -14 39 -14 45 0 6
30 10 75 10 67 0 75 2 75 19 0 10 -12 30 -26 45 -37 36 -101 37 -136 1z m102
-14 c15 -30 14 -31 -35 -31 -30 0 -45 4 -45 13 0 37 62 51 80 18z"/>
<path d="M3166 7875 c-37 -18 -25 -40 23 -43 49 -4 101 14 101 33 0 17 -96 24
-124 10z"/>
<path d="M3982 7868 c-5 -7 -12 -33 -15 -58 -3 -25 -10 -67 -16 -95 -6 -27
-16 -106 -22 -175 -6 -69 -13 -138 -15 -155 -1 -16 1 -86 6 -154 7 -92 13
-128 26 -142 15 -17 15 -20 -16 -51 -28 -28 -47 -62 -84 -148 -3 -8 -15 -30
-26 -47 -27 -46 -4 -43 43 4 l37 36 0 -41 c0 -48 11 -52 45 -18 l24 24 20 -34
c18 -31 23 -33 42 -24 16 9 20 19 17 46 -4 34 -4 34 32 28 25 -4 40 -1 48 8 9
11 3 24 -30 64 -22 27 -45 61 -50 77 -6 15 -15 27 -20 27 -9 0 -8 52 8 275 2
33 6 153 8 266 2 113 7 227 11 252 l7 47 -35 0 c-19 0 -39 -6 -45 -12z"/>
<path d="M2363 7818 c-44 -51 -64 -199 -65 -492 -1 -216 -2 -222 -24 -246 -13
-14 -30 -43 -39 -65 -9 -22 -20 -49 -25 -60 -36 -79 -59 -139 -55 -143 8 -9
55 20 55 34 0 12 78 198 93 222 5 6 20 12 33 12 25 0 25 -2 19 -42 -10 -69
-15 -80 -29 -69 -23 19 -53 -22 -81 -109 -15 -47 -31 -96 -37 -109 -11 -31 4
-48 23 -25 14 17 30 57 55 139 9 28 19 53 23 58 4 4 13 -33 20 -83 7 -49 17
-93 23 -97 6 -3 19 4 29 16 14 17 17 33 12 67 -7 50 10 61 29 19 13 -29 17
-30 42 -12 18 13 17 17 -10 93 -25 71 -29 94 -32 229 -1 83 2 206 9 275 6 69
13 166 16 215 3 50 6 101 6 115 3 34 -14 37 -37 6 -16 -20 -19 -39 -17 -103 4
-123 4 -133 -10 -232 -14 -96 -35 -133 -35 -64 -1 21 -2 77 -3 124 -3 89 6
176 19 194 10 14 30 99 30 129 0 32 -10 33 -37 4z m-6 -545 c-3 -10 -5 -4 -5
12 0 17 2 24 5 18 2 -7 2 -21 0 -30z"/>
<path d="M3138 7772 c-44 -27 -39 -32 47 -45 33 -6 100 18 91 32 -5 8 -83 31
-103 31 -4 0 -20 -8 -35 -18z"/>
<path d="M3430 7754 c-31 -10 -100 -49 -100 -57 0 -4 26 -5 59 -1 55 6 60 5
91 -23 27 -24 33 -37 33 -70 0 -50 -30 -101 -84 -143 -38 -31 -39 -34 -39 -91
0 -61 -13 -76 -40 -45 -6 8 -28 20 -48 27 -55 17 -61 27 -29 51 52 38 88 119
71 162 -15 40 -64 -2 -64 -55 0 -41 -20 -73 -59 -92 -26 -13 -31 -12 -67 12
-35 24 -64 66 -78 114 -5 15 -9 16 -26 5 -38 -24 -19 -130 30 -163 16 -11 30
-25 30 -31 0 -18 -34 -43 -68 -50 -34 -7 -82 16 -82 39 0 31 -42 95 -88 134
-27 23 -53 54 -56 68 -9 37 26 112 59 125 44 17 97 12 121 -11 28 -26 54 -19
54 14 0 69 -111 76 -206 13 -36 -25 -57 -48 -73 -82 -30 -64 -23 -98 34 -154
25 -24 45 -49 45 -55 -1 -5 -32 -30 -71 -55 -121 -76 -161 -153 -138 -262 6
-29 15 -57 19 -63 16 -22 61 -252 80 -410 20 -168 23 -180 45 -179 20 2 77 20
105 34 21 11 18 98 -8 201 -12 46 -26 128 -32 182 -5 55 -19 134 -30 177 -23
91 -25 169 -5 225 8 21 12 41 10 43 -9 9 -56 -30 -65 -54 -9 -23 -29 -31 -43
-18 -9 9 12 56 36 82 19 21 106 72 122 72 3 0 5 -9 5 -20 0 -36 22 -67 59 -83
34 -15 42 -16 83 -2 25 9 54 24 64 34 29 27 66 48 95 55 21 5 26 2 25 -11 -1
-11 20 -27 64 -49 78 -39 138 -44 165 -14 24 26 39 13 55 -47 15 -51 4 -117
-46 -278 -13 -44 -31 -107 -40 -140 -8 -33 -30 -109 -49 -170 -49 -160 -52
-191 -23 -215 45 -38 77 -18 97 62 21 89 82 283 101 325 11 24 20 45 20 48 0
4 9 27 21 52 37 82 49 421 16 474 -7 11 -27 29 -45 41 -33 20 -33 21 -15 42
33 37 63 103 63 135 0 84 -91 166 -160 145z m50 -374 c0 -5 -2 -10 -4 -10 -3
0 -8 5 -11 10 -3 6 -1 10 4 10 6 0 11 -4 11 -10z"/>
<path d="M10833 7535 c-12 -9 -25 -31 -29 -50 -3 -20 -12 -35 -20 -35 -8 0
-14 -4 -14 -10 0 -5 7 -10 15 -10 12 0 15 -16 15 -80 0 -62 -3 -82 -15 -86
-32 -13 -13 -24 40 -24 53 0 72 11 40 24 -12 4 -15 24 -15 86 0 73 2 80 20 80
11 0 20 5 20 10 0 6 -9 10 -20 10 -16 0 -20 7 -20 34 0 42 14 53 46 35 18 -9
27 -10 35 -2 31 31 -57 47 -98 18z"/>
<path d="M11651 7541 c-28 -8 -41 -31 -17 -31 23 0 24 -238 1 -246 -32 -13
-13 -24 40 -24 53 0 72 11 40 24 -11 4 -15 22 -15 71 0 65 0 65 35 82 51 24
65 8 65 -79 0 -52 -4 -70 -15 -74 -32 -13 -13 -24 40 -24 53 0 72 11 40 24
-11 4 -15 23 -15 79 0 59 -4 77 -18 90 -20 19 -97 23 -107 7 -15 -25 -25 -5
-25 50 0 63 -2 65 -49 51z"/>
<path d="M11517 7523 c-2 -5 -7 -20 -11 -35 -3 -15 -15 -30 -26 -33 -23 -7
-27 -25 -5 -25 12 0 15 -15 15 -79 0 -59 4 -84 16 -95 18 -19 75 -21 92 -4 19
19 14 30 -9 18 -40 -22 -49 -7 -49 80 l0 80 30 0 c17 0 30 5 30 10 0 6 -13 10
-30 10 -28 0 -30 3 -30 34 0 33 -14 55 -23 39z"/>
<path d="M10953 7432 c-34 -26 -46 -72 -33 -121 13 -51 42 -71 101 -71 66 0
99 34 99 102 0 41 -5 54 -29 79 -24 23 -38 29 -73 29 -25 0 -52 -8 -65 -18z
m102 -22 c26 -29 25 -105 -2 -132 -60 -60 -127 56 -72 126 25 31 49 33 74 6z"/>
<path d="M11158 7443 c-22 -5 -24 -23 -3 -23 12 0 15 -15 15 -75 0 -58 -4 -77
-15 -81 -33 -13 -11 -24 48 -24 61 0 62 1 39 18 -21 16 -23 25 -20 82 l3 65
45 0 c38 0 45 3 45 20 0 25 -48 33 -72 13 -13 -10 -17 -10 -20 0 -5 12 -31 14
-65 5z"/>
<path d="M11938 7425 c-34 -33 -42 -77 -23 -122 20 -48 42 -62 92 -63 30 0 50
7 70 24 36 32 24 44 -15 16 -41 -31 -78 -21 -98 25 -8 19 -14 39 -14 45 0 6
30 10 75 10 67 0 75 2 75 19 0 10 -12 30 -26 45 -37 36 -101 37 -136 1z m102
-14 c15 -30 14 -31 -35 -31 -30 0 -45 4 -45 13 0 37 62 51 80 18z"/>
<path d="M12278 7443 c-22 -6 -23 -19 -3 -27 12 -4 15 -28 15 -126 0 -98 -3
-122 -15 -126 -32 -13 -13 -24 40 -24 53 0 72 11 40 24 -10 3 -15 19 -15 44
l0 40 45 -6 c57 -6 90 15 106 67 14 47 -1 103 -34 126 -26 18 -88 20 -105 3
-9 -9 -12 -9 -12 0 0 12 -28 14 -62 5z m151 -39 c28 -36 27 -86 -3 -121 -21
-24 -27 -26 -52 -18 -27 10 -29 15 -32 69 -2 44 1 63 14 77 24 26 49 24 73 -7z"/>
<path d="M12533 7443 c-26 -5 -31 -23 -8 -23 12 0 15 -14 15 -62 0 -85 15
-112 62 -116 20 -2 51 4 67 13 28 14 31 14 31 0 0 -11 11 -15 40 -15 42 0 54
14 20 23 -18 5 -20 14 -20 97 l0 93 -31 -7 c-17 -3 -35 -6 -40 -6 -5 0 -9 -4
-9 -10 0 -5 7 -10 15 -10 18 0 27 -34 23 -86 -3 -33 -8 -42 -40 -59 -56 -30
-68 -13 -68 91 0 91 2 88 -57 77z"/>
<path d="M12818 7443 c-22 -5 -24 -23 -3 -23 12 0 15 -15 15 -75 0 -58 -4 -77
-15 -81 -33 -13 -11 -24 48 -24 61 0 62 1 39 18 -21 16 -23 25 -20 82 l3 65
45 0 c38 0 45 3 45 20 0 25 -48 33 -72 13 -13 -10 -17 -10 -20 0 -5 12 -31 14
-65 5z"/>
<path d="M13008 7443 c-22 -6 -23 -19 -3 -27 12 -4 15 -28 15 -126 0 -98 -3
-122 -15 -126 -32 -13 -13 -24 40 -24 53 0 72 11 40 24 -10 3 -15 19 -15 44
l0 40 45 -6 c57 -6 90 15 106 67 14 47 -1 103 -34 126 -26 18 -88 20 -105 3
-9 -9 -12 -9 -12 0 0 12 -28 14 -62 5z m151 -39 c28 -36 27 -86 -3 -121 -21
-24 -27 -26 -52 -18 -27 10 -29 15 -32 69 -2 44 1 63 14 77 24 26 49 24 73 -7z"/>
<path d="M13293 7432 c-34 -26 -46 -72 -33 -121 13 -51 42 -71 101 -71 66 0
99 34 99 102 0 41 -5 54 -29 79 -24 23 -38 29 -73 29 -25 0 -52 -8 -65 -18z
m102 -22 c26 -29 25 -105 -2 -132 -60 -60 -127 56 -72 126 25 31 49 33 74 6z"/>
<path d="M13510 7430 c-41 -41 -17 -80 62 -100 60 -15 80 -36 53 -56 -32 -23
-71 -17 -98 16 -26 30 -50 40 -43 18 3 -7 7 -24 10 -38 5 -24 10 -26 71 -28
58 -2 68 0 90 22 46 46 26 85 -55 106 -58 15 -74 28 -59 46 18 22 58 16 85
-13 28 -31 38 -26 30 14 -6 27 -10 29 -66 31 -48 2 -63 -1 -80 -18z"/>
<path d="M13738 7425 c-34 -33 -42 -77 -23 -122 20 -48 42 -62 92 -63 30 0 50
7 70 24 36 32 24 44 -15 16 -41 -31 -78 -21 -98 25 -8 19 -14 39 -14 45 0 6
30 10 75 10 67 0 75 2 75 19 0 10 -12 30 -26 45 -37 36 -101 37 -136 1z m102
-14 c15 -30 14 -31 -35 -31 -30 0 -45 4 -45 13 0 37 62 51 80 18z"/>
<path d="M11341 7031 c-28 -8 -41 -31 -17 -31 23 0 24 -238 1 -246 -32 -13
-13 -24 40 -24 53 0 72 11 40 24 -11 4 -15 22 -15 71 0 65 0 65 35 82 51 24
65 8 65 -79 0 -52 -4 -70 -15 -74 -32 -13 -13 -24 40 -24 53 0 72 11 40 24
-11 4 -15 23 -15 79 0 59 -4 77 -18 90 -20 19 -97 23 -107 7 -15 -25 -25 -5
-25 50 0 63 -2 65 -49 51z"/>
<path d="M12271 7031 c-27 -7 -41 -31 -18 -31 16 0 27 -20 27 -50 0 -16 -6
-18 -52 -13 -48 5 -56 3 -79 -21 -15 -14 -29 -39 -32 -55 -8 -40 10 -97 36
-116 25 -17 79 -20 108 -5 13 7 19 7 19 0 0 -5 16 -10 35 -10 36 0 47 13 20
24 -12 4 -15 30 -15 146 0 148 1 145 -49 131z m-13 -127 c18 -12 22 -25 22
-69 0 -44 -4 -57 -22 -69 -49 -35 -93 -2 -93 69 0 71 44 104 93 69z"/>
<path d="M10807 7004 c-4 -4 -7 -16 -7 -26 0 -13 7 -18 26 -18 21 0 25 4 22
22 -3 23 -27 35 -41 22z"/>
<path d="M10788 6933 c-22 -6 -23 -19 -3 -27 11 -4 15 -22 15 -76 0 -54 -4
-72 -15 -76 -32 -13 -13 -24 40 -24 53 0 72 11 40 24 -12 4 -15 25 -15 96 0
97 -1 99 -62 83z"/>
<path d="M10918 6933 c-22 -5 -24 -23 -3 -23 12 0 15 -15 15 -75 0 -58 -4 -77
-15 -81 -33 -13 -11 -24 48 -23 59 0 61 1 40 16 -20 13 -23 24 -23 79 0 61 1
64 30 79 17 9 40 13 50 10 18 -6 20 -16 20 -81 0 -57 -4 -76 -15 -80 -33 -13
-12 -24 45 -24 58 0 80 12 40 23 -18 5 -20 14 -20 80 0 55 -4 80 -16 91 -20
20 -83 21 -112 0 -20 -14 -22 -14 -22 0 0 16 -24 19 -62 9z"/>
<path d="M11633 6928 c-36 -17 -41 -58 -7 -58 8 0 19 11 24 25 16 42 80 31 80
-15 0 -24 -4 -28 -40 -33 -44 -6 -88 -30 -97 -53 -3 -8 2 -25 11 -39 18 -27
70 -34 107 -14 13 7 24 7 32 1 7 -6 57 -10 112 -11 94 0 99 1 78 16 -20 13
-23 24 -23 79 0 61 1 64 30 79 17 9 40 13 50 10 18 -6 20 -16 20 -81 0 -57 -4
-76 -15 -80 -33 -13 -12 -24 45 -24 58 0 80 12 40 23 -18 5 -20 14 -20 80 0
55 -4 80 -16 91 -20 20 -83 21 -112 0 -20 -14 -22 -14 -22 0 0 17 -20 20 -57
10 -26 -7 -31 -24 -8 -24 13 0 15 -13 13 -77 l-3 -78 -35 0 -35 0 -3 75 c-2
62 -6 78 -23 93 -24 19 -91 22 -126 5z m97 -127 c0 -22 -6 -31 -31 -41 -26
-11 -33 -11 -46 3 -19 19 -11 45 19 57 43 17 58 12 58 -19z"/>
<path d="M12400 6756 c0 -29 24 -40 44 -20 20 20 9 44 -20 44 -19 0 -24 -5
-24 -24z"/>
<path d="M2834 6379 c-17 -19 -19 -37 -17 -217 2 -109 -1 -219 -5 -247 -8 -49
-8 -47 -20 60 -9 79 -10 130 -3 180 11 76 7 183 -7 197 -5 5 -16 0 -26 -11
-16 -17 -18 -46 -19 -253 -2 -263 5 -333 31 -323 9 4 21 7 26 8 15 3 7 -155
-9 -179 -13 -20 -50 -57 -195 -192 -46 -44 -62 -64 -54 -72 7 -7 54 33 162
140 119 118 152 158 156 183 13 84 26 353 26 540 0 220 -3 233 -46 186z"/>
<path d="M3302 6377 c-13 -15 -19 -67 -27 -222 -14 -288 -26 -492 -31 -523 -6
-36 1 -36 39 -4 16 15 18 14 24 -6 5 -22 28 -28 49 -14 13 8 22 139 30 447 3
127 10 247 14 268 13 61 -31 44 -50 -20 -7 -23 -8 -18 -9 30 -1 58 -15 74 -39
44z"/>
<path d="M11691 5851 c-28 -8 -41 -31 -17 -31 23 0 24 -238 1 -246 -32 -13
-13 -24 40 -24 53 0 72 11 40 24 -11 4 -15 22 -15 71 0 65 0 65 35 82 51 24
65 8 65 -79 0 -52 -4 -70 -15 -74 -32 -13 -13 -24 40 -24 53 0 72 11 40 24
-11 4 -15 23 -15 79 0 59 -4 77 -18 90 -20 19 -97 23 -107 7 -15 -25 -25 -5
-25 50 0 63 -2 65 -49 51z"/>
<path d="M11386 5816 c-3 -13 -9 -31 -12 -40 -10 -26 12 -19 45 15 20 20 39
29 53 27 22 -3 23 -8 26 -103 3 -120 -1 -145 -28 -145 -11 0 -20 -4 -20 -10 0
-6 30 -10 70 -10 40 0 70 4 70 10 0 6 -7 10 -15 10 -25 0 -36 48 -33 149 3 90
4 96 25 99 13 2 35 -9 57 -29 20 -17 39 -30 41 -27 2 2 -1 21 -7 41 l-11 37
-128 0 c-126 0 -127 0 -133 -24z"/>
<path d="M11977 5824 c-4 -4 -7 -16 -7 -26 0 -13 7 -18 26 -18 21 0 25 4 22
22 -3 23 -27 35 -41 22z"/>
<path d="M13617 5824 c-4 -4 -7 -16 -7 -26 0 -13 7 -18 26 -18 21 0 25 4 22
22 -3 23 -27 35 -41 22z"/>
<path d="M14150 5775 c-7 -9 -29 -15 -54 -15 -31 0 -48 -6 -64 -23 -24 -26
-29 -76 -9 -96 10 -10 9 -14 -5 -22 -20 -11 -24 -54 -7 -64 6 -5 4 -11 -6 -19
-24 -17 -15 -58 15 -73 55 -28 168 -8 184 32 18 47 -5 71 -76 80 -29 3 -61 9
-71 12 -33 9 -11 26 36 28 74 4 109 47 81 101 -19 37 -18 46 8 42 15 -2 24 3
26 15 4 22 -40 24 -58 2z m-20 -56 c23 -43 -15 -106 -51 -84 -19 12 -29 54
-19 80 12 32 54 34 70 4z m33 -196 c14 -8 7 -32 -12 -43 -11 -5 -36 -10 -56
-10 -20 0 -45 5 -56 10 -21 12 -26 45 -6 54 13 6 117 -3 130 -11z"/>
<path d="M11958 5753 c-22 -6 -23 -19 -3 -27 11 -4 15 -22 15 -76 0 -54 -4
-72 -15 -76 -32 -13 -13 -24 40 -24 53 0 72 11 40 24 -12 4 -15 25 -15 96 0
97 -1 99 -62 83z"/>
<path d="M12100 5740 c-41 -41 -17 -80 62 -100 60 -15 80 -36 53 -56 -32 -23
-71 -17 -98 16 -26 30 -50 40 -43 18 3 -7 7 -24 10 -38 5 -24 10 -26 71 -28
58 -2 68 0 90 22 46 46 26 85 -55 106 -58 15 -74 28 -59 46 18 22 58 16 85
-13 28 -31 38 -26 30 14 -6 27 -10 29 -66 31 -48 2 -63 -1 -80 -18z"/>
<path d="M12430 5751 l-25 -7 23 -12 c19 -11 22 -20 22 -81 0 -60 -3 -71 -22
-84 -22 -15 -20 -16 40 -16 58 -1 80 10 47 23 -19 7 -21 129 -2 143 48 37 77
14 77 -62 0 -63 -7 -85 -26 -85 -8 0 -14 -4 -14 -10 0 -6 27 -10 60 -10 33 0
60 4 60 10 0 6 -6 10 -14 10 -19 0 -26 22 -26 86 0 50 2 55 31 69 46 24 59 8
59 -77 0 -52 -4 -70 -15 -74 -32 -13 -13 -24 40 -24 53 0 72 11 40 24 -11 4
-15 23 -15 80 0 54 -4 79 -16 90 -18 19 -63 21 -99 4 -19 -9 -28 -9 -37 0 -15
15 -73 16 -99 2 -13 -7 -19 -7 -19 0 0 11 -32 12 -70 1z"/>
<path d="M12863 5748 c-36 -17 -41 -58 -7 -58 8 0 19 11 24 25 16 42 80 31 80
-15 0 -24 -4 -28 -40 -33 -44 -6 -88 -30 -97 -53 -3 -8 2 -25 11 -39 18 -27
70 -34 107 -14 15 7 24 7 34 -1 16 -14 82 -9 75 5 -3 5 -12 10 -20 10 -12 0
-16 16 -18 75 -2 62 -6 78 -23 93 -24 19 -91 22 -126 5z m97 -127 c0 -22 -6
-31 -31 -41 -26 -11 -33 -11 -46 3 -19 19 -11 45 19 57 43 17 58 12 58 -19z"/>
<path d="M13078 5753 c-22 -6 -23 -19 -3 -27 12 -4 15 -28 15 -126 0 -98 -3
-122 -15 -126 -32 -13 -13 -24 40 -24 53 0 72 11 40 24 -10 3 -15 19 -15 44
l0 40 45 -6 c57 -6 90 15 106 67 14 47 -1 103 -34 126 -26 18 -88 20 -105 3
-9 -9 -12 -9 -12 0 0 12 -28 14 -62 5z m151 -39 c28 -36 27 -86 -3 -121 -21
-24 -27 -26 -52 -18 -27 10 -29 15 -32 69 -2 44 1 63 14 77 24 26 49 24 73 -7z"/>
<path d="M13338 5753 c-22 -6 -23 -19 -3 -27 12 -4 15 -28 15 -126 0 -98 -3
-122 -15 -126 -32 -13 -13 -24 40 -24 53 0 72 11 40 24 -10 3 -15 19 -15 44
l0 40 45 -6 c57 -6 90 15 106 67 14 47 -1 103 -34 126 -26 18 -88 20 -105 3
-9 -9 -12 -9 -12 0 0 12 -28 14 -62 5z m151 -39 c28 -36 27 -86 -3 -121 -21
-24 -27 -26 -52 -18 -27 10 -29 15 -32 69 -2 44 1 63 14 77 24 26 49 24 73 -7z"/>
<path d="M13598 5753 c-22 -6 -23 -19 -3 -27 11 -4 15 -22 15 -76 0 -54 -4
-72 -15 -76 -32 -13 -13 -24 40 -24 53 0 72 11 40 24 -12 4 -15 25 -15 96 0
97 -1 99 -62 83z"/>
<path d="M13728 5753 c-22 -5 -24 -23 -3 -23 12 0 15 -15 15 -75 0 -58 -4 -77
-15 -81 -33 -13 -11 -24 48 -23 59 0 61 1 40 16 -20 13 -23 24 -23 79 0 61 1
64 30 79 17 9 40 13 50 10 18 -6 20 -16 20 -81 0 -57 -4 -76 -15 -80 -33 -13
-12 -24 45 -24 58 0 80 12 40 23 -18 5 -20 14 -20 80 0 55 -4 80 -16 91 -20
20 -83 21 -112 0 -20 -14 -22 -14 -22 0 0 16 -24 19 -62 9z"/>
<path d="M3476 5631 c-16 -17 -15 -20 18 -47 73 -61 140 -92 171 -80 26 10 5
34 -68 77 -40 23 -79 48 -88 55 -13 12 -18 11 -33 -5z"/>
<path d="M2511 5519 c-53 -58 -71 -83 -63 -91 13 -13 162 130 162 156 0 32
-28 14 -99 -65z"/>
<path d="M3379 5583 c-12 -13 -12 -17 -1 -21 7 -2 48 -40 90 -84 61 -63 81
-78 101 -76 15 2 27 10 29 20 4 22 -113 146 -155 164 -41 18 -48 18 -64 -3z"/>
<path d="M3273 5564 c-4 -12 14 -37 63 -85 38 -37 77 -79 87 -93 21 -31 67
-36 67 -8 0 21 -102 142 -149 177 -40 29 -59 32 -68 9z"/>
<path d="M2590 5487 c-42 -39 -89 -82 -105 -93 -17 -12 -27 -25 -24 -28 7 -8
171 131 202 170 36 46 1 23 -73 -49z"/>
<path d="M2382 5397 c-25 -27 -28 -37 -9 -37 14 0 57 41 57 53 0 15 -28 6 -48
-16z"/>
<path d="M4455 5380 c-4 -6 -3 -25 0 -42 8 -34 56 -140 73 -161 6 -7 22 -42
34 -77 26 -73 42 -82 88 -50 l29 21 26 -42 c15 -23 43 -60 64 -83 46 -51 131
-162 131 -171 0 -4 22 -33 48 -64 77 -90 172 -221 208 -286 18 -33 54 -82 80
-110 25 -27 58 -65 72 -83 25 -33 29 -39 96 -158 22 -38 52 -85 68 -105 15
-20 37 -57 47 -83 19 -43 30 -54 44 -40 6 7 -10 47 -37 89 -11 17 -39 61 -63
98 -24 37 -56 89 -70 115 -14 26 -33 61 -42 77 -22 39 -56 89 -136 200 -36 50
-78 108 -93 130 -37 56 -233 315 -256 340 -46 49 -136 178 -136 195 0 11 7 23
15 27 8 5 19 24 25 42 10 36 -4 57 -60 86 -46 24 -198 124 -205 135 -8 13 -42
13 -50 0z"/>
<path d="M2093 5202 c-17 -15 -93 -94 -169 -177 -136 -149 -137 -150 -108
-156 16 -3 52 -18 80 -33 29 -14 60 -26 70 -26 39 1 66 38 89 123 12 45 27 96
34 112 31 76 60 168 55 176 -8 14 -16 11 -51 -19z"/>
<path d="M1465 4175 c-8 -14 -23 -37 -32 -52 -10 -16 -28 -48 -41 -73 -14 -25
-30 -52 -37 -60 -22 -26 -77 -142 -70 -148 8 -9 41 35 81 107 71 129 99 178
116 206 10 17 18 33 18 38 0 16 -20 6 -35 -18z"/>
<path d="M5894 3678 c-17 -18 -34 -41 -37 -50 -4 -10 -13 -18 -20 -18 -8 0
-26 -10 -41 -21 l-27 -21 27 -14 c14 -8 33 -14 40 -14 16 0 19 -16 4 -25 -5
-3 -10 -19 -10 -36 0 -16 -4 -37 -9 -47 -5 -9 -16 -33 -25 -52 -9 -19 -23 -46
-31 -60 -17 -30 -13 -35 14 -20 28 14 26 4 -4 -32 -14 -16 -25 -35 -25 -43 0
-7 -12 -21 -27 -30 -45 -29 -133 -107 -133 -117 0 -5 17 -30 39 -56 21 -26 43
-62 49 -80 10 -30 9 -33 -14 -42 -14 -6 -29 -10 -34 -10 -14 0 -50 -42 -50
-57 0 -17 30 -17 55 0 11 7 37 19 59 26 49 17 53 11 54 -85 l1 -75 -79 -81
c-44 -45 -80 -89 -80 -97 0 -9 14 -36 31 -61 31 -46 79 -145 79 -163 0 -5 -18
-25 -40 -44 -22 -19 -40 -39 -40 -44 0 -20 30 -7 72 30 69 63 78 74 78 88 0
17 -36 89 -84 169 l-36 59 62 62 c51 51 68 63 95 63 17 0 35 5 38 10 3 6 12
10 18 10 15 0 74 -76 135 -173 l43 -69 -18 -46 c-9 -25 -32 -65 -50 -89 -18
-24 -33 -49 -33 -55 0 -7 12 -24 26 -40 29 -30 45 -27 92 15 29 27 28 39 -4
35 -34 -4 -55 24 -37 50 7 9 31 47 53 84 l41 67 -67 111 c-36 60 -69 110 -73
110 -3 0 -12 9 -18 20 -11 16 -9 25 6 52 25 44 41 144 41 256 0 51 4 92 9 92
10 0 53 -40 117 -110 23 -25 81 -78 128 -118 51 -43 85 -79 83 -87 -3 -7 1
-25 9 -40 20 -38 18 -49 -21 -149 -19 -49 -35 -95 -35 -102 0 -7 -13 -52 -29
-101 -65 -201 -73 -225 -67 -230 3 -3 16 1 30 10 18 12 32 41 55 119 17 57 40
130 51 163 10 33 29 94 40 135 29 102 52 150 89 183 35 31 40 66 13 90 -21 19
-45 21 -72 7 -13 -7 -21 -7 -25 0 -4 6 -43 40 -88 76 -45 37 -105 93 -134 126
-29 33 -65 67 -80 75 -41 21 -83 64 -83 84 0 17 2 17 30 1 35 -20 63 -9 68 27
2 12 10 25 18 28 12 4 7 14 -21 43 -34 35 -36 41 -40 117 -4 63 -1 84 10 93
22 18 19 50 -5 50 -14 0 -27 14 -42 48 -19 39 -28 48 -53 50 -23 2 -37 -5 -61
-30z m44 -40 c-6 -18 -28 -21 -28 -4 0 9 7 16 16 16 9 0 14 -5 12 -12z m21
-111 c6 -8 16 -36 22 -63 10 -45 9 -56 -10 -99 -12 -26 -19 -57 -15 -67 3 -10
0 -26 -8 -35 -10 -12 -12 -56 -10 -194 5 -258 -13 -329 -85 -329 -27 0 -35 5
-44 26 -11 29 -2 272 11 289 4 6 11 39 14 74 4 36 14 83 21 105 16 47 13 56
-13 33 -18 -16 -42 -23 -42 -12 0 6 99 102 134 130 22 18 24 25 19 68 -9 75
-53 53 -53 -27 0 -20 -4 -36 -10 -36 -11 0 -14 108 -4 134 7 20 57 21 73 3z
m-177 -359 c-5 -18 -15 -67 -22 -108 -13 -74 -13 -75 -29 -50 -9 13 -29 39
-45 57 -15 18 -26 39 -23 47 5 13 119 96 125 90 2 -1 0 -18 -6 -36z"/>
<path d="M931 3597 c-29 -32 -27 -52 9 -77 32 -23 42 -70 15 -70 -8 0 -35 -28
-59 -61 -34 -47 -46 -74 -51 -113 -7 -58 12 -126 47 -163 20 -21 20 -25 7 -50
-8 -16 -17 -30 -20 -33 -3 -3 -16 -34 -29 -69 -33 -94 -25 -176 30 -283 74
-147 138 -210 270 -264 62 -26 74 -27 240 -28 l175 -1 45 -31 c75 -52 127 -74
187 -80 52 -5 64 -2 120 28 69 37 185 127 178 138 -3 4 -23 4 -45 0 -56 -10
-102 2 -165 44 -60 39 -122 116 -159 198 -13 29 -44 96 -69 148 -79 168 -191
265 -354 304 -33 8 -47 15 -32 15 14 1 50 18 80 39 50 35 54 41 54 77 0 33 -5
43 -34 62 -19 13 -43 23 -55 23 -18 0 -21 7 -23 42 -5 85 -55 119 -180 126
-46 2 -83 8 -83 13 0 5 -17 27 -39 49 l-38 39 -22 -22z m264 -168 c23 -16 35
-33 39 -58 7 -43 -3 -51 -64 -51 -59 0 -89 -17 -112 -62 -23 -43 -17 -71 17
-94 22 -14 27 -14 59 1 38 18 66 15 66 -8 0 -25 -24 -36 -85 -37 -106 -4 -113
-2 -158 40 -51 46 -72 111 -55 164 15 45 63 91 109 105 21 6 39 17 39 23 0 19
108 2 145 -23z m129 -160 c14 -11 26 -27 26 -35 0 -19 -40 -27 -81 -17 -26 7
-35 15 -37 35 -3 22 1 27 25 31 15 2 31 5 34 6 4 0 18 -8 33 -20z m-174 -29
c0 -25 -17 -35 -36 -19 -13 10 -12 14 2 30 19 21 34 16 34 -11z m64 -149 c3
-4 26 -11 50 -14 154 -21 290 -149 373 -350 14 -34 32 -80 41 -102 45 -110
140 -204 226 -225 65 -15 72 -34 21 -56 -69 -28 -157 -11 -240 48 -28 20 -61
39 -75 44 -14 5 -99 9 -190 9 -150 0 -171 2 -233 25 -98 35 -171 105 -242 229
-67 118 -80 190 -50 284 24 78 42 92 94 76 49 -15 165 1 190 26 17 17 27 19
35 6z"/>
<path d="M1091 3396 c-11 -13 -5 -46 9 -46 14 0 42 39 35 49 -9 15 -30 14 -44
-3z"/>
<path d="M982 3368 c-19 -19 -15 -48 6 -48 28 0 55 33 40 48 -15 15 -31 15
-46 0z"/>
<path d="M2725 1850 c3 -5 8 -10 11 -10 2 0 4 5 4 10 0 6 -5 10 -11 10 -5 0
-7 -4 -4 -10z"/>
<path d="M2831 1704 c0 -11 3 -14 6 -6 3 7 2 16 -1 19 -3 4 -6 -2 -5 -13z"/>
<path d="M5080 1710 c-23 -6 -25 -10 -24 -63 l1 -57 -296 -2 c-163 -1 -312 -3
-331 -4 -143 -9 -1327 1 -1500 12 -52 4 -207 8 -345 9 -137 2 -320 8 -405 14
-319 22 -463 24 -484 8 -26 -19 -14 -34 32 -41 20 -3 192 -8 382 -11 190 -4
388 -8 440 -11 52 -2 142 -6 200 -9 85 -3 460 -8 1435 -18 11 0 79 3 150 7
214 11 690 15 704 7 9 -6 12 -25 9 -57 -3 -49 -3 -49 29 -52 21 -2 54 9 100
32 40 22 107 44 163 57 52 11 96 22 98 24 10 10 -9 35 -25 35 -10 0 -36 10
-58 22 -22 11 -71 29 -108 39 -37 10 -80 27 -95 37 -40 28 -45 29 -72 22z"/>
<path d="M1071 661 c-27 -7 -41 -31 -18 -31 16 0 27 -20 27 -50 0 -16 -6 -18
-52 -13 -48 5 -56 3 -79 -21 -15 -14 -29 -39 -32 -55 -8 -40 10 -97 36 -116
25 -17 79 -20 108 -5 13 7 19 7 19 0 0 -5 16 -10 35 -10 36 0 47 13 20 24 -12
4 -15 30 -15 146 0 148 1 145 -49 131z m-13 -127 c18 -12 22 -25 22 -69 0 -44
-4 -57 -22 -69 -49 -35 -93 -2 -93 69 0 71 44 104 93 69z"/>
<path d="M2741 661 c-28 -8 -41 -31 -17 -31 23 0 24 -238 1 -246 -32 -13 -13
-24 40 -24 53 0 72 11 40 24 -11 4 -15 22 -15 71 0 65 0 65 35 82 51 24 65 8
65 -79 0 -52 -4 -70 -15 -74 -32 -13 -13 -24 40 -24 53 0 72 11 40 24 -11 4
-15 23 -15 79 0 59 -4 77 -18 90 -20 19 -97 23 -107 7 -15 -25 -25 -5 -25 50
0 63 -2 65 -49 51z"/>
<path d="M4751 661 c-28 -8 -41 -31 -17 -31 23 0 24 -238 1 -246 -32 -13 -13
-24 40 -24 53 0 72 11 40 24 -11 4 -15 22 -15 71 0 65 0 65 35 82 51 24 65 8
65 -79 0 -52 -4 -70 -15 -74 -32 -13 -13 -24 40 -24 53 0 72 11 40 24 -11 4
-15 23 -15 79 0 59 -4 77 -18 90 -20 19 -97 23 -107 7 -15 -25 -25 -5 -25 50
0 63 -2 65 -49 51z"/>
<path d="M6091 661 c-28 -8 -40 -31 -17 -31 15 0 16 -15 14 -122 l-3 -123 -35
0 -35 0 -3 75 c-2 62 -6 78 -23 93 -49 40 -182 2 -153 -44 10 -17 35 -9 44 16
16 42 80 31 80 -15 0 -24 -4 -28 -40 -33 -44 -6 -88 -30 -97 -53 -3 -8 2 -25
11 -39 18 -27 70 -34 107 -14 13 7 24 7 32 1 15 -13 197 -15 197 -3 0 5 -7 11
-15 15 -12 4 -15 30 -15 146 0 148 1 145 -49 131z m-131 -230 c0 -22 -6 -31
-31 -41 -26 -11 -33 -11 -46 3 -19 19 -11 45 19 57 43 17 58 12 58 -19z"/>
<path d="M1817 643 c-2 -5 -7 -20 -11 -35 -3 -15 -15 -30 -26 -33 -23 -7 -27
-25 -5 -25 12 0 15 -15 15 -79 0 -59 4 -84 16 -95 18 -19 75 -21 92 -4 19 19
14 30 -9 18 -40 -22 -49 -7 -49 80 l0 80 30 0 c17 0 30 5 30 10 0 6 -13 10
-30 10 -28 0 -30 3 -30 34 0 33 -14 55 -23 39z"/>
<path d="M4617 643 c-2 -5 -7 -20 -11 -35 -3 -15 -15 -30 -26 -33 -23 -7 -27
-25 -5 -25 12 0 15 -15 15 -79 0 -59 4 -84 16 -95 18 -19 75 -21 92 -4 19 19
14 30 -9 18 -40 -22 -49 -7 -49 80 l0 80 30 0 c17 0 30 5 30 10 0 6 -13 10
-30 10 -28 0 -30 3 -30 34 0 33 -14 55 -23 39z"/>
<path d="M5577 643 c-2 -5 -7 -20 -11 -35 -3 -15 -15 -30 -26 -33 -23 -7 -27
-25 -5 -25 12 0 15 -15 15 -79 0 -59 4 -84 16 -95 18 -19 75 -21 92 -4 19 19
14 30 -9 18 -40 -22 -49 -7 -49 80 l0 80 30 0 c17 0 30 5 30 10 0 6 -13 10
-30 10 -28 0 -30 3 -30 34 0 33 -14 55 -23 39z"/>
<path d="M6247 643 c-2 -5 -7 -20 -11 -35 -3 -15 -15 -30 -26 -33 -23 -7 -27
-25 -5 -25 12 0 15 -15 15 -79 0 -59 4 -84 16 -95 18 -19 75 -21 92 -4 19 19
14 30 -9 18 -40 -22 -49 -7 -49 80 l0 80 30 0 c17 0 30 5 30 10 0 6 -13 10
-30 10 -28 0 -30 3 -30 34 0 33 -14 55 -23 39z"/>
<path d="M7057 643 c-2 -5 -7 -20 -11 -35 -3 -15 -15 -30 -26 -33 -23 -7 -27
-25 -5 -25 12 0 15 -15 15 -79 0 -59 4 -84 16 -95 18 -19 75 -21 92 -4 19 19
14 30 -9 18 -40 -22 -49 -7 -49 80 l0 80 30 0 c17 0 30 5 30 10 0 6 -13 10
-30 10 -28 0 -30 3 -30 34 0 33 -14 55 -23 39z"/>
<path d="M537 634 c-4 -4 -7 -16 -7 -26 0 -13 7 -18 26 -18 21 0 25 4 22 22
-3 23 -27 35 -41 22z"/>
<path d="M1207 634 c-4 -4 -7 -16 -7 -26 0 -13 7 -18 26 -18 21 0 25 4 22 22
-3 23 -27 35 -41 22z"/>
<path d="M4467 634 c-4 -4 -7 -16 -7 -26 0 -13 7 -18 26 -18 21 0 25 4 22 22
-3 23 -27 35 -41 22z"/>
<path d="M7197 634 c-4 -4 -7 -16 -7 -26 0 -13 7 -18 26 -18 21 0 25 4 22 22
-3 23 -27 35 -41 22z"/>
<path d="M3680 585 c-7 -9 -29 -15 -54 -15 -31 0 -48 -6 -64 -23 -24 -26 -29
-76 -9 -96 10 -10 9 -14 -5 -22 -20 -11 -24 -54 -7 -64 6 -5 4 -11 -6 -19 -24
-17 -15 -58 15 -73 55 -28 168 -8 184 32 18 47 -5 71 -76 80 -29 3 -61 9 -71
12 -33 9 -11 26 36 28 74 4 109 47 81 101 -19 37 -18 46 8 42 15 -2 24 3 26
15 4 22 -40 24 -58 2z m-20 -56 c23 -43 -15 -106 -51 -84 -19 12 -29 54 -19
80 12 32 54 34 70 4z m33 -196 c14 -8 7 -32 -12 -43 -11 -5 -36 -10 -56 -10
-20 0 -45 5 -56 10 -21 12 -26 45 -6 54 13 6 117 -3 130 -11z"/>
<path d="M518 563 c-22 -6 -23 -19 -3 -27 11 -4 15 -22 15 -76 0 -54 -4 -72
-15 -76 -32 -13 -13 -24 40 -24 53 0 72 11 40 24 -12 4 -15 25 -15 96 0 97 -1
99 -62 83z"/>
<path d="M648 563 c-22 -5 -24 -23 -3 -23 12 0 15 -15 15 -75 0 -58 -4 -77
-15 -81 -33 -13 -11 -24 48 -23 59 0 61 1 40 16 -20 13 -23 24 -23 79 0 61 1
64 30 79 17 9 40 13 50 10 18 -6 20 -16 20 -81 0 -57 -4 -76 -15 -80 -33 -13
-12 -24 45 -24 58 0 80 12 40 23 -18 5 -20 14 -20 80 0 55 -4 80 -16 91 -20
20 -83 21 -112 0 -20 -14 -22 -14 -22 0 0 16 -24 19 -62 9z"/>
<path d="M1188 563 c-22 -6 -23 -19 -3 -27 11 -4 15 -22 15 -76 0 -54 -4 -72
-15 -76 -32 -13 -13 -24 40 -24 53 0 72 11 40 24 -12 4 -15 25 -15 96 0 97 -1
99 -62 83z"/>
<path d="M1337 545 c-32 -33 -40 -66 -27 -114 13 -48 46 -71 103 -71 42 0 87
26 87 50 0 16 -16 11 -35 -10 -23 -25 -67 -26 -89 -1 -10 11 -20 37 -23 58 -4
32 0 45 19 68 20 22 30 27 51 21 16 -4 27 -14 29 -28 4 -28 36 -36 45 -12 4
12 -2 25 -21 41 -39 33 -104 32 -139 -2z"/>
<path d="M1553 558 c-36 -17 -41 -58 -7 -58 8 0 19 11 24 25 16 42 80 31 80
-15 0 -24 -4 -28 -40 -33 -44 -6 -88 -30 -97 -53 -3 -8 2 -25 11 -39 18 -27
70 -34 107 -14 15 7 24 7 34 -1 16 -14 82 -9 75 5 -3 5 -12 10 -20 10 -12 0
-16 16 -18 75 -2 62 -6 78 -23 93 -24 19 -91 22 -126 5z m97 -127 c0 -22 -6
-31 -31 -41 -26 -11 -33 -11 -46 3 -19 19 -11 45 19 57 43 17 58 12 58 -19z"/>
<path d="M1958 545 c-34 -33 -42 -77 -23 -122 20 -48 42 -62 92 -63 30 0 50 7
70 24 36 32 24 44 -15 16 -41 -31 -78 -21 -98 25 -8 19 -14 39 -14 45 0 6 30
10 75 10 67 0 75 2 75 19 0 10 -12 30 -26 45 -37 36 -101 37 -136 1z m102 -14
c15 -30 14 -31 -35 -31 -30 0 -45 4 -45 13 0 37 62 51 80 18z"/>
<path d="M2170 550 c-41 -41 -17 -80 62 -100 60 -15 80 -36 53 -56 -32 -23
-71 -17 -98 16 -26 30 -50 40 -43 18 3 -7 7 -24 10 -38 5 -24 10 -26 71 -28
58 -2 68 0 90 22 46 46 26 85 -55 106 -58 15 -74 28 -59 46 18 22 58 16 85
-13 28 -31 38 -26 30 14 -6 27 -10 29 -66 31 -48 2 -63 -1 -80 -18z"/>
<path d="M2527 545 c-32 -33 -40 -66 -27 -114 13 -48 46 -71 103 -71 42 0 87
26 87 50 0 16 -16 11 -35 -10 -23 -25 -67 -26 -89 -1 -10 11 -20 37 -23 58 -4
32 0 45 19 68 20 22 30 27 51 21 16 -4 27 -14 29 -28 4 -28 36 -36 45 -12 4
12 -2 25 -21 41 -39 33 -104 32 -139 -2z"/>
<path d="M3033 558 c-36 -17 -41 -58 -7 -58 8 0 19 11 24 25 16 42 80 31 80
-15 0 -24 -4 -28 -40 -33 -44 -6 -88 -30 -97 -53 -3 -8 2 -25 11 -39 18 -27
70 -34 107 -14 15 7 24 7 34 -1 16 -14 82 -9 75 5 -3 5 -12 10 -20 10 -12 0
-16 16 -18 75 -2 62 -6 78 -23 93 -24 19 -91 22 -126 5z m97 -127 c0 -22 -6
-31 -31 -41 -26 -11 -33 -11 -46 3 -19 19 -11 45 19 57 43 17 58 12 58 -19z"/>
<path d="M3258 563 c-22 -5 -24 -23 -3 -23 12 0 15 -15 15 -75 0 -58 -4 -77
-15 -81 -33 -13 -11 -24 48 -23 59 0 61 1 40 16 -20 13 -23 24 -23 79 0 61 1
64 30 79 17 9 40 13 50 10 18 -6 20 -16 20 -81 0 -57 -4 -76 -15 -80 -33 -13
-12 -24 45 -24 58 0 80 12 40 23 -18 5 -20 14 -20 80 0 55 -4 80 -16 91 -20
20 -83 21 -112 0 -20 -14 -22 -14 -22 0 0 16 -24 19 -62 9z"/>
<path d="M3778 545 c-34 -33 -42 -77 -23 -122 20 -48 42 -62 92 -63 30 0 50 7
70 24 36 32 24 44 -15 16 -41 -31 -78 -21 -98 25 -8 19 -14 39 -14 45 0 6 30
10 75 10 67 0 75 2 75 19 0 10 -12 30 -26 45 -37 36 -101 37 -136 1z m102 -14
c15 -30 14 -31 -35 -31 -30 0 -45 4 -45 13 0 37 62 51 80 18z"/>
<path d="M4080 561 c0 -5 6 -11 14 -14 7 -3 28 -46 47 -96 41 -110 55 -116 91
-33 l25 57 18 -58 c27 -83 47 -76 91 33 40 99 45 105 73 91 18 -10 21 -21 21
-82 0 -53 -4 -71 -15 -75 -32 -13 -13 -24 40 -24 53 0 72 11 40 24 -12 4 -15
24 -15 94 l0 89 -85 1 c-46 1 -87 -3 -90 -8 -4 -6 1 -10 9 -10 19 0 21 -33 5
-81 -19 -55 -26 -54 -47 11 -18 52 -19 62 -7 67 32 12 12 23 -40 23 -58 0 -68
-7 -35 -28 24 -15 25 -35 2 -87 l-18 -39 -24 64 c-17 45 -20 65 -12 68 29 9 8
22 -38 22 -27 0 -50 -4 -50 -9z"/>
<path d="M5043 552 c-34 -26 -46 -72 -33 -121 13 -51 42 -71 101 -71 66 0 99
34 99 102 0 41 -5 54 -29 79 -24 23 -38 29 -73 29 -25 0 -52 -8 -65 -18z m102
-22 c26 -29 25 -105 -2 -132 -60 -60 -127 56 -72 126 25 31 49 33 74 6z"/>
<path d="M5263 563 c-26 -5 -31 -23 -8 -23 12 0 15 -14 15 -62 0 -85 15 -112
62 -116 20 -2 51 4 67 13 28 14 31 14 31 0 0 -11 11 -15 40 -15 42 0 54 14 20
23 -18 5 -20 14 -20 97 l0 93 -31 -7 c-17 -3 -35 -6 -40 -6 -5 0 -9 -4 -9 -10
0 -5 7 -10 15 -10 18 0 27 -34 23 -86 -3 -33 -8 -42 -40 -59 -56 -30 -68 -13
-68 91 0 91 2 88 -57 77z"/>
<path d="M6388 545 c-34 -33 -42 -77 -23 -122 20 -48 42 -62 92 -63 30 0 50 7
70 24 36 32 24 44 -15 16 -41 -31 -78 -21 -98 25 -8 19 -14 39 -14 45 0 6 30
10 75 10 67 0 75 2 75 19 0 10 -12 30 -26 45 -37 36 -101 37 -136 1z m102 -14
c15 -30 14 -31 -35 -31 -30 0 -45 4 -45 13 0 37 62 51 80 18z"/>
<path d="M6588 563 c-22 -5 -24 -23 -3 -23 12 0 15 -15 15 -75 0 -58 -4 -77
-15 -81 -33 -13 -11 -24 48 -24 61 0 62 1 39 18 -21 16 -23 25 -20 82 l3 65
45 0 c38 0 45 3 45 20 0 25 -48 33 -72 13 -13 -10 -17 -10 -20 0 -5 12 -31 14
-65 5z"/>
<path d="M6803 558 c-36 -17 -41 -58 -7 -58 8 0 19 11 24 25 16 42 80 31 80
-15 0 -24 -4 -28 -40 -33 -44 -6 -88 -30 -97 -53 -3 -8 2 -25 11 -39 18 -27
70 -34 107 -14 15 7 24 7 34 -1 16 -14 82 -9 75 5 -3 5 -12 10 -20 10 -12 0
-16 16 -18 75 -2 62 -6 78 -23 93 -24 19 -91 22 -126 5z m97 -127 c0 -22 -6
-31 -31 -41 -26 -11 -33 -11 -46 3 -19 19 -11 45 19 57 43 17 58 12 58 -19z"/>
<path d="M7178 563 c-22 -6 -23 -19 -3 -27 11 -4 15 -22 15 -76 0 -54 -4 -72
-15 -76 -32 -13 -13 -24 40 -24 53 0 72 11 40 24 -12 4 -15 25 -15 96 0 97 -1
99 -62 83z"/>
<path d="M7333 552 c-34 -26 -46 -72 -33 -121 13 -51 42 -71 101 -71 66 0 99
34 99 102 0 41 -5 54 -29 79 -24 23 -38 29 -73 29 -25 0 -52 -8 -65 -18z m102
-22 c26 -29 25 -105 -2 -132 -60 -60 -127 56 -72 126 25 31 49 33 74 6z"/>
<path d="M7548 563 c-22 -5 -24 -23 -3 -23 12 0 15 -15 15 -75 0 -58 -4 -77
-15 -81 -33 -13 -11 -24 48 -23 59 0 61 1 40 16 -20 13 -23 24 -23 79 0 61 1
64 30 79 17 9 40 13 50 10 18 -6 20 -16 20 -81 0 -57 -4 -76 -15 -80 -33 -13
-12 -24 45 -24 58 0 80 12 40 23 -18 5 -20 14 -20 80 0 55 -4 80 -16 91 -20
20 -83 21 -112 0 -20 -14 -22 -14 -22 0 0 16 -24 19 -62 9z"/>
<path d="M7840 386 c0 -29 24 -40 44 -20 20 20 9 44 -20 44 -19 0 -24 -5 -24
-24z"/>
</g>
</svg>
