<?xml version="1.0" standalone="no"?>
<!DOCTYPE svg PUBLIC "-//W3C//DTD SVG 20010904//EN"
 "http://www.w3.org/TR/2001/REC-SVG-20010904/DTD/svg10.dtd">
<svg version="1.0" xmlns="http://www.w3.org/2000/svg"
 width="1112.000000pt" height="800.000000pt" viewBox="0 0 1112.000000 800.000000"
 preserveAspectRatio="xMidYMid meet">

<g transform="translate(0.000000,800.000000) scale(0.100000,-0.100000)"
fill="#000000" stroke="none">
<path d="M4047 7453 c-3 -5 -53 -135 -110 -288 -58 -154 -108 -288 -112 -297
-6 -16 -1 -18 38 -18 l45 0 32 90 32 90 118 0 118 0 29 -87 30 -88 46 -3 c26
-2 47 1 47 5 0 4 -49 141 -108 303 l-107 295 -47 3 c-25 2 -49 -1 -51 -5z
m133 -350 c0 -2 -40 -3 -90 -3 -49 0 -90 2 -90 4 0 3 69 192 86 236 4 11 87
-199 94 -237z"/>
<path d="M8370 7154 l0 -306 168 4 c149 3 171 6 208 25 109 58 124 214 27 279
l-32 21 25 24 c54 51 56 144 3 203 -39 45 -91 56 -264 56 l-135 0 0 -306z
m320 208 c17 -13 26 -30 28 -56 7 -79 -48 -109 -186 -104 l-77 3 -3 79 c-2 44
0 86 3 94 9 23 200 10 235 -16z m5 -246 c40 -17 55 -42 55 -91 0 -58 -40 -91
-121 -100 -35 -3 -89 -5 -119 -3 l-55 3 -3 103 -3 102 106 0 c68 0 118 -5 140
-14z"/>
<path d="M1840 5950 c0 -27 -3 -30 -30 -30 l-30 0 0 -2630 0 -2630 4530 0
4530 0 0 2660 0 2660 -4500 0 -4500 0 0 -30z m4440 -1315 l0 -1285 -2220 0
-2220 0 0 1285 0 1285 2220 0 2220 0 0 -1285z m4500 0 l0 -1285 -2220 0 -2220
0 0 1285 0 1285 2220 0 2220 0 0 -1285z m-4500 -2630 l0 -1285 -2220 0 -2220
0 0 1285 0 1285 2220 0 2220 0 0 -1285z m4500 0 l0 -1285 -2220 0 -2220 0 0
1285 0 1285 2220 0 2220 0 0 -1285z"/>
<path d="M3775 4963 c-28 -65 -52 -82 -148 -98 -36 -6 -38 -8 -35 -38 l3 -32
83 -3 82 -3 0 -249 0 -250 50 0 50 0 0 355 0 355 -35 0 c-31 0 -37 -4 -50 -37z"/>
<path d="M4895 4963 c-28 -65 -52 -82 -148 -98 -36 -6 -38 -8 -35 -38 l3 -32
83 -3 82 -3 0 -249 0 -250 50 0 50 0 0 355 0 355 -35 0 c-31 0 -37 -4 -50 -37z"/>
<path d="M2940 4570 l0 -40 280 0 280 0 0 40 0 40 -280 0 -280 0 0 -40z"/>
<path d="M4140 4345 c0 -55 0 -55 31 -55 26 0 29 -3 25 -20 -3 -11 -9 -29 -12
-40 -3 -11 -14 -25 -25 -30 -11 -6 -19 -21 -19 -36 0 -22 3 -24 23 -18 59 18
87 76 87 180 l0 74 -55 0 -55 0 0 -55z"/>
<path d="M7612 4986 c-53 -19 -100 -72 -118 -133 -22 -75 -17 -87 33 -91 l43
-3 6 42 c13 81 90 130 171 107 54 -15 83 -49 83 -98 0 -75 -29 -101 -120 -110
-55 -5 -55 -5 -58 -41 l-3 -36 62 -7 c82 -8 120 -31 138 -83 32 -90 -24 -163
-129 -171 -91 -7 -140 29 -155 111 -7 37 -7 37 -57 37 l-50 0 7 -42 c11 -67
44 -127 84 -153 72 -48 190 -55 282 -18 127 50 170 248 73 332 -19 17 -40 31
-45 31 -6 0 3 13 20 29 38 35 51 69 51 127 0 117 -85 185 -230 183 -30 0 -70
-6 -88 -13z"/>
<path d="M9292 4986 c-53 -19 -100 -72 -118 -133 -22 -75 -17 -87 33 -91 l43
-3 6 42 c13 81 90 130 171 107 54 -15 83 -49 83 -98 0 -75 -29 -101 -120 -110
-55 -5 -55 -5 -58 -41 l-3 -36 62 -7 c82 -8 120 -31 138 -83 32 -90 -24 -163
-129 -171 -91 -7 -140 29 -155 111 -7 37 -7 37 -57 37 l-50 0 7 -42 c11 -67
44 -127 84 -153 72 -48 190 -55 282 -18 127 50 170 248 73 332 -19 17 -40 31
-45 31 -6 0 3 13 20 29 38 35 51 69 51 127 0 117 -85 185 -230 183 -30 0 -70
-6 -88 -13z"/>
<path d="M8560 4570 l0 -40 280 0 280 0 0 40 0 40 -280 0 -280 0 0 -40z"/>
<path d="M8080 4345 c0 -55 0 -55 31 -55 26 0 29 -3 25 -20 -3 -11 -9 -29 -12
-40 -3 -11 -14 -25 -25 -30 -11 -6 -19 -21 -19 -36 0 -22 3 -24 23 -18 59 18
87 76 87 180 l0 74 -55 0 -55 0 0 -55z"/>
<path d="M3405 2352 c-55 -27 -84 -57 -111 -116 -65 -143 -55 -388 19 -502 66
-100 225 -121 320 -43 118 97 144 427 46 585 -48 79 -188 117 -274 76z m175
-97 c38 -34 55 -111 55 -245 -1 -140 -13 -196 -54 -242 -22 -24 -37 -32 -77
-35 -43 -5 -54 -2 -81 21 -52 44 -68 102 -68 246 0 178 31 257 111 279 36 10
89 -2 114 -24z"/>
<path d="M4525 2352 c-55 -27 -84 -57 -111 -116 -65 -143 -55 -388 19 -502 66
-100 225 -121 320 -43 118 97 144 427 46 585 -48 79 -188 117 -274 76z m175
-97 c38 -34 55 -111 55 -245 -1 -140 -13 -196 -54 -242 -22 -24 -37 -32 -77
-35 -43 -5 -54 -2 -81 21 -52 44 -68 102 -68 246 0 178 31 257 111 279 36 10
89 -2 114 -24z"/>
<path d="M3860 1715 c0 -55 0 -55 31 -55 26 0 29 -3 25 -20 -3 -11 -9 -29 -12
-40 -3 -11 -14 -25 -25 -30 -11 -6 -19 -21 -19 -36 0 -22 3 -24 23 -18 59 18
87 76 87 180 l0 74 -55 0 -55 0 0 -55z"/>
<path d="M8175 2351 c-74 -34 -125 -114 -125 -197 0 -33 1 -34 44 -34 43 0 44
1 51 37 14 78 46 111 122 127 48 11 115 -22 136 -67 21 -43 21 -67 3 -111 -16
-39 -49 -65 -171 -136 -140 -82 -180 -135 -200 -267 l-7 -43 246 0 246 0 0 45
0 45 -190 0 c-160 0 -190 2 -190 15 0 27 75 92 175 150 119 68 169 114 191
172 38 97 -8 216 -99 259 -66 30 -172 33 -232 5z"/>
<path d="M9295 2351 c-74 -34 -125 -114 -125 -197 0 -33 1 -34 44 -34 43 0 44
1 51 37 14 78 46 111 122 127 48 11 115 -22 136 -67 21 -43 21 -67 3 -111 -16
-39 -49 -65 -171 -136 -140 -82 -180 -135 -200 -267 l-7 -43 246 0 246 0 0 45
0 45 -190 0 c-160 0 -190 2 -190 15 0 27 75 92 175 150 119 68 169 114 191
172 38 97 -8 216 -99 259 -66 30 -172 33 -232 5z"/>
<path d="M7440 1940 l0 -40 280 0 280 0 0 40 0 40 -280 0 -280 0 0 -40z"/>
<path d="M8640 1715 c0 -55 0 -55 31 -55 26 0 29 -3 25 -20 -3 -11 -9 -29 -12
-40 -3 -11 -14 -25 -25 -30 -11 -6 -19 -21 -19 -36 0 -22 3 -24 23 -18 59 18
87 76 87 180 l0 74 -55 0 -55 0 0 -55z"/>
<path d="M977 4923 c-3 -5 -53 -135 -110 -288 -58 -154 -108 -288 -112 -297
-6 -16 -1 -18 38 -18 l45 0 32 90 32 90 118 0 118 0 29 -87 30 -88 46 -3 c26
-2 47 1 47 5 0 4 -49 141 -108 303 l-107 295 -47 3 c-25 2 -49 -1 -51 -5z
m133 -350 c0 -2 -40 -3 -90 -3 -49 0 -90 2 -90 4 0 3 69 192 86 236 4 11 87
-199 94 -237z"/>
<path d="M800 1984 l0 -306 168 4 c149 3 171 6 208 25 109 58 124 214 27 279
l-32 21 25 24 c54 51 56 144 3 203 -39 45 -91 56 -264 56 l-135 0 0 -306z
m320 208 c17 -13 26 -30 28 -56 7 -79 -48 -109 -186 -104 l-77 3 -3 79 c-2 44
0 86 3 94 9 23 200 10 235 -16z m5 -246 c40 -17 55 -42 55 -91 0 -58 -40 -91
-121 -100 -35 -3 -89 -5 -119 -3 l-55 3 -3 103 -3 102 106 0 c68 0 118 -5 140
-14z"/>
</g>
</svg>
