<?xml version="1.0" standalone="no"?>
<!DOCTYPE svg PUBLIC "-//W3C//DTD SVG 20010904//EN"
 "http://www.w3.org/TR/2001/REC-SVG-20010904/DTD/svg10.dtd">
<svg version="1.0" xmlns="http://www.w3.org/2000/svg"
 width="2238.000000pt" height="2925.000000pt" viewBox="0 0 2238.000000 2925.000000"
 preserveAspectRatio="xMidYMid meet">

<g transform="translate(0.000000,2925.000000) scale(0.100000,-0.100000)"
fill="#000000" stroke="none">
<path d="M2060 29193 c-519 -18 -996 -121 -1321 -283 -352 -177 -551 -440
-648 -860 -49 -208 -56 -303 -56 -720 0 -238 5 -457 13 -550 26 -308 44 -495
102 -1070 170 -1667 207 -2318 197 -3469 -7 -776 -21 -1047 -102 -1976 -207
-2365 -216 -3616 -34 -4940 83 -607 164 -1035 455 -2400 413 -1935 471 -2232
573 -2910 240 -1601 253 -2850 41 -3946 -75 -386 -166 -722 -343 -1264 -238
-726 -298 -1045 -275 -1468 56 -1025 909 -1796 2598 -2345 672 -219 1127 -312
1514 -312 420 1 738 112 982 343 104 99 172 185 242 309 324 568 410 1437 317
3213 -9 160 -33 585 -55 945 -48 797 -66 1137 -80 1465 -5 138 -12 292 -15
344 l-5 94 22 -19 c26 -22 1477 -1402 1623 -1543 55 -53 809 -773 1677 -1599
l1576 -1502 -5 -58 c-5 -55 -3 -61 26 -94 l31 -35 -11 -89 c-15 -116 -5 -341
21 -468 64 -324 204 -582 444 -822 192 -192 370 -303 615 -384 341 -113 673
-116 1011 -8 563 180 989 673 1084 1253 8 50 18 123 21 163 l7 72 2377 0
c1835 0 2380 3 2389 12 9 9 12 249 12 1020 l0 1008 414 0 c228 0 421 3 430 6
9 3 16 11 16 17 0 5 -108 211 -240 456 l-240 447 0 437 0 437 -62 32 -63 31
185 47 c101 25 180 49 175 52 -6 3 -81 23 -167 44 -87 21 -152 41 -145 45 6 3
81 23 166 44 87 22 147 41 140 45 -8 4 -83 24 -166 45 -84 20 -153 39 -153 40
0 1 69 20 153 40 83 21 158 41 166 45 7 4 -53 23 -140 45 -85 21 -160 41 -167
44 -6 4 60 24 148 46 88 22 160 42 160 45 0 3 -79 25 -175 49 -96 24 -175 45
-175 47 0 3 30 19 68 37 l67 33 3 2967 2 2967 218 0 c119 0 224 5 232 10 18
11 30 -12 -239 490 l-211 394 0 446 c0 245 -4 450 -8 456 -4 6 -36 26 -72 44
l-65 33 185 47 c212 54 215 42 -24 101 -73 18 -122 35 -115 39 8 4 83 24 167
45 83 20 152 39 152 40 0 1 -69 20 -152 40 -84 21 -159 41 -165 44 -7 4 58 24
145 45 86 21 160 42 164 45 5 4 -64 25 -152 46 -88 22 -160 42 -160 45 0 3 72
23 160 45 88 21 157 42 152 46 -4 3 -85 25 -180 49 -95 23 -170 45 -167 49 3
3 34 20 68 36 l62 30 3 1228 2 1227 214 0 c217 0 246 3 246 24 0 26 -687 1291
-701 1291 -8 0 -90 -143 -209 -365 l-195 -365 -663 -3 -662 -2 0 870 c0 478 2
870 4 870 2 0 319 -106 705 -235 385 -129 703 -235 705 -235 2 0 2 76 -1 169
l-6 169 84 6 c46 3 161 10 254 16 622 39 940 125 1208 326 256 192 412 504
424 849 4 116 2 141 -21 228 -52 202 -177 414 -352 597 -59 60 -101 110 -96
110 13 0 22 31 67 230 159 717 207 1556 124 2208 -83 657 -286 1200 -613 1637
-114 153 -354 392 -507 508 -436 327 -1001 558 -1639 672 -80 14 -163 29 -184
33 -34 6 -41 12 -48 39 -8 29 -58 83 -79 83 -5 0 -9 175 -9 434 0 382 -2 436
-16 450 -14 14 -173 16 -1604 16 -1431 0 -1590 -2 -1604 -16 -14 -14 -16 -69
-16 -455 0 -262 -4 -439 -9 -439 -21 0 -71 -54 -79 -83 l-8 -32 -175 -31
c-818 -147 -1464 -447 -1921 -892 -228 -222 -387 -441 -532 -733 -128 -256
-220 -526 -286 -836 -32 -152 -80 -486 -80 -558 l0 -45 -2314 0 c-2297 0
-2315 0 -2321 20 -3 11 -22 32 -41 48 l-35 29 15 124 c40 331 44 765 11 1129
-56 608 -227 1120 -526 1575 -220 334 -539 661 -880 900 -711 500 -1636 797
-2629 845 -195 9 -246 10 -420 3z m785 -72 c1050 -129 1970 -516 2589 -1090
209 -195 365 -376 514 -600 208 -314 356 -661 446 -1053 105 -455 132 -1090
70 -1622 -16 -138 -18 -146 -39 -146 -29 0 -66 -25 -87 -58 -16 -26 -19 -44
-15 -81 l6 -48 -231 -209 c-297 -269 -306 -276 -317 -269 -5 3 11 40 36 83
136 228 203 467 203 723 0 286 -89 565 -270 843 -96 148 -164 230 -309 379
-426 435 -1030 792 -1731 1023 -454 150 -899 225 -1337 224 -395 0 -633 -40
-958 -163 -416 -156 -753 -338 -904 -488 -118 -117 -171 -223 -171 -344 0
-155 63 -282 304 -615 109 -151 226 -331 284 -438 24 -43 68 -111 98 -151 l55
-72 -28 -22 c-363 -285 -521 -463 -589 -662 -54 -160 -41 -328 42 -555 46
-126 282 -599 343 -689 164 -241 502 -454 951 -601 897 -294 1972 -275 2606
45 152 77 235 135 347 244 100 97 166 189 217 303 31 69 38 78 62 78 30 0 84
41 93 70 6 19 19 20 471 20 255 0 464 -2 464 -4 0 -10 -182 -456 -323 -791
-404 -961 -563 -1432 -683 -2020 -100 -489 -137 -875 -138 -1415 -1 -836 92
-1502 360 -2599 41 -167 73 -305 72 -306 -2 -1 -219 177 -483 395 -479 397
-480 398 -486 441 -33 229 -36 1326 -5 1669 36 389 77 649 151 945 55 223 96
347 192 589 100 251 117 333 110 531 -8 207 -43 336 -147 533 -73 138 -151
242 -280 373 -278 281 -613 462 -1010 546 -111 24 -147 27 -330 27 -175 1
-222 -3 -317 -22 -624 -126 -1112 -600 -1391 -1352 -57 -152 -335 -1050 -447
-1440 -307 -1073 -327 -1601 -140 -3595 20 -203 85 -858 145 -1455 133 -1309
209 -2086 290 -2930 271 -2839 458 -4459 666 -5790 337 -2158 728 -3352 1262
-3850 206 -193 401 -277 663 -287 165 -7 296 12 448 63 778 260 1309 1365
1505 3134 62 558 80 924 80 1635 0 582 -7 805 -40 1314 -8 128 -13 236 -10
238 3 3 82 -68 176 -158 142 -136 170 -168 170 -191 0 -147 48 -1081 95 -1868
19 -316 40 -654 45 -750 59 -1003 64 -1775 15 -2270 -45 -454 -128 -794 -260
-1065 -300 -618 -853 -837 -1738 -689 -272 46 -649 147 -1076 290 -1171 391
-1923 889 -2269 1502 -103 183 -172 382 -214 612 -20 115 -17 524 5 670 40
255 105 501 251 948 117 357 184 577 235 774 196 761 271 1437 258 2333 -9
602 -47 1102 -133 1745 -106 796 -190 1245 -568 3015 -272 1280 -361 1718
-435 2160 -265 1583 -275 2813 -41 5490 90 1032 117 1728 99 2599 -17 857 -57
1428 -189 2726 -117 1143 -125 1256 -125 1705 0 300 4 394 18 495 54 385 168
643 370 842 212 209 640 373 1157 443 219 29 317 33 685 30 297 -3 403 -8 540
-24z m14615 -964 l0 -414 -25 -11 c-14 -7 -35 -27 -46 -46 -15 -25 -25 -33
-39 -29 -11 3 -20 13 -20 23 0 25 -39 70 -73 85 -25 10 -33 22 -44 66 -27 106
-115 204 -223 246 -42 17 -115 18 -1035 21 -613 2 -1014 -1 -1053 -7 -35 -5
-84 -20 -110 -33 -93 -44 -177 -155 -189 -248 -5 -36 -10 -42 -48 -59 -32 -14
-47 -29 -61 -60 -21 -49 -43 -52 -66 -11 -9 17 -29 35 -43 42 l-25 11 0 419 0
418 1550 0 1550 0 0 -413z m-452 -137 c70 -35 114 -82 148 -154 32 -69 31 -88
-7 -105 -90 -40 -90 -179 1 -226 28 -14 30 -20 30 -69 0 -39 -8 -69 -30 -114
-35 -70 -82 -114 -154 -148 l-51 -24 -1035 0 -1035 0 -51 24 c-72 34 -119 78
-154 148 -22 45 -30 75 -30 112 0 47 3 52 32 67 42 20 72 79 64 124 -8 39 -47
91 -76 100 -27 9 -26 48 4 111 34 72 78 119 148 154 l61 30 1037 0 1037 0 61
-30z m347 -408 c6 -4 18 -24 28 -45 9 -21 31 -46 47 -55 l30 -17 0 -957 0
-958 -290 0 -290 0 0 670 c0 657 0 670 20 690 41 41 10 110 -50 110 -64 0 -91
-70 -45 -116 l25 -25 0 -664 0 -665 -65 0 -65 0 0 668 c0 656 0 669 20 687 41
37 11 115 -44 115 -62 0 -95 -83 -48 -121 l22 -17 0 -666 0 -666 -918 0 -917
0 3 45 c5 53 -12 82 -35 63 -10 -8 -14 -27 -11 -60 l3 -48 -207 0 -208 0 0
953 0 952 31 17 c18 11 37 35 47 58 23 53 37 56 61 14 12 -20 36 -41 55 -49
31 -13 35 -20 41 -62 20 -150 101 -256 237 -311 39 -16 126 -17 1033 -20 612
-2 1014 1 1053 7 83 13 146 45 202 101 58 57 89 121 102 211 9 58 14 72 33 79
23 9 75 65 75 81 0 11 11 11 25 1z m457 -62 c1247 -225 2074 -804 2478 -1735
331 -761 406 -1761 219 -2905 -27 -168 -83 -437 -109 -532 l-11 -38 -77 54
c-107 74 -170 107 -297 159 -256 105 -589 185 -1015 242 -220 30 -817 30
-1377 -1 l-103 -5 0 955 c0 854 -2 956 -16 970 -13 14 -55 16 -300 16 -271 0
-285 1 -304 20 -19 19 -20 33 -20 390 l0 370 309 0 c268 0 312 2 325 16 14 14
16 118 16 993 l0 978 24 11 c14 6 35 25 47 41 13 17 28 31 35 31 6 0 85 -13
176 -30z m-3593 -11 c12 -16 33 -35 47 -41 l24 -11 0 -973 c0 -871 2 -974 16
-988 13 -14 49 -16 240 -16 l224 0 0 -43 c0 -24 5 -48 12 -55 20 -20 38 6 38
54 l0 44 915 0 915 0 0 -371 0 -371 -22 -19 c-22 -18 -63 -18 -1165 -19 -1262
0 -1173 5 -1173 -63 -1 -25 -8 -36 -33 -52 -18 -11 -40 -37 -50 -57 l-19 -38
-1474 0 -1474 0 0 33 c0 52 28 269 55 425 118 680 391 1247 796 1651 482 482
1152 787 2049 934 50 8 57 6 79 -24z m-11364 -388 c283 -38 599 -112 881 -206
416 -139 890 -378 1226 -617 308 -220 572 -483 741 -738 274 -416 346 -840
212 -1246 -33 -99 -102 -248 -152 -326 -21 -35 -27 -39 -54 -33 -41 9 -94 -11
-124 -46 -28 -34 -34 -103 -14 -142 11 -19 5 -28 -60 -89 -40 -37 -110 -93
-155 -123 -77 -51 -261 -145 -283 -145 -6 0 -15 44 -21 98 -34 300 -180 577
-447 848 -223 227 -476 405 -807 570 -764 382 -1612 503 -2181 313 -132 -45
-225 -94 -372 -200 l-129 -92 -29 34 c-44 52 -98 135 -157 239 -60 108 -135
222 -260 395 -184 255 -248 365 -277 478 -64 251 112 464 577 697 354 177 699
295 985 334 170 24 173 24 470 21 212 -3 316 -8 430 -24z m13849 -137 c22 -21
20 -47 -4 -69 -29 -26 -70 -7 -70 33 0 49 42 69 74 36z m180 0 c19 -18 20 -28
6 -55 -16 -29 -67 -26 -81 5 -23 50 36 90 75 50z m-54 -1870 l0 -367 -26 -23
c-31 -29 -58 -30 -84 -4 -19 19 -20 33 -20 390 l0 370 65 0 65 0 0 -366z
m-14310 155 c623 -68 1279 -326 1778 -698 156 -116 372 -331 465 -461 83 -117
178 -306 211 -421 34 -118 53 -288 35 -300 -23 -14 -218 -57 -309 -69 -188
-23 -464 -11 -709 31 -763 129 -1763 624 -2501 1238 -119 98 -340 308 -340
322 0 12 214 165 288 206 140 78 378 143 598 163 111 10 341 5 484 -11z
m-1330 -465 c361 -367 1009 -809 1589 -1087 686 -327 1285 -474 1821 -445 105
5 301 38 388 64 16 4 22 2 22 -9 0 -8 -12 -17 -28 -20 -100 -20 -131 -157 -51
-220 l31 -24 -31 -67 c-187 -413 -688 -679 -1426 -757 -152 -16 -603 -16 -760
-1 -898 91 -1613 394 -1872 795 -64 97 -263 494 -311 617 -157 406 -112 631
188 930 97 97 337 299 355 300 6 0 44 -34 85 -76z m15514 -100 c23 -23 20 -51
-8 -69 -45 -30 -91 20 -59 64 17 25 46 27 67 5z m180 0 c9 -8 16 -22 16 -29 0
-44 -73 -61 -91 -21 -23 50 36 90 75 50z m-256 -83 l22 -19 0 -1481 0 -1481
-310 0 -310 0 0 75 c0 58 3 75 14 75 8 0 26 14 40 31 37 43 36 98 -3 141 -25
28 -36 33 -76 33 -40 0 -51 -5 -76 -33 -39 -43 -40 -98 -3 -141 14 -17 32 -31
40 -31 11 0 14 -17 14 -75 l0 -75 -815 0 -815 0 0 695 0 694 30 16 c39 20 70
70 70 114 0 44 -32 95 -70 111 l-30 12 0 203 0 203 34 20 c94 55 92 177 -2
222 l-32 15 0 205 0 206 29 11 c41 15 66 58 66 114 0 39 -5 53 -29 78 -16 17
-38 33 -48 37 -10 3 -18 14 -18 25 0 19 20 19 1128 19 1087 -1 1128 -1 1150
-19z m177 3 l25 -16 0 -1484 0 -1484 -65 0 -65 0 0 1482 c0 1364 1 1483 17
1500 20 22 56 23 88 2z m655 -1484 l0 -1500 -290 0 -290 0 0 1486 c0 1404 1
1488 18 1500 13 10 79 13 290 14 l272 0 0 -1500z m-6274 1228 c-3 -50 -6 -192
-6 -315 l0 -223 -2424 0 -2425 0 24 88 c13 48 38 150 55 227 17 77 33 150 35
163 3 12 10 22 16 22 6 0 26 7 44 16 29 14 55 49 69 97 5 16 124 17 2312 17
l2307 0 -7 -92z m3021 55 c11 -20 34 -44 51 -52 l32 -16 0 -205 0 -205 -31
-17 c-18 -11 -37 -35 -47 -58 l-17 -40 -1487 0 -1488 0 0 203 c0 111 3 253 7
315 l6 112 1478 0 1477 0 19 -37z m-7807 -105 c0 -35 -75 -369 -106 -470 -5
-17 -25 -18 -244 -18 l-238 0 -5 28 c-7 33 -29 10 287 295 l249 225 28 -21
c16 -11 29 -29 29 -39z m-124 -535 c-52 -171 -116 -365 -153 -468 l-48 -130
-466 -3 -467 -2 -5 22 c-3 13 -8 32 -12 44 -6 18 19 44 157 169 90 81 202 183
249 226 85 76 87 78 118 66 47 -17 109 7 140 56 l24 37 234 0 c219 0 234 -1
229 -17z m4908 -70 c11 -151 37 -446 43 -490 l6 -43 -2558 0 c-2431 0 -2557 1
-2550 18 34 89 140 402 166 490 l32 112 2428 0 2427 0 6 -87z m3029 51 c10
-19 31 -43 47 -52 l30 -17 0 -205 -1 -205 -32 -20 c-18 -11 -39 -35 -47 -52
l-15 -33 -1461 0 -1461 0 -6 53 c-7 62 -34 379 -41 490 l-4 77 1487 0 1487 0
17 -36z m-8913 -298 c0 -2 -45 -45 -99 -95 -92 -85 -101 -91 -121 -79 -15 9
-20 21 -18 42 3 24 11 31 53 47 28 10 79 34 115 53 77 40 70 37 70 32z m5959
-473 c27 -182 72 -423 106 -567 l24 -101 -37 -29 c-109 -86 -227 -239 -287
-370 -68 -148 -115 -349 -115 -492 0 -260 147 -561 395 -809 125 -125 207
-184 370 -265 271 -134 655 -234 1137 -295 233 -30 791 -30 1326 1 l102 6 0
-751 0 -751 -2995 -2 c-2650 -3 -2997 -5 -3005 -18 -6 -9 -10 -381 -10 -957 0
-858 -1 -943 -16 -943 -23 0 -84 -64 -84 -89 0 -20 -3 -21 -312 -23 -281 -3
-313 -5 -316 -19 -2 -9 148 -298 332 -642 l336 -625 0 -269 0 -269 -30 -11
c-37 -14 -70 -67 -70 -113 0 -46 33 -99 70 -113 l30 -11 0 -409 c0 -326 -3
-407 -12 -400 -65 50 -2741 2263 -2764 2287 -30 29 -37 53 -122 406 -129 533
-194 845 -247 1185 -174 1128 -144 2121 95 3076 126 503 259 877 620 1739 114
272 233 564 266 647 l59 152 2565 1 2565 0 24 -157z m2944 129 c6 -31 52 -82
73 -82 12 0 14 -45 14 -249 l0 -249 -681 229 c-374 126 -685 229 -691 229 -6
0 -8 -13 -4 -32 3 -18 6 -94 7 -168 l1 -135 -93 -7 c-52 -4 -195 -15 -318 -23
-456 -33 -723 -90 -952 -205 -35 -18 -76 -41 -91 -51 -14 -11 -30 -19 -35 -19
-18 0 -118 497 -148 738 l-7 52 1460 0 1460 0 5 -28z m87 -1066 c0 -391 2
-446 16 -460 13 -14 49 -16 240 -16 l224 0 0 -24 c0 -34 10 -56 25 -56 15 0
25 22 25 56 l0 24 580 0 580 0 0 -390 0 -390 -834 0 c-745 0 -836 -2 -850 -16
-13 -13 -16 -44 -16 -179 l0 -164 -32 -5 c-37 -6 -289 -13 -764 -23 -363 -7
-507 2 -789 48 -357 59 -631 135 -820 229 -212 105 -392 292 -495 514 -51 110
-64 171 -57 270 18 253 141 466 342 591 209 131 509 189 1141 220 l131 7 8
-171 c4 -94 10 -171 13 -171 4 0 302 124 662 274 360 151 658 275 663 275 4 1
7 -199 7 -443z m4604 349 c181 -19 444 -65 621 -109 428 -106 645 -229 825
-467 165 -220 210 -385 161 -593 -51 -213 -147 -356 -313 -463 -212 -137 -494
-192 -1164 -228 l-121 -7 -6 167 c-3 92 -8 169 -10 172 -3 2 -313 -123 -689
-279 l-683 -284 -5 233 c-4 193 -8 235 -20 243 -8 6 -137 10 -295 10 -217 1
-284 4 -297 14 -17 12 -18 43 -18 390 l0 376 304 0 c264 0 307 2 320 16 14 13
16 65 16 410 l0 394 178 1 c97 1 242 5 322 9 279 13 727 11 874 -5z m-15669
-385 c622 -70 1204 -465 1451 -985 85 -180 119 -344 111 -535 -7 -156 -24
-223 -120 -461 -306 -758 -410 -1683 -341 -3043 6 -118 5 -138 -7 -131 -8 5
-114 91 -235 192 l-221 182 -5 51 c-5 54 -33 94 -75 111 -23 8 -23 10 -23 206
0 400 -52 728 -170 1068 -191 551 -558 959 -967 1077 -65 19 -103 23 -223 23
-170 0 -230 -13 -365 -79 -209 -103 -374 -274 -581 -604 -129 -204 -220 -412
-272 -618 -46 -181 -55 -284 -49 -526 6 -255 18 -337 127 -878 44 -217 95
-492 115 -610 41 -250 68 -343 131 -470 l46 -92 -15 -56 c-40 -145 -51 -244
-52 -467 0 -239 11 -331 65 -562 59 -247 145 -486 383 -1063 239 -579 332
-836 416 -1146 106 -388 149 -676 171 -1124 17 -345 59 -598 137 -824 36 -105
122 -281 172 -355 24 -36 28 -47 18 -60 -7 -9 -59 -79 -117 -156 -338 -450
-537 -857 -600 -1230 -19 -112 -22 -154 -17 -305 6 -190 19 -267 72 -425 64
-195 162 -376 311 -580 l80 -111 -28 -69 c-113 -275 -195 -594 -235 -915 -24
-199 -24 -678 1 -900 51 -461 167 -1009 345 -1636 164 -574 316 -890 535
-1110 149 -149 265 -200 435 -192 113 6 192 34 307 109 393 257 816 1012 1182
2114 199 598 284 1129 269 1675 -9 328 -51 619 -127 890 l-30 106 29 134 c16
74 38 186 47 248 17 109 19 112 44 112 14 0 42 9 63 20 l39 21 116 -109 c64
-61 125 -119 136 -131 16 -17 21 -50 32 -205 70 -985 68 -1966 -7 -2791 -125
-1375 -433 -2370 -908 -2937 -280 -334 -638 -502 -1030 -485 -368 16 -659 218
-926 642 -74 118 -209 393 -279 572 -410 1041 -725 2791 -1066 5908 -89 817
-134 1269 -315 3150 -73 758 -98 1008 -255 2565 -234 2317 -254 2573 -255
3260 0 498 3 560 46 855 58 403 137 706 444 1700 203 657 224 714 346 955 235
465 561 782 961 936 226 88 489 121 733 94z m13425 -812 c0 -332 -2 -373 -17
-390 -15 -17 -38 -18 -310 -18 l-293 0 0 390 0 390 310 0 310 0 0 -372z m180
1 l0 -371 -22 -19 c-27 -22 -66 -24 -90 -5 -17 12 -18 43 -18 390 l0 376 65 0
65 0 0 -371z m-126 -415 c22 -22 20 -50 -5 -68 -43 -30 -93 20 -63 63 18 25
46 27 68 5z m186 -3 c14 -27 13 -37 -6 -55 -40 -40 -101 3 -75 53 15 28 66 29
81 2z m-910 -1556 l0 -1505 -290 0 -290 0 0 69 c0 61 3 70 20 76 62 20 80 113
31 167 -25 28 -36 33 -76 33 -40 0 -51 -5 -76 -33 -49 -54 -31 -147 31 -167
17 -6 20 -15 20 -76 l0 -69 -505 0 -505 0 0 1505 0 1505 820 0 820 0 0 -1505z
m645 1480 l25 -26 0 -1456 0 -1457 -22 -23 -21 -23 -289 0 -288 0 0 1505 0
1505 285 0 284 0 26 -25z m179 1 l26 -23 0 -1456 0 -1456 -25 -26 c-31 -30
-58 -32 -85 -5 -20 20 -20 33 -20 1482 l0 1462 22 23 c27 29 50 29 82 -1z
m646 -1481 l0 -1505 -266 0 c-263 0 -266 0 -285 23 -18 21 -18 69 -19 1485 0
1379 1 1463 18 1481 16 18 34 19 285 20 l267 1 0 -1505z m-14845 480 c264 -73
538 -297 726 -595 257 -405 389 -928 389 -1535 l0 -171 -38 -17 c-48 -21 -72
-62 -72 -123 0 -42 4 -51 40 -85 22 -21 40 -47 40 -58 0 -87 -76 -421 -136
-592 -35 -102 -122 -299 -132 -299 -3 0 -56 49 -118 110 -307 297 -606 450
-884 452 -378 2 -635 -250 -844 -827 -7 -17 -11 -13 -33 30 -58 113 -88 224
-128 470 -14 88 -63 349 -110 580 -109 542 -126 654 -132 892 -8 273 14 426
93 665 90 272 328 661 525 856 133 132 289 221 449 257 83 19 281 13 365 -10z
m16956 -1081 c173 -323 316 -590 317 -595 2 -5 -86 -9 -197 -9 l-201 0 0 205
c0 170 2 205 14 205 8 0 26 14 40 31 72 85 -16 208 -118 165 -20 -8 -44 -29
-54 -46 l-17 -30 -233 0 -234 0 40 73 c21 39 101 188 177 330 75 141 140 257
145 257 4 0 148 -264 321 -586z m-5281 -523 c0 -359 2 -412 16 -425 13 -14 50
-16 244 -16 l229 0 3 -32 c2 -25 8 -33 23 -33 15 0 21 8 23 33 l3 32 265 0
264 0 0 -574 c0 -572 0 -575 -21 -581 -24 -8 -59 -61 -59 -90 0 -29 35 -82 59
-90 21 -6 21 -12 21 -301 l0 -294 -529 0 c-468 0 -531 -2 -545 -16 -14 -14
-16 -107 -16 -877 l0 -862 -132 -132 -132 -132 -84 81 c-64 63 -85 79 -95 69
-6 -6 -33 -107 -59 -223 l-46 -211 -489 -489 -488 -488 -50 0 c-74 0 -229 -18
-320 -36 -262 -53 -537 -193 -744 -377 -75 -67 -88 -75 -125 -76 -22 0 -53 -2
-67 -3 -22 -3 -286 214 -1553 1271 -1524 1272 -1527 1275 -1519 1305 17 72 -3
123 -63 158 l-34 20 0 261 0 261 340 633 c187 349 340 638 340 642 0 18 -38
21 -274 21 l-242 0 -18 41 c-12 27 -29 46 -52 56 l-34 17 0 933 0 933 2980 0
2980 0 0 -409z m4520 394 c0 -3 -49 -96 -109 -208 -154 -287 -159 -296 -141
-307 9 -6 198 -10 448 -10 l432 0 0 -1215 0 -1215 -107 -54 -108 -54 40 -10
c22 -6 90 -23 150 -38 61 -15 113 -30 117 -33 5 -4 -64 -25 -152 -46 -88 -22
-160 -42 -160 -45 0 -3 72 -23 160 -45 88 -22 154 -42 148 -46 -7 -3 -82 -23
-167 -44 -87 -22 -147 -41 -140 -45 8 -4 83 -24 167 -45 83 -20 152 -39 152
-40 0 -1 -69 -20 -152 -40 -84 -21 -159 -41 -167 -45 -7 -4 53 -23 140 -45 85
-21 160 -41 166 -44 7 -4 -57 -24 -142 -45 -85 -21 -153 -41 -151 -45 2 -3 45
-26 95 -51 l91 -44 0 -381 0 -380 -73 138 c-82 154 -91 167 -109 149 -6 -6
-131 -236 -278 -509 l-265 -498 -648 -3 -647 -2 0 1272 c0 784 -4 1279 -10
1288 -8 12 -51 16 -252 20 l-243 5 -3 948 c-2 813 0 950 12 963 12 11 65 14
300 14 245 0 287 2 300 16 14 13 16 66 16 420 l0 404 645 0 c355 0 645 -2 645
-5z m573 -30 c15 -19 34 -35 42 -35 13 0 15 -32 15 -205 l0 -205 -415 0 c-228
0 -415 2 -415 4 0 3 57 111 126 240 l126 236 247 0 246 0 28 -35z m-2665 -737
c16 -16 15 -53 -2 -67 -22 -19 -68 -9 -77 15 -16 45 46 85 79 52z m182 -8 c22
-41 -13 -80 -59 -65 -48 15 -31 85 19 85 19 0 33 -7 40 -20z m-910 -1025 l0
-965 -290 0 -290 0 0 291 0 291 29 27 c17 16 33 40 37 55 8 34 -12 83 -43 103
l-23 15 0 574 0 574 290 0 290 0 0 -965z m650 948 c20 -17 20 -28 20 -952 0
-878 -1 -935 -17 -947 -14 -10 -83 -13 -310 -14 l-293 0 0 965 0 965 290 0
c260 0 292 -2 310 -17z m175 1 l25 -16 0 -937 c0 -715 -3 -940 -12 -949 -7 -7
-36 -12 -65 -12 l-53 0 0 947 c0 867 1 948 17 965 20 22 56 23 88 2z m-12712
-659 c150 -125 247 -212 247 -222 1 -114 70 -807 126 -1253 144 -1167 358
-2389 769 -4385 184 -895 299 -1603 400 -2454 14 -118 22 -229 19 -248 -3 -18
-2 -33 3 -33 5 0 17 -82 27 -182 22 -235 33 -363 32 -365 -1 -1 -55 49 -121
111 l-119 112 -1 49 c-1 62 -24 99 -77 122 l-40 18 6 65 c104 1092 -44 1976
-413 2470 -59 78 -176 195 -246 245 -58 42 -182 107 -224 118 -19 5 -19 8 10
118 107 422 158 824 166 1317 7 439 -14 721 -83 1110 -162 920 -570 1847
-1066 2424 l-58 67 41 82 c110 219 197 520 236 812 8 57 9 59 47 72 21 8 43
18 49 24 6 6 14 11 17 11 3 0 117 -92 253 -205z m-1443 -270 c220 -71 443
-220 663 -443 l88 -89 -72 -109 c-87 -130 -258 -307 -369 -381 -201 -135 -387
-194 -609 -194 -176 0 -322 41 -479 133 -61 36 -256 222 -266 255 -14 44 116
349 209 494 95 148 196 244 323 308 97 49 159 61 302 57 103 -3 140 -8 210
-31z m2230 -380 c437 -362 490 -410 499 -443 6 -20 46 -179 91 -352 143 -554
276 -1045 462 -1700 197 -697 255 -946 290 -1245 21 -177 14 -753 -16 -1380
-89 -1876 -110 -2590 -97 -3320 5 -236 7 -431 6 -432 -1 -2 -80 72 -176 163
l-174 165 -7 67 c-4 37 -14 148 -23 247 -29 317 -34 365 -65 624 -103 853
-214 1528 -405 2456 -435 2118 -664 3458 -799 4678 -44 394 -87 877 -79 877 1
0 223 -182 493 -405z m10541 136 c52 -42 17 -131 -51 -131 -44 0 -74 31 -74
75 0 44 30 75 74 75 15 0 38 -8 51 -19z m-7237 -20 c17 -32 70 -61 113 -61 37
0 90 33 105 65 l11 25 234 0 235 0 -39 -72 c-22 -40 -167 -311 -323 -601 -175
-328 -286 -524 -290 -515 -4 7 -145 270 -313 584 -169 314 -309 578 -313 588
-6 15 18 16 280 16 l285 0 15 -29z m-4627 -456 c590 -758 977 -1838 1054
-2940 23 -330 4 -809 -47 -1185 -30 -225 -118 -648 -143 -688 -6 -10 -19 -10
-61 -1 -88 19 -278 6 -385 -26 -345 -102 -644 -338 -1044 -823 l-44 -54 -34
54 c-162 252 -259 600 -283 1013 -24 403 -32 500 -56 665 -72 508 -201 921
-545 1751 -279 675 -361 920 -421 1258 -18 102 -22 165 -22 331 -1 203 8 294
41 428 l15 62 80 -85 c188 -200 418 -298 698 -298 227 1 422 64 629 205 112
77 293 264 371 385 l65 100 23 -21 c13 -11 62 -70 109 -131z m3743 -1662 l905
-748 3 -3422 2 -3422 -30 -16 c-134 -69 -53 -274 91 -235 l40 11 173 -168 c94
-92 800 -782 1569 -1532 1136 -1109 1396 -1368 1391 -1384 -11 -34 -6 -87 9
-110 14 -21 11 -27 -44 -100 -80 -106 -134 -201 -195 -341 -48 -113 -53 -119
-89 -132 l-39 -13 -165 158 c-91 87 -1199 1142 -2461 2345 l-2295 2186 -6 128
c-12 236 -10 1266 2 1302 9 23 9 34 1 39 -16 9 7 644 75 2081 26 557 36 871
37 1155 2 622 -16 719 -317 1790 -233 824 -527 1923 -527 1966 0 5 217 -171
483 -390 265 -220 889 -736 1387 -1148z m9395 1373 c31 -46 -25 -97 -66 -60
-23 21 -24 42 -2 66 22 25 50 23 68 -6z m189 5 c37 -41 -14 -97 -60 -66 -28
18 -31 46 -8 69 21 21 47 20 68 -3z m-1534 -103 l-1 -53 -49 -24 c-63 -30
-150 -103 -200 -166 -28 -35 -49 -78 -70 -143 -19 -62 -40 -106 -61 -129 -60
-69 -74 -114 -74 -248 0 -114 1 -123 31 -185 39 -81 97 -149 242 -286 l113
-107 35 34 34 33 0 -30 c0 -24 -15 -45 -77 -106 -49 -49 -85 -76 -96 -74 -10
1 -98 82 -195 179 -110 110 -185 177 -197 177 -12 0 -100 -81 -237 -217 l-218
-218 0 808 0 807 510 0 510 0 0 -52z m630 -17 l0 -70 -60 25 c-129 52 -320 69
-457 40 l-63 -13 0 44 0 43 290 0 290 0 0 -69z m636 42 c26 -22 34 -35 34 -61
0 -21 -4 -31 -11 -27 -5 4 -68 -50 -138 -119 -90 -90 -134 -126 -150 -126 -13
0 -91 44 -172 97 l-149 97 0 83 0 83 276 0 275 0 35 -27z m189 2 c24 -25 25
-30 25 -153 l0 -126 -65 64 -65 64 0 68 c0 38 6 77 12 88 18 28 62 25 93 -5z
m515 -1230 l0 -1255 -496 0 -497 0 7 38 c4 20 9 58 13 85 7 59 7 59 -158 15
l-120 -32 -190 190 c-104 104 -189 196 -189 204 0 9 43 58 95 110 52 52 95
102 95 110 0 9 -29 45 -65 80 l-65 64 67 68 c37 38 72 68 77 68 6 0 41 -30 78
-67 l68 -67 230 229 c126 126 230 234 230 239 0 6 -30 41 -67 78 l-68 68 63
62 62 63 68 -68 c37 -37 72 -67 77 -67 5 0 54 44 107 97 83 83 101 96 116 87
32 -20 238 -303 275 -378 20 -40 46 -107 57 -147 27 -95 37 -266 20 -351 -25
-131 -111 -267 -193 -307 -40 -19 -195 -56 -203 -48 -2 2 6 22 17 44 32 65 44
161 30 244 -22 137 -76 214 -277 400 l-118 108 -42 -37 -42 -37 153 -150 c172
-169 204 -217 213 -321 8 -102 -11 -156 -80 -230 -112 -119 -229 -155 -335
-101 -29 15 -53 29 -53 32 0 3 16 22 35 44 l35 39 -27 10 c-274 99 -427 152
-429 149 -2 -1 50 -96 114 -210 l117 -208 39 42 c39 41 39 42 65 25 162 -106
341 -81 501 70 32 30 48 36 144 53 138 25 203 56 257 124 90 114 129 229 129
390 0 239 -63 392 -274 662 -53 69 -86 119 -86 134 0 18 28 54 102 128 l102
104 -112 112 -112 112 0 153 c0 216 -18 201 238 202 l202 0 0 -1255z m-1542
1139 c42 -8 105 -28 140 -44 l62 -29 0 -283 0 -283 -207 -207 -207 -208 34
-35 34 -35 -24 -25 c-31 -33 -17 -45 15 -15 l26 24 72 -72 72 -72 -73 -72 -72
-73 -72 72 -72 72 22 24 c29 30 16 44 -15 15 l-23 -22 -33 31 c-17 17 -38 28
-44 26 -10 -4 -13 82 -13 406 0 226 3 411 8 411 4 0 22 -9 40 -20 l34 -21 -38
-41 -37 -41 224 -83 c123 -46 225 -81 227 -79 5 4 -218 415 -225 415 -3 0 -22
-18 -42 -40 l-36 -41 -45 31 c-25 16 -60 35 -77 41 l-33 11 0 123 0 124 38 10
c95 25 234 27 340 5z m-428 -143 l0 -108 -55 -6 c-56 -6 -185 -58 -206 -83
-44 -53 -11 58 38 128 32 48 112 117 173 152 25 14 46 26 48 26 1 0 2 -49 2
-109z m1298 -154 c2 -199 0 -241 -13 -260 -8 -13 -13 -26 -10 -28 2 -3 -27
-36 -65 -74 l-70 -70 -135 135 -135 135 53 53 c28 30 69 65 90 78 20 13 37 30
37 36 0 17 222 239 235 235 6 -2 11 -92 13 -240z m-440 81 c56 -38 102 -74
102 -81 0 -7 -31 -44 -70 -82 -38 -38 -70 -74 -70 -80 0 -6 18 -29 40 -50 l40
-39 -27 -28 c-19 -20 -22 -28 -11 -28 8 0 23 9 33 20 19 21 19 20 117 -77 l98
-98 -62 -62 -63 -63 -97 97 c-64 64 -94 101 -88 107 6 6 10 17 10 25 0 12 -3
12 -18 -2 -16 -14 -21 -12 -65 29 l-47 45 0 240 0 241 38 -23 c20 -13 83 -54
140 -91z m622 -235 c0 -124 -4 -204 -10 -208 -5 -3 -10 -14 -10 -23 0 -9 -39
-56 -87 -104 l-88 -88 -57 57 -58 57 67 68 c37 37 75 68 85 68 25 0 49 39 38
61 -6 10 -10 113 -10 231 l0 212 65 -64 65 -64 0 -203z m132 -95 l-82 -83 0
165 0 165 82 -83 83 -82 -83 -82z m-1612 -229 l0 -401 -88 80 c-176 160 -223
222 -248 325 -20 80 -10 154 32 224 47 81 189 173 267 173 l37 0 0 -401z m740
64 c0 -7 6 -13 13 -13 7 0 55 -43 107 -95 l95 -95 -205 -205 c-113 -113 -209
-204 -214 -202 -5 2 -14 11 -20 20 -9 14 1 28 53 81 37 37 75 66 91 70 31 6
49 41 31 59 -7 7 -11 84 -11 231 l0 220 30 -29 c17 -16 30 -35 30 -42z m-120
-367 c-5 -5 -10 -17 -10 -26 0 -8 -32 -47 -70 -85 l-70 -70 -95 95 c-52 52
-95 99 -95 105 0 5 78 88 173 183 l172 172 3 -182 c1 -114 -1 -185 -8 -192z
m278 -183 c-112 -112 -207 -203 -213 -203 -13 0 -105 92 -105 105 0 5 91 101
202 212 l203 203 57 -57 58 -58 -202 -202z m-6408 -1078 c817 -681 1497 -1250
1512 -1264 26 -24 27 -29 16 -64 -8 -27 -8 -47 -1 -72 11 -33 8 -40 -45 -128
-65 -108 -122 -231 -154 -335 -25 -83 -50 -106 -86 -81 -10 8 -650 536 -1420
1173 l-1402 1159 0 432 0 431 28 10 c21 9 31 7 47 -6 11 -9 688 -574 1505
-1255z m5290 870 c0 -12 -34 -54 -85 -105 -47 -47 -85 -89 -85 -95 0 -6 14
-24 30 -40 l30 -29 -32 -33 c-41 -43 -28 -56 15 -15 l33 32 39 -40 40 -40
-393 -393 -392 -392 0 530 0 530 227 227 228 228 172 -172 c111 -111 173 -180
173 -193z m393 107 l97 -97 -108 -108 -108 -108 -3 196 c-2 184 0 215 17 215
4 0 51 -44 105 -98z m328 22 c11 -13 2 -25 -59 -87 -71 -70 -71 -71 -92 -52
l-21 19 68 68 c37 37 73 68 79 68 6 0 17 -7 25 -16z m-516 -237 c-8 -12 -15
-28 -15 -37 0 -8 -39 -55 -88 -103 l-87 -87 -68 68 -67 67 78 76 c42 42 89 83
105 93 15 9 27 22 27 28 0 7 28 41 63 76 l62 63 3 -111 c2 -87 -1 -115 -13
-133z m3993 -25 l82 -157 0 -275 0 -275 -29 -13 c-17 -7 -36 -26 -43 -43 -13
-29 -14 -29 -92 -29 -79 0 -79 0 -111 38 -29 33 -38 37 -80 37 -42 0 -51 -4
-80 -38 l-33 -38 -105 3 -105 3 251 472 c139 260 254 472 257 473 3 0 42 -71
88 -158z m-3655 90 c15 -17 8 -26 -128 -162 l-145 -145 0 40 c0 37 7 47 122
162 68 68 125 123 129 123 3 0 13 -8 22 -18z m107 -107 l54 -55 -83 -84 c-53
-53 -94 -86 -112 -90 -21 -4 -30 -13 -35 -33 -4 -16 -43 -65 -92 -115 -105
-107 -112 -105 -112 26 l0 91 157 157 c87 87 160 158 163 158 3 0 30 -25 60
-55z m-1607 -1158 c-65 -64 -93 -87 -107 -83 -20 5 -56 -9 -68 -28 -4 -6 -8
-25 -8 -41 0 -26 -29 -60 -203 -233 l-202 -202 -59 36 c-196 118 -451 203
-658 221 -38 3 -68 9 -68 12 0 3 213 218 473 478 l472 471 209 47 c116 25 213
48 218 51 18 11 4 32 -69 106 l-78 78 115 115 115 115 3 -527 2 -527 -87 -89z
m1110 981 c-37 -37 -72 -67 -77 -65 -5 2 -14 11 -20 20 -9 14 4 31 74 102 l85
86 3 -37 c3 -34 -2 -43 -65 -106z m-1174 -223 c-9 -9 -349 -82 -349 -75 0 10
70 323 76 340 3 9 49 -30 142 -123 75 -75 134 -139 131 -142z m1207 116 c-35
-34 -35 -35 -56 -16 l-21 19 53 53 53 54 3 -37 c3 -31 -2 -43 -32 -73z m-153
21 c15 -17 -9 -43 -408 -442 -404 -404 -425 -423 -425 -391 0 30 34 68 403
442 221 224 405 408 408 409 3 0 13 -8 22 -18z m4538 -420 c99 -184 179 -336
179 -338 0 -2 -90 -4 -200 -4 l-200 0 0 64 c0 47 4 67 17 77 25 21 45 78 38
109 -3 15 -17 38 -31 50 l-24 23 0 216 1 216 21 -40 c11 -22 101 -190 199
-373z m-4469 351 c18 -16 3 -33 -384 -420 -396 -396 -404 -403 -443 -403 l-40
0 420 420 c231 231 422 420 424 420 3 0 13 -8 23 -17z m118 -20 c0 -36 0 -36
-20 -18 -19 17 -19 19 -4 37 23 24 24 24 24 -19z m491 -149 l179 -179 -62 -15
c-40 -10 -64 -22 -66 -32 -2 -8 32 -48 79 -92 l81 -77 -48 -52 c-26 -28 -81
-87 -120 -129 l-72 -78 -206 0 -206 0 0 324 c0 304 1 324 18 320 12 -3 48 26
116 95 54 54 105 98 113 97 8 -1 95 -83 194 -182z m-4780 -2217 c-15 -47 -11
-104 10 -137 20 -33 22 -48 24 -225 1 -152 6 -212 24 -299 102 -496 410 -900
860 -1125 203 -102 416 -156 668 -169 l143 -7 -301 -145 c-165 -79 -305 -150
-310 -156 -6 -7 -9 -23 -7 -35 2 -19 58 -49 336 -183 182 -88 332 -163 332
-166 0 -4 -148 -93 -330 -199 l-330 -193 0 -34 c0 -31 4 -37 38 -50 81 -34
642 -308 642 -314 0 -4 -57 -34 -127 -68 -71 -33 -216 -103 -323 -155 -107
-52 -217 -102 -243 -112 -42 -16 -48 -21 -45 -44 3 -23 39 -44 360 -206 197
-99 358 -182 358 -185 -1 -3 -155 -86 -343 -186 -310 -164 -342 -183 -345
-207 -3 -24 2 -30 35 -43 80 -33 643 -308 643 -314 0 -3 -138 -73 -307 -154
-170 -81 -318 -154 -331 -162 -17 -11 -22 -23 -20 -42 3 -25 28 -38 335 -177
183 -82 332 -152 332 -155 1 -3 -152 -90 -339 -194 -187 -104 -343 -193 -346
-198 -3 -5 -3 -19 0 -31 4 -18 74 -54 345 -182 255 -120 337 -163 327 -170 -8
-6 -158 -84 -335 -174 -325 -165 -352 -184 -319 -217 7 -8 159 -72 337 -142
l324 -129 -329 -167 c-181 -92 -336 -175 -344 -184 -8 -10 -51 -32 -95 -51
-106 -44 -232 -116 -334 -192 -71 -53 -85 -60 -104 -51 -43 21 -65 22 -108 8
l-43 -15 -141 137 c-2940 2870 -2995 2923 -2984 2943 30 57 1 146 -58 174
l-33 16 0 3399 0 3399 1403 -1160 c771 -638 1400 -1165 1398 -1172z m4256
2301 l33 -32 0 -353 0 -353 -422 0 -423 0 385 385 c212 212 387 385 389 385 3
0 20 -14 38 -32z m979 -295 c-12 -58 -12 -58 -50 -61 -21 -2 -43 1 -49 7 -6 6
-18 11 -27 11 -16 0 -67 46 -59 54 6 5 161 44 180 45 14 1 15 -5 5 -56z m-204
-40 c21 -20 38 -42 38 -48 0 -5 -11 -23 -24 -40 l-23 -29 -68 64 -67 65 44 11
c61 17 58 18 100 -23z m174 -113 c-12 -78 -28 -140 -35 -140 -4 0 -31 24 -60
54 -54 54 -54 55 -37 80 10 16 26 26 41 26 13 0 27 5 30 10 3 6 20 10 37 10
30 0 30 -1 24 -40z m1054 -125 l0 -165 -124 0 c-102 0 -125 3 -130 15 -3 9
-22 23 -41 31 -31 12 -39 12 -70 0 -19 -8 -38 -22 -41 -31 -5 -11 -21 -15 -63
-15 -48 0 -61 4 -80 24 -12 13 -34 26 -48 29 -35 6 -81 -10 -94 -34 -9 -18
-27 -19 -385 -19 l-376 0 108 115 108 116 55 -53 c95 -90 111 -102 121 -92 5
5 19 57 30 114 12 58 23 111 25 118 3 9 113 12 505 12 l500 0 0 -165z m1328
156 c-1 -4 -28 -56 -58 -115 -46 -90 -53 -108 -40 -116 9 -6 114 -10 248 -10
l232 0 0 -990 0 -990 -895 0 -895 0 -9 24 c-15 38 -88 93 -152 113 l-59 18 0
803 0 803 35 34 34 35 135 0 c109 0 138 3 150 16 13 13 16 46 16 200 l0 184
631 0 c349 0 629 -4 627 -9z m317 -24 c11 -18 30 -36 43 -42 19 -8 22 -17 22
-67 l0 -58 -215 0 c-118 0 -215 2 -215 5 0 2 23 47 51 100 l51 95 121 0 122
-1 20 -32z m365 19 c0 -19 57 -66 81 -66 17 0 19 -7 19 -60 l0 -60 -175 0
-175 0 0 58 c0 50 3 59 22 67 13 6 32 24 43 42 20 32 21 32 103 33 64 0 82 -3
82 -14z m100 -3191 l0 -2955 -107 -54 -108 -54 35 -9 c19 -6 88 -23 153 -39
64 -15 117 -31 117 -34 0 -3 -72 -23 -160 -45 -88 -21 -157 -42 -152 -46 4 -3
78 -24 164 -45 87 -21 152 -41 145 -45 -6 -3 -81 -23 -164 -44 -84 -20 -153
-39 -153 -40 0 -1 69 -20 153 -40 83 -21 158 -41 166 -45 7 -4 -53 -23 -140
-45 -85 -21 -160 -41 -166 -44 -7 -4 58 -24 145 -45 86 -21 160 -41 164 -45 4
-4 -63 -24 -149 -45 l-157 -39 97 -49 97 -48 0 -377 c0 -318 -2 -374 -13 -358
-8 11 -42 73 -76 137 -34 65 -67 120 -72 124 -6 3 -17 0 -24 -7 -7 -8 -133
-238 -280 -511 l-267 -498 -644 0 -644 0 0 1274 c0 1145 -2 1276 -16 1290 -12
13 -41 16 -153 16 -134 0 -138 1 -159 25 -12 14 -26 25 -32 25 -7 0 -10 632
-10 1900 0 1045 2 1900 5 1900 2 0 29 -9 59 -20 58 -22 116 -77 116 -109 0
-10 7 -22 16 -25 9 -3 426 -6 928 -6 696 0 915 3 924 12 9 9 12 248 12 1015
l0 1003 175 0 175 0 0 -2955z m-2675 2885 c23 -25 24 -76 2 -97 -42 -42 -127
-10 -127 49 0 60 85 93 125 48z m287 3 c21 -19 24 -71 5 -97 -7 -10 -29 -19
-47 -21 -65 -5 -102 59 -64 113 19 27 78 30 106 5z m-3079 -355 c-164 -164
-300 -298 -304 -298 -3 0 -13 6 -22 13 -16 11 4 34 183 212 147 147 207 201
228 203 36 5 62 30 62 61 0 18 20 46 73 99 l72 73 3 -32 c3 -30 -15 -51 -295
-331z m97 -43 c-173 -173 -320 -315 -326 -315 -6 0 -17 7 -25 16 -11 13 28 55
287 315 292 292 300 299 339 299 l40 0 -315 -315z m1290 103 l0 -213 -134
-145 c-74 -79 -139 -146 -144 -148 -5 -1 -56 15 -113 36 -57 22 -105 39 -107
37 -1 -1 32 -63 73 -138 41 -74 75 -138 75 -141 0 -3 -65 37 -145 89 -80 52
-145 92 -145 90 0 -2 36 -70 81 -150 44 -81 79 -148 77 -150 -1 -1 -67 39
-145 91 -79 51 -143 91 -143 89 0 -2 36 -70 81 -150 44 -81 79 -148 77 -150
-1 -1 -65 38 -141 87 -76 50 -139 89 -141 87 -2 -2 32 -68 76 -147 44 -79 78
-145 76 -147 -2 -2 -61 35 -132 81 -70 47 -130 83 -132 81 -2 -2 9 -47 25 -99
l28 -96 -72 -72 -71 -71 -33 98 c-79 243 -219 471 -395 643 l-56 55 332 332
333 333 457 0 458 0 0 -212z m369 185 c-13 -15 -89 -97 -168 -183 -80 -85
-146 -157 -148 -159 -2 -2 -3 80 -3 182 l0 187 172 0 171 0 -24 -27z m925 -7
l36 -35 0 -804 0 -805 -37 -7 c-80 -15 -183 -89 -183 -131 0 -12 -63 -14 -419
-14 l-419 0 -12 34 c-17 52 -80 103 -150 123 l-60 16 0 612 0 611 201 217 202
217 402 0 402 0 37 -34z m290 0 l36 -35 0 -798 0 -798 -125 0 -125 0 0 802 c0
796 0 802 20 808 11 4 28 17 36 31 14 20 24 24 69 24 46 0 57 -4 89 -34z
m-2856 -2 c34 -23 27 -75 -11 -88 -39 -14 -48 0 -36 57 12 52 15 54 47 31z
m-66 -31 c-3 -16 -7 -22 -10 -15 -4 13 4 42 11 42 2 0 2 -12 -1 -27z m-1501
-407 c-102 -102 -195 -187 -208 -191 -13 -3 -25 -15 -28 -28 -9 -35 -624 -643
-657 -651 -35 -8 -48 -49 -24 -75 21 -23 22 -114 1 -131 -8 -7 -15 -18 -15
-25 0 -7 -15 -41 -32 -75 -59 -113 -40 -237 47 -325 80 -80 205 -102 312 -56
28 13 58 21 67 19 9 -1 189 -173 401 -380 212 -208 390 -378 396 -378 7 0 62
47 124 104 l112 105 104 -105 c57 -57 111 -104 120 -104 17 0 22 17 74 245
l16 71 227 227 227 227 60 -60 c33 -33 65 -60 72 -60 15 0 15 2 57 189 l35
154 113 114 c132 132 120 137 139 -65 42 -474 -149 -948 -517 -1283 -311 -281
-762 -431 -1174 -390 -220 23 -375 67 -565 161 -504 251 -829 747 -861 1313
-4 62 -4 142 0 179 6 58 10 65 26 61 10 -3 35 0 54 7 113 37 117 194 6 240
-16 7 -30 14 -30 15 0 17 71 198 102 260 45 89 108 195 116 195 3 0 20 -5 37
-11 70 -26 156 23 169 96 5 27 2 48 -15 82 l-22 45 63 57 c283 254 615 386
1025 409 27 2 12 -16 -154 -182z m434 159 c178 -29 358 -91 510 -177 50 -28
92 -52 95 -55 2 -2 -74 -82 -170 -178 l-174 -175 -32 31 c-26 25 -35 29 -50
21 -11 -6 -75 -67 -144 -136 l-125 -126 -56 0 -57 0 -7 38 c-15 93 -95 180
-193 213 -34 11 -136 8 -179 -6 -22 -7 -23 -5 -23 58 0 36 5 69 10 72 6 3 10
16 10 28 0 15 60 82 192 214 l193 193 55 0 c30 0 96 -7 145 -15z m2405 -760
c0 -478 -2 -585 -13 -585 -7 0 -37 -7 -66 -16 -62 -18 -125 -72 -141 -120
l-12 -34 -407 0 -408 0 -12 118 c-7 64 -16 135 -21 157 l-9 40 82 83 c45 45
87 82 94 82 16 0 17 -7 -7 69 -11 35 -19 65 -18 66 2 1 74 -44 161 -101 86
-57 157 -101 157 -99 0 3 -36 71 -81 151 -44 80 -79 147 -77 149 2 1 67 -39
146 -91 78 -51 142 -91 142 -89 0 3 -36 71 -81 151 -44 80 -79 147 -77 149 2
1 65 -38 141 -87 76 -50 139 -89 142 -87 2 2 -33 68 -77 147 -44 79 -78 145
-76 147 1 2 65 -37 141 -87 76 -50 140 -88 142 -86 2 2 -17 39 -41 82 -25 44
-65 117 -90 163 l-46 84 67 -26 c37 -14 71 -25 75 -25 4 0 65 63 136 140 71
77 130 140 132 140 1 0 2 -263 2 -585z m-1737 483 c15 -12 -3 -33 -163 -193
-171 -171 -181 -179 -197 -162 -17 16 -9 26 157 192 96 96 177 175 180 175 4
0 14 -6 23 -12z m-88 -257 c-184 -184 -184 -185 -205 -166 l-21 19 182 182
c181 181 182 182 205 166 l23 -17 -184 -184z m313 55 c105 -110 193 -238 262
-380 51 -104 110 -271 110 -310 0 -14 -33 -54 -95 -116 -77 -76 -95 -90 -95
-72 0 29 -11 28 -167 -8 l-128 -29 -192 192 c-106 105 -193 199 -193 208 0 9
-7 22 -16 29 -13 12 -8 21 45 74 34 34 61 66 61 72 0 6 -14 23 -30 39 l-31 29
183 183 c101 101 186 183 189 183 4 0 47 -42 97 -94z m-1565 -109 c-10 -19
-31 -56 -47 -82 -35 -56 -46 -158 -26 -221 11 -31 15 -142 7 -150 -1 -2 -23 2
-49 8 -67 16 -82 1 -74 -70 6 -48 5 -53 -11 -48 -75 22 -108 25 -126 8 -14
-12 -17 -25 -13 -50 4 -29 3 -33 -12 -26 -84 35 -167 39 -239 9 l-33 -14 0 59
c0 32 5 62 10 65 6 3 10 14 10 23 0 9 138 155 308 325 l307 307 3 -54 c2 -38
-3 -65 -15 -89z m313 -23 c94 -57 134 -169 99 -273 -14 -42 -23 -54 -51 -66
-21 -9 -34 -21 -34 -33 0 -21 -51 -49 -109 -58 -74 -12 -201 46 -201 91 0 8
-9 19 -19 24 -73 40 -37 267 44 281 18 3 34 14 40 27 13 31 49 43 121 40 48
-2 73 -9 110 -33z m574 10 c12 -13 3 -25 -56 -85 -62 -62 -72 -69 -109 -69
l-40 0 85 85 c47 47 90 85 96 85 6 0 17 -7 24 -16z m43 -116 c-29 -30 -45 -38
-72 -38 l-35 0 54 55 c51 52 55 54 72 38 18 -16 17 -18 -19 -55z m92 -18 c18
-20 17 -20 -25 -20 -42 0 -43 0 -25 20 10 11 21 20 25 20 4 0 15 -9 25 -20z
m-365 -86 c0 -31 -2 -35 -15 -24 -18 15 -19 32 -3 48 17 17 18 16 18 -24z
m100 -4 c0 -39 -1 -40 -35 -40 -34 0 -35 1 -35 40 0 39 1 40 35 40 34 0 35 -1
35 -40z m140 0 l0 -40 -40 0 -40 0 0 40 0 40 40 0 40 0 0 -40z m140 0 l0 -40
-40 0 -40 0 0 40 0 40 40 0 40 0 0 -40z m54 22 c15 -18 15 -20 -4 -37 -20 -18
-20 -18 -20 18 0 43 1 43 24 19z m-484 -57 l24 -26 -82 -82 c-68 -68 -85 -80
-99 -71 -32 20 -39 41 -24 76 7 18 21 54 29 81 l16 47 56 0 c48 0 60 -4 80
-25z m130 -50 c-10 -12 -16 -13 -26 -4 -20 16 -18 19 12 19 22 0 25 -2 14 -15z
m105 -35 c-49 -50 -49 -50 -69 -30 -20 20 -20 20 9 50 23 24 37 30 69 30 l40
0 -49 -50z m110 -30 c-44 -44 -85 -80 -91 -80 -6 0 -17 7 -24 16 -11 13 -4 24
51 80 57 57 67 64 103 64 l41 0 -80 -80z m-339 -59 c-81 -81 -87 -85 -103 -68
-17 16 -13 21 67 102 80 80 85 84 102 68 18 -16 15 -21 -66 -102z m137 31 c15
-17 12 -23 -66 -100 l-83 -83 -19 21 c-19 21 -18 21 60 100 44 44 82 80 86 80
3 0 13 -8 22 -18z m251 -27 c10 -8 22 -13 26 -10 3 2 89 -79 190 -180 l183
-183 -39 -11 c-21 -6 -47 -11 -57 -11 -38 0 -30 -31 22 -84 l51 -52 -101 -92
-100 -93 -147 140 c-81 77 -203 196 -272 265 l-125 126 82 82 83 82 34 -33 35
-34 53 51 c29 29 55 52 58 51 3 0 14 -6 24 -14z m-829 -53 c50 -4 73 0 126 22
36 14 70 26 76 26 5 0 20 -11 33 -25 l24 -26 -82 -82 -82 -81 -33 32 c-18 18
-37 32 -42 32 -6 0 -71 -60 -145 -134 l-135 -135 -59 7 -59 7 -14 50 c-16 56
-34 158 -29 163 2 2 30 -4 62 -12 82 -22 98 -11 91 60 -3 30 -3 54 -1 54 3 0
25 -5 50 -11 58 -15 74 -2 74 57 l0 44 42 -21 c23 -12 70 -24 103 -27z m315
-48 c12 -13 2 -27 -70 -99 -80 -80 -85 -84 -102 -68 -18 16 -15 20 64 100 45
46 85 83 89 83 4 0 12 -7 19 -16z m0 -169 l-85 -85 -20 20 -20 20 85 85 85 85
20 -20 20 -20 -85 -85z m-8367 49 c15 -9 13 -21 -27 -134 -197 -570 -485 -930
-811 -1015 -146 -38 -309 -9 -446 80 -68 44 -189 159 -189 179 0 12 158 200
289 344 260 285 567 482 852 547 71 16 302 15 332 -1z m7485 1 c40 -17 118
-95 134 -135 29 -73 0 -197 -53 -223 -13 -7 -28 -22 -34 -35 -13 -29 -73 -52
-138 -52 -145 0 -253 132 -226 275 11 59 34 93 75 110 19 8 34 21 34 30 0 40
136 59 208 30z m622 -29 c0 -6 -26 -36 -57 -68 -53 -54 -61 -58 -102 -58 l-46
0 85 85 c79 79 85 83 102 68 10 -9 18 -21 18 -27z m943 -514 c7 -1 61 43 121
98 60 55 112 100 116 100 3 0 19 -14 35 -30 l29 -31 -203 -202 c-172 -171
-202 -197 -196 -171 4 22 2 33 -7 36 -7 3 -75 -9 -151 -26 l-138 -30 -190 190
c-104 104 -189 196 -189 206 0 9 -7 24 -16 33 -16 15 -13 21 40 74 31 31 56
63 56 71 0 7 -10 24 -22 37 l-22 24 84 84 83 84 279 -272 c153 -150 284 -273
291 -275z m-8823 448 c556 -330 825 -1339 708 -2657 l-11 -132 -37 -30 c-67
-53 -77 -129 -25 -185 14 -15 25 -38 25 -51 0 -24 -41 -255 -63 -355 l-12 -55
-44 110 c-128 322 -291 576 -497 776 -425 411 -925 443 -1343 88 -185 -158
-441 -520 -636 -901 l-91 -178 -61 83 c-183 247 -310 515 -360 763 -27 136
-25 433 5 574 81 375 294 789 631 1222 l76 98 75 -74 c155 -152 281 -208 465
-207 286 1 561 213 783 605 79 140 189 406 238 573 5 17 86 -14 174 -67z
m7940 15 c21 -25 -33 -75 -79 -75 l-35 0 44 45 c49 50 52 51 70 30z m60 -60
c11 -13 8 -15 -15 -15 -23 0 -26 2 -15 15 7 8 14 15 15 15 1 0 8 -7 15 -15z
m1350 -15 c0 -11 -19 -41 -42 -66 -51 -55 -84 -57 -109 -6 -8 19 -21 37 -29
42 -13 8 -10 10 105 38 63 16 75 14 75 -8z m1380 -1915 l0 -1935 -529 0 c-468
0 -531 -2 -545 -16 -14 -14 -16 -107 -16 -877 l0 -862 -132 -132 -132 -132
-84 81 c-63 62 -86 78 -95 69 -6 -6 -33 -107 -59 -223 l-48 -212 -486 -487
-486 -486 -121 -7 c-67 -3 -133 -9 -147 -12 -14 -2 93 55 238 128 203 103 264
138 268 155 3 12 3 26 0 32 -4 5 -151 67 -329 137 -177 70 -325 130 -329 133
-4 3 142 83 325 176 347 178 363 189 320 227 -10 8 -165 84 -345 169 -180 85
-328 156 -328 159 0 3 153 90 340 194 187 104 343 193 346 198 3 5 3 19 0 31
-4 18 -69 51 -335 172 -181 83 -327 153 -323 157 4 3 151 76 326 160 176 85
324 161 330 171 8 12 8 22 0 35 -6 9 -160 89 -342 177 -182 88 -328 163 -324
166 4 4 149 83 322 175 173 92 323 175 334 185 41 38 20 57 -195 168 -210 109
-464 261 -451 271 4 3 90 46 192 94 102 48 255 122 340 164 205 102 205 102
20 195 -74 37 -227 112 -339 166 l-203 97 323 185 c298 169 324 186 327 213 8
65 12 62 -338 230 -182 88 -327 163 -323 167 5 4 152 77 328 162 216 104 323
161 329 175 7 15 26 23 70 32 151 30 374 122 518 215 350 227 611 600 696 995
18 82 42 258 42 305 0 13 48 15 418 15 229 0 422 4 427 8 6 4 16 25 23 47 6
23 25 53 41 69 25 24 93 53 129 55 9 1 12 -392 12 -1934z m107 1920 c60 -18
109 -67 119 -120 4 -25 13 -37 28 -40 11 -3 214 -4 450 -3 l429 3 10 30 c14
46 55 83 114 105 30 11 58 20 63 20 7 0 10 -687 10 -1892 l0 -1893 -40 -32
-39 -33 -600 0 -601 0 0 1935 c0 1064 1 1935 3 1935 2 0 26 -7 54 -15z m1482
9 l31 -6 0 -1895 0 -1894 -36 -35 c-32 -30 -43 -34 -89 -34 -46 0 -57 4 -89
34 l-36 35 0 1895 0 1895 23 4 c36 7 162 8 196 1z m-4669 -91 l0 -46 -25 23
-25 24 22 23 c12 13 23 23 25 23 2 0 3 -21 3 -47z m110 7 l0 -40 -40 0 -40 0
0 40 0 40 40 0 40 0 0 -40z m140 0 l0 -40 -40 0 -40 0 0 40 0 40 40 0 40 0 0
-40z m140 0 l0 -40 -40 0 -40 0 0 40 0 40 40 0 40 0 0 -40z m1067 14 c3 -10
-4 -26 -20 -42 l-27 -26 -30 29 c-36 34 -37 42 -7 48 50 10 78 7 84 -9z
m-1407 -169 c74 -74 139 -135 145 -135 6 0 33 22 59 49 l49 50 25 -20 c14 -10
30 -19 36 -19 6 0 91 -80 189 -178 l179 -179 -61 -13 c-75 -16 -77 -28 -14
-92 l47 -48 -25 -26 c-13 -14 -59 -58 -101 -96 l-78 -70 -380 373 c-209 205
-380 377 -380 383 0 6 11 33 25 60 14 27 25 60 25 73 0 22 4 23 63 23 l62 0
135 -135z m1476 102 c23 -14 22 -55 -1 -77 l-21 -20 -33 34 -32 33 25 21 c26
20 41 23 62 9z m-1371 -7 c9 -14 99 -12 113 2 9 9 15 9 24 0 7 -7 26 -12 42
-12 30 0 28 -3 -57 -87 l-87 -88 -87 88 -88 87 52 0 c28 0 55 5 58 10 3 6 10
10 15 10 5 0 12 -4 15 -10z m1493 -99 c-13 -55 -25 -101 -28 -101 -3 0 -23 18
-45 40 -38 39 -38 40 -19 61 10 11 31 27 46 35 16 8 28 20 28 26 0 13 31 50
37 44 2 -2 -7 -49 -19 -105z m-628 -445 c-5 -21 -23 -54 -42 -73 -27 -28 -34
-31 -43 -19 -6 8 -22 16 -35 18 -15 2 -26 11 -28 23 -2 11 -11 26 -20 32 -8 7
-14 15 -11 17 4 4 182 44 186 42 1 -1 -2 -19 -7 -40z m-242 -47 c2 -16 -5 -32
-18 -44 -21 -19 -21 -18 -57 17 l-36 36 44 10 c57 13 63 11 67 -19z m72 -66
c0 -50 75 -70 117 -31 30 28 30 33 -13 -151 -5 -23 -11 -18 -94 64 l-90 89 22
23 c25 27 58 30 58 6z m-9021 -1458 c104 -22 218 -69 316 -130 106 -67 127
-83 239 -193 199 -195 376 -485 491 -801 37 -100 38 -106 27 -161 -18 -88 -89
-294 -143 -414 -201 -453 -493 -674 -859 -652 -160 9 -283 44 -465 131 -227
110 -499 312 -748 557 -155 154 -327 344 -327 363 0 18 100 219 174 348 134
236 325 510 446 640 138 147 322 263 490 306 93 25 259 27 359 6z m1145 -1448
c71 -286 100 -547 100 -892 1 -331 -23 -573 -85 -890 -95 -481 -355 -1221
-620 -1764 -203 -417 -380 -685 -576 -872 -178 -170 -326 -238 -496 -226 -250
17 -496 277 -682 722 -148 352 -368 1168 -464 1725 -135 777 -116 1373 63
1961 41 136 114 329 125 329 4 0 25 -21 46 -47 220 -264 528 -543 789 -715
414 -271 787 -347 1081 -217 197 87 371 272 505 539 51 102 139 331 161 418 7
29 16 49 20 45 3 -5 18 -56 33 -116z m11507 -143 c27 -24 24 -70 -6 -99 -30
-30 -54 -31 -89 -4 -33 26 -36 79 -6 107 24 22 74 21 101 -4z m300 -6 c18 -28
10 -76 -17 -97 -35 -27 -59 -26 -89 4 -55 54 -13 131 61 115 21 -5 41 -15 45
-22z m-1701 -127 c0 -49 0 -49 -52 -79 -143 -80 -230 -181 -267 -308 -16 -52
-37 -97 -63 -130 -62 -82 -81 -150 -76 -269 7 -157 32 -200 229 -400 l158
-160 35 34 36 35 0 -30 c0 -40 -138 -181 -173 -176 -13 2 -99 80 -203 183 -99
98 -184 179 -190 179 -5 0 -109 -100 -231 -222 l-223 -223 0 808 0 807 510 0
510 0 0 -49z m1282 22 c22 -21 39 -28 69 -28 32 0 46 6 65 28 20 23 30 27 79
27 49 0 59 -4 79 -27 19 -22 33 -28 65 -28 30 0 47 7 69 28 27 26 31 27 145
27 l117 0 0 -1255 0 -1255 -495 0 c-363 0 -495 3 -495 11 0 7 5 40 12 74 18
100 21 98 -138 58 l-138 -34 -188 188 c-103 103 -188 195 -188 203 0 9 43 58
95 110 52 52 95 102 95 110 0 9 -29 45 -65 80 l-65 64 72 73 73 73 72 -72 73
-72 221 219 c121 121 225 228 231 239 8 16 -1 29 -58 87 l-69 69 63 62 62 63
69 -69 c58 -57 71 -66 87 -58 11 6 57 49 104 96 46 47 91 86 100 86 21 -1 242
-298 284 -384 53 -108 77 -205 83 -336 8 -163 -24 -278 -109 -388 -51 -66 -94
-91 -199 -112 -51 -11 -94 -18 -96 -16 -2 1 7 22 18 46 67 139 38 334 -70 465
-22 28 -97 103 -166 168 l-125 118 -45 -38 -45 -38 158 -155 c192 -187 207
-211 207 -345 0 -109 -16 -145 -99 -223 -107 -101 -212 -127 -314 -76 -56 28
-57 38 -13 78 12 11 21 24 21 30 0 10 -438 171 -445 164 -2 -2 49 -97 113
-211 l117 -208 37 42 38 42 72 -39 c68 -37 78 -39 159 -39 78 0 91 3 160 37
40 20 97 58 126 83 49 43 58 47 160 66 59 11 126 29 148 38 91 41 196 195 224
329 20 94 14 248 -14 357 -36 141 -88 239 -219 413 -66 86 -116 162 -116 174
0 14 35 58 102 125 l102 104 -237 237 -237 237 -127 -127 c-112 -110 -132
-126 -158 -124 -18 2 -84 38 -170 96 -166 110 -251 152 -365 181 -73 19 -102
21 -220 16 -74 -3 -147 -9 -162 -13 -27 -6 -28 -5 -28 35 l0 41 602 0 602 0
28 -27z m-777 -107 c44 -15 112 -46 150 -68 125 -74 305 -198 305 -211 0 -7
-31 -44 -70 -82 -38 -38 -70 -74 -70 -80 0 -6 18 -29 40 -50 l40 -39 -27 -28
c-19 -20 -22 -28 -11 -28 8 0 23 9 33 20 19 21 19 20 117 -77 l98 -98 -62 -62
-63 -63 -97 97 c-64 64 -94 101 -88 107 6 6 10 16 10 23 0 11 -4 11 -20 1 -17
-11 -24 -8 -58 25 -21 20 -42 37 -48 37 -5 0 -113 -103 -239 -230 l-230 -230
115 -115 115 -115 -73 -72 -72 -73 -75 75 c-41 41 -73 80 -70 87 2 8 -3 13
-14 13 -9 0 -28 11 -41 25 -13 14 -30 23 -37 21 -11 -4 -13 74 -13 410 l0 415
31 -18 c44 -26 46 -40 9 -78 l-33 -34 24 -11 c55 -24 424 -158 428 -155 2 2
-48 99 -111 215 l-115 211 -37 -45 -37 -45 -48 29 c-27 17 -63 35 -80 41 l-32
11 3 127 3 126 55 12 c33 7 107 11 185 9 109 -3 143 -7 210 -30z m-505 -125
l0 -108 -57 -6 c-58 -5 -139 -36 -200 -77 l-32 -22 16 49 c19 56 57 115 105
160 35 33 148 112 161 113 4 0 7 -49 7 -109z m1492 -108 c109 -109 198 -202
198 -208 0 -17 -174 -185 -191 -185 -19 0 -39 -20 -39 -40 0 -8 -39 -55 -88
-103 l-88 -87 -57 58 -57 58 68 67 c37 37 75 67 84 67 9 0 23 9 31 21 34 48
-28 95 -65 49 -10 -12 -16 -25 -13 -29 2 -4 -27 -39 -66 -77 l-69 -69 -135
135 -135 135 53 53 c28 30 69 65 90 78 20 13 37 30 37 36 0 15 220 238 235
238 5 0 99 -89 207 -197z m-1492 -524 l0 -401 -114 106 c-187 174 -228 242
-229 371 -1 93 28 160 97 222 62 56 157 103 209 103 l37 0 0 -401z m740 64 c0
-7 6 -13 13 -13 7 0 55 -43 107 -95 l95 -95 -205 -205 c-204 -204 -205 -205
-225 -185 -19 20 -19 20 45 85 35 36 72 65 81 65 25 0 52 35 44 59 -13 42 -85
35 -85 -8 0 -9 -30 -47 -68 -84 l-67 -67 -100 100 -100 100 205 205 204 205
28 -27 c15 -15 28 -33 28 -40z m155 -553 l-205 -205 -57 58 -58 57 205 205
205 205 57 -57 58 -58 -205 -205z m-1115 -205 c0 -12 -34 -54 -85 -105 -47
-47 -85 -89 -85 -95 0 -5 34 -43 75 -85 l75 -75 -390 -390 -390 -390 0 114 c0
104 2 117 22 138 23 25 18 44 -7 23 -13 -11 -15 30 -15 381 l0 394 227 227
228 228 172 -172 c111 -111 173 -180 173 -193z m308 193 c8 -8 9 -15 0 -25
-14 -17 -3 -29 15 -15 10 9 30 -6 90 -66 l77 -77 -205 -205 -205 -205 -20 20
-20 20 85 85 c48 48 98 88 117 94 l33 11 -4 177 c-3 196 2 221 37 186z m355
-150 c-72 -71 -72 -72 -93 -53 l-21 19 73 73 72 73 21 -20 20 -20 -72 -72z
m-462 -162 c-11 -22 -59 -79 -106 -126 l-85 -84 -65 64 -65 64 77 79 c43 43
88 83 101 88 12 5 25 17 29 26 3 10 33 46 67 81 l61 63 3 -107 c2 -90 0 -113
-17 -148z m3997 -11 l82 -154 0 -278 0 -278 -29 -13 c-17 -7 -36 -26 -43 -43
-13 -29 -14 -29 -92 -29 -79 0 -79 0 -111 38 -29 33 -38 37 -80 37 -42 0 -51
-4 -80 -37 l-32 -38 -107 0 c-58 0 -106 2 -106 5 0 10 505 945 510 945 3 0 42
-70 88 -155z m-3655 87 c15 -17 4 -30 -188 -222 -203 -203 -204 -204 -225
-185 l-21 19 203 203 c112 112 206 203 209 203 3 0 13 -8 22 -18z m107 -107
l54 -55 -82 -83 c-50 -50 -95 -87 -115 -93 -23 -6 -33 -16 -35 -34 -2 -15 -37
-59 -90 -112 l-87 -88 -57 57 -58 58 202 202 c112 112 205 203 208 203 3 0 30
-25 60 -55z m-1607 -1147 c-69 -70 -92 -87 -108 -82 -11 4 -21 11 -23 15 -6
14 -22 10 -22 -5 0 -7 -7 -19 -16 -27 -10 -8 -14 -24 -12 -46 4 -30 -8 -44
-204 -240 l-207 -207 -38 22 c-212 126 -461 212 -666 229 -37 3 -69 9 -72 13
-2 3 209 218 468 478 l472 471 214 47 c139 31 215 53 218 62 4 8 -25 45 -73
93 l-79 79 115 115 115 115 3 -522 2 -522 -87 -88z m-64 748 c-8 -8 -339 -80
-344 -74 -4 4 58 301 71 338 3 9 49 -30 142 -123 75 -75 134 -138 131 -141z
m5570 -234 c111 -206 201 -376 201 -378 0 -2 -180 -4 -400 -4 l-400 0 0 53 c0
47 3 54 30 69 17 9 35 29 42 43 11 24 15 25 95 25 65 0 83 -3 83 -14 0 -8 14
-26 31 -40 61 -51 147 -25 170 52 13 47 1 83 -40 113 l-31 23 0 230 c0 134 4
225 9 216 5 -8 99 -183 210 -388z m-4516 370 c15 -17 -9 -43 -408 -442 l-425
-425 0 40 c0 39 7 47 402 442 222 222 406 403 409 403 3 0 13 -8 22 -18z m69
-69 c18 -16 3 -33 -384 -420 -396 -396 -404 -403 -443 -403 l-40 0 420 420
c231 231 422 420 424 420 3 0 13 -8 23 -17z m601 -161 c97 -97 177 -180 177
-183 0 -3 -25 -11 -56 -18 -83 -19 -81 -32 15 -122 l82 -76 -126 -132 -127
-131 -647 0 -646 0 387 387 388 388 69 -69 c58 -57 71 -66 87 -58 11 6 59 51
109 101 49 50 94 91 100 91 6 0 90 -80 188 -178z m463 -219 c-13 -67 -27 -74
-102 -52 -41 12 -94 53 -83 63 7 7 152 44 175 45 21 1 21 -1 10 -56z m-204
-40 c21 -20 38 -42 38 -48 0 -6 -11 -22 -25 -35 -28 -26 -28 -26 -108 49 l-47
46 37 11 c58 18 64 17 105 -23z m178 -82 c0 -18 -30 -164 -34 -169 -3 -2 -32
22 -66 54 l-60 57 22 24 c12 13 32 23 44 23 13 0 26 5 29 10 8 13 65 13 65 1z
m1050 -156 l0 -165 -731 0 -731 0 108 115 c59 63 110 115 112 115 2 0 42 -34
88 -77 57 -51 88 -73 95 -66 5 5 20 62 32 126 l22 117 503 0 502 0 0 -165z
m1272 55 c-48 -93 -55 -112 -42 -120 9 -6 112 -10 248 -10 l232 0 0 -995 0
-995 -2364 0 -2364 0 -7 82 c-3 46 -13 121 -21 168 l-14 85 233 235 c128 129
262 267 299 305 l67 70 -19 64 c-11 35 -19 66 -16 68 2 2 68 -38 147 -89 177
-115 173 -113 167 -102 -3 5 -33 61 -68 124 -34 63 -72 130 -83 149 -24 40
-33 45 133 -64 157 -102 154 -100 148 -89 -3 5 -33 61 -68 124 -34 63 -72 131
-83 150 l-21 34 39 -24 c22 -13 85 -54 140 -90 137 -91 129 -87 109 -49 -17
35 -86 159 -131 237 l-25 44 24 -13 c12 -7 61 -38 108 -69 47 -31 104 -69 128
-84 51 -32 58 -50 -59 161 -44 78 -79 144 -79 146 0 3 28 -5 62 -19 34 -13 67
-24 74 -24 7 0 76 68 154 150 l143 150 788 0 c703 0 789 2 803 16 13 13 16 46
16 200 l0 184 630 0 630 0 -58 -110z m366 85 c7 -14 25 -34 42 -43 27 -15 30
-22 30 -69 l0 -53 -216 0 c-122 0 -214 4 -212 9 2 5 23 48 48 95 l45 86 126 0
c125 0 126 0 137 -25z m-4995 -647 c-164 -164 -300 -298 -303 -298 -3 0 -14 7
-25 16 -18 14 -10 24 184 218 162 162 211 206 237 211 34 6 54 29 54 62 0 9
33 50 73 91 l72 73 3 -37 c3 -37 -1 -42 -295 -336z m97 -43 c-173 -173 -317
-315 -321 -315 -3 0 -14 7 -25 15 -18 13 -2 31 281 315 293 293 301 300 340
300 l40 0 -315 -315z m1625 273 c-109 -118 -201 -208 -211 -208 -7 0 -54 16
-104 35 -50 19 -96 35 -102 35 -5 0 6 -28 25 -62 97 -177 119 -221 106 -213
-8 5 -72 46 -142 92 -70 46 -130 83 -133 83 -3 0 13 -34 35 -75 23 -41 60
-110 83 -152 23 -42 35 -73 27 -68 -8 5 -72 46 -142 92 -70 46 -130 83 -133
83 -3 0 13 -34 35 -75 23 -41 60 -110 83 -152 l42 -77 -39 24 c-22 13 -86 54
-142 92 -56 37 -105 68 -109 68 -3 0 13 -34 35 -75 23 -41 60 -109 82 -151
l42 -76 -29 15 c-16 9 -76 48 -134 86 -57 39 -106 68 -108 66 -2 -2 10 -51 28
-110 l31 -106 -50 -57 c-67 -76 -509 -517 -513 -512 -2 3 -16 44 -31 92 -65
205 -199 428 -354 588 l-92 95 332 333 332 332 644 0 645 0 -39 -42z m-1601
16 c24 -24 20 -61 -9 -80 -23 -15 -27 -15 -50 0 -42 28 -24 96 25 96 10 0 26
-7 34 -16z m-1573 -448 c-102 -102 -195 -187 -208 -191 -13 -3 -25 -15 -28
-28 -9 -34 -624 -645 -654 -649 -38 -5 -49 -33 -28 -69 21 -38 23 -122 2 -139
-8 -7 -15 -18 -15 -25 0 -7 -15 -41 -32 -75 -58 -113 -40 -236 47 -322 59 -59
98 -73 195 -73 61 0 94 5 119 18 19 9 44 17 55 17 14 0 148 -123 410 -380 214
-209 394 -380 400 -380 6 1 61 48 121 105 l110 104 105 -104 c58 -58 113 -105
123 -105 9 0 17 2 17 3 0 2 15 72 34 155 34 150 35 153 84 209 28 32 130 137
226 232 l175 175 66 -63 c56 -54 68 -62 80 -50 7 8 30 88 50 179 26 117 43
172 58 190 43 50 192 200 198 200 15 0 33 -183 33 -320 -3 -432 -169 -812
-487 -1116 -259 -248 -587 -393 -952 -423 -718 -57 -1382 385 -1605 1069 -57
175 -75 287 -75 480 0 204 6 240 41 240 34 0 78 24 103 56 40 51 18 154 -41
185 -13 6 -24 13 -25 14 -3 2 33 94 64 165 29 66 107 195 165 272 l50 68 51
-6 c93 -10 155 53 144 147 l-6 48 72 53 c40 30 95 68 122 85 84 53 266 136
297 135 16 0 53 10 82 24 81 37 252 68 396 73 l45 1 -184 -184z m444 158 c178
-28 361 -94 520 -185 l76 -43 -175 -175 -175 -175 -29 27 c-15 15 -32 27 -38
27 -5 0 -70 -61 -144 -135 l-135 -135 -55 0 -55 0 -12 51 c-16 67 -67 137
-128 174 -44 27 -56 30 -134 30 -47 0 -96 -4 -108 -8 -22 -8 -23 -7 -23 57 0
36 5 68 10 71 6 3 10 16 10 28 0 15 62 83 197 219 l197 198 56 -6 c30 -3 96
-12 145 -20z m669 -282 c3 -5 -76 -89 -174 -187 -178 -178 -179 -179 -200
-160 l-21 19 177 177 c147 148 181 176 195 168 10 -5 20 -13 23 -17z m-98
-251 c-184 -184 -185 -185 -206 -166 l-21 19 182 182 c181 181 182 182 206
167 l25 -16 -186 -186z m301 70 c143 -149 262 -341 336 -541 60 -162 63 -145
-45 -260 -60 -65 -94 -95 -96 -85 -5 21 -27 19 -172 -14 l-125 -29 -192 192
c-106 105 -193 199 -193 208 0 9 -6 23 -14 30 -12 11 -5 23 45 75 32 34 59 65
59 70 0 5 -14 22 -30 38 l-31 29 183 183 c101 101 186 183 191 183 4 0 42 -36
84 -79z m-1548 -111 c-13 -29 -18 -38 -56 -100 -34 -54 -44 -164 -21 -220 8
-21 12 -58 10 -93 -3 -50 -6 -57 -20 -52 -10 4 -36 9 -58 12 -37 5 -43 3 -49
-17 -4 -12 -4 -41 0 -65 l6 -43 -60 14 c-33 7 -67 11 -75 8 -20 -8 -29 -39
-21 -71 5 -22 3 -24 -12 -18 -93 39 -145 42 -220 16 l-53 -18 0 58 c0 32 5 61
10 64 6 3 10 14 10 23 0 9 138 155 308 325 l307 307 3 -52 c2 -29 -2 -64 -9
-78z m307 -36 c98 -60 138 -179 94 -282 -14 -33 -29 -52 -39 -52 -22 0 -41
-19 -41 -40 0 -26 -75 -55 -139 -54 -75 1 -171 52 -171 90 0 7 -9 18 -19 23
-73 40 -38 267 44 281 18 3 34 14 42 30 16 32 42 40 119 37 48 -2 72 -9 110
-33z m512 -71 c-63 -63 -77 -73 -108 -73 l-35 0 90 90 c84 85 90 89 107 73 18
-16 16 -20 -54 -90z m124 20 c18 -16 17 -18 -19 -55 -31 -32 -44 -38 -77 -38
l-40 0 54 55 c30 30 56 55 59 55 2 0 13 -8 23 -17z m73 -73 c18 -20 17 -20
-25 -20 -42 0 -43 0 -25 20 10 11 21 20 25 20 4 0 15 -9 25 -20z m-365 -82 c0
-30 -1 -31 -17 -16 -13 14 -14 20 -3 32 18 22 20 20 20 -16z m100 -3 c0 -33
-2 -35 -35 -35 -33 0 -35 2 -35 35 0 33 2 35 35 35 33 0 35 -2 35 -35z m140 0
c0 -34 -1 -35 -40 -35 -39 0 -40 1 -40 35 0 34 1 35 40 35 39 0 40 -1 40 -35z
m140 0 c0 -34 -1 -35 -40 -35 -39 0 -40 1 -40 35 0 34 1 35 40 35 39 0 40 -1
40 -35z m54 17 c15 -18 15 -20 -4 -37 -20 -18 -20 -18 -20 18 0 43 1 43 24 19z
m-486 -55 l22 -23 -85 -84 c-83 -83 -85 -84 -105 -65 -25 23 -25 45 -1 93 10
20 22 52 26 70 6 32 7 32 64 32 47 0 61 -4 79 -23z m139 -44 c-16 -16 -18 -16
-34 0 -16 16 -15 17 17 17 32 0 33 -1 17 -17z m106 -35 c-52 -51 -52 -52 -73
-33 l-20 19 32 33 c26 27 40 33 72 33 l41 0 -52 -52z m105 -35 c-87 -86 -87
-87 -108 -68 l-21 19 68 68 c61 62 71 68 108 68 l40 0 -87 -87z m-275 39 c15
-17 12 -23 -66 -100 l-83 -83 -19 21 c-19 21 -18 21 60 100 44 44 82 80 86 80
3 0 13 -8 22 -18z m70 -70 c15 -17 12 -23 -66 -100 l-83 -83 -19 21 c-19 21
-18 21 60 100 44 44 82 80 86 80 3 0 13 -8 22 -18z m242 -22 c3 -5 14 -10 23
-10 10 0 100 -83 201 -184 l183 -183 -58 -14 c-31 -8 -59 -20 -62 -27 -2 -6
19 -35 47 -65 l50 -53 -101 -92 -101 -92 -216 209 c-119 115 -241 235 -271
265 l-55 56 82 82 83 82 34 -33 35 -34 53 51 c56 54 63 58 73 42z m-800 -55
c53 0 81 6 116 23 56 27 81 28 104 2 19 -20 18 -22 -65 -105 l-84 -85 -31 30
c-17 17 -35 30 -41 30 -5 0 -68 -58 -139 -130 l-130 -130 -61 0 -61 0 -22 63
c-11 34 -23 83 -25 110 l-4 48 37 -8 c20 -4 54 -8 76 -8 l40 0 -1 58 c-1 31 1
57 5 57 3 0 23 -5 43 -10 56 -16 78 -1 78 55 l0 44 48 -22 c33 -15 67 -22 117
-22z m295 -51 c12 -13 1 -27 -71 -100 -83 -84 -84 -84 -103 -64 -20 20 -20 20
59 100 44 44 85 80 91 80 6 0 17 -7 24 -16z m0 -169 l-85 -85 -20 20 -20 20
85 85 85 85 20 -20 20 -20 -85 -85z m-863 43 c23 -10 45 -28 48 -39 4 -11 17
-27 30 -35 71 -46 56 -259 -19 -278 -16 -4 -28 -15 -32 -30 -13 -52 -149 -74
-229 -37 -85 39 -137 119 -137 213 0 77 35 151 75 158 16 3 33 15 40 30 25 50
138 59 224 18z m588 2 c18 -20 17 -21 -41 -84 -57 -61 -61 -64 -109 -65 l-50
-1 85 85 c47 47 87 85 91 85 3 0 14 -9 24 -20z m961 -540 c5 0 57 45 117 100
59 55 111 100 115 100 5 0 20 -12 34 -27 l26 -28 -200 -204 c-164 -168 -199
-199 -194 -174 4 17 3 34 -2 37 -5 3 -73 -9 -151 -26 l-142 -32 -190 190
c-131 131 -189 196 -189 211 0 12 -8 26 -17 32 -16 9 -11 17 40 68 31 32 57
65 57 73 0 7 -10 24 -22 37 l-22 24 84 84 84 84 282 -274 c155 -151 286 -275
290 -275z m-901 420 c-23 -24 -37 -30 -69 -30 l-40 0 49 50 c49 50 49 50 69
30 20 -20 20 -20 -9 -50z m75 -15 c11 -13 8 -15 -15 -15 -23 0 -26 2 -15 15 7
8 14 15 15 15 1 0 8 -7 15 -15z m1350 -11 c0 -8 -21 -38 -48 -65 -44 -46 -49
-50 -75 -40 -15 6 -27 18 -27 27 0 10 -7 26 -17 36 -9 10 -14 20 -12 22 6 4
140 34 162 35 9 1 17 -6 17 -15z m-1700 -71 l0 -46 -25 23 -25 24 22 23 c12
13 23 23 25 23 2 0 3 -21 3 -47z m110 -3 l0 -40 -40 0 -40 0 0 40 0 40 40 0
40 0 0 -40z m140 0 l0 -40 -40 0 -40 0 0 40 0 40 40 0 40 0 0 -40z m140 0 l0
-40 -40 0 -40 0 0 40 0 40 40 0 40 0 0 -40z m1070 6 c0 -7 -11 -23 -25 -36
l-25 -24 -30 29 c-17 16 -30 32 -30 35 0 4 19 11 43 17 43 10 67 2 67 -21z
m-1410 -161 c74 -74 140 -135 145 -135 5 0 32 23 61 51 44 44 52 48 64 35 7
-9 20 -16 29 -16 9 0 98 -82 199 -183 l183 -183 -61 -12 c-75 -16 -77 -31 -15
-92 25 -24 45 -47 45 -51 0 -4 -45 -48 -99 -98 l-100 -92 -380 373 c-210 205
-381 378 -381 385 0 6 11 33 25 59 14 26 25 57 25 69 0 33 10 38 70 31 55 -7
55 -7 190 -141z m1478 103 c18 -18 14 -53 -8 -73 -20 -18 -21 -18 -50 10 l-30
29 22 23 c24 25 48 29 66 11z m120 -102 c-12 -58 -25 -106 -28 -106 -3 0 -25
20 -49 44 l-42 43 31 27 c17 14 38 26 45 26 8 0 17 10 21 23 7 24 35 60 41 53
3 -2 -6 -52 -19 -110z m-1493 94 c9 -14 98 -13 113 2 8 8 15 8 24 0 7 -5 26
-12 41 -14 27 -3 25 -6 -55 -86 l-83 -82 -85 85 -85 85 47 0 c26 0 50 5 53 10
3 6 10 10 15 10 5 0 12 -4 15 -10z m871 -516 c-3 -9 -6 -24 -6 -35 0 -10 -17
-37 -37 -60 -29 -32 -38 -37 -45 -25 -4 8 -22 17 -38 21 -20 4 -30 13 -30 25
0 9 -10 24 -22 32 -20 13 -15 16 73 35 118 26 112 26 105 7z m-248 -75 c2 -15
-5 -32 -18 -44 -20 -18 -21 -18 -56 16 l-35 34 38 12 c52 16 67 12 71 -18z
m72 -68 c0 -25 36 -51 69 -51 14 0 35 10 48 22 13 12 23 17 23 12 -1 -15 -38
-175 -42 -179 -2 -3 -44 36 -93 85 l-89 89 25 20 c31 26 59 27 59 2z"/>
<path d="M14785 26328 c-10 -24 -1 -123 10 -121 14 4 19 113 6 126 -7 7 -12 5
-16 -5z"/>
<path d="M14610 26273 c1 -15 88 -108 95 -101 4 4 -11 30 -35 58 -38 46 -60
61 -60 43z"/>
<path d="M14931 26228 c-23 -28 -39 -54 -35 -57 6 -6 94 88 94 101 0 20 -22 4
-59 -44z"/>
<path d="M14486 26141 c9 -10 113 -51 127 -51 4 0 7 4 7 9 0 4 -25 18 -56 30
-59 22 -95 28 -78 12z"/>
<path d="M15040 26130 c-24 -9 -46 -23 -48 -30 -5 -14 16 -9 86 21 74 32 41
40 -38 9z"/>
<path d="M14733 26121 c-99 -45 -118 -172 -36 -248 19 -18 43 -33 53 -33 15 0
19 -9 22 -47 3 -40 6 -48 23 -48 16 0 21 8 23 43 3 37 7 44 36 56 40 17 82 66
91 107 16 70 -25 148 -92 175 -43 19 -70 17 -120 -5z m134 -27 c33 -21 63 -73
63 -110 0 -72 -86 -143 -157 -129 -96 18 -137 133 -77 212 39 52 115 64 171
27z"/>
<path d="M14455 25980 c-3 -5 0 -13 8 -16 23 -8 127 0 130 11 3 14 -129 19
-138 5z"/>
<path d="M15005 25980 c-3 -5 0 -13 8 -16 23 -8 127 0 130 11 3 14 -129 19
-138 5z"/>
<path d="M14774 25347 c-3 -8 -4 -34 -2 -58 2 -36 7 -44 23 -44 18 0 20 7 20
55 0 44 -3 55 -18 58 -9 2 -20 -3 -23 -11z"/>
<path d="M14782 25188 c-13 -13 -16 -75 -6 -102 3 -9 12 -16 19 -16 17 0 25
23 25 70 0 42 -19 67 -38 48z"/>
<path d="M14776 25014 c-10 -27 -7 -89 6 -102 19 -19 38 6 38 48 0 47 -8 70
-25 70 -7 0 -16 -7 -19 -16z"/>
<path d="M14774 24847 c-3 -8 -4 -34 -2 -58 2 -36 7 -44 23 -44 18 0 20 7 20
55 0 44 -3 55 -18 58 -9 2 -20 -3 -23 -11z"/>
<path d="M14782 21478 c-7 -7 -12 -30 -12 -53 0 -23 5 -46 12 -53 19 -19 38 6
38 53 0 47 -19 72 -38 53z"/>
<path d="M14774 21296 c-3 -13 -4 -38 -2 -57 2 -26 8 -34 23 -34 15 0 21 8 23
34 5 46 -5 81 -23 81 -8 0 -17 -11 -21 -24z"/>
<path d="M14777 21144 c-9 -9 -9 -77 -1 -98 3 -9 12 -16 20 -16 29 0 32 112 4
118 -9 1 -19 0 -23 -4z"/>
<path d="M14782 20978 c-7 -7 -12 -30 -12 -53 0 -23 5 -46 12 -53 19 -19 38 6
38 53 0 47 -19 72 -38 53z"/>
<path d="M14782 17578 c-13 -13 -16 -75 -6 -102 3 -9 12 -16 19 -16 17 0 25
23 25 70 0 42 -19 67 -38 48z"/>
<path d="M14774 17407 c-3 -8 -4 -34 -2 -58 2 -36 7 -44 23 -44 18 0 20 7 20
55 0 44 -3 55 -18 58 -9 2 -20 -3 -23 -11z"/>
<path d="M14774 17237 c-3 -8 -4 -34 -2 -58 2 -36 7 -44 23 -44 18 0 20 7 20
55 0 44 -3 55 -18 58 -9 2 -20 -3 -23 -11z"/>
<path d="M14782 17078 c-13 -13 -16 -75 -6 -102 3 -9 12 -16 19 -16 17 0 25
23 25 70 0 42 -19 67 -38 48z"/>
<path d="M14775 16920 c-7 -11 63 -80 82 -80 30 0 24 26 -12 57 -39 34 -59 40
-70 23z"/>
<path d="M14900 16807 c0 -14 72 -77 88 -77 6 0 12 7 15 15 4 9 -9 26 -32 45
-41 32 -71 39 -71 17z"/>
<path d="M15033 16703 c-4 -11 5 -26 33 -50 44 -37 52 -39 61 -17 4 11 -6 27
-33 50 -45 38 -52 40 -61 17z"/>
<path d="M15160 16591 c0 -22 75 -85 90 -76 19 12 10 32 -29 63 -46 37 -61 40
-61 13z"/>
<path d="M13891 14113 c0 -7 -8 -13 -16 -13 -8 0 -15 -4 -15 -10 0 -5 4 -10
10 -10 5 0 6 -8 3 -17 -6 -16 -5 -16 10 -4 11 9 17 10 17 2 0 -6 5 -11 11 -11
5 0 7 5 4 10 -4 6 -1 18 7 27 11 14 11 16 -4 10 -11 -4 -18 0 -21 11 -3 9 -5
11 -6 5z"/>
<path d="M13730 14090 c-15 -28 -3 -41 15 -17 18 25 60 19 60 -8 0 -13 -8 -21
-22 -23 -13 -2 -23 -7 -23 -12 0 -5 10 -10 23 -12 16 -2 22 -10 22 -28 0 -32
-42 -41 -62 -14 -16 22 -31 9 -17 -14 17 -26 76 -27 99 -2 18 20 18 24 4 49
-12 20 -13 31 -5 44 17 26 -5 51 -47 55 -28 2 -38 -1 -47 -18z"/>
<path d="M8174 16226 c-30 -13 -44 -33 -44 -62 0 -21 27 -17 33 6 3 11 17 25
32 32 25 11 29 10 46 -11 17 -21 18 -26 6 -45 -8 -12 -24 -22 -36 -24 -31 -5
-26 -19 9 -27 55 -12 64 -76 13 -96 -28 -11 -57 1 -73 31 -15 29 -43 27 -35
-2 11 -36 43 -58 87 -58 73 0 114 76 68 125 -18 20 -19 23 -5 35 8 7 15 23 15
36 0 24 -31 64 -49 64 -5 0 -15 2 -23 5 -7 2 -27 -2 -44 -9z"/>
<path d="M8380 16220 c0 -19 -4 -21 -25 -16 -30 8 -34 -10 -4 -19 16 -5 18 -9
8 -21 -16 -20 -3 -30 17 -13 13 11 18 11 21 2 3 -7 9 -13 15 -13 5 0 6 9 3 20
-4 13 -1 22 9 26 23 9 19 26 -4 19 -14 -4 -20 -2 -20 9 0 8 -4 18 -10 21 -5 3
-10 -4 -10 -15z"/>
<path d="M16770 14646 c0 -7 -3 -28 -6 -45 l-7 -32 40 7 c33 5 41 3 47 -11 16
-43 -30 -75 -62 -43 -17 17 -28 2 -12 -17 16 -20 64 -19 84 1 9 8 16 28 16 44
0 32 -23 50 -63 50 -20 0 -24 4 -20 20 4 15 14 20 39 20 19 0 34 5 34 10 0 6
-20 10 -45 10 -32 0 -45 -4 -45 -14z"/>
<path d="M16242 14100 c-23 -32 -42 -64 -42 -70 0 -5 18 -10 40 -10 33 0 40
-3 40 -20 0 -11 5 -20 10 -20 6 0 10 7 10 16 0 9 8 23 18 30 16 13 16 13 0 14
-15 0 -18 10 -18 60 0 33 -4 60 -8 60 -4 0 -27 -27 -50 -60z m38 -25 c0 -31
-3 -35 -25 -35 -14 0 -25 3 -25 6 0 8 40 64 46 64 2 0 4 -16 4 -35z"/>
<path d="M16470 15255 c-18 -19 -30 -38 -27 -42 8 -7 77 55 77 69 0 16 -17 7
-50 -27z"/>
<path d="M16350 15135 c-22 -23 -29 -35 -19 -35 15 0 69 49 69 63 0 15 -18 5
-50 -28z"/>
<path d="M14877 13702 c-40 -42 -33 -62 8 -22 19 19 35 38 35 42 0 15 -16 8
-43 -20z"/>
<path d="M14757 13582 c-40 -42 -33 -62 8 -22 19 19 35 38 35 42 0 15 -16 8
-43 -20z"/>
<path d="M14635 13460 c-42 -44 -21 -50 23 -7 24 24 31 37 21 37 -8 0 -28 -13
-44 -30z"/>
<path d="M14520 13345 c-19 -19 -30 -38 -26 -42 3 -4 23 9 42 29 20 19 32 38
27 41 -6 4 -25 -9 -43 -28z"/>
<path d="M14402 13227 c-18 -18 -29 -36 -25 -40 7 -8 73 51 73 65 0 16 -17 7
-48 -25z"/>
<path d="M14165 12990 c-42 -44 -21 -50 23 -7 24 24 31 37 21 37 -8 0 -28 -13
-44 -30z"/>
<path d="M14062 12888 c-14 -18 -31 -107 -22 -113 11 -7 16 3 25 50 3 22 14
48 22 58 14 15 14 17 1 17 -9 0 -20 -6 -26 -12z"/>
<path d="M15602 13448 c-14 -14 -16 -38 -3 -38 5 0 11 7 15 15 3 8 17 15 31
15 19 0 25 -5 25 -21 0 -12 -8 -23 -20 -26 -27 -7 -25 -21 3 -25 16 -2 22 -10
22 -28 0 -21 -5 -26 -32 -28 -25 -2 -33 1 -33 12 0 9 -7 16 -15 16 -19 0 -19
-14 1 -34 18 -19 75 -21 92 -4 15 15 16 64 2 73 -7 4 -7 13 0 26 17 30 -4 59
-43 59 -18 0 -38 -5 -45 -12z"/>
<path d="M16422 13008 c-14 -14 -16 -48 -3 -48 5 0 11 9 14 21 4 16 12 20 34
17 43 -5 41 -33 -6 -65 -22 -15 -45 -40 -50 -55 l-10 -28 60 0 c33 0 59 4 59
10 0 6 -20 10 -45 10 -25 0 -45 4 -45 9 0 6 18 20 40 32 43 24 60 60 43 88
-12 20 -74 26 -91 9z"/>
<path d="M13912 10558 c-14 -14 -16 -48 -3 -48 5 0 11 9 14 21 4 16 12 20 34
17 43 -5 41 -33 -6 -65 -22 -15 -45 -40 -50 -55 l-10 -28 60 0 c33 0 59 4 59
10 0 6 -20 10 -45 10 -25 0 -45 4 -45 9 0 6 18 20 40 32 43 24 60 60 43 88
-12 20 -74 26 -91 9z"/>
<path d="M13244 9855 c-9 -14 -13 -29 -9 -33 4 -4 14 3 22 16 9 12 26 22 39
22 19 0 24 -5 24 -25 0 -19 -10 -31 -35 -46 -34 -21 -55 -46 -55 -68 0 -7 24
-11 60 -11 33 0 60 4 60 10 0 6 -23 10 -51 10 -57 0 -57 8 1 45 43 27 56 55
40 85 -16 31 -75 28 -96 -5z"/>
<path d="M12470 11651 c0 -5 -9 -13 -20 -16 -11 -3 -20 -11 -20 -16 0 -5 9 -9
20 -9 18 0 20 -7 20 -60 0 -33 4 -60 10 -60 6 0 10 35 10 85 0 50 -4 85 -10
85 -5 0 -10 -4 -10 -9z"/>
<path d="M11790 11001 c0 -5 -9 -13 -20 -16 -11 -3 -20 -11 -20 -16 0 -5 9 -9
20 -9 18 0 20 -7 20 -60 0 -33 4 -60 10 -60 6 0 10 35 10 85 0 50 -4 85 -10
85 -5 0 -10 -4 -10 -9z"/>
<path d="M13891 5513 c0 -7 -8 -13 -16 -13 -8 0 -15 -4 -15 -10 0 -5 4 -10 10
-10 5 0 6 -8 3 -17 -6 -16 -5 -16 10 -4 11 9 17 10 17 2 0 -6 5 -11 11 -11 5
0 7 5 4 10 -4 6 -1 18 7 27 11 14 11 16 -4 10 -11 -4 -18 0 -21 11 -3 9 -5 11
-6 5z"/>
<path d="M13730 5490 c-15 -28 -3 -41 15 -17 18 25 60 19 60 -8 0 -13 -8 -21
-22 -23 -13 -2 -23 -7 -23 -12 0 -5 10 -10 23 -12 16 -2 22 -10 22 -28 0 -32
-42 -41 -62 -14 -16 22 -31 9 -17 -14 17 -26 76 -27 99 -2 18 20 18 24 4 49
-12 20 -13 31 -5 44 17 26 -5 51 -47 55 -28 2 -38 -1 -47 -18z"/>
<path d="M16770 6046 c0 -7 -3 -28 -6 -45 l-7 -32 40 7 c33 5 41 3 47 -11 16
-43 -30 -75 -62 -43 -17 17 -28 2 -12 -17 16 -20 64 -19 84 1 9 8 16 28 16 44
0 32 -23 50 -63 50 -20 0 -24 4 -20 20 4 15 14 20 39 20 19 0 34 5 34 10 0 6
-20 10 -45 10 -32 0 -45 -4 -45 -14z"/>
<path d="M16242 5510 c-23 -32 -42 -64 -42 -70 0 -5 18 -10 40 -10 33 0 40 -3
40 -20 0 -11 5 -20 10 -20 6 0 10 7 10 16 0 9 8 23 18 30 16 13 16 13 0 14
-15 0 -18 10 -18 60 0 33 -4 60 -8 60 -4 0 -27 -27 -50 -60z m38 -25 c0 -31
-3 -35 -25 -35 -14 0 -25 3 -25 6 0 8 40 64 46 64 2 0 4 -16 4 -35z"/>
<path d="M15577 5822 c-40 -42 -33 -62 8 -22 19 19 35 38 35 42 0 15 -16 8
-43 -20z"/>
<path d="M16470 6655 c-18 -19 -31 -37 -28 -40 7 -7 56 32 68 56 17 30 -3 22
-40 -16z"/>
<path d="M16350 6535 c-22 -23 -29 -35 -19 -35 9 0 25 10 36 23 50 55 35 66
-17 12z"/>
<path d="M14910 5215 c-22 -23 -29 -35 -19 -35 15 0 69 49 69 63 0 15 -18 5
-50 -28z"/>
<path d="M14801 5106 c-19 -20 -31 -39 -27 -43 9 -9 69 52 65 66 -3 7 -19 -4
-38 -23z"/>
<path d="M14680 4985 c-19 -19 -30 -38 -26 -42 3 -4 23 9 42 29 20 19 32 38
27 41 -6 4 -25 -9 -43 -28z"/>
<path d="M14560 4865 c-18 -19 -30 -38 -27 -42 8 -7 77 55 77 69 0 16 -17 7
-50 -27z"/>
<path d="M14442 4747 c-18 -18 -29 -36 -25 -40 7 -8 73 51 73 65 0 16 -17 7
-48 -25z"/>
<path d="M14211 4516 c-19 -20 -31 -39 -27 -43 9 -9 69 52 65 66 -3 7 -19 -4
-38 -23z"/>
<path d="M14095 4400 c-38 -40 -23 -52 16 -13 17 17 27 33 22 36 -6 4 -23 -7
-38 -23z"/>
<path d="M14048 4325 c-3 -5 -9 -29 -13 -52 -8 -52 11 -60 20 -9 8 38 3 77 -7
61z"/>
<path d="M15602 4858 c-14 -14 -16 -38 -3 -38 5 0 11 7 15 15 3 8 17 15 31 15
19 0 25 -5 25 -21 0 -12 -8 -23 -20 -26 -27 -7 -25 -21 3 -25 16 -2 22 -10 22
-28 0 -21 -5 -26 -32 -28 -25 -2 -33 1 -33 12 0 9 -7 16 -15 16 -19 0 -19 -14
1 -34 18 -19 75 -21 92 -4 15 15 16 64 2 73 -7 4 -7 13 0 26 17 30 -4 59 -43
59 -18 0 -38 -5 -45 -12z"/>
<path d="M16422 4408 c-14 -14 -16 -48 -3 -48 5 0 11 9 14 21 4 16 12 20 34
17 43 -5 41 -33 -6 -65 -22 -15 -45 -40 -50 -55 l-10 -28 60 0 c33 0 59 4 59
10 0 6 -20 10 -45 10 -25 0 -45 4 -45 9 0 6 18 20 40 32 43 24 60 60 43 88
-12 20 -74 26 -91 9z"/>
<path d="M13912 1928 c-14 -14 -16 -48 -3 -48 5 0 11 9 14 21 4 16 12 20 34
17 43 -5 41 -33 -6 -65 -22 -15 -45 -40 -50 -55 l-10 -28 60 0 c33 0 59 4 59
10 0 6 -20 10 -45 10 -25 0 -45 4 -45 9 0 6 18 20 40 32 43 24 60 60 43 88
-12 20 -74 26 -91 9z"/>
<path d="M13244 1255 c-9 -14 -13 -29 -9 -33 4 -4 14 3 22 16 9 12 26 22 39
22 19 0 24 -5 24 -25 0 -19 -10 -31 -35 -46 -34 -21 -55 -46 -55 -68 0 -7 24
-11 60 -11 33 0 60 4 60 10 0 6 -23 10 -51 10 -57 0 -57 8 1 45 43 27 56 55
40 85 -16 31 -75 28 -96 -5z"/>
<path d="M12470 3051 c0 -5 -9 -13 -20 -16 -11 -3 -20 -11 -20 -16 0 -5 9 -9
20 -9 18 0 20 -7 20 -60 0 -33 4 -60 10 -60 6 0 10 35 10 85 0 50 -4 85 -10
85 -5 0 -10 -4 -10 -9z"/>
<path d="M11790 2401 c0 -5 -9 -13 -20 -16 -11 -3 -20 -11 -20 -16 0 -5 9 -9
20 -9 18 0 20 -7 20 -60 0 -33 4 -60 10 -60 6 0 10 35 10 85 0 50 -4 85 -10
85 -5 0 -10 -4 -10 -9z"/>
</g>
</svg>
